%TF.GenerationSoftware,KiCad,Pcbnew,8.0.0*%
%TF.CreationDate,2024-03-04T10:44:03-06:00*%
%TF.ProjectId,controlSemaforicoMEga,636f6e74-726f-46c5-9365-6d61666f7269,rev?*%
%TF.SameCoordinates,PX4ef7d2aPY852b4f0*%
%TF.FileFunction,Copper,L1,Top*%
%TF.FilePolarity,Positive*%
%FSLAX46Y46*%
G04 Gerber Fmt 4.6, Leading zero omitted, Abs format (unit mm)*
G04 Created by KiCad (PCBNEW 8.0.0) date 2024-03-04 10:44:03*
%MOMM*%
%LPD*%
G01*
G04 APERTURE LIST*
%TA.AperFunction,ComponentPad*%
%ADD10O,1.727200X1.727200*%
%TD*%
%TA.AperFunction,ComponentPad*%
%ADD11R,1.727200X1.727200*%
%TD*%
%TA.AperFunction,ComponentPad*%
%ADD12R,1.700000X1.700000*%
%TD*%
%TA.AperFunction,ComponentPad*%
%ADD13O,1.700000X1.700000*%
%TD*%
%TA.AperFunction,SMDPad,CuDef*%
%ADD14R,3.000000X13.000000*%
%TD*%
%TA.AperFunction,SMDPad,CuDef*%
%ADD15O,3.000000X13.000000*%
%TD*%
%TA.AperFunction,ViaPad*%
%ADD16C,0.800000*%
%TD*%
%TA.AperFunction,Conductor*%
%ADD17C,1.000000*%
%TD*%
%TA.AperFunction,Conductor*%
%ADD18C,0.250000*%
%TD*%
%TA.AperFunction,Conductor*%
%ADD19C,0.800000*%
%TD*%
G04 APERTURE END LIST*
D10*
%TO.P,A1,*%
%TO.N,*%
X76707990Y67460000D03*
%TO.P,A1,3V3,3.3V*%
%TO.N,unconnected-(A1-3.3V-Pad3V3)*%
X69087990Y67460000D03*
%TO.P,A1,5V1,5V*%
%TO.N,VCC*%
X66547990Y67460000D03*
%TO.P,A1,5V2,SPI_5V*%
%TO.N,unconnected-(A1-SPI_5V-Pad5V2)*%
X38480990Y39520000D03*
%TO.P,A1,5V3,5V*%
%TO.N,VCC*%
X10667990Y19200000D03*
%TO.P,A1,5V4,5V*%
X8127990Y19200000D03*
%TO.P,A1,A0,A0*%
%TO.N,unconnected-(A1-PadA0)*%
X53847990Y67460000D03*
%TO.P,A1,A1,A1*%
%TO.N,unconnected-(A1-PadA1)*%
X51307990Y67460000D03*
%TO.P,A1,A2,A2*%
%TO.N,unconnected-(A1-PadA2)*%
X48767990Y67460000D03*
%TO.P,A1,A3,A3*%
%TO.N,unconnected-(A1-PadA3)*%
X46227990Y67460000D03*
%TO.P,A1,A4,A4*%
%TO.N,unconnected-(A1-PadA4)*%
X43687990Y67460000D03*
%TO.P,A1,A5,A5*%
%TO.N,unconnected-(A1-PadA5)*%
X41147990Y67460000D03*
%TO.P,A1,A6,A6*%
%TO.N,unconnected-(A1-PadA6)*%
X38607990Y67460000D03*
%TO.P,A1,A7,A7*%
%TO.N,unconnected-(A1-PadA7)*%
X36067990Y67460000D03*
%TO.P,A1,A8,A8*%
%TO.N,unconnected-(A1-PadA8)*%
X30987990Y67460000D03*
%TO.P,A1,A9,A9*%
%TO.N,unconnected-(A1-PadA9)*%
X28447990Y67460000D03*
%TO.P,A1,A10,A10*%
%TO.N,unconnected-(A1-PadA10)*%
X25907990Y67460000D03*
%TO.P,A1,A11,A11*%
%TO.N,unconnected-(A1-PadA11)*%
X23367990Y67460000D03*
%TO.P,A1,A12,A12*%
%TO.N,unconnected-(A1-PadA12)*%
X20827990Y67460000D03*
%TO.P,A1,A13,A13*%
%TO.N,unconnected-(A1-PadA13)*%
X18287990Y67460000D03*
%TO.P,A1,A14,A14*%
%TO.N,unconnected-(A1-PadA14)*%
X15747990Y67460000D03*
%TO.P,A1,A15,A15*%
%TO.N,unconnected-(A1-PadA15)*%
X13207990Y67460000D03*
%TO.P,A1,AREF,AREF*%
%TO.N,unconnected-(A1-PadAREF)*%
X80771990Y19200000D03*
%TO.P,A1,D0,D0/RX0*%
%TO.N,unconnected-(A1-D0{slash}RX0-PadD0)*%
X41147990Y19200000D03*
%TO.P,A1,D1,D1/TX0*%
%TO.N,unconnected-(A1-D1{slash}TX0-PadD1)*%
X43687990Y19200000D03*
%TO.P,A1,D2,D2_INT0*%
%TO.N,Net-(A1-D2_INT0)*%
X46227990Y19200000D03*
%TO.P,A1,D3,D3_INT1*%
%TO.N,Net-(A1-D3_INT1)*%
X48767990Y19200000D03*
%TO.P,A1,D4,D4*%
%TO.N,Net-(J2-Pin_4)*%
X51307990Y19200000D03*
%TO.P,A1,D5,D5*%
%TO.N,Net-(J2-Pin_5)*%
X53847990Y19200000D03*
%TO.P,A1,D6,D6*%
%TO.N,Net-(J2-Pin_6)*%
X56387990Y19200000D03*
%TO.P,A1,D7,D7*%
%TO.N,Net-(J2-Pin_7)*%
X58927990Y19200000D03*
%TO.P,A1,D8,D8*%
%TO.N,Net-(J2-Pin_8)*%
X62991990Y19200000D03*
%TO.P,A1,D9,D9*%
%TO.N,Net-(J2-Pin_9)*%
X65531990Y19200000D03*
%TO.P,A1,D10,D10*%
%TO.N,Net-(J2-Pin_10)*%
X68071990Y19200000D03*
%TO.P,A1,D11,D11*%
%TO.N,Net-(J2-Pin_11)*%
X70611990Y19200000D03*
%TO.P,A1,D12,D12*%
%TO.N,Net-(J2-Pin_12)*%
X73151990Y19200000D03*
%TO.P,A1,D13,D13*%
%TO.N,Net-(J2-Pin_13)*%
X75691990Y19200000D03*
%TO.P,A1,D14,D14/TX3*%
%TO.N,unconnected-(A1-D14{slash}TX3-PadD14)*%
X36067990Y19200000D03*
%TO.P,A1,D15,D15/RX3*%
%TO.N,unconnected-(A1-D15{slash}RX3-PadD15)*%
X33527990Y19200000D03*
%TO.P,A1,D16,D16/TX2*%
%TO.N,unconnected-(A1-D16{slash}TX2-PadD16)*%
X30987990Y19200000D03*
%TO.P,A1,D17,D17/RX2*%
%TO.N,unconnected-(A1-D17{slash}RX2-PadD17)*%
X28447990Y19200000D03*
%TO.P,A1,D18,D18/TX1*%
%TO.N,Net-(A1-D18{slash}TX1)*%
X25907990Y19200000D03*
%TO.P,A1,D19,D19/RX1*%
%TO.N,Net-(A1-D19{slash}RX1)*%
X23367990Y19200000D03*
%TO.P,A1,D20,D20/SDA*%
%TO.N,unconnected-(A1-D20{slash}SDA-PadD20)*%
X20827990Y19200000D03*
%TO.P,A1,D21,D21/SCL*%
%TO.N,unconnected-(A1-D21{slash}SCL-PadD21)*%
X18287990Y19200000D03*
%TO.P,A1,D22,D22*%
%TO.N,Net-(J2-Pin_14)*%
X10667990Y21740000D03*
%TO.P,A1,D23,D23*%
%TO.N,Net-(J2-Pin_15)*%
X8127990Y21740000D03*
%TO.P,A1,D24,D24*%
%TO.N,Net-(J2-Pin_16)*%
X10667990Y24280000D03*
%TO.P,A1,D25,D25*%
%TO.N,Net-(J2-Pin_17)*%
X8127990Y24280000D03*
%TO.P,A1,D26,D26*%
%TO.N,Net-(J2-Pin_18)*%
X10667990Y26820000D03*
%TO.P,A1,D27,D27*%
%TO.N,Net-(J2-Pin_19)*%
X8127990Y26820000D03*
%TO.P,A1,D28,D28*%
%TO.N,Net-(J2-Pin_20)*%
X10667990Y29360000D03*
%TO.P,A1,D29,D29*%
%TO.N,Net-(J2-Pin_21)*%
X8127990Y29360000D03*
%TO.P,A1,D30,D30*%
%TO.N,Net-(J2-Pin_23)*%
X10667990Y31900000D03*
%TO.P,A1,D31,D31*%
%TO.N,Net-(J2-Pin_24)*%
X8127990Y31900000D03*
%TO.P,A1,D32,D32*%
%TO.N,Net-(J2-Pin_25)*%
X10667990Y34440000D03*
%TO.P,A1,D33,D33*%
%TO.N,Net-(J2-Pin_26)*%
X8127990Y34440000D03*
%TO.P,A1,D34,D34*%
%TO.N,Net-(J2-Pin_27)*%
X10667990Y36980000D03*
%TO.P,A1,D35,D35*%
%TO.N,Net-(J2-Pin_28)*%
X8127990Y36980000D03*
%TO.P,A1,D36,D36*%
%TO.N,Net-(J2-Pin_29)*%
X10667990Y39520000D03*
%TO.P,A1,D37,D37*%
%TO.N,Net-(J2-Pin_30)*%
X8127990Y39520000D03*
%TO.P,A1,D38,D38*%
%TO.N,Net-(J2-Pin_31)*%
X10667990Y42060000D03*
%TO.P,A1,D39,D39*%
%TO.N,Net-(J2-Pin_32)*%
X8127990Y42060000D03*
%TO.P,A1,D40,D40*%
%TO.N,Net-(J2-Pin_33)*%
X10667990Y44600000D03*
%TO.P,A1,D41,D41*%
%TO.N,Net-(J2-Pin_34)*%
X8127990Y44600000D03*
%TO.P,A1,D42,D42*%
%TO.N,unconnected-(A1-PadD42)*%
X10667990Y47140000D03*
%TO.P,A1,D43,D43*%
%TO.N,unconnected-(A1-PadD43)*%
X8127990Y47140000D03*
%TO.P,A1,D44,D44*%
%TO.N,unconnected-(A1-PadD44)*%
X10667990Y49680000D03*
%TO.P,A1,D45,D45*%
%TO.N,unconnected-(A1-PadD45)*%
X8127990Y49680000D03*
%TO.P,A1,D46,D46*%
%TO.N,unconnected-(A1-PadD46)*%
X10667990Y52220000D03*
%TO.P,A1,D47,D47*%
%TO.N,unconnected-(A1-PadD47)*%
X8127990Y52220000D03*
%TO.P,A1,D48,D48*%
%TO.N,unconnected-(A1-PadD48)*%
X10667990Y54760000D03*
%TO.P,A1,D49,D49*%
%TO.N,unconnected-(A1-PadD49)*%
X8127990Y54760000D03*
%TO.P,A1,D50,D50_MISO*%
%TO.N,Net-(A1-D50_MISO)*%
X10667990Y57300000D03*
%TO.P,A1,D51,D51_MOSI*%
%TO.N,Net-(A1-D51_MOSI)*%
X8127990Y57300000D03*
%TO.P,A1,D52,D52_SCK*%
%TO.N,Net-(A1-D52_SCK)*%
X10667990Y59840000D03*
%TO.P,A1,D53,D53_CS*%
%TO.N,Net-(A1-D53_CS)*%
X8127990Y59840000D03*
D11*
%TO.P,A1,GND1,GND*%
%TO.N,unconnected-(A1-GND-PadGND1)*%
X78231990Y19200000D03*
%TO.P,A1,GND2,GND*%
%TO.N,unconnected-(A1-GND-PadGND2)*%
X64007990Y67460000D03*
%TO.P,A1,GND3,GND*%
%TO.N,GND*%
X61467990Y67460000D03*
%TO.P,A1,GND4,SPI_GND*%
%TO.N,unconnected-(A1-SPI_GND-PadGND4)*%
X38480990Y44600000D03*
%TO.P,A1,GND5,GND*%
%TO.N,unconnected-(A1-GND-PadGND5)*%
X10667990Y62380000D03*
%TO.P,A1,GND6,GND*%
%TO.N,unconnected-(A1-GND-PadGND6)*%
X8127990Y62380000D03*
D10*
%TO.P,A1,IORF,IOREF*%
%TO.N,unconnected-(A1-IOREF-PadIORF)*%
X74167990Y67460000D03*
%TO.P,A1,MISO,SPI_MISO*%
%TO.N,unconnected-(A1-SPI_MISO-PadMISO)*%
X41020990Y39520000D03*
%TO.P,A1,MOSI,SPI_MOSI*%
%TO.N,unconnected-(A1-SPI_MOSI-PadMOSI)*%
X38480990Y42060000D03*
%TO.P,A1,RST1,RESET*%
%TO.N,unconnected-(A1-RESET-PadRST1)*%
X71627990Y67460000D03*
%TO.P,A1,RST2,SPI_RESET*%
%TO.N,unconnected-(A1-SPI_RESET-PadRST2)*%
X41020990Y44600000D03*
%TO.P,A1,SCK,SPI_SCK*%
%TO.N,unconnected-(A1-SPI_SCK-PadSCK)*%
X41020990Y42060000D03*
%TO.P,A1,SCL,SCL*%
%TO.N,Net-(J4-Pin_4)*%
X85851990Y19200000D03*
%TO.P,A1,SDA,SDA*%
%TO.N,Net-(J4-Pin_3)*%
X83311990Y19200000D03*
%TO.P,A1,VIN,VIN*%
%TO.N,unconnected-(A1-PadVIN)*%
X58927990Y67460000D03*
%TD*%
D12*
%TO.P,J6,1,Pin_1*%
%TO.N,GND*%
X50000000Y87380000D03*
D13*
%TO.P,J6,2,Pin_2*%
%TO.N,VCC*%
X50000000Y89920000D03*
%TO.P,J6,3,Pin_3*%
%TO.N,Net-(J4-Pin_4)*%
X50000000Y92460000D03*
%TO.P,J6,4,Pin_4*%
%TO.N,Net-(J4-Pin_3)*%
X50000000Y95000000D03*
%TD*%
D12*
%TO.P,J1,1,Pin_1*%
%TO.N,GND*%
X43195990Y78638000D03*
D13*
%TO.P,J1,2,Pin_2*%
%TO.N,VCC*%
X43195990Y81178000D03*
%TO.P,J1,3,Pin_3*%
%TO.N,Net-(A1-D50_MISO)*%
X43195990Y83718000D03*
%TO.P,J1,4,Pin_4*%
%TO.N,Net-(A1-D51_MOSI)*%
X43195990Y86258000D03*
%TO.P,J1,5,Pin_5*%
%TO.N,Net-(A1-D52_SCK)*%
X43195990Y88798000D03*
%TO.P,J1,6,Pin_6*%
%TO.N,Net-(A1-D53_CS)*%
X43195990Y91338000D03*
%TD*%
D12*
%TO.P,J5,1,Pin_1*%
%TO.N,GND*%
X110800000Y96000000D03*
D13*
%TO.P,J5,2,Pin_2*%
%TO.N,VCC*%
X108260000Y96000000D03*
%TO.P,J5,3,Pin_3*%
%TO.N,Net-(J4-Pin_4)*%
X105720000Y96000000D03*
%TO.P,J5,4,Pin_4*%
%TO.N,Net-(J4-Pin_3)*%
X103180000Y96000000D03*
%TD*%
D14*
%TO.P,J2,1,Pin_1*%
%TO.N,VCC*%
X15900000Y700000D03*
D15*
%TO.P,J2,2,Pin_2*%
%TO.N,Net-(A1-D2_INT0)*%
X19860000Y700000D03*
%TO.P,J2,3,Pin_3*%
%TO.N,Net-(A1-D3_INT1)*%
X23820000Y700000D03*
%TO.P,J2,4,Pin_4*%
%TO.N,Net-(J2-Pin_4)*%
X27780000Y700000D03*
%TO.P,J2,5,Pin_5*%
%TO.N,Net-(J2-Pin_5)*%
X31740000Y700000D03*
%TO.P,J2,6,Pin_6*%
%TO.N,Net-(J2-Pin_6)*%
X35700000Y700000D03*
%TO.P,J2,7,Pin_7*%
%TO.N,Net-(J2-Pin_7)*%
X39660000Y700000D03*
%TO.P,J2,8,Pin_8*%
%TO.N,Net-(J2-Pin_8)*%
X43620000Y700000D03*
%TO.P,J2,9,Pin_9*%
%TO.N,Net-(J2-Pin_9)*%
X47580000Y700000D03*
D14*
%TO.P,J2,10,Pin_10*%
%TO.N,Net-(J2-Pin_10)*%
X51540000Y700000D03*
D15*
%TO.P,J2,11,Pin_11*%
%TO.N,Net-(J2-Pin_11)*%
X55500000Y700000D03*
%TO.P,J2,12,Pin_12*%
%TO.N,Net-(J2-Pin_12)*%
X59460000Y700000D03*
%TO.P,J2,13,Pin_13*%
%TO.N,Net-(J2-Pin_13)*%
X63420000Y700000D03*
%TO.P,J2,14,Pin_14*%
%TO.N,Net-(J2-Pin_14)*%
X67379990Y700000D03*
%TO.P,J2,15,Pin_15*%
%TO.N,Net-(J2-Pin_15)*%
X71339990Y700000D03*
%TO.P,J2,16,Pin_16*%
%TO.N,Net-(J2-Pin_16)*%
X75299990Y700000D03*
%TO.P,J2,17,Pin_17*%
%TO.N,Net-(J2-Pin_17)*%
X79259990Y700000D03*
%TO.P,J2,18,Pin_18*%
%TO.N,Net-(J2-Pin_18)*%
X83219990Y700000D03*
%TO.P,J2,19,Pin_19*%
%TO.N,Net-(J2-Pin_19)*%
X87179990Y700000D03*
D14*
%TO.P,J2,20,Pin_20*%
%TO.N,Net-(J2-Pin_20)*%
X91139990Y700000D03*
D15*
%TO.P,J2,21,Pin_21*%
%TO.N,Net-(J2-Pin_21)*%
X95099990Y700000D03*
%TO.P,J2,22,Pin_22*%
%TO.N,GND*%
X99059990Y700000D03*
%TD*%
D12*
%TO.P,J3,1,Pin_1*%
%TO.N,GND*%
X57000000Y80960000D03*
D13*
%TO.P,J3,2,Pin_2*%
%TO.N,Net-(A1-D19{slash}RX1)*%
X57000000Y83500000D03*
%TO.P,J3,3,Pin_3*%
%TO.N,Net-(A1-D18{slash}TX1)*%
X57000000Y86040000D03*
%TO.P,J3,4,Pin_4*%
%TO.N,VCC*%
X57000000Y88580000D03*
%TD*%
D12*
%TO.P,J4,1,Pin_1*%
%TO.N,GND*%
X74500000Y80380000D03*
D13*
%TO.P,J4,2,Pin_2*%
%TO.N,VCC*%
X74500000Y82920000D03*
%TO.P,J4,3,Pin_3*%
%TO.N,Net-(J4-Pin_3)*%
X74500000Y85460000D03*
%TO.P,J4,4,Pin_4*%
%TO.N,Net-(J4-Pin_4)*%
X74500000Y88000000D03*
%TD*%
D16*
%TO.N,Net-(A1-D19{slash}RX1)*%
X14500000Y16138000D03*
%TO.N,Net-(A1-D18{slash}TX1)*%
X14500000Y14638000D03*
%TO.N,Net-(J4-Pin_4)*%
X69500000Y88500000D03*
%TD*%
D17*
%TO.N,VCC*%
X15900000Y10453990D02*
X15900000Y700000D01*
D18*
X56500000Y70500000D02*
X65500000Y70500000D01*
X66547990Y69452010D02*
X66547990Y67460000D01*
D17*
X10667990Y15686000D02*
X15900000Y10453990D01*
D18*
X55660000Y89920000D02*
X57000000Y88580000D01*
X50000000Y89920000D02*
X55660000Y89920000D01*
D17*
X10667990Y15686000D02*
X10667990Y19200000D01*
D18*
X65500000Y70500000D02*
X66547990Y69452010D01*
X45822000Y81178000D02*
X56500000Y70500000D01*
X43195990Y81178000D02*
X45500000Y81178000D01*
X45678000Y81178000D02*
X45500000Y81178000D01*
X8127990Y19200000D02*
X10667990Y19200000D01*
X108260000Y92260000D02*
X108260000Y96000000D01*
D17*
X15900000Y700000D02*
X15900000Y6389600D01*
D18*
X98920000Y82920000D02*
X108260000Y92260000D01*
X74500000Y82920000D02*
X98920000Y82920000D01*
X45500000Y81178000D02*
X45822000Y81178000D01*
%TO.N,Net-(A1-D2_INT0)*%
X19860000Y296000D02*
X19964000Y192000D01*
X43027990Y16000000D02*
X28573000Y16000000D01*
X19860000Y7287000D02*
X19860000Y700000D01*
X28573000Y16000000D02*
X19860000Y7287000D01*
X46227990Y19200000D02*
X43027990Y16000000D01*
X19860000Y700000D02*
X19860000Y296000D01*
%TO.N,Net-(A1-D3_INT1)*%
X48767990Y19200000D02*
X45067990Y15500000D01*
X23820000Y7437000D02*
X23820000Y700000D01*
X31883000Y15500000D02*
X23820000Y7437000D01*
X45067990Y15500000D02*
X31883000Y15500000D01*
%TO.N,Net-(A1-D19{slash}RX1)*%
X22138000Y16138000D02*
X14500000Y16138000D01*
X23367990Y19200000D02*
X23367990Y17367990D01*
X23367990Y17367990D02*
X22138000Y16138000D01*
%TO.N,Net-(A1-D18{slash}TX1)*%
X25907990Y16407990D02*
X24138000Y14638000D01*
X25907990Y19200000D02*
X25907990Y16407990D01*
X24138000Y14638000D02*
X14500000Y14638000D01*
%TO.N,Net-(J2-Pin_4)*%
X47107990Y15000000D02*
X35066000Y15000000D01*
X51307990Y19200000D02*
X47107990Y15000000D01*
X35066000Y15000000D02*
X27780000Y7714000D01*
X27780000Y7714000D02*
X27780000Y700000D01*
%TO.N,Net-(J2-Pin_5)*%
X31740000Y7483000D02*
X31740000Y700000D01*
X53847990Y19200000D02*
X49147990Y14500000D01*
X38757000Y14500000D02*
X31740000Y7483000D01*
X49147990Y14500000D02*
X38757000Y14500000D01*
%TO.N,Net-(J2-Pin_6)*%
X51187990Y14000000D02*
X42067000Y14000000D01*
X42067000Y14000000D02*
X35700000Y7633000D01*
X56387990Y19200000D02*
X51187990Y14000000D01*
X35700000Y7633000D02*
X35700000Y700000D01*
%TO.N,Net-(J2-Pin_7)*%
X45504000Y13500000D02*
X39660000Y7656000D01*
X53227990Y13500000D02*
X45504000Y13500000D01*
X39660000Y7656000D02*
X39660000Y700000D01*
X58927990Y19200000D02*
X53227990Y13500000D01*
%TO.N,Net-(J2-Pin_8)*%
X43620000Y7679000D02*
X43620000Y700000D01*
X56791990Y13000000D02*
X48941000Y13000000D01*
X62991990Y19200000D02*
X56791990Y13000000D01*
X48941000Y13000000D02*
X43620000Y7679000D01*
%TO.N,Net-(J2-Pin_9)*%
X58831990Y12500000D02*
X52505000Y12500000D01*
X47580000Y7575000D02*
X47580000Y700000D01*
X52505000Y12500000D02*
X47580000Y7575000D01*
X65531990Y19200000D02*
X58831990Y12500000D01*
%TO.N,Net-(J2-Pin_10)*%
X51169990Y1070010D02*
X51540000Y700000D01*
X60871990Y12000000D02*
X56196000Y12000000D01*
X56196000Y12000000D02*
X51540000Y7344000D01*
X51540000Y7344000D02*
X51540000Y700000D01*
X68071990Y19200000D02*
X60871990Y12000000D01*
%TO.N,Net-(J2-Pin_11)*%
X62911990Y11500000D02*
X59633000Y11500000D01*
X59633000Y11500000D02*
X55500000Y7367000D01*
X70611990Y19200000D02*
X62911990Y11500000D01*
X55500000Y7367000D02*
X55500000Y700000D01*
%TO.N,Net-(J2-Pin_12)*%
X60059990Y1299990D02*
X59460000Y700000D01*
X59424990Y735010D02*
X59460000Y700000D01*
D19*
X60096000Y1336000D02*
X59460000Y700000D01*
D18*
X59460000Y7009000D02*
X59460000Y700000D01*
X73151990Y19200000D02*
X64951990Y11000000D01*
X64951990Y11000000D02*
X63451000Y11000000D01*
X63451000Y11000000D02*
X59460000Y7009000D01*
%TO.N,Net-(J2-Pin_13)*%
X75691990Y19200000D02*
X63420000Y6928010D01*
X63420000Y6928010D02*
X63420000Y700000D01*
%TO.N,Net-(J2-Pin_14)*%
X92202000Y21082000D02*
X92202000Y16637000D01*
X10667990Y21740000D02*
X91544000Y21740000D01*
X92202000Y16637000D02*
X91186000Y15621000D01*
X91544000Y21740000D02*
X92202000Y21082000D01*
X74295000Y15621000D02*
X67379990Y8705990D01*
X91186000Y15621000D02*
X74295000Y15621000D01*
X67379990Y8705990D02*
X67379990Y700000D01*
%TO.N,Net-(J2-Pin_15)*%
X71339990Y10506990D02*
X71339990Y700000D01*
X92075000Y14859000D02*
X75692000Y14859000D01*
X93218000Y21717000D02*
X93218000Y16002000D01*
X8127990Y21740000D02*
X9366590Y22978600D01*
X93218000Y16002000D02*
X92075000Y14859000D01*
X9366590Y22978600D02*
X91956400Y22978600D01*
X75692000Y14859000D02*
X71339990Y10506990D01*
X91956400Y22978600D02*
X93218000Y21717000D01*
%TO.N,Net-(J2-Pin_16)*%
X91925000Y24280000D02*
X94107000Y22098000D01*
X77089000Y14097000D02*
X75299990Y12307990D01*
X75299990Y12307990D02*
X75299990Y700000D01*
X10667990Y24280000D02*
X91925000Y24280000D01*
X92710000Y14097000D02*
X77089000Y14097000D01*
X94107000Y15494000D02*
X92710000Y14097000D01*
X94107000Y22098000D02*
X94107000Y15494000D01*
%TO.N,Net-(J2-Pin_17)*%
X9366590Y25518600D02*
X91956400Y25518600D01*
X94996000Y15240000D02*
X93091000Y13335000D01*
X91956400Y25518600D02*
X94996000Y22479000D01*
X79259990Y11695990D02*
X79259990Y700000D01*
X93091000Y13335000D02*
X80899000Y13335000D01*
X8127990Y24280000D02*
X9366590Y25518600D01*
X80899000Y13335000D02*
X79259990Y11695990D01*
X94996000Y22479000D02*
X94996000Y15240000D01*
%TO.N,Net-(A1-D51_MOSI)*%
X46000000Y87500000D02*
X46000000Y93000000D01*
X12500000Y94000000D02*
X3500000Y85000000D01*
X43195990Y86258000D02*
X44758000Y86258000D01*
X44758000Y86258000D02*
X46000000Y87500000D01*
X3500000Y85000000D02*
X3500000Y60000000D01*
X3500000Y60000000D02*
X6200000Y57300000D01*
X6200000Y57300000D02*
X8127990Y57300000D01*
X45000000Y94000000D02*
X12500000Y94000000D01*
X46000000Y93000000D02*
X45000000Y94000000D01*
%TO.N,Net-(A1-D50_MISO)*%
X14000000Y64000000D02*
X14000000Y59500000D01*
X11500000Y76500000D02*
X11500000Y66500000D01*
X43195990Y83718000D02*
X18718000Y83718000D01*
X14000000Y59500000D02*
X11800000Y57300000D01*
X11500000Y66500000D02*
X14000000Y64000000D01*
X18718000Y83718000D02*
X11500000Y76500000D01*
X11800000Y57300000D02*
X10667990Y57300000D01*
%TO.N,Net-(A1-D53_CS)*%
X43195990Y91338000D02*
X11838000Y91338000D01*
X11838000Y91338000D02*
X4500000Y84000000D01*
X4500000Y84000000D02*
X4500000Y61500000D01*
X4500000Y61500000D02*
X6160000Y59840000D01*
X6160000Y59840000D02*
X8127990Y59840000D01*
%TO.N,Net-(A1-D52_SCK)*%
X13000000Y63500000D02*
X13000000Y61000000D01*
X13000000Y61000000D02*
X11840000Y59840000D01*
X10500000Y66000000D02*
X13000000Y63500000D01*
X10500000Y83500000D02*
X10500000Y66000000D01*
X11840000Y59840000D02*
X10667990Y59840000D01*
X43195990Y88798000D02*
X15798000Y88798000D01*
X15798000Y88798000D02*
X10500000Y83500000D01*
D17*
%TO.N,GND*%
X99059990Y700000D02*
X99059990Y9270990D01*
D18*
%TO.N,Net-(J2-Pin_18)*%
X91798000Y26820000D02*
X95885000Y22733000D01*
X83219990Y11083990D02*
X83219990Y700000D01*
X84709000Y12573000D02*
X83219990Y11083990D01*
X10667990Y26820000D02*
X91798000Y26820000D01*
X95885000Y22733000D02*
X95885000Y14859000D01*
X95885000Y14859000D02*
X93599000Y12573000D01*
X93599000Y12573000D02*
X84709000Y12573000D01*
%TO.N,Net-(J2-Pin_19)*%
X8127990Y26820000D02*
X9366590Y28058600D01*
X9366590Y28058600D02*
X92210400Y28058600D01*
X88646000Y11176000D02*
X87179990Y9709990D01*
X96774000Y14097000D02*
X93853000Y11176000D01*
X93853000Y11176000D02*
X88646000Y11176000D01*
X92210400Y28058600D02*
X96774000Y23495000D01*
X87179990Y9709990D02*
X87179990Y700000D01*
X96774000Y23495000D02*
X96774000Y14097000D01*
%TO.N,Net-(J2-Pin_20)*%
X97663000Y13335000D02*
X94107000Y9779000D01*
X92814000Y29360000D02*
X97663000Y24511000D01*
X97663000Y24511000D02*
X97663000Y13335000D01*
X91139990Y8335990D02*
X91139990Y700000D01*
X94107000Y9779000D02*
X92583000Y9779000D01*
X10667990Y29360000D02*
X92814000Y29360000D01*
X92583000Y9779000D02*
X91139990Y8335990D01*
%TO.N,Net-(J2-Pin_21)*%
X95099990Y9247990D02*
X95099990Y700000D01*
X98552000Y25400000D02*
X98552000Y12700000D01*
X98552000Y12700000D02*
X95099990Y9247990D01*
X9366590Y30598600D02*
X93353400Y30598600D01*
X93353400Y30598600D02*
X98552000Y25400000D01*
X8127990Y29360000D02*
X9366590Y30598600D01*
%TO.N,Net-(J2-Pin_31)*%
X10687990Y41066000D02*
X10667990Y41086000D01*
%TO.N,Net-(J4-Pin_3)*%
X72250000Y90250000D02*
X72000000Y90000000D01*
X75000000Y95000000D02*
X76000000Y94000000D01*
X50000000Y95000000D02*
X75000000Y95000000D01*
X76000000Y94000000D02*
X72250000Y90250000D01*
X72000000Y90000000D02*
X72000000Y86500000D01*
X103180000Y96000000D02*
X101180000Y94000000D01*
X72000000Y86500000D02*
X73040000Y85460000D01*
X101180000Y94000000D02*
X76000000Y94000000D01*
X73040000Y85460000D02*
X74500000Y85460000D01*
%TO.N,Net-(J4-Pin_4)*%
X100000000Y88000000D02*
X105720000Y93720000D01*
X74500000Y88000000D02*
X100000000Y88000000D01*
X50000000Y92460000D02*
X65540000Y92460000D01*
X65540000Y92460000D02*
X69500000Y88500000D01*
X105720000Y93720000D02*
X105720000Y96000000D01*
%TD*%
%TA.AperFunction,Conductor*%
%TO.N,GND*%
G36*
X112876278Y97963046D02*
G01*
X112957060Y97909070D01*
X113011036Y97828288D01*
X113029990Y97733000D01*
X113029990Y6283000D01*
X113011036Y6187712D01*
X112957060Y6106930D01*
X112876278Y6052954D01*
X112780990Y6034000D01*
X103123956Y6034000D01*
X101269474Y5941275D01*
X101173359Y5955447D01*
X101089983Y6005322D01*
X101032039Y6083307D01*
X101016524Y6125519D01*
X100957915Y6344254D01*
X100857579Y6586484D01*
X100726502Y6813515D01*
X100566893Y7021524D01*
X100381513Y7206904D01*
X100173504Y7366513D01*
X100173504Y7366514D01*
X99946473Y7497590D01*
X99704243Y7597926D01*
X99451002Y7665780D01*
X99451004Y7665780D01*
X99191078Y7700000D01*
X98928902Y7700000D01*
X98668976Y7665780D01*
X98415736Y7597926D01*
X98173506Y7497590D01*
X97946475Y7366514D01*
X97946475Y7366513D01*
X97738466Y7206904D01*
X97553086Y7021524D01*
X97393479Y6813518D01*
X97295918Y6644538D01*
X97231859Y6571493D01*
X97144723Y6528523D01*
X97047776Y6522169D01*
X96955777Y6553399D01*
X96882732Y6617458D01*
X96864640Y6644535D01*
X96766914Y6813803D01*
X96766910Y6813808D01*
X96766907Y6813813D01*
X96607276Y7021846D01*
X96607274Y7021848D01*
X96607272Y7021851D01*
X96421841Y7207282D01*
X96421836Y7207286D01*
X96421835Y7207287D01*
X96213802Y7366918D01*
X96213788Y7366927D01*
X96115033Y7423943D01*
X95986687Y7498043D01*
X95986685Y7498044D01*
X95986683Y7498045D01*
X95986676Y7498049D01*
X95879200Y7542567D01*
X95798419Y7596543D01*
X95744443Y7677325D01*
X95725490Y7772612D01*
X95725490Y8885760D01*
X95744444Y8981048D01*
X95798420Y9061830D01*
X97362090Y10625500D01*
X99037857Y12301266D01*
X99048737Y12317548D01*
X99106311Y12403714D01*
X99153463Y12517548D01*
X99177500Y12638394D01*
X99177500Y25326085D01*
X99177501Y25326106D01*
X99177501Y25461604D01*
X99173067Y25483897D01*
X99153910Y25580206D01*
X99153463Y25582452D01*
X99115498Y25674107D01*
X99106312Y25696285D01*
X99037858Y25798733D01*
X93839259Y30997331D01*
X93839258Y30997333D01*
X93752133Y31084458D01*
X93700909Y31118685D01*
X93700216Y31119148D01*
X93649688Y31152911D01*
X93649686Y31152912D01*
X93569192Y31186253D01*
X93569191Y31186254D01*
X93550954Y31193808D01*
X93535852Y31200063D01*
X93535849Y31200064D01*
X93535846Y31200065D01*
X93475432Y31212082D01*
X93415012Y31224100D01*
X93415007Y31224100D01*
X93415006Y31224100D01*
X12223903Y31224100D01*
X12128615Y31243054D01*
X12047833Y31297030D01*
X11993857Y31377812D01*
X11974903Y31473100D01*
X11982522Y31534226D01*
X12018097Y31674707D01*
X12036765Y31900000D01*
X12018097Y32125293D01*
X11962601Y32344441D01*
X11962599Y32344446D01*
X11962595Y32344456D01*
X11871798Y32551452D01*
X11871789Y32551470D01*
X11785241Y32683941D01*
X11748146Y32740719D01*
X11603304Y32898059D01*
X11595043Y32907033D01*
X11595040Y32907035D01*
X11595036Y32907040D01*
X11509638Y32973509D01*
X11446089Y33046989D01*
X11415494Y33139201D01*
X11422516Y33236102D01*
X11466086Y33322940D01*
X11509636Y33366491D01*
X11595036Y33432960D01*
X11748146Y33599281D01*
X11871792Y33788535D01*
X11962601Y33995559D01*
X12018097Y34214707D01*
X12026715Y34318713D01*
X36757490Y34318713D01*
X36789152Y34078210D01*
X36789153Y34078205D01*
X36851930Y33843918D01*
X36851938Y33843895D01*
X36944760Y33619799D01*
X36944768Y33619783D01*
X37066048Y33409721D01*
X37066054Y33409711D01*
X37213719Y33217269D01*
X37213728Y33217259D01*
X37385248Y33045739D01*
X37385258Y33045730D01*
X37422623Y33017059D01*
X37577701Y32898064D01*
X37577710Y32898059D01*
X37787772Y32776779D01*
X37787788Y32776771D01*
X37892265Y32733496D01*
X38011890Y32683946D01*
X38011901Y32683943D01*
X38011907Y32683941D01*
X38195011Y32634879D01*
X38246201Y32621162D01*
X38486702Y32589500D01*
X38729278Y32589500D01*
X38969779Y32621162D01*
X39145897Y32668353D01*
X39204072Y32683941D01*
X39204074Y32683942D01*
X39204090Y32683946D01*
X39355756Y32746769D01*
X39428191Y32776771D01*
X39428196Y32776774D01*
X39428202Y32776776D01*
X39638279Y32898064D01*
X39830728Y33045735D01*
X40002255Y33217262D01*
X40149926Y33409711D01*
X40271214Y33619788D01*
X40271740Y33621056D01*
X40341111Y33788535D01*
X40364044Y33843900D01*
X40426828Y34078211D01*
X40458490Y34318712D01*
X40458490Y34561288D01*
X40426828Y34801789D01*
X40364044Y35036100D01*
X40289433Y35216228D01*
X40271219Y35260202D01*
X40271211Y35260218D01*
X40149931Y35470280D01*
X40149925Y35470290D01*
X40002260Y35662732D01*
X40002251Y35662742D01*
X39830731Y35834262D01*
X39830721Y35834271D01*
X39638279Y35981936D01*
X39638269Y35981942D01*
X39428207Y36103222D01*
X39428191Y36103230D01*
X39204095Y36196052D01*
X39204093Y36196053D01*
X39204090Y36196054D01*
X39204086Y36196055D01*
X39204072Y36196060D01*
X38969785Y36258837D01*
X38969780Y36258838D01*
X38729278Y36290500D01*
X38486702Y36290500D01*
X38246199Y36258838D01*
X38246194Y36258837D01*
X38011907Y36196060D01*
X38011884Y36196052D01*
X37787788Y36103230D01*
X37787772Y36103222D01*
X37577710Y35981942D01*
X37577700Y35981936D01*
X37385258Y35834271D01*
X37385248Y35834262D01*
X37213728Y35662742D01*
X37213719Y35662732D01*
X37066054Y35470290D01*
X37066048Y35470280D01*
X36944768Y35260218D01*
X36944760Y35260202D01*
X36851938Y35036106D01*
X36851930Y35036083D01*
X36789153Y34801796D01*
X36789152Y34801791D01*
X36757490Y34561288D01*
X36757490Y34318713D01*
X12026715Y34318713D01*
X12036765Y34440000D01*
X12018097Y34665293D01*
X11962601Y34884441D01*
X11962599Y34884446D01*
X11962595Y34884456D01*
X11871798Y35091452D01*
X11871789Y35091470D01*
X11790280Y35216228D01*
X11748146Y35280719D01*
X11702213Y35330616D01*
X11595043Y35447033D01*
X11595040Y35447035D01*
X11595036Y35447040D01*
X11509638Y35513509D01*
X11446089Y35586989D01*
X11415494Y35679201D01*
X11422516Y35776102D01*
X11466086Y35862940D01*
X11509636Y35906491D01*
X11595036Y35972960D01*
X11748146Y36139281D01*
X11871792Y36328535D01*
X11962601Y36535559D01*
X12018097Y36754707D01*
X12036765Y36980000D01*
X12018097Y37205293D01*
X11962601Y37424441D01*
X11962599Y37424446D01*
X11962595Y37424456D01*
X11871798Y37631452D01*
X11871789Y37631470D01*
X11790280Y37756228D01*
X11748146Y37820719D01*
X11702213Y37870616D01*
X11595043Y37987033D01*
X11595040Y37987035D01*
X11595036Y37987040D01*
X11509638Y38053509D01*
X11446089Y38126989D01*
X11415494Y38219201D01*
X11422516Y38316102D01*
X11466086Y38402940D01*
X11509636Y38446491D01*
X11595036Y38512960D01*
X11748146Y38679281D01*
X11871792Y38868535D01*
X11962601Y39075559D01*
X12018097Y39294707D01*
X12036765Y39520000D01*
X37112215Y39520000D01*
X37130883Y39294706D01*
X37186380Y39075555D01*
X37186384Y39075545D01*
X37277181Y38868549D01*
X37277190Y38868531D01*
X37343754Y38766648D01*
X37400834Y38679281D01*
X37400836Y38679279D01*
X37553936Y38512968D01*
X37553940Y38512965D01*
X37553944Y38512960D01*
X37732341Y38374107D01*
X37931159Y38266512D01*
X38144976Y38193109D01*
X38367957Y38155900D01*
X38594023Y38155900D01*
X38817004Y38193109D01*
X39030821Y38266512D01*
X39229639Y38374107D01*
X39408036Y38512960D01*
X39561146Y38679281D01*
X39561146Y38679283D01*
X39567795Y38686504D01*
X39646277Y38743773D01*
X39740700Y38766648D01*
X39836690Y38751648D01*
X39919633Y38701056D01*
X39934185Y38686504D01*
X40093936Y38512968D01*
X40093940Y38512965D01*
X40093944Y38512960D01*
X40272341Y38374107D01*
X40471159Y38266512D01*
X40684976Y38193109D01*
X40907957Y38155900D01*
X41134023Y38155900D01*
X41357004Y38193109D01*
X41570821Y38266512D01*
X41769639Y38374107D01*
X41948036Y38512960D01*
X42101146Y38679281D01*
X42224792Y38868535D01*
X42315601Y39075559D01*
X42371097Y39294707D01*
X42389765Y39520000D01*
X42371097Y39745293D01*
X42315601Y39964441D01*
X42315599Y39964446D01*
X42315595Y39964456D01*
X42224798Y40171452D01*
X42224789Y40171470D01*
X42143280Y40296228D01*
X42101146Y40360719D01*
X42055213Y40410616D01*
X41948043Y40527033D01*
X41948040Y40527035D01*
X41948036Y40527040D01*
X41862638Y40593509D01*
X41799089Y40666989D01*
X41768494Y40759201D01*
X41775516Y40856102D01*
X41819086Y40942940D01*
X41862636Y40986491D01*
X41948036Y41052960D01*
X42101146Y41219281D01*
X42224792Y41408535D01*
X42315601Y41615559D01*
X42371097Y41834707D01*
X42389765Y42060000D01*
X42371097Y42285293D01*
X42315601Y42504441D01*
X42315599Y42504446D01*
X42315595Y42504456D01*
X42224798Y42711452D01*
X42224789Y42711470D01*
X42143280Y42836228D01*
X42101146Y42900719D01*
X41986213Y43025569D01*
X41948043Y43067033D01*
X41948040Y43067035D01*
X41948036Y43067040D01*
X41862638Y43133509D01*
X41799089Y43206989D01*
X41768494Y43299201D01*
X41775516Y43396102D01*
X41819086Y43482940D01*
X41862636Y43526491D01*
X41948036Y43592960D01*
X42101146Y43759281D01*
X42224792Y43948535D01*
X42315601Y44155559D01*
X42371097Y44374707D01*
X42389765Y44600000D01*
X42371097Y44825293D01*
X42315601Y45044441D01*
X42315599Y45044446D01*
X42315595Y45044456D01*
X42224798Y45251452D01*
X42224789Y45251470D01*
X42143280Y45376228D01*
X42101146Y45440719D01*
X41955967Y45598425D01*
X41948043Y45607033D01*
X41948038Y45607038D01*
X41948036Y45607040D01*
X41919796Y45629020D01*
X41862642Y45673505D01*
X41769639Y45745893D01*
X41630582Y45821147D01*
X41570820Y45853489D01*
X41357004Y45926891D01*
X41357001Y45926892D01*
X41134023Y45964100D01*
X40907957Y45964100D01*
X40684978Y45926892D01*
X40684975Y45926891D01*
X40471159Y45853489D01*
X40272342Y45745894D01*
X40147875Y45649017D01*
X40061037Y45605447D01*
X39964136Y45598425D01*
X39871924Y45629020D01*
X39798440Y45692574D01*
X39795602Y45696291D01*
X39788386Y45705930D01*
X39788386Y45705931D01*
X39702136Y45821146D01*
X39586921Y45907396D01*
X39506707Y45937314D01*
X39452071Y45957692D01*
X39392463Y45964100D01*
X37569524Y45964100D01*
X37569520Y45964100D01*
X37569518Y45964099D01*
X37556704Y45962722D01*
X37509909Y45957692D01*
X37509905Y45957691D01*
X37375060Y45907397D01*
X37259845Y45821147D01*
X37259843Y45821145D01*
X37173594Y45705931D01*
X37123298Y45571082D01*
X37116890Y45511477D01*
X37116890Y43688535D01*
X37116891Y43688531D01*
X37123298Y43628920D01*
X37123299Y43628916D01*
X37161500Y43526495D01*
X37173594Y43494069D01*
X37259844Y43378854D01*
X37375059Y43292604D01*
X37375060Y43292604D01*
X37383235Y43286484D01*
X37448157Y43214206D01*
X37480479Y43122585D01*
X37475278Y43025569D01*
X37433347Y42937928D01*
X37417212Y42918511D01*
X37400836Y42900722D01*
X37400831Y42900715D01*
X37277190Y42711470D01*
X37277181Y42711452D01*
X37186384Y42504456D01*
X37186380Y42504446D01*
X37130883Y42285295D01*
X37112215Y42060000D01*
X37130883Y41834706D01*
X37186380Y41615555D01*
X37186384Y41615545D01*
X37277181Y41408549D01*
X37277190Y41408531D01*
X37343754Y41306648D01*
X37400834Y41219281D01*
X37400836Y41219279D01*
X37553936Y41052968D01*
X37553939Y41052966D01*
X37553944Y41052960D01*
X37639338Y40986495D01*
X37702891Y40913010D01*
X37733485Y40820797D01*
X37726462Y40723897D01*
X37682892Y40637059D01*
X37639339Y40593507D01*
X37553953Y40527047D01*
X37553944Y40527040D01*
X37553936Y40527033D01*
X37400836Y40360722D01*
X37400831Y40360715D01*
X37277190Y40171470D01*
X37277181Y40171452D01*
X37186384Y39964456D01*
X37186380Y39964446D01*
X37130883Y39745295D01*
X37112215Y39520000D01*
X12036765Y39520000D01*
X12018097Y39745293D01*
X11962601Y39964441D01*
X11962599Y39964446D01*
X11962595Y39964456D01*
X11871798Y40171452D01*
X11871789Y40171470D01*
X11790280Y40296228D01*
X11748146Y40360719D01*
X11702213Y40410616D01*
X11595043Y40527033D01*
X11595040Y40527036D01*
X11595036Y40527040D01*
X11594554Y40527415D01*
X11509641Y40593507D01*
X11446088Y40666992D01*
X11415494Y40759204D01*
X11422517Y40856105D01*
X11466088Y40942942D01*
X11509636Y40986491D01*
X11595036Y41052960D01*
X11748146Y41219281D01*
X11871792Y41408535D01*
X11962601Y41615559D01*
X12018097Y41834707D01*
X12036765Y42060000D01*
X12018097Y42285293D01*
X11962601Y42504441D01*
X11962599Y42504446D01*
X11962595Y42504456D01*
X11871798Y42711452D01*
X11871789Y42711470D01*
X11790280Y42836228D01*
X11748146Y42900719D01*
X11633213Y43025569D01*
X11595043Y43067033D01*
X11595040Y43067035D01*
X11595036Y43067040D01*
X11509638Y43133509D01*
X11446089Y43206989D01*
X11415494Y43299201D01*
X11422516Y43396102D01*
X11466086Y43482940D01*
X11509636Y43526491D01*
X11595036Y43592960D01*
X11748146Y43759281D01*
X11871792Y43948535D01*
X11962601Y44155559D01*
X12018097Y44374707D01*
X12036765Y44600000D01*
X12018097Y44825293D01*
X11962601Y45044441D01*
X11962599Y45044446D01*
X11962595Y45044456D01*
X11871798Y45251452D01*
X11871789Y45251470D01*
X11790280Y45376228D01*
X11748146Y45440719D01*
X11602967Y45598425D01*
X11595043Y45607033D01*
X11595040Y45607035D01*
X11595036Y45607040D01*
X11509638Y45673509D01*
X11446089Y45746989D01*
X11415494Y45839201D01*
X11422516Y45936102D01*
X11466086Y46022940D01*
X11509636Y46066491D01*
X11595036Y46132960D01*
X11748146Y46299281D01*
X11871792Y46488535D01*
X11962601Y46695559D01*
X12018097Y46914707D01*
X12036765Y47140000D01*
X12018097Y47365293D01*
X11962601Y47584441D01*
X11962599Y47584446D01*
X11962595Y47584456D01*
X11871798Y47791452D01*
X11871789Y47791470D01*
X11790280Y47916228D01*
X11748146Y47980719D01*
X11702213Y48030616D01*
X11595043Y48147033D01*
X11595040Y48147035D01*
X11595036Y48147040D01*
X11509638Y48213509D01*
X11446089Y48286989D01*
X11415494Y48379201D01*
X11422516Y48476102D01*
X11466086Y48562940D01*
X11509636Y48606491D01*
X11595036Y48672960D01*
X11748146Y48839281D01*
X11871792Y49028535D01*
X11962601Y49235559D01*
X12018097Y49454707D01*
X12036765Y49680000D01*
X12018097Y49905293D01*
X11962601Y50124441D01*
X11962599Y50124446D01*
X11962595Y50124456D01*
X11871798Y50331452D01*
X11871789Y50331470D01*
X11790280Y50456228D01*
X11748146Y50520719D01*
X11702213Y50570616D01*
X11595043Y50687033D01*
X11595040Y50687035D01*
X11595036Y50687040D01*
X11509638Y50753509D01*
X11446089Y50826989D01*
X11415494Y50919201D01*
X11422516Y51016102D01*
X11466086Y51102940D01*
X11509636Y51146491D01*
X11595036Y51212960D01*
X11748146Y51379281D01*
X11871792Y51568535D01*
X11962601Y51775559D01*
X12018097Y51994707D01*
X12036765Y52220000D01*
X12018097Y52445293D01*
X11962601Y52664441D01*
X11962599Y52664446D01*
X11962595Y52664456D01*
X11871798Y52871452D01*
X11871789Y52871470D01*
X11790280Y52996228D01*
X11748146Y53060719D01*
X11702213Y53110616D01*
X11595043Y53227033D01*
X11595040Y53227035D01*
X11595036Y53227040D01*
X11509638Y53293509D01*
X11446089Y53366989D01*
X11415494Y53459201D01*
X11422516Y53556102D01*
X11466086Y53642940D01*
X11509636Y53686491D01*
X11595036Y53752960D01*
X11748146Y53919281D01*
X11871792Y54108535D01*
X11962601Y54315559D01*
X12018097Y54534707D01*
X12036765Y54760000D01*
X12018097Y54985293D01*
X11962601Y55204441D01*
X11962599Y55204446D01*
X11962595Y55204456D01*
X11871798Y55411452D01*
X11871789Y55411470D01*
X11790280Y55536228D01*
X11748146Y55600719D01*
X11702213Y55650616D01*
X11595043Y55767033D01*
X11595040Y55767035D01*
X11595036Y55767040D01*
X11509638Y55833509D01*
X11446089Y55906989D01*
X11415494Y55999201D01*
X11422516Y56096102D01*
X11466086Y56182940D01*
X11509636Y56226491D01*
X11595036Y56292960D01*
X11748146Y56459281D01*
X11835660Y56593232D01*
X11903641Y56662633D01*
X11971843Y56695320D01*
X11982442Y56698536D01*
X11982452Y56698537D01*
X12015781Y56712344D01*
X12015792Y56712346D01*
X12015792Y56712348D01*
X12029607Y56718070D01*
X12096286Y56745688D01*
X12147509Y56779916D01*
X12198733Y56814142D01*
X12285858Y56901267D01*
X12285860Y56901271D01*
X14398729Y59014140D01*
X14398733Y59014142D01*
X14485858Y59101267D01*
X14512788Y59141570D01*
X14544170Y59188535D01*
X14554307Y59203707D01*
X14554307Y59203709D01*
X14554312Y59203715D01*
X14601463Y59317549D01*
X14625500Y59438393D01*
X14625500Y59561607D01*
X14625500Y62258713D01*
X36757490Y62258713D01*
X36789152Y62018210D01*
X36789153Y62018205D01*
X36851930Y61783918D01*
X36851938Y61783895D01*
X36944760Y61559799D01*
X36944768Y61559783D01*
X37066048Y61349721D01*
X37066054Y61349711D01*
X37213719Y61157269D01*
X37213728Y61157259D01*
X37385248Y60985739D01*
X37385258Y60985730D01*
X37493615Y60902585D01*
X37577701Y60838064D01*
X37577710Y60838059D01*
X37787772Y60716779D01*
X37787788Y60716771D01*
X37927848Y60658758D01*
X38011890Y60623946D01*
X38011901Y60623943D01*
X38011907Y60623941D01*
X38182208Y60578309D01*
X38246201Y60561162D01*
X38486702Y60529500D01*
X38729278Y60529500D01*
X38969779Y60561162D01*
X39184945Y60618816D01*
X39204072Y60623941D01*
X39204074Y60623942D01*
X39204090Y60623946D01*
X39355756Y60686769D01*
X39428191Y60716771D01*
X39428196Y60716774D01*
X39428202Y60716776D01*
X39638279Y60838064D01*
X39830728Y60985735D01*
X40002255Y61157262D01*
X40149926Y61349711D01*
X40271214Y61559788D01*
X40364044Y61783900D01*
X40426828Y62018211D01*
X40458490Y62258712D01*
X40458490Y62501288D01*
X40426828Y62741789D01*
X40364044Y62976100D01*
X40329232Y63060142D01*
X40271219Y63200202D01*
X40271211Y63200218D01*
X40149931Y63410280D01*
X40149925Y63410290D01*
X40002260Y63602732D01*
X40002251Y63602742D01*
X39830731Y63774262D01*
X39830721Y63774271D01*
X39638279Y63921936D01*
X39638269Y63921942D01*
X39428207Y64043222D01*
X39428191Y64043230D01*
X39204095Y64136052D01*
X39204093Y64136053D01*
X39204090Y64136054D01*
X39204086Y64136055D01*
X39204072Y64136060D01*
X38969785Y64198837D01*
X38969780Y64198838D01*
X38729278Y64230500D01*
X38486702Y64230500D01*
X38246199Y64198838D01*
X38246194Y64198837D01*
X38011907Y64136060D01*
X38011884Y64136052D01*
X37787788Y64043230D01*
X37787772Y64043222D01*
X37577710Y63921942D01*
X37577700Y63921936D01*
X37385258Y63774271D01*
X37385248Y63774262D01*
X37213728Y63602742D01*
X37213719Y63602732D01*
X37066054Y63410290D01*
X37066048Y63410280D01*
X36944768Y63200218D01*
X36944760Y63200202D01*
X36851938Y62976106D01*
X36851930Y62976083D01*
X36789153Y62741796D01*
X36789152Y62741791D01*
X36757490Y62501288D01*
X36757490Y62258713D01*
X14625500Y62258713D01*
X14625500Y64061606D01*
X14601463Y64182452D01*
X14581561Y64230500D01*
X14554312Y64296285D01*
X14537256Y64321810D01*
X14485858Y64398733D01*
X14398733Y64485858D01*
X14398729Y64485861D01*
X13206870Y65677720D01*
X13152894Y65758502D01*
X13133940Y65853790D01*
X13152894Y65949078D01*
X13206870Y66029860D01*
X13287652Y66083836D01*
X13341950Y66099393D01*
X13544004Y66133109D01*
X13757821Y66206512D01*
X13956639Y66314107D01*
X14135036Y66452960D01*
X14288146Y66619281D01*
X14288146Y66619283D01*
X14294795Y66626504D01*
X14373277Y66683773D01*
X14467700Y66706648D01*
X14563690Y66691648D01*
X14646633Y66641056D01*
X14661185Y66626504D01*
X14820936Y66452968D01*
X14820940Y66452965D01*
X14820944Y66452960D01*
X14999341Y66314107D01*
X15198159Y66206512D01*
X15411976Y66133109D01*
X15634957Y66095900D01*
X15861023Y66095900D01*
X16084004Y66133109D01*
X16297821Y66206512D01*
X16496639Y66314107D01*
X16675036Y66452960D01*
X16828146Y66619281D01*
X16828146Y66619283D01*
X16834795Y66626504D01*
X16913277Y66683773D01*
X17007700Y66706648D01*
X17103690Y66691648D01*
X17186633Y66641056D01*
X17201185Y66626504D01*
X17360936Y66452968D01*
X17360940Y66452965D01*
X17360944Y66452960D01*
X17539341Y66314107D01*
X17738159Y66206512D01*
X17951976Y66133109D01*
X18174957Y66095900D01*
X18401023Y66095900D01*
X18624004Y66133109D01*
X18837821Y66206512D01*
X19036639Y66314107D01*
X19215036Y66452960D01*
X19368146Y66619281D01*
X19368146Y66619283D01*
X19374795Y66626504D01*
X19453277Y66683773D01*
X19547700Y66706648D01*
X19643690Y66691648D01*
X19726633Y66641056D01*
X19741185Y66626504D01*
X19900936Y66452968D01*
X19900940Y66452965D01*
X19900944Y66452960D01*
X20079341Y66314107D01*
X20278159Y66206512D01*
X20491976Y66133109D01*
X20714957Y66095900D01*
X20941023Y66095900D01*
X21164004Y66133109D01*
X21377821Y66206512D01*
X21576639Y66314107D01*
X21755036Y66452960D01*
X21908146Y66619281D01*
X21908146Y66619283D01*
X21914795Y66626504D01*
X21993277Y66683773D01*
X22087700Y66706648D01*
X22183690Y66691648D01*
X22266633Y66641056D01*
X22281185Y66626504D01*
X22440936Y66452968D01*
X22440940Y66452965D01*
X22440944Y66452960D01*
X22619341Y66314107D01*
X22818159Y66206512D01*
X23031976Y66133109D01*
X23254957Y66095900D01*
X23481023Y66095900D01*
X23704004Y66133109D01*
X23917821Y66206512D01*
X24116639Y66314107D01*
X24295036Y66452960D01*
X24448146Y66619281D01*
X24448146Y66619283D01*
X24454795Y66626504D01*
X24533277Y66683773D01*
X24627700Y66706648D01*
X24723690Y66691648D01*
X24806633Y66641056D01*
X24821185Y66626504D01*
X24980936Y66452968D01*
X24980940Y66452965D01*
X24980944Y66452960D01*
X25159341Y66314107D01*
X25358159Y66206512D01*
X25571976Y66133109D01*
X25794957Y66095900D01*
X26021023Y66095900D01*
X26244004Y66133109D01*
X26457821Y66206512D01*
X26656639Y66314107D01*
X26835036Y66452960D01*
X26988146Y66619281D01*
X26988146Y66619283D01*
X26994795Y66626504D01*
X27073277Y66683773D01*
X27167700Y66706648D01*
X27263690Y66691648D01*
X27346633Y66641056D01*
X27361185Y66626504D01*
X27520936Y66452968D01*
X27520940Y66452965D01*
X27520944Y66452960D01*
X27699341Y66314107D01*
X27898159Y66206512D01*
X28111976Y66133109D01*
X28334957Y66095900D01*
X28561023Y66095900D01*
X28784004Y66133109D01*
X28997821Y66206512D01*
X29196639Y66314107D01*
X29375036Y66452960D01*
X29528146Y66619281D01*
X29528146Y66619283D01*
X29534795Y66626504D01*
X29613277Y66683773D01*
X29707700Y66706648D01*
X29803690Y66691648D01*
X29886633Y66641056D01*
X29901185Y66626504D01*
X30060936Y66452968D01*
X30060940Y66452965D01*
X30060944Y66452960D01*
X30239341Y66314107D01*
X30438159Y66206512D01*
X30651976Y66133109D01*
X30874957Y66095900D01*
X31101023Y66095900D01*
X31324004Y66133109D01*
X31537821Y66206512D01*
X31736639Y66314107D01*
X31915036Y66452960D01*
X32068146Y66619281D01*
X32191792Y66808535D01*
X32237196Y66912047D01*
X32282595Y67015545D01*
X32282599Y67015555D01*
X32282601Y67015559D01*
X32338097Y67234707D01*
X32356765Y67460000D01*
X34699215Y67460000D01*
X34717883Y67234706D01*
X34773380Y67015555D01*
X34773384Y67015545D01*
X34864181Y66808549D01*
X34864190Y66808531D01*
X34892089Y66765829D01*
X34987834Y66619281D01*
X34987836Y66619279D01*
X35140936Y66452968D01*
X35140940Y66452965D01*
X35140944Y66452960D01*
X35319341Y66314107D01*
X35518159Y66206512D01*
X35731976Y66133109D01*
X35954957Y66095900D01*
X36181023Y66095900D01*
X36404004Y66133109D01*
X36617821Y66206512D01*
X36816639Y66314107D01*
X36995036Y66452960D01*
X37148146Y66619281D01*
X37148146Y66619283D01*
X37154795Y66626504D01*
X37233277Y66683773D01*
X37327700Y66706648D01*
X37423690Y66691648D01*
X37506633Y66641056D01*
X37521185Y66626504D01*
X37680936Y66452968D01*
X37680940Y66452965D01*
X37680944Y66452960D01*
X37859341Y66314107D01*
X38058159Y66206512D01*
X38271976Y66133109D01*
X38494957Y66095900D01*
X38721023Y66095900D01*
X38944004Y66133109D01*
X39157821Y66206512D01*
X39356639Y66314107D01*
X39535036Y66452960D01*
X39688146Y66619281D01*
X39688146Y66619283D01*
X39694795Y66626504D01*
X39773277Y66683773D01*
X39867700Y66706648D01*
X39963690Y66691648D01*
X40046633Y66641056D01*
X40061185Y66626504D01*
X40220936Y66452968D01*
X40220940Y66452965D01*
X40220944Y66452960D01*
X40399341Y66314107D01*
X40598159Y66206512D01*
X40811976Y66133109D01*
X41034957Y66095900D01*
X41261023Y66095900D01*
X41484004Y66133109D01*
X41697821Y66206512D01*
X41896639Y66314107D01*
X42075036Y66452960D01*
X42228146Y66619281D01*
X42228146Y66619283D01*
X42234795Y66626504D01*
X42313277Y66683773D01*
X42407700Y66706648D01*
X42503690Y66691648D01*
X42586633Y66641056D01*
X42601185Y66626504D01*
X42760936Y66452968D01*
X42760940Y66452965D01*
X42760944Y66452960D01*
X42939341Y66314107D01*
X43138159Y66206512D01*
X43351976Y66133109D01*
X43574957Y66095900D01*
X43801023Y66095900D01*
X44024004Y66133109D01*
X44237821Y66206512D01*
X44436639Y66314107D01*
X44615036Y66452960D01*
X44768146Y66619281D01*
X44768146Y66619283D01*
X44774795Y66626504D01*
X44853277Y66683773D01*
X44947700Y66706648D01*
X45043690Y66691648D01*
X45126633Y66641056D01*
X45141185Y66626504D01*
X45300936Y66452968D01*
X45300940Y66452965D01*
X45300944Y66452960D01*
X45479341Y66314107D01*
X45678159Y66206512D01*
X45891976Y66133109D01*
X46114957Y66095900D01*
X46341023Y66095900D01*
X46564004Y66133109D01*
X46777821Y66206512D01*
X46976639Y66314107D01*
X47155036Y66452960D01*
X47308146Y66619281D01*
X47308146Y66619283D01*
X47314795Y66626504D01*
X47393277Y66683773D01*
X47487700Y66706648D01*
X47583690Y66691648D01*
X47666633Y66641056D01*
X47681185Y66626504D01*
X47840936Y66452968D01*
X47840940Y66452965D01*
X47840944Y66452960D01*
X48019341Y66314107D01*
X48218159Y66206512D01*
X48431976Y66133109D01*
X48654957Y66095900D01*
X48881023Y66095900D01*
X49104004Y66133109D01*
X49317821Y66206512D01*
X49516639Y66314107D01*
X49695036Y66452960D01*
X49848146Y66619281D01*
X49848146Y66619283D01*
X49854795Y66626504D01*
X49933277Y66683773D01*
X50027700Y66706648D01*
X50123690Y66691648D01*
X50206633Y66641056D01*
X50221185Y66626504D01*
X50380936Y66452968D01*
X50380940Y66452965D01*
X50380944Y66452960D01*
X50559341Y66314107D01*
X50758159Y66206512D01*
X50971976Y66133109D01*
X51194957Y66095900D01*
X51421023Y66095900D01*
X51644004Y66133109D01*
X51857821Y66206512D01*
X52056639Y66314107D01*
X52235036Y66452960D01*
X52388146Y66619281D01*
X52388146Y66619283D01*
X52394795Y66626504D01*
X52473277Y66683773D01*
X52567700Y66706648D01*
X52663690Y66691648D01*
X52746633Y66641056D01*
X52761185Y66626504D01*
X52920936Y66452968D01*
X52920940Y66452965D01*
X52920944Y66452960D01*
X53099341Y66314107D01*
X53298159Y66206512D01*
X53511976Y66133109D01*
X53734957Y66095900D01*
X53961023Y66095900D01*
X54184004Y66133109D01*
X54397821Y66206512D01*
X54596639Y66314107D01*
X54775036Y66452960D01*
X54928146Y66619281D01*
X55051792Y66808535D01*
X55097196Y66912047D01*
X55142595Y67015545D01*
X55142599Y67015555D01*
X55142601Y67015559D01*
X55198097Y67234707D01*
X55216765Y67460000D01*
X55198097Y67685293D01*
X55142601Y67904441D01*
X55142599Y67904446D01*
X55142595Y67904456D01*
X55051798Y68111452D01*
X55051789Y68111470D01*
X54970280Y68236228D01*
X54928146Y68300719D01*
X54777889Y68463941D01*
X54775043Y68467033D01*
X54775038Y68467038D01*
X54775036Y68467040D01*
X54746796Y68489020D01*
X54708639Y68518720D01*
X54596639Y68605893D01*
X54562968Y68624115D01*
X54397820Y68713489D01*
X54184004Y68786891D01*
X54184001Y68786892D01*
X53961023Y68824100D01*
X53734957Y68824100D01*
X53511978Y68786892D01*
X53511975Y68786891D01*
X53298159Y68713489D01*
X53099342Y68605894D01*
X52920949Y68467045D01*
X52920942Y68467038D01*
X52761185Y68293496D01*
X52682703Y68236228D01*
X52588279Y68213353D01*
X52492289Y68228353D01*
X52409346Y68278945D01*
X52394795Y68293496D01*
X52388143Y68300722D01*
X52235036Y68467040D01*
X52206796Y68489020D01*
X52168639Y68518720D01*
X52056639Y68605893D01*
X52022968Y68624115D01*
X51857820Y68713489D01*
X51644004Y68786891D01*
X51644001Y68786892D01*
X51421023Y68824100D01*
X51194957Y68824100D01*
X50971978Y68786892D01*
X50971975Y68786891D01*
X50758159Y68713489D01*
X50559342Y68605894D01*
X50380949Y68467045D01*
X50380942Y68467038D01*
X50221185Y68293496D01*
X50142703Y68236228D01*
X50048279Y68213353D01*
X49952289Y68228353D01*
X49869346Y68278945D01*
X49854795Y68293496D01*
X49848143Y68300722D01*
X49695036Y68467040D01*
X49666796Y68489020D01*
X49628639Y68518720D01*
X49516639Y68605893D01*
X49482968Y68624115D01*
X49317820Y68713489D01*
X49104004Y68786891D01*
X49104001Y68786892D01*
X48881023Y68824100D01*
X48654957Y68824100D01*
X48431978Y68786892D01*
X48431975Y68786891D01*
X48218159Y68713489D01*
X48019342Y68605894D01*
X47840949Y68467045D01*
X47840942Y68467038D01*
X47681185Y68293496D01*
X47602703Y68236228D01*
X47508279Y68213353D01*
X47412289Y68228353D01*
X47329346Y68278945D01*
X47314795Y68293496D01*
X47308143Y68300722D01*
X47155036Y68467040D01*
X47126796Y68489020D01*
X47088639Y68518720D01*
X46976639Y68605893D01*
X46942968Y68624115D01*
X46777820Y68713489D01*
X46564004Y68786891D01*
X46564001Y68786892D01*
X46341023Y68824100D01*
X46114957Y68824100D01*
X45891978Y68786892D01*
X45891975Y68786891D01*
X45678159Y68713489D01*
X45479342Y68605894D01*
X45300949Y68467045D01*
X45300942Y68467038D01*
X45141185Y68293496D01*
X45062703Y68236228D01*
X44968279Y68213353D01*
X44872289Y68228353D01*
X44789346Y68278945D01*
X44774795Y68293496D01*
X44768143Y68300722D01*
X44615036Y68467040D01*
X44586796Y68489020D01*
X44548639Y68518720D01*
X44436639Y68605893D01*
X44402968Y68624115D01*
X44237820Y68713489D01*
X44024004Y68786891D01*
X44024001Y68786892D01*
X43801023Y68824100D01*
X43574957Y68824100D01*
X43351978Y68786892D01*
X43351975Y68786891D01*
X43138159Y68713489D01*
X42939342Y68605894D01*
X42760949Y68467045D01*
X42760942Y68467038D01*
X42601185Y68293496D01*
X42522703Y68236228D01*
X42428279Y68213353D01*
X42332289Y68228353D01*
X42249346Y68278945D01*
X42234795Y68293496D01*
X42228143Y68300722D01*
X42075036Y68467040D01*
X42046796Y68489020D01*
X42008639Y68518720D01*
X41896639Y68605893D01*
X41862968Y68624115D01*
X41697820Y68713489D01*
X41484004Y68786891D01*
X41484001Y68786892D01*
X41261023Y68824100D01*
X41034957Y68824100D01*
X40811978Y68786892D01*
X40811975Y68786891D01*
X40598159Y68713489D01*
X40399342Y68605894D01*
X40220949Y68467045D01*
X40220942Y68467038D01*
X40061185Y68293496D01*
X39982703Y68236228D01*
X39888279Y68213353D01*
X39792289Y68228353D01*
X39709346Y68278945D01*
X39694795Y68293496D01*
X39688143Y68300722D01*
X39535036Y68467040D01*
X39506796Y68489020D01*
X39468639Y68518720D01*
X39356639Y68605893D01*
X39322968Y68624115D01*
X39157820Y68713489D01*
X38944004Y68786891D01*
X38944001Y68786892D01*
X38721023Y68824100D01*
X38494957Y68824100D01*
X38271978Y68786892D01*
X38271975Y68786891D01*
X38058159Y68713489D01*
X37859342Y68605894D01*
X37680949Y68467045D01*
X37680942Y68467038D01*
X37521185Y68293496D01*
X37442703Y68236228D01*
X37348279Y68213353D01*
X37252289Y68228353D01*
X37169346Y68278945D01*
X37154795Y68293496D01*
X37148143Y68300722D01*
X36995036Y68467040D01*
X36966796Y68489020D01*
X36928639Y68518720D01*
X36816639Y68605893D01*
X36782968Y68624115D01*
X36617820Y68713489D01*
X36404004Y68786891D01*
X36404001Y68786892D01*
X36181023Y68824100D01*
X35954957Y68824100D01*
X35731978Y68786892D01*
X35731975Y68786891D01*
X35518159Y68713489D01*
X35319342Y68605894D01*
X35140949Y68467045D01*
X35140936Y68467033D01*
X34987836Y68300722D01*
X34987831Y68300715D01*
X34864190Y68111470D01*
X34864181Y68111452D01*
X34773384Y67904456D01*
X34773380Y67904446D01*
X34717883Y67685295D01*
X34699215Y67460000D01*
X32356765Y67460000D01*
X32338097Y67685293D01*
X32282601Y67904441D01*
X32282599Y67904446D01*
X32282595Y67904456D01*
X32191798Y68111452D01*
X32191789Y68111470D01*
X32110280Y68236228D01*
X32068146Y68300719D01*
X31917889Y68463941D01*
X31915043Y68467033D01*
X31915038Y68467038D01*
X31915036Y68467040D01*
X31886796Y68489020D01*
X31848639Y68518720D01*
X31736639Y68605893D01*
X31702968Y68624115D01*
X31537820Y68713489D01*
X31324004Y68786891D01*
X31324001Y68786892D01*
X31101023Y68824100D01*
X30874957Y68824100D01*
X30651978Y68786892D01*
X30651975Y68786891D01*
X30438159Y68713489D01*
X30239342Y68605894D01*
X30060949Y68467045D01*
X30060942Y68467038D01*
X29901185Y68293496D01*
X29822703Y68236228D01*
X29728279Y68213353D01*
X29632289Y68228353D01*
X29549346Y68278945D01*
X29534795Y68293496D01*
X29528143Y68300722D01*
X29375036Y68467040D01*
X29346796Y68489020D01*
X29308639Y68518720D01*
X29196639Y68605893D01*
X29162968Y68624115D01*
X28997820Y68713489D01*
X28784004Y68786891D01*
X28784001Y68786892D01*
X28561023Y68824100D01*
X28334957Y68824100D01*
X28111978Y68786892D01*
X28111975Y68786891D01*
X27898159Y68713489D01*
X27699342Y68605894D01*
X27520949Y68467045D01*
X27520942Y68467038D01*
X27361185Y68293496D01*
X27282703Y68236228D01*
X27188279Y68213353D01*
X27092289Y68228353D01*
X27009346Y68278945D01*
X26994795Y68293496D01*
X26988143Y68300722D01*
X26835036Y68467040D01*
X26806796Y68489020D01*
X26768639Y68518720D01*
X26656639Y68605893D01*
X26622968Y68624115D01*
X26457820Y68713489D01*
X26244004Y68786891D01*
X26244001Y68786892D01*
X26021023Y68824100D01*
X25794957Y68824100D01*
X25571978Y68786892D01*
X25571975Y68786891D01*
X25358159Y68713489D01*
X25159342Y68605894D01*
X24980949Y68467045D01*
X24980942Y68467038D01*
X24821185Y68293496D01*
X24742703Y68236228D01*
X24648279Y68213353D01*
X24552289Y68228353D01*
X24469346Y68278945D01*
X24454795Y68293496D01*
X24448143Y68300722D01*
X24295036Y68467040D01*
X24266796Y68489020D01*
X24228639Y68518720D01*
X24116639Y68605893D01*
X24082968Y68624115D01*
X23917820Y68713489D01*
X23704004Y68786891D01*
X23704001Y68786892D01*
X23481023Y68824100D01*
X23254957Y68824100D01*
X23031978Y68786892D01*
X23031975Y68786891D01*
X22818159Y68713489D01*
X22619342Y68605894D01*
X22440949Y68467045D01*
X22440942Y68467038D01*
X22281185Y68293496D01*
X22202703Y68236228D01*
X22108279Y68213353D01*
X22012289Y68228353D01*
X21929346Y68278945D01*
X21914795Y68293496D01*
X21908143Y68300722D01*
X21755036Y68467040D01*
X21726796Y68489020D01*
X21688639Y68518720D01*
X21576639Y68605893D01*
X21542968Y68624115D01*
X21377820Y68713489D01*
X21164004Y68786891D01*
X21164001Y68786892D01*
X20941023Y68824100D01*
X20714957Y68824100D01*
X20491978Y68786892D01*
X20491975Y68786891D01*
X20278159Y68713489D01*
X20079342Y68605894D01*
X19900949Y68467045D01*
X19900942Y68467038D01*
X19741185Y68293496D01*
X19662703Y68236228D01*
X19568279Y68213353D01*
X19472289Y68228353D01*
X19389346Y68278945D01*
X19374795Y68293496D01*
X19368143Y68300722D01*
X19215036Y68467040D01*
X19186796Y68489020D01*
X19148639Y68518720D01*
X19036639Y68605893D01*
X19002968Y68624115D01*
X18837820Y68713489D01*
X18624004Y68786891D01*
X18624001Y68786892D01*
X18401023Y68824100D01*
X18174957Y68824100D01*
X17951978Y68786892D01*
X17951975Y68786891D01*
X17738159Y68713489D01*
X17539342Y68605894D01*
X17360949Y68467045D01*
X17360942Y68467038D01*
X17201185Y68293496D01*
X17122703Y68236228D01*
X17028279Y68213353D01*
X16932289Y68228353D01*
X16849346Y68278945D01*
X16834795Y68293496D01*
X16828143Y68300722D01*
X16675036Y68467040D01*
X16646796Y68489020D01*
X16608639Y68518720D01*
X16496639Y68605893D01*
X16462968Y68624115D01*
X16297820Y68713489D01*
X16084004Y68786891D01*
X16084001Y68786892D01*
X15861023Y68824100D01*
X15634957Y68824100D01*
X15411978Y68786892D01*
X15411975Y68786891D01*
X15198159Y68713489D01*
X14999342Y68605894D01*
X14820949Y68467045D01*
X14820942Y68467038D01*
X14661185Y68293496D01*
X14582703Y68236228D01*
X14488279Y68213353D01*
X14392289Y68228353D01*
X14309346Y68278945D01*
X14294795Y68293496D01*
X14288143Y68300722D01*
X14135036Y68467040D01*
X14106796Y68489020D01*
X14068639Y68518720D01*
X13956639Y68605893D01*
X13922968Y68624115D01*
X13757820Y68713489D01*
X13544004Y68786891D01*
X13544001Y68786892D01*
X13321023Y68824100D01*
X13094957Y68824100D01*
X12871978Y68786892D01*
X12871975Y68786891D01*
X12658157Y68713488D01*
X12658155Y68713487D01*
X12493010Y68624115D01*
X12400186Y68595432D01*
X12303451Y68604456D01*
X12217532Y68649811D01*
X12155511Y68724594D01*
X12126828Y68817418D01*
X12125500Y68843104D01*
X12125500Y76137770D01*
X12144454Y76233058D01*
X12198430Y76313840D01*
X18904161Y83019570D01*
X18984943Y83073546D01*
X19080231Y83092500D01*
X41855692Y83092500D01*
X41950980Y83073546D01*
X42031762Y83019570D01*
X42059658Y82986325D01*
X42157495Y82846599D01*
X42324589Y82679505D01*
X42363915Y82651969D01*
X42431097Y82581791D01*
X42466311Y82491242D01*
X42464192Y82394110D01*
X42425064Y82305182D01*
X42363918Y82244035D01*
X42324593Y82216499D01*
X42157494Y82049400D01*
X42021955Y81855831D01*
X42021951Y81855823D01*
X41922088Y81641667D01*
X41922087Y81641665D01*
X41860925Y81413402D01*
X41840331Y81178006D01*
X41840331Y81177995D01*
X41860925Y80942599D01*
X41886828Y80845925D01*
X41922087Y80714337D01*
X42015737Y80513505D01*
X42021955Y80500170D01*
X42157493Y80306601D01*
X42161167Y80302223D01*
X42163366Y80298214D01*
X42163731Y80297693D01*
X42163674Y80297654D01*
X42207896Y80217044D01*
X42218472Y80120466D01*
X42191284Y80027193D01*
X42130472Y79951424D01*
X42117669Y79942680D01*
X42118159Y79942026D01*
X41988802Y79845190D01*
X41988800Y79845188D01*
X41902636Y79730088D01*
X41852393Y79595379D01*
X41852391Y79595372D01*
X41845990Y79535833D01*
X41845990Y78888001D01*
X41845991Y78888000D01*
X42762978Y78888000D01*
X42730065Y78830993D01*
X42695990Y78703826D01*
X42695990Y78572174D01*
X42730065Y78445007D01*
X42762978Y78388000D01*
X41845991Y78388000D01*
X41845990Y78387999D01*
X41845990Y77740168D01*
X41852391Y77680629D01*
X41852393Y77680622D01*
X41902636Y77545913D01*
X41988800Y77430813D01*
X41988802Y77430811D01*
X42103902Y77344647D01*
X42238611Y77294404D01*
X42238618Y77294402D01*
X42298157Y77288001D01*
X42298165Y77288000D01*
X42945989Y77288000D01*
X42945990Y77288001D01*
X42945990Y78204988D01*
X43002997Y78172075D01*
X43130164Y78138000D01*
X43261816Y78138000D01*
X43388983Y78172075D01*
X43445990Y78204988D01*
X43445990Y77288001D01*
X43445991Y77288000D01*
X44093815Y77288000D01*
X44093822Y77288001D01*
X44153361Y77294402D01*
X44153368Y77294404D01*
X44288077Y77344647D01*
X44403177Y77430811D01*
X44403179Y77430813D01*
X44489343Y77545913D01*
X44539586Y77680622D01*
X44539588Y77680629D01*
X44545989Y77740168D01*
X44545990Y77740175D01*
X44545990Y78387999D01*
X44545989Y78388000D01*
X43629002Y78388000D01*
X43661915Y78445007D01*
X43695990Y78572174D01*
X43695990Y78703826D01*
X43661915Y78830993D01*
X43629002Y78888000D01*
X44545989Y78888000D01*
X44545990Y78888001D01*
X44545990Y79535825D01*
X44545989Y79535833D01*
X44539588Y79595372D01*
X44539586Y79595379D01*
X44489343Y79730088D01*
X44403179Y79845188D01*
X44403177Y79845190D01*
X44273821Y79942026D01*
X44276277Y79945308D01*
X44227623Y79985999D01*
X44182621Y80072103D01*
X44173995Y80168875D01*
X44203059Y80261581D01*
X44230820Y80302232D01*
X44234477Y80306592D01*
X44234485Y80306599D01*
X44332320Y80446323D01*
X44402501Y80513505D01*
X44493050Y80548717D01*
X44536288Y80552500D01*
X45438394Y80552500D01*
X45459770Y80552500D01*
X45555058Y80533546D01*
X45635839Y80479571D01*
X56101266Y70014143D01*
X56101270Y70014140D01*
X56101269Y70014140D01*
X56203708Y69945693D01*
X56203710Y69945691D01*
X56203712Y69945690D01*
X56203714Y69945689D01*
X56317548Y69898537D01*
X56438393Y69874500D01*
X56438394Y69874500D01*
X65137770Y69874500D01*
X65233058Y69855546D01*
X65313840Y69801570D01*
X65849560Y69265850D01*
X65903536Y69185068D01*
X65922490Y69089780D01*
X65922490Y68820910D01*
X65903536Y68725622D01*
X65849560Y68644840D01*
X65806959Y68613071D01*
X65807967Y68611529D01*
X65799345Y68605896D01*
X65674875Y68509017D01*
X65588037Y68465447D01*
X65491136Y68458425D01*
X65398924Y68489020D01*
X65325440Y68552574D01*
X65322602Y68556291D01*
X65315386Y68565930D01*
X65315386Y68565931D01*
X65229136Y68681146D01*
X65113921Y68767396D01*
X65033707Y68797314D01*
X64979071Y68817692D01*
X64919463Y68824100D01*
X63096524Y68824100D01*
X63096520Y68824100D01*
X63096518Y68824099D01*
X63083704Y68822722D01*
X63036909Y68817692D01*
X63036905Y68817691D01*
X62902057Y68767396D01*
X62886794Y68755969D01*
X62799153Y68714038D01*
X62702137Y68708837D01*
X62610516Y68741159D01*
X62588352Y68755969D01*
X62573679Y68766953D01*
X62438968Y68817197D01*
X62438961Y68817199D01*
X62379422Y68823600D01*
X61717991Y68823600D01*
X61717990Y68823599D01*
X61717990Y67902252D01*
X61664071Y67933381D01*
X61534870Y67968000D01*
X61401110Y67968000D01*
X61271909Y67933381D01*
X61217990Y67902252D01*
X61217990Y68823599D01*
X61217989Y68823600D01*
X60556557Y68823600D01*
X60497018Y68817199D01*
X60497011Y68817197D01*
X60362302Y68766954D01*
X60247202Y68680790D01*
X60247199Y68680787D01*
X60153770Y68555983D01*
X60081491Y68491061D01*
X59989870Y68458740D01*
X59892854Y68463941D01*
X59805214Y68505873D01*
X59801497Y68508711D01*
X59801104Y68509017D01*
X59676639Y68605893D01*
X59642968Y68624115D01*
X59477820Y68713489D01*
X59264004Y68786891D01*
X59264001Y68786892D01*
X59041023Y68824100D01*
X58814957Y68824100D01*
X58591978Y68786892D01*
X58591975Y68786891D01*
X58378159Y68713489D01*
X58179342Y68605894D01*
X58000949Y68467045D01*
X58000936Y68467033D01*
X57847836Y68300722D01*
X57847831Y68300715D01*
X57724190Y68111470D01*
X57724181Y68111452D01*
X57633384Y67904456D01*
X57633380Y67904446D01*
X57577883Y67685295D01*
X57559215Y67460000D01*
X57577883Y67234706D01*
X57633380Y67015555D01*
X57633384Y67015545D01*
X57724181Y66808549D01*
X57724190Y66808531D01*
X57752089Y66765829D01*
X57847834Y66619281D01*
X57847836Y66619279D01*
X58000936Y66452968D01*
X58000940Y66452965D01*
X58000944Y66452960D01*
X58179341Y66314107D01*
X58378159Y66206512D01*
X58591976Y66133109D01*
X58814957Y66095900D01*
X59041023Y66095900D01*
X59264004Y66133109D01*
X59477821Y66206512D01*
X59676639Y66314107D01*
X59801503Y66411294D01*
X59888334Y66454860D01*
X59985234Y66461883D01*
X60077447Y66431289D01*
X60150932Y66367736D01*
X60153770Y66364017D01*
X60247196Y66239217D01*
X60247202Y66239211D01*
X60362302Y66153047D01*
X60497011Y66102804D01*
X60497018Y66102802D01*
X60556557Y66096401D01*
X60556565Y66096400D01*
X61217989Y66096400D01*
X61217990Y66096401D01*
X61217990Y67017749D01*
X61271909Y66986619D01*
X61401110Y66952000D01*
X61534870Y66952000D01*
X61664071Y66986619D01*
X61717990Y67017749D01*
X61717990Y66096401D01*
X61717991Y66096400D01*
X62379415Y66096400D01*
X62379422Y66096401D01*
X62438961Y66102802D01*
X62438968Y66102804D01*
X62573676Y66153047D01*
X62588347Y66164029D01*
X62675987Y66205962D01*
X62773002Y66211165D01*
X62864624Y66178845D01*
X62886790Y66164035D01*
X62902059Y66152604D01*
X63036907Y66102309D01*
X63096517Y66095900D01*
X64919462Y66095901D01*
X64979073Y66102309D01*
X65113921Y66152604D01*
X65229136Y66238854D01*
X65315386Y66354069D01*
X65315386Y66354071D01*
X65322602Y66363709D01*
X65394880Y66428632D01*
X65486501Y66460954D01*
X65583516Y66455753D01*
X65671157Y66413822D01*
X65674857Y66410998D01*
X65799341Y66314107D01*
X65998159Y66206512D01*
X66211976Y66133109D01*
X66434957Y66095900D01*
X66661023Y66095900D01*
X66884004Y66133109D01*
X67097821Y66206512D01*
X67296639Y66314107D01*
X67475036Y66452960D01*
X67628146Y66619281D01*
X67628146Y66619283D01*
X67634795Y66626504D01*
X67713277Y66683773D01*
X67807700Y66706648D01*
X67903690Y66691648D01*
X67986633Y66641056D01*
X68001185Y66626504D01*
X68160936Y66452968D01*
X68160940Y66452965D01*
X68160944Y66452960D01*
X68339341Y66314107D01*
X68538159Y66206512D01*
X68751976Y66133109D01*
X68974957Y66095900D01*
X69201023Y66095900D01*
X69424004Y66133109D01*
X69637821Y66206512D01*
X69836639Y66314107D01*
X70015036Y66452960D01*
X70168146Y66619281D01*
X70168146Y66619283D01*
X70174795Y66626504D01*
X70253277Y66683773D01*
X70347700Y66706648D01*
X70443690Y66691648D01*
X70526633Y66641056D01*
X70541185Y66626504D01*
X70700936Y66452968D01*
X70700940Y66452965D01*
X70700944Y66452960D01*
X70879341Y66314107D01*
X71078159Y66206512D01*
X71291976Y66133109D01*
X71514957Y66095900D01*
X71741023Y66095900D01*
X71964004Y66133109D01*
X72177821Y66206512D01*
X72376639Y66314107D01*
X72555036Y66452960D01*
X72708146Y66619281D01*
X72708146Y66619283D01*
X72714795Y66626504D01*
X72793277Y66683773D01*
X72887700Y66706648D01*
X72983690Y66691648D01*
X73066633Y66641056D01*
X73081185Y66626504D01*
X73240936Y66452968D01*
X73240940Y66452965D01*
X73240944Y66452960D01*
X73419341Y66314107D01*
X73618159Y66206512D01*
X73831976Y66133109D01*
X74054957Y66095900D01*
X74281023Y66095900D01*
X74504004Y66133109D01*
X74717821Y66206512D01*
X74916639Y66314107D01*
X75095036Y66452960D01*
X75248146Y66619281D01*
X75248146Y66619283D01*
X75254795Y66626504D01*
X75333277Y66683773D01*
X75427700Y66706648D01*
X75523690Y66691648D01*
X75606633Y66641056D01*
X75621185Y66626504D01*
X75780936Y66452968D01*
X75780940Y66452965D01*
X75780944Y66452960D01*
X75959341Y66314107D01*
X76158159Y66206512D01*
X76371976Y66133109D01*
X76594957Y66095900D01*
X76821023Y66095900D01*
X77044004Y66133109D01*
X77257821Y66206512D01*
X77456639Y66314107D01*
X77635036Y66452960D01*
X77788146Y66619281D01*
X77911792Y66808535D01*
X77957196Y66912047D01*
X78002595Y67015545D01*
X78002599Y67015555D01*
X78002601Y67015559D01*
X78058097Y67234707D01*
X78066715Y67338713D01*
X88827490Y67338713D01*
X88859152Y67098210D01*
X88859153Y67098205D01*
X88921930Y66863918D01*
X88921938Y66863895D01*
X89014760Y66639799D01*
X89014768Y66639783D01*
X89136048Y66429721D01*
X89136054Y66429711D01*
X89283719Y66237269D01*
X89283728Y66237259D01*
X89455248Y66065739D01*
X89455258Y66065730D01*
X89502005Y66029860D01*
X89647701Y65918064D01*
X89647710Y65918059D01*
X89857772Y65796779D01*
X89857788Y65796771D01*
X89997848Y65738758D01*
X90081890Y65703946D01*
X90081901Y65703943D01*
X90081907Y65703941D01*
X90265011Y65654879D01*
X90316201Y65641162D01*
X90556702Y65609500D01*
X90799278Y65609500D01*
X91039779Y65641162D01*
X91273217Y65703712D01*
X91274072Y65703941D01*
X91274074Y65703942D01*
X91274090Y65703946D01*
X91425756Y65766769D01*
X91498191Y65796771D01*
X91498196Y65796774D01*
X91498202Y65796776D01*
X91708279Y65918064D01*
X91900728Y66065735D01*
X92072255Y66237262D01*
X92219926Y66429711D01*
X92341214Y66639788D01*
X92341740Y66641056D01*
X92371221Y66712234D01*
X92434044Y66863900D01*
X92496828Y67098211D01*
X92528490Y67338712D01*
X92528490Y67581288D01*
X92496828Y67821789D01*
X92434044Y68056100D01*
X92359433Y68236228D01*
X92341219Y68280202D01*
X92341211Y68280218D01*
X92235138Y68463941D01*
X92219926Y68490289D01*
X92131218Y68605896D01*
X92072260Y68682732D01*
X92072251Y68682742D01*
X91900731Y68854262D01*
X91900721Y68854271D01*
X91708279Y69001936D01*
X91708269Y69001942D01*
X91498207Y69123222D01*
X91498191Y69123230D01*
X91274095Y69216052D01*
X91274093Y69216053D01*
X91274090Y69216054D01*
X91274086Y69216055D01*
X91274072Y69216060D01*
X91039785Y69278837D01*
X91039780Y69278838D01*
X90799278Y69310500D01*
X90556702Y69310500D01*
X90316199Y69278838D01*
X90316194Y69278837D01*
X90081907Y69216060D01*
X90081884Y69216052D01*
X89857788Y69123230D01*
X89857772Y69123222D01*
X89647710Y69001942D01*
X89647700Y69001936D01*
X89455258Y68854271D01*
X89455248Y68854262D01*
X89283728Y68682742D01*
X89283719Y68682732D01*
X89136054Y68490290D01*
X89136048Y68490280D01*
X89014768Y68280218D01*
X89014760Y68280202D01*
X88921938Y68056106D01*
X88921930Y68056083D01*
X88859153Y67821796D01*
X88859152Y67821791D01*
X88827490Y67581288D01*
X88827490Y67338713D01*
X78066715Y67338713D01*
X78076765Y67460000D01*
X78058097Y67685293D01*
X78002601Y67904441D01*
X78002599Y67904446D01*
X78002595Y67904456D01*
X77911798Y68111452D01*
X77911789Y68111470D01*
X77830280Y68236228D01*
X77788146Y68300719D01*
X77637889Y68463941D01*
X77635043Y68467033D01*
X77635038Y68467038D01*
X77635036Y68467040D01*
X77606796Y68489020D01*
X77568639Y68518720D01*
X77456639Y68605893D01*
X77422968Y68624115D01*
X77257820Y68713489D01*
X77044004Y68786891D01*
X77044001Y68786892D01*
X76821023Y68824100D01*
X76594957Y68824100D01*
X76371978Y68786892D01*
X76371975Y68786891D01*
X76158159Y68713489D01*
X75959342Y68605894D01*
X75780949Y68467045D01*
X75780942Y68467038D01*
X75621185Y68293496D01*
X75542703Y68236228D01*
X75448279Y68213353D01*
X75352289Y68228353D01*
X75269346Y68278945D01*
X75254795Y68293496D01*
X75248143Y68300722D01*
X75095036Y68467040D01*
X75066796Y68489020D01*
X75028639Y68518720D01*
X74916639Y68605893D01*
X74882968Y68624115D01*
X74717820Y68713489D01*
X74504004Y68786891D01*
X74504001Y68786892D01*
X74281023Y68824100D01*
X74054957Y68824100D01*
X73831978Y68786892D01*
X73831975Y68786891D01*
X73618159Y68713489D01*
X73419342Y68605894D01*
X73240949Y68467045D01*
X73240942Y68467038D01*
X73081185Y68293496D01*
X73002703Y68236228D01*
X72908279Y68213353D01*
X72812289Y68228353D01*
X72729346Y68278945D01*
X72714795Y68293496D01*
X72708143Y68300722D01*
X72555036Y68467040D01*
X72526796Y68489020D01*
X72488639Y68518720D01*
X72376639Y68605893D01*
X72342968Y68624115D01*
X72177820Y68713489D01*
X71964004Y68786891D01*
X71964001Y68786892D01*
X71741023Y68824100D01*
X71514957Y68824100D01*
X71291978Y68786892D01*
X71291975Y68786891D01*
X71078159Y68713489D01*
X70879342Y68605894D01*
X70700949Y68467045D01*
X70700942Y68467038D01*
X70541185Y68293496D01*
X70462703Y68236228D01*
X70368279Y68213353D01*
X70272289Y68228353D01*
X70189346Y68278945D01*
X70174795Y68293496D01*
X70168143Y68300722D01*
X70015036Y68467040D01*
X69986796Y68489020D01*
X69948639Y68518720D01*
X69836639Y68605893D01*
X69802968Y68624115D01*
X69637820Y68713489D01*
X69424004Y68786891D01*
X69424001Y68786892D01*
X69201023Y68824100D01*
X68974957Y68824100D01*
X68751978Y68786892D01*
X68751975Y68786891D01*
X68538159Y68713489D01*
X68339342Y68605894D01*
X68160949Y68467045D01*
X68160942Y68467038D01*
X68001185Y68293496D01*
X67922703Y68236228D01*
X67828279Y68213353D01*
X67732289Y68228353D01*
X67649346Y68278945D01*
X67634795Y68293496D01*
X67628143Y68300722D01*
X67475036Y68467040D01*
X67446796Y68489020D01*
X67296635Y68605896D01*
X67288013Y68611529D01*
X67289550Y68613883D01*
X67229178Y68663966D01*
X67183833Y68749890D01*
X67173490Y68820910D01*
X67173490Y69378095D01*
X67173491Y69378116D01*
X67173491Y69513617D01*
X67173490Y69513619D01*
X67149454Y69634456D01*
X67149453Y69634457D01*
X67149453Y69634461D01*
X67102302Y69748295D01*
X67033848Y69850743D01*
X65985859Y70898731D01*
X65985858Y70898733D01*
X65898733Y70985858D01*
X65847509Y71020085D01*
X65846816Y71020548D01*
X65796288Y71054311D01*
X65796286Y71054312D01*
X65715792Y71087653D01*
X65715791Y71087654D01*
X65697554Y71095208D01*
X65682452Y71101463D01*
X65682449Y71101464D01*
X65682446Y71101465D01*
X65622032Y71113482D01*
X65561612Y71125500D01*
X65561607Y71125500D01*
X65561606Y71125500D01*
X56862231Y71125500D01*
X56766943Y71144454D01*
X56686161Y71198430D01*
X46307859Y81576731D01*
X46307858Y81576733D01*
X46220733Y81663858D01*
X46169509Y81698085D01*
X46124741Y81727999D01*
X46118288Y81732311D01*
X46118286Y81732312D01*
X46037792Y81765653D01*
X46037791Y81765654D01*
X46019554Y81773208D01*
X46004452Y81779463D01*
X46004449Y81779464D01*
X46004446Y81779465D01*
X45944032Y81791482D01*
X45883612Y81803500D01*
X45883607Y81803500D01*
X45883606Y81803500D01*
X45561606Y81803500D01*
X44536287Y81803500D01*
X44440999Y81822454D01*
X44360217Y81876430D01*
X44332318Y81909680D01*
X44331481Y81910875D01*
X44234485Y82049401D01*
X44067391Y82216495D01*
X44028064Y82244033D01*
X43960881Y82314211D01*
X43925668Y82404760D01*
X43927787Y82501892D01*
X43966915Y82590819D01*
X44028063Y82651968D01*
X44067391Y82679505D01*
X44234485Y82846599D01*
X44370025Y83040170D01*
X44469893Y83254337D01*
X44531053Y83482592D01*
X44537966Y83561606D01*
X44551649Y83717995D01*
X44551649Y83718006D01*
X44531054Y83953402D01*
X44531053Y83953405D01*
X44531053Y83953408D01*
X44469893Y84181663D01*
X44381416Y84371401D01*
X44370028Y84395823D01*
X44370024Y84395831D01*
X44290019Y84510090D01*
X44234485Y84589401D01*
X44067391Y84756495D01*
X44028064Y84784033D01*
X43960881Y84854211D01*
X43925668Y84944760D01*
X43927787Y85041892D01*
X43966915Y85130819D01*
X44028063Y85191968D01*
X44067391Y85219505D01*
X44234485Y85386599D01*
X44332320Y85526323D01*
X44402501Y85593505D01*
X44493050Y85628717D01*
X44536288Y85632500D01*
X44819607Y85632500D01*
X44880029Y85644519D01*
X44940452Y85656537D01*
X44973781Y85670344D01*
X44973792Y85670346D01*
X44973792Y85670348D01*
X45054286Y85703688D01*
X45105509Y85737916D01*
X45156733Y85772142D01*
X45243858Y85859267D01*
X45243860Y85859271D01*
X46398729Y87014140D01*
X46398733Y87014142D01*
X46485858Y87101267D01*
X46554311Y87203714D01*
X46601463Y87317548D01*
X46625500Y87438394D01*
X46625500Y89919995D01*
X48644341Y89919995D01*
X48664935Y89684599D01*
X48720873Y89475831D01*
X48726097Y89456337D01*
X48811167Y89273904D01*
X48825965Y89242170D01*
X48961503Y89048601D01*
X48965177Y89044223D01*
X48967376Y89040214D01*
X48967741Y89039693D01*
X48967684Y89039654D01*
X49011906Y88959044D01*
X49022482Y88862466D01*
X48995294Y88769193D01*
X48934482Y88693424D01*
X48921679Y88684680D01*
X48922169Y88684026D01*
X48792812Y88587190D01*
X48792810Y88587188D01*
X48706646Y88472088D01*
X48656403Y88337379D01*
X48656401Y88337372D01*
X48650000Y88277833D01*
X48650000Y87630001D01*
X48650001Y87630000D01*
X49566988Y87630000D01*
X49534075Y87572993D01*
X49500000Y87445826D01*
X49500000Y87314174D01*
X49534075Y87187007D01*
X49566988Y87130000D01*
X48650001Y87130000D01*
X48650000Y87129999D01*
X48650000Y86482168D01*
X48656401Y86422629D01*
X48656403Y86422622D01*
X48706646Y86287913D01*
X48792810Y86172813D01*
X48792812Y86172811D01*
X48907912Y86086647D01*
X49042621Y86036404D01*
X49042628Y86036402D01*
X49102167Y86030001D01*
X49102175Y86030000D01*
X49749999Y86030000D01*
X49750000Y86030001D01*
X49750000Y86946988D01*
X49807007Y86914075D01*
X49934174Y86880000D01*
X50065826Y86880000D01*
X50192993Y86914075D01*
X50250000Y86946988D01*
X50250000Y86030001D01*
X50250001Y86030000D01*
X50897825Y86030000D01*
X50897832Y86030001D01*
X50957371Y86036402D01*
X50957378Y86036404D01*
X51092087Y86086647D01*
X51207187Y86172811D01*
X51207189Y86172813D01*
X51293353Y86287913D01*
X51343596Y86422622D01*
X51343598Y86422629D01*
X51349999Y86482168D01*
X51350000Y86482175D01*
X51350000Y87129999D01*
X51349999Y87130000D01*
X50433012Y87130000D01*
X50465925Y87187007D01*
X50500000Y87314174D01*
X50500000Y87445826D01*
X50465925Y87572993D01*
X50433012Y87630000D01*
X51349999Y87630000D01*
X51350000Y87630001D01*
X51350000Y88277825D01*
X51349999Y88277833D01*
X51343598Y88337372D01*
X51343596Y88337379D01*
X51293353Y88472088D01*
X51207189Y88587188D01*
X51207187Y88587190D01*
X51077831Y88684026D01*
X51080287Y88687308D01*
X51031633Y88727999D01*
X50986631Y88814103D01*
X50978005Y88910875D01*
X51007069Y89003581D01*
X51034830Y89044232D01*
X51038487Y89048592D01*
X51038495Y89048599D01*
X51136330Y89188323D01*
X51206511Y89255505D01*
X51297060Y89290717D01*
X51340298Y89294500D01*
X55297770Y89294500D01*
X55393058Y89275546D01*
X55473840Y89221570D01*
X55608732Y89086678D01*
X55662708Y89005896D01*
X55681662Y88910608D01*
X55673178Y88846165D01*
X55664937Y88815408D01*
X55664935Y88815402D01*
X55644341Y88580006D01*
X55644341Y88579995D01*
X55664935Y88344599D01*
X55721976Y88131715D01*
X55726097Y88116337D01*
X55825965Y87902170D01*
X55961505Y87708599D01*
X56128599Y87541505D01*
X56167925Y87513969D01*
X56235107Y87443791D01*
X56270321Y87353242D01*
X56268202Y87256110D01*
X56229074Y87167182D01*
X56167928Y87106035D01*
X56128603Y87078499D01*
X55961504Y86911400D01*
X55825965Y86717831D01*
X55825961Y86717823D01*
X55726098Y86503667D01*
X55726097Y86503665D01*
X55664935Y86275402D01*
X55644341Y86040006D01*
X55644341Y86039995D01*
X55664935Y85804599D01*
X55682803Y85737912D01*
X55726097Y85576337D01*
X55808915Y85398733D01*
X55825965Y85362170D01*
X55872097Y85296286D01*
X55961505Y85168599D01*
X56128599Y85001505D01*
X56167925Y84973969D01*
X56235107Y84903791D01*
X56270321Y84813242D01*
X56268202Y84716110D01*
X56229074Y84627182D01*
X56167928Y84566035D01*
X56128603Y84538499D01*
X55961504Y84371400D01*
X55825965Y84177831D01*
X55825961Y84177823D01*
X55726098Y83963667D01*
X55726097Y83963665D01*
X55708699Y83898733D01*
X55681249Y83796284D01*
X55664937Y83735407D01*
X55664935Y83735402D01*
X55644341Y83500006D01*
X55644341Y83499995D01*
X55664935Y83264599D01*
X55664937Y83264592D01*
X55726097Y83036337D01*
X55814572Y82846603D01*
X55825965Y82822170D01*
X55961503Y82628601D01*
X55965177Y82624223D01*
X55967376Y82620214D01*
X55967741Y82619693D01*
X55967684Y82619654D01*
X56011906Y82539044D01*
X56022482Y82442466D01*
X55995294Y82349193D01*
X55934482Y82273424D01*
X55921679Y82264680D01*
X55922169Y82264026D01*
X55792812Y82167190D01*
X55792810Y82167188D01*
X55706646Y82052088D01*
X55656403Y81917379D01*
X55656401Y81917372D01*
X55650000Y81857833D01*
X55650000Y81210001D01*
X55650001Y81210000D01*
X56566988Y81210000D01*
X56534075Y81152993D01*
X56500000Y81025826D01*
X56500000Y80894174D01*
X56534075Y80767007D01*
X56566988Y80710000D01*
X55650001Y80710000D01*
X55650000Y80709999D01*
X55650000Y80062168D01*
X55656401Y80002629D01*
X55656403Y80002622D01*
X55706646Y79867913D01*
X55792810Y79752813D01*
X55792812Y79752811D01*
X55907912Y79666647D01*
X56042621Y79616404D01*
X56042628Y79616402D01*
X56102167Y79610001D01*
X56102175Y79610000D01*
X56749999Y79610000D01*
X56750000Y79610001D01*
X56750000Y80526988D01*
X56807007Y80494075D01*
X56934174Y80460000D01*
X57065826Y80460000D01*
X57192993Y80494075D01*
X57250000Y80526988D01*
X57250000Y79610001D01*
X57250001Y79610000D01*
X57897825Y79610000D01*
X57897832Y79610001D01*
X57957371Y79616402D01*
X57957378Y79616404D01*
X58092087Y79666647D01*
X58207187Y79752811D01*
X58207189Y79752813D01*
X58293353Y79867913D01*
X58343596Y80002622D01*
X58343598Y80002629D01*
X58349999Y80062168D01*
X58350000Y80062175D01*
X58350000Y80709999D01*
X58349999Y80710000D01*
X57433012Y80710000D01*
X57465925Y80767007D01*
X57500000Y80894174D01*
X57500000Y81025826D01*
X57465925Y81152993D01*
X57433012Y81210000D01*
X58349999Y81210000D01*
X58350000Y81210001D01*
X58350000Y81857825D01*
X58349999Y81857833D01*
X58343598Y81917372D01*
X58343596Y81917379D01*
X58293353Y82052088D01*
X58207189Y82167188D01*
X58207187Y82167190D01*
X58077831Y82264026D01*
X58080287Y82267308D01*
X58031633Y82307999D01*
X57986631Y82394103D01*
X57978005Y82490875D01*
X58007069Y82583581D01*
X58034830Y82624232D01*
X58038486Y82628591D01*
X58038495Y82628599D01*
X58174035Y82822170D01*
X58273903Y83036337D01*
X58335063Y83264592D01*
X58355659Y83500000D01*
X58355659Y83500006D01*
X58335064Y83735402D01*
X58335063Y83735407D01*
X58335063Y83735408D01*
X58273903Y83963663D01*
X58174035Y84177829D01*
X58171350Y84181663D01*
X58107878Y84272311D01*
X58038495Y84371401D01*
X57871401Y84538495D01*
X57832074Y84566033D01*
X57764891Y84636211D01*
X57729678Y84726760D01*
X57731797Y84823892D01*
X57770925Y84912819D01*
X57832073Y84973968D01*
X57871401Y85001505D01*
X58038495Y85168599D01*
X58174035Y85362170D01*
X58273903Y85576337D01*
X58335063Y85804592D01*
X58339847Y85859271D01*
X58355659Y86039995D01*
X58355659Y86040006D01*
X58335064Y86275402D01*
X58335063Y86275405D01*
X58335063Y86275408D01*
X58273903Y86503663D01*
X58174035Y86717829D01*
X58171350Y86721663D01*
X58124724Y86788253D01*
X58038495Y86911401D01*
X57871401Y87078495D01*
X57832074Y87106033D01*
X57764891Y87176211D01*
X57729678Y87266760D01*
X57731797Y87363892D01*
X57770925Y87452819D01*
X57832073Y87513968D01*
X57871401Y87541505D01*
X58038495Y87708599D01*
X58174035Y87902170D01*
X58273903Y88116337D01*
X58335063Y88344592D01*
X58348660Y88500000D01*
X58355659Y88579995D01*
X58355659Y88580006D01*
X58335064Y88815402D01*
X58335063Y88815405D01*
X58335063Y88815408D01*
X58273903Y89043663D01*
X58174035Y89257829D01*
X58171350Y89261663D01*
X58058031Y89423500D01*
X58038495Y89451401D01*
X57871401Y89618495D01*
X57677830Y89754035D01*
X57463663Y89853903D01*
X57463660Y89853904D01*
X57235401Y89915065D01*
X57000005Y89935659D01*
X56999995Y89935659D01*
X56764598Y89915065D01*
X56764592Y89915063D01*
X56733835Y89906822D01*
X56636888Y89900469D01*
X56544890Y89931699D01*
X56493322Y89971268D01*
X56145860Y90318730D01*
X56145858Y90318733D01*
X56058733Y90405858D01*
X55990623Y90451368D01*
X55967823Y90466603D01*
X55956288Y90474311D01*
X55956286Y90474312D01*
X55875792Y90507653D01*
X55875791Y90507654D01*
X55857554Y90515208D01*
X55842452Y90521463D01*
X55842449Y90521464D01*
X55842446Y90521465D01*
X55782032Y90533482D01*
X55721612Y90545500D01*
X55721607Y90545500D01*
X55721606Y90545500D01*
X51340297Y90545500D01*
X51245009Y90564454D01*
X51164227Y90618430D01*
X51136328Y90651680D01*
X51130383Y90660170D01*
X51038495Y90791401D01*
X50871401Y90958495D01*
X50832074Y90986033D01*
X50764891Y91056211D01*
X50729678Y91146760D01*
X50731797Y91243892D01*
X50770925Y91332819D01*
X50832073Y91393968D01*
X50871401Y91421505D01*
X51038495Y91588599D01*
X51136330Y91728323D01*
X51206511Y91795505D01*
X51297060Y91830717D01*
X51340298Y91834500D01*
X65177770Y91834500D01*
X65273058Y91815546D01*
X65353840Y91761570D01*
X68529739Y88585670D01*
X68583715Y88504888D01*
X68601305Y88435628D01*
X68611632Y88337379D01*
X68614326Y88311744D01*
X68672821Y88131716D01*
X68710577Y88066321D01*
X68767469Y87967781D01*
X68894126Y87827115D01*
X68894129Y87827112D01*
X68987184Y87759504D01*
X69047271Y87715848D01*
X69220189Y87638859D01*
X69220192Y87638858D01*
X69220197Y87638856D01*
X69405354Y87599500D01*
X69594645Y87599500D01*
X69594646Y87599500D01*
X69779803Y87638856D01*
X69936447Y87708599D01*
X69952728Y87715848D01*
X69952728Y87715849D01*
X69952730Y87715849D01*
X70105871Y87827112D01*
X70232533Y87967784D01*
X70327179Y88131716D01*
X70385674Y88311744D01*
X70405460Y88500000D01*
X70385674Y88688256D01*
X70327179Y88868284D01*
X70232533Y89032216D01*
X70232531Y89032219D01*
X70232530Y89032220D01*
X70105873Y89172886D01*
X70105872Y89172887D01*
X70105871Y89172888D01*
X69988968Y89257823D01*
X69952728Y89284153D01*
X69779810Y89361142D01*
X69779796Y89361146D01*
X69594646Y89400500D01*
X69587231Y89400500D01*
X69491943Y89419454D01*
X69411161Y89473430D01*
X66025859Y92858731D01*
X66025858Y92858733D01*
X65938733Y92945858D01*
X65887509Y92980085D01*
X65886816Y92980548D01*
X65836288Y93014311D01*
X65836286Y93014312D01*
X65755792Y93047653D01*
X65755791Y93047654D01*
X65737554Y93055208D01*
X65722452Y93061463D01*
X65722449Y93061464D01*
X65722446Y93061465D01*
X65662032Y93073482D01*
X65601612Y93085500D01*
X65601607Y93085500D01*
X65601606Y93085500D01*
X51340297Y93085500D01*
X51245009Y93104454D01*
X51164227Y93158430D01*
X51136328Y93191680D01*
X51038497Y93331398D01*
X51038495Y93331401D01*
X50871401Y93498495D01*
X50832074Y93526033D01*
X50764891Y93596211D01*
X50729678Y93686760D01*
X50731797Y93783892D01*
X50770925Y93872819D01*
X50832073Y93933968D01*
X50871401Y93961505D01*
X51038495Y94128599D01*
X51136330Y94268323D01*
X51206511Y94335505D01*
X51297060Y94370717D01*
X51340298Y94374500D01*
X74637771Y94374500D01*
X74733059Y94355546D01*
X74813837Y94301573D01*
X74813841Y94301569D01*
X74939339Y94176070D01*
X74993315Y94095288D01*
X75012269Y94000000D01*
X74993315Y93904712D01*
X74939339Y93823931D01*
X71851269Y90735860D01*
X71514139Y90398730D01*
X71479915Y90347510D01*
X71445689Y90296289D01*
X71398535Y90182447D01*
X71382626Y90102457D01*
X71382625Y90102451D01*
X71374500Y90061607D01*
X71374500Y86438391D01*
X71398118Y86319650D01*
X71398536Y86317550D01*
X71398537Y86317547D01*
X71445685Y86203720D01*
X71445686Y86203718D01*
X71445688Y86203714D01*
X71475259Y86159459D01*
X71514142Y86101267D01*
X71601267Y86014142D01*
X71601270Y86014140D01*
X72554139Y85061271D01*
X72554142Y85061267D01*
X72641267Y84974142D01*
X72692486Y84939919D01*
X72692489Y84939916D01*
X72692490Y84939916D01*
X72743714Y84905688D01*
X72824207Y84872348D01*
X72857548Y84858537D01*
X72917971Y84846519D01*
X72947767Y84840592D01*
X72978392Y84834500D01*
X72978393Y84834500D01*
X72978394Y84834500D01*
X73159702Y84834500D01*
X73254990Y84815546D01*
X73335772Y84761570D01*
X73363668Y84728325D01*
X73461505Y84588599D01*
X73628599Y84421505D01*
X73667925Y84393969D01*
X73735107Y84323791D01*
X73770321Y84233242D01*
X73768202Y84136110D01*
X73729074Y84047182D01*
X73667928Y83986035D01*
X73628603Y83958499D01*
X73461504Y83791400D01*
X73325965Y83597831D01*
X73325961Y83597823D01*
X73226098Y83383667D01*
X73226097Y83383665D01*
X73164935Y83155402D01*
X73144341Y82920006D01*
X73144341Y82919995D01*
X73164935Y82684599D01*
X73216842Y82490875D01*
X73226097Y82456337D01*
X73295959Y82306518D01*
X73325965Y82242170D01*
X73461503Y82048601D01*
X73465177Y82044223D01*
X73467376Y82040214D01*
X73467741Y82039693D01*
X73467684Y82039654D01*
X73511906Y81959044D01*
X73522482Y81862466D01*
X73495294Y81769193D01*
X73434482Y81693424D01*
X73421679Y81684680D01*
X73422169Y81684026D01*
X73292812Y81587190D01*
X73292810Y81587188D01*
X73206646Y81472088D01*
X73156403Y81337379D01*
X73156401Y81337372D01*
X73150000Y81277833D01*
X73150000Y80630001D01*
X73150001Y80630000D01*
X74066988Y80630000D01*
X74034075Y80572993D01*
X74000000Y80445826D01*
X74000000Y80314174D01*
X74034075Y80187007D01*
X74066988Y80130000D01*
X73150001Y80130000D01*
X73150000Y80129999D01*
X73150000Y79482168D01*
X73156401Y79422629D01*
X73156403Y79422622D01*
X73206646Y79287913D01*
X73292810Y79172813D01*
X73292812Y79172811D01*
X73407912Y79086647D01*
X73542621Y79036404D01*
X73542628Y79036402D01*
X73602167Y79030001D01*
X73602175Y79030000D01*
X74249999Y79030000D01*
X74250000Y79030001D01*
X74250000Y79946988D01*
X74307007Y79914075D01*
X74434174Y79880000D01*
X74565826Y79880000D01*
X74692993Y79914075D01*
X74750000Y79946988D01*
X74750000Y79030001D01*
X74750001Y79030000D01*
X75397825Y79030000D01*
X75397832Y79030001D01*
X75457371Y79036402D01*
X75457378Y79036404D01*
X75592087Y79086647D01*
X75707187Y79172811D01*
X75707189Y79172813D01*
X75793353Y79287913D01*
X75843596Y79422622D01*
X75843598Y79422629D01*
X75849999Y79482168D01*
X75850000Y79482175D01*
X75850000Y80129999D01*
X75849999Y80130000D01*
X74933012Y80130000D01*
X74965925Y80187007D01*
X75000000Y80314174D01*
X75000000Y80445826D01*
X74965925Y80572993D01*
X74933012Y80630000D01*
X75849999Y80630000D01*
X75850000Y80630001D01*
X75850000Y81277825D01*
X75849999Y81277833D01*
X75843598Y81337372D01*
X75843596Y81337379D01*
X75793353Y81472088D01*
X75707189Y81587188D01*
X75707187Y81587190D01*
X75577831Y81684026D01*
X75580287Y81687308D01*
X75531633Y81727999D01*
X75486631Y81814103D01*
X75478005Y81910875D01*
X75507069Y82003581D01*
X75534830Y82044232D01*
X75538487Y82048592D01*
X75538495Y82048599D01*
X75636330Y82188323D01*
X75706511Y82255505D01*
X75797060Y82290717D01*
X75840298Y82294500D01*
X98981607Y82294500D01*
X99042029Y82306519D01*
X99102452Y82318537D01*
X99135781Y82332344D01*
X99135792Y82332346D01*
X99135792Y82332348D01*
X99216286Y82365688D01*
X99267509Y82399916D01*
X99318733Y82434142D01*
X99405858Y82521267D01*
X99405859Y82521270D01*
X108745858Y91861267D01*
X108814312Y91963715D01*
X108861463Y92077549D01*
X108885501Y92198394D01*
X108885501Y92321607D01*
X108885501Y92331880D01*
X108885500Y92331906D01*
X108885500Y94659703D01*
X108904454Y94754991D01*
X108958430Y94835773D01*
X108991674Y94863668D01*
X109131401Y94961505D01*
X109131410Y94961515D01*
X109135768Y94965170D01*
X109139775Y94967369D01*
X109140307Y94967741D01*
X109140347Y94967683D01*
X109220945Y95011904D01*
X109317522Y95022484D01*
X109410797Y94995301D01*
X109486568Y94934492D01*
X109495318Y94921679D01*
X109495974Y94922169D01*
X109592810Y94792813D01*
X109592812Y94792811D01*
X109707912Y94706647D01*
X109842621Y94656404D01*
X109842628Y94656402D01*
X109902167Y94650001D01*
X109902175Y94650000D01*
X110549999Y94650000D01*
X110550000Y94650001D01*
X110550000Y95566988D01*
X110607007Y95534075D01*
X110734174Y95500000D01*
X110865826Y95500000D01*
X110992993Y95534075D01*
X111050000Y95566988D01*
X111050000Y94650001D01*
X111050001Y94650000D01*
X111697825Y94650000D01*
X111697832Y94650001D01*
X111757371Y94656402D01*
X111757378Y94656404D01*
X111892087Y94706647D01*
X112007187Y94792811D01*
X112007189Y94792813D01*
X112093353Y94907913D01*
X112143596Y95042622D01*
X112143598Y95042629D01*
X112149999Y95102168D01*
X112150000Y95102175D01*
X112150000Y95749999D01*
X112149999Y95750000D01*
X111233012Y95750000D01*
X111265925Y95807007D01*
X111300000Y95934174D01*
X111300000Y96065826D01*
X111265925Y96192993D01*
X111233012Y96250000D01*
X112149999Y96250000D01*
X112150000Y96250001D01*
X112150000Y96897825D01*
X112149999Y96897833D01*
X112143598Y96957372D01*
X112143596Y96957379D01*
X112093353Y97092088D01*
X112007189Y97207188D01*
X112007187Y97207190D01*
X111892087Y97293354D01*
X111757378Y97343597D01*
X111757371Y97343599D01*
X111697832Y97350000D01*
X111050001Y97350000D01*
X111050000Y97349999D01*
X111050000Y96433012D01*
X110992993Y96465925D01*
X110865826Y96500000D01*
X110734174Y96500000D01*
X110607007Y96465925D01*
X110550000Y96433012D01*
X110550000Y97349999D01*
X110549999Y97350000D01*
X109902167Y97350000D01*
X109842628Y97343599D01*
X109842621Y97343597D01*
X109707912Y97293354D01*
X109592812Y97207190D01*
X109592810Y97207188D01*
X109495974Y97077831D01*
X109492695Y97080286D01*
X109451946Y97031589D01*
X109365829Y96986612D01*
X109269055Y96978014D01*
X109176357Y97007104D01*
X109135777Y97034823D01*
X109131399Y97038497D01*
X108937830Y97174035D01*
X108866729Y97207190D01*
X108723663Y97273903D01*
X108723660Y97273904D01*
X108495401Y97335065D01*
X108260005Y97355659D01*
X108259995Y97355659D01*
X108024598Y97335065D01*
X107796335Y97273903D01*
X107796333Y97273902D01*
X107582177Y97174039D01*
X107582169Y97174035D01*
X107388600Y97038496D01*
X107221501Y96871397D01*
X107193968Y96832075D01*
X107123787Y96764891D01*
X107033237Y96729679D01*
X106936106Y96731799D01*
X106847179Y96770928D01*
X106786032Y96832075D01*
X106758498Y96871397D01*
X106758497Y96871398D01*
X106758495Y96871401D01*
X106591401Y97038495D01*
X106535223Y97077831D01*
X106397830Y97174035D01*
X106326729Y97207190D01*
X106183663Y97273903D01*
X106183660Y97273904D01*
X105955401Y97335065D01*
X105720005Y97355659D01*
X105719995Y97355659D01*
X105484598Y97335065D01*
X105256335Y97273903D01*
X105256333Y97273902D01*
X105042177Y97174039D01*
X105042169Y97174035D01*
X104848600Y97038496D01*
X104681501Y96871397D01*
X104653968Y96832075D01*
X104583787Y96764891D01*
X104493237Y96729679D01*
X104396106Y96731799D01*
X104307179Y96770928D01*
X104246032Y96832075D01*
X104218498Y96871397D01*
X104218497Y96871398D01*
X104218495Y96871401D01*
X104051401Y97038495D01*
X103995223Y97077831D01*
X103857830Y97174035D01*
X103786729Y97207190D01*
X103643663Y97273903D01*
X103643660Y97273904D01*
X103415401Y97335065D01*
X103180005Y97355659D01*
X103179995Y97355659D01*
X102944598Y97335065D01*
X102716335Y97273903D01*
X102716333Y97273902D01*
X102502177Y97174039D01*
X102502169Y97174035D01*
X102308600Y97038496D01*
X102141504Y96871400D01*
X102005965Y96677831D01*
X102005961Y96677823D01*
X101906098Y96463667D01*
X101906097Y96463665D01*
X101844935Y96235402D01*
X101824341Y96000006D01*
X101824341Y95999995D01*
X101844935Y95764599D01*
X101844937Y95764592D01*
X101853178Y95733836D01*
X101859532Y95636891D01*
X101828302Y95544892D01*
X101788732Y95493324D01*
X100993841Y94698431D01*
X100913059Y94644454D01*
X100817771Y94625500D01*
X76362230Y94625500D01*
X76266942Y94644454D01*
X76186161Y94698430D01*
X75500054Y95384536D01*
X75500051Y95384540D01*
X75500051Y95384539D01*
X75485859Y95398731D01*
X75485858Y95398733D01*
X75398733Y95485858D01*
X75338528Y95526086D01*
X75296288Y95554311D01*
X75296286Y95554312D01*
X75215792Y95587653D01*
X75215791Y95587654D01*
X75197554Y95595208D01*
X75182452Y95601463D01*
X75182449Y95601464D01*
X75182446Y95601465D01*
X75122032Y95613482D01*
X75061612Y95625500D01*
X75061607Y95625500D01*
X75061606Y95625500D01*
X51340297Y95625500D01*
X51245009Y95644454D01*
X51164227Y95698430D01*
X51136328Y95731680D01*
X51123500Y95750000D01*
X51038495Y95871401D01*
X50871401Y96038495D01*
X50832368Y96065826D01*
X50677830Y96174035D01*
X50677821Y96174039D01*
X50463663Y96273903D01*
X50463660Y96273904D01*
X50235401Y96335065D01*
X50000005Y96355659D01*
X49999995Y96355659D01*
X49764598Y96335065D01*
X49536335Y96273903D01*
X49536333Y96273902D01*
X49322177Y96174039D01*
X49322169Y96174035D01*
X49128600Y96038496D01*
X48961504Y95871400D01*
X48825965Y95677831D01*
X48825961Y95677823D01*
X48726098Y95463667D01*
X48726097Y95463665D01*
X48664935Y95235402D01*
X48644341Y95000006D01*
X48644341Y94999995D01*
X48664935Y94764599D01*
X48721280Y94554312D01*
X48726097Y94536337D01*
X48819747Y94335505D01*
X48825965Y94322170D01*
X48863670Y94268321D01*
X48961505Y94128599D01*
X49128599Y93961505D01*
X49167925Y93933969D01*
X49235107Y93863791D01*
X49270321Y93773242D01*
X49268202Y93676110D01*
X49229074Y93587182D01*
X49167928Y93526035D01*
X49128603Y93498499D01*
X48961504Y93331400D01*
X48825965Y93137831D01*
X48825961Y93137823D01*
X48726098Y92923667D01*
X48726097Y92923665D01*
X48664935Y92695402D01*
X48644341Y92460006D01*
X48644341Y92459995D01*
X48664935Y92224599D01*
X48720873Y92015831D01*
X48726097Y91996337D01*
X48816873Y91801667D01*
X48825965Y91782170D01*
X48863670Y91728321D01*
X48961505Y91588599D01*
X49128599Y91421505D01*
X49167925Y91393969D01*
X49235107Y91323791D01*
X49270321Y91233242D01*
X49268202Y91136110D01*
X49229074Y91047182D01*
X49167928Y90986035D01*
X49128603Y90958499D01*
X48961504Y90791400D01*
X48825965Y90597831D01*
X48825961Y90597823D01*
X48726098Y90383667D01*
X48726097Y90383665D01*
X48664935Y90155402D01*
X48644341Y89920006D01*
X48644341Y89919995D01*
X46625500Y89919995D01*
X46625500Y92926085D01*
X46625501Y92926106D01*
X46625501Y93061607D01*
X46625500Y93061609D01*
X46623138Y93073482D01*
X46601463Y93182451D01*
X46554312Y93296285D01*
X46485858Y93398733D01*
X45485859Y94398731D01*
X45485858Y94398733D01*
X45398733Y94485858D01*
X45338528Y94526086D01*
X45323182Y94536340D01*
X45296288Y94554311D01*
X45296286Y94554312D01*
X45215792Y94587653D01*
X45215791Y94587654D01*
X45197554Y94595208D01*
X45182452Y94601463D01*
X45182449Y94601464D01*
X45182446Y94601465D01*
X45122032Y94613482D01*
X45061612Y94625500D01*
X45061607Y94625500D01*
X45061606Y94625500D01*
X12561607Y94625500D01*
X12438393Y94625500D01*
X12438387Y94625500D01*
X12377973Y94613484D01*
X12377974Y94613483D01*
X12317548Y94601464D01*
X12284207Y94587653D01*
X12284206Y94587654D01*
X12203715Y94554313D01*
X12161472Y94526086D01*
X12161470Y94526085D01*
X12101270Y94485861D01*
X3014139Y85398730D01*
X2979915Y85347510D01*
X2945687Y85296285D01*
X2929624Y85257503D01*
X2929623Y85257500D01*
X2898537Y85182455D01*
X2888267Y85130819D01*
X2874500Y85061606D01*
X2874500Y60061607D01*
X2874500Y59938393D01*
X2898537Y59817549D01*
X2945688Y59703714D01*
X2976536Y59657548D01*
X3014142Y59601267D01*
X3101267Y59514142D01*
X3101269Y59514141D01*
X5801267Y56814142D01*
X5801270Y56814140D01*
X5903713Y56745689D01*
X5903714Y56745689D01*
X5903715Y56745688D01*
X5970397Y56718068D01*
X6017548Y56698537D01*
X6037597Y56694549D01*
X6138394Y56674499D01*
X6273895Y56674499D01*
X6273915Y56674500D01*
X6772472Y56674500D01*
X6867760Y56655546D01*
X6948542Y56601570D01*
X6980926Y56561691D01*
X7047834Y56459281D01*
X7047836Y56459279D01*
X7200936Y56292968D01*
X7200939Y56292966D01*
X7200944Y56292960D01*
X7286338Y56226495D01*
X7349891Y56153010D01*
X7380485Y56060797D01*
X7373462Y55963897D01*
X7329892Y55877059D01*
X7286339Y55833507D01*
X7200944Y55767040D01*
X7200936Y55767033D01*
X7047836Y55600722D01*
X7047831Y55600715D01*
X6924190Y55411470D01*
X6924181Y55411452D01*
X6833384Y55204456D01*
X6833380Y55204446D01*
X6777883Y54985295D01*
X6759215Y54760000D01*
X6777883Y54534706D01*
X6833380Y54315555D01*
X6833384Y54315545D01*
X6924181Y54108549D01*
X6924190Y54108531D01*
X6990754Y54006648D01*
X7047834Y53919281D01*
X7047836Y53919279D01*
X7200936Y53752968D01*
X7200939Y53752966D01*
X7200944Y53752960D01*
X7286338Y53686495D01*
X7349891Y53613010D01*
X7380485Y53520797D01*
X7373462Y53423897D01*
X7329892Y53337059D01*
X7286339Y53293507D01*
X7200944Y53227040D01*
X7200936Y53227033D01*
X7047836Y53060722D01*
X7047831Y53060715D01*
X6924190Y52871470D01*
X6924181Y52871452D01*
X6833384Y52664456D01*
X6833380Y52664446D01*
X6777883Y52445295D01*
X6759215Y52220000D01*
X6777883Y51994706D01*
X6833380Y51775555D01*
X6833384Y51775545D01*
X6924181Y51568549D01*
X6924190Y51568531D01*
X6990754Y51466648D01*
X7047834Y51379281D01*
X7047836Y51379279D01*
X7200936Y51212968D01*
X7200939Y51212966D01*
X7200944Y51212960D01*
X7286338Y51146495D01*
X7349891Y51073010D01*
X7380485Y50980797D01*
X7373462Y50883897D01*
X7329892Y50797059D01*
X7286339Y50753507D01*
X7200944Y50687040D01*
X7200936Y50687033D01*
X7047836Y50520722D01*
X7047831Y50520715D01*
X6924190Y50331470D01*
X6924181Y50331452D01*
X6833384Y50124456D01*
X6833380Y50124446D01*
X6777883Y49905295D01*
X6759215Y49680000D01*
X6777883Y49454706D01*
X6833380Y49235555D01*
X6833384Y49235545D01*
X6924181Y49028549D01*
X6924190Y49028531D01*
X6990754Y48926648D01*
X7047834Y48839281D01*
X7047836Y48839279D01*
X7200936Y48672968D01*
X7200939Y48672966D01*
X7200944Y48672960D01*
X7286338Y48606495D01*
X7349891Y48533010D01*
X7380485Y48440797D01*
X7373462Y48343897D01*
X7329892Y48257059D01*
X7286339Y48213507D01*
X7200944Y48147040D01*
X7200936Y48147033D01*
X7047836Y47980722D01*
X7047831Y47980715D01*
X6924190Y47791470D01*
X6924181Y47791452D01*
X6833384Y47584456D01*
X6833380Y47584446D01*
X6777883Y47365295D01*
X6759215Y47140000D01*
X6777883Y46914706D01*
X6833380Y46695555D01*
X6833384Y46695545D01*
X6924181Y46488549D01*
X6924190Y46488531D01*
X6990754Y46386648D01*
X7047834Y46299281D01*
X7047836Y46299279D01*
X7200936Y46132968D01*
X7200939Y46132966D01*
X7200944Y46132960D01*
X7286338Y46066495D01*
X7349891Y45993010D01*
X7380485Y45900797D01*
X7373462Y45803897D01*
X7329892Y45717059D01*
X7286339Y45673507D01*
X7254876Y45649017D01*
X7200944Y45607040D01*
X7200936Y45607033D01*
X7047836Y45440722D01*
X7047831Y45440715D01*
X6924190Y45251470D01*
X6924181Y45251452D01*
X6833384Y45044456D01*
X6833380Y45044446D01*
X6777883Y44825295D01*
X6759215Y44600000D01*
X6777883Y44374706D01*
X6833380Y44155555D01*
X6833384Y44155545D01*
X6924181Y43948549D01*
X6924190Y43948531D01*
X6952089Y43905829D01*
X7047834Y43759281D01*
X7047836Y43759279D01*
X7200936Y43592968D01*
X7200939Y43592966D01*
X7200944Y43592960D01*
X7286338Y43526495D01*
X7349891Y43453010D01*
X7380485Y43360797D01*
X7373462Y43263897D01*
X7329892Y43177059D01*
X7286339Y43133507D01*
X7272308Y43122585D01*
X7200944Y43067040D01*
X7200936Y43067033D01*
X7047836Y42900722D01*
X7047831Y42900715D01*
X6924190Y42711470D01*
X6924181Y42711452D01*
X6833384Y42504456D01*
X6833380Y42504446D01*
X6777883Y42285295D01*
X6759215Y42060000D01*
X6777883Y41834706D01*
X6833380Y41615555D01*
X6833384Y41615545D01*
X6924181Y41408549D01*
X6924190Y41408531D01*
X6990754Y41306648D01*
X7047834Y41219281D01*
X7047836Y41219279D01*
X7200936Y41052968D01*
X7200939Y41052966D01*
X7200944Y41052960D01*
X7286338Y40986495D01*
X7349891Y40913010D01*
X7380485Y40820797D01*
X7373462Y40723897D01*
X7329892Y40637059D01*
X7286339Y40593507D01*
X7200953Y40527047D01*
X7200944Y40527040D01*
X7200936Y40527033D01*
X7047836Y40360722D01*
X7047831Y40360715D01*
X6924190Y40171470D01*
X6924181Y40171452D01*
X6833384Y39964456D01*
X6833380Y39964446D01*
X6777883Y39745295D01*
X6759215Y39520000D01*
X6777883Y39294706D01*
X6833380Y39075555D01*
X6833384Y39075545D01*
X6924181Y38868549D01*
X6924190Y38868531D01*
X6990754Y38766648D01*
X7047834Y38679281D01*
X7047836Y38679279D01*
X7200936Y38512968D01*
X7200939Y38512966D01*
X7200944Y38512960D01*
X7286338Y38446495D01*
X7349891Y38373010D01*
X7380485Y38280797D01*
X7373462Y38183897D01*
X7329892Y38097059D01*
X7286339Y38053507D01*
X7200944Y37987040D01*
X7200936Y37987033D01*
X7047836Y37820722D01*
X7047831Y37820715D01*
X6924190Y37631470D01*
X6924181Y37631452D01*
X6833384Y37424456D01*
X6833380Y37424446D01*
X6777883Y37205295D01*
X6759215Y36980000D01*
X6777883Y36754706D01*
X6833380Y36535555D01*
X6833384Y36535545D01*
X6924181Y36328549D01*
X6924190Y36328531D01*
X6969723Y36258838D01*
X7047834Y36139281D01*
X7047836Y36139279D01*
X7200936Y35972968D01*
X7200939Y35972966D01*
X7200944Y35972960D01*
X7286338Y35906495D01*
X7349891Y35833010D01*
X7380485Y35740797D01*
X7373462Y35643897D01*
X7329892Y35557059D01*
X7286339Y35513507D01*
X7230814Y35470289D01*
X7200944Y35447040D01*
X7200936Y35447033D01*
X7047836Y35280722D01*
X7047831Y35280715D01*
X6924190Y35091470D01*
X6924181Y35091452D01*
X6833384Y34884456D01*
X6833380Y34884446D01*
X6777883Y34665295D01*
X6759215Y34440000D01*
X6777883Y34214706D01*
X6833380Y33995555D01*
X6833384Y33995545D01*
X6924181Y33788549D01*
X6924190Y33788531D01*
X6990754Y33686648D01*
X7047834Y33599281D01*
X7047836Y33599279D01*
X7200936Y33432968D01*
X7200939Y33432966D01*
X7200944Y33432960D01*
X7286338Y33366495D01*
X7349891Y33293010D01*
X7380485Y33200797D01*
X7373462Y33103897D01*
X7329892Y33017059D01*
X7286339Y32973507D01*
X7200944Y32907040D01*
X7200936Y32907033D01*
X7047836Y32740722D01*
X7047831Y32740715D01*
X6924190Y32551470D01*
X6924181Y32551452D01*
X6833384Y32344456D01*
X6833380Y32344446D01*
X6777883Y32125295D01*
X6759215Y31900000D01*
X6777883Y31674706D01*
X6833380Y31455555D01*
X6833384Y31455545D01*
X6924181Y31248549D01*
X6924190Y31248531D01*
X6986662Y31152912D01*
X7047834Y31059281D01*
X7047836Y31059279D01*
X7200936Y30892968D01*
X7200939Y30892966D01*
X7200944Y30892960D01*
X7286338Y30826495D01*
X7349891Y30753010D01*
X7380485Y30660797D01*
X7373462Y30563897D01*
X7329892Y30477059D01*
X7286338Y30433505D01*
X7200944Y30367040D01*
X7200936Y30367033D01*
X7047836Y30200722D01*
X7047831Y30200715D01*
X6924190Y30011470D01*
X6924181Y30011452D01*
X6833384Y29804456D01*
X6833380Y29804446D01*
X6777883Y29585295D01*
X6759215Y29360000D01*
X6777883Y29134706D01*
X6833380Y28915555D01*
X6833384Y28915545D01*
X6924181Y28708549D01*
X6924190Y28708531D01*
X6940152Y28684100D01*
X7047834Y28519281D01*
X7047836Y28519279D01*
X7200936Y28352968D01*
X7200939Y28352966D01*
X7200944Y28352960D01*
X7286338Y28286495D01*
X7349891Y28213010D01*
X7380485Y28120797D01*
X7373462Y28023897D01*
X7329892Y27937059D01*
X7286338Y27893505D01*
X7200944Y27827040D01*
X7200936Y27827033D01*
X7047836Y27660722D01*
X7047831Y27660715D01*
X6924190Y27471470D01*
X6924181Y27471452D01*
X6833384Y27264456D01*
X6833380Y27264446D01*
X6777883Y27045295D01*
X6759215Y26820000D01*
X6777883Y26594706D01*
X6833380Y26375555D01*
X6833384Y26375545D01*
X6924181Y26168549D01*
X6924190Y26168531D01*
X6940152Y26144100D01*
X7047834Y25979281D01*
X7047836Y25979279D01*
X7200936Y25812968D01*
X7200939Y25812966D01*
X7200944Y25812960D01*
X7286338Y25746495D01*
X7349891Y25673010D01*
X7380485Y25580797D01*
X7373462Y25483897D01*
X7329892Y25397059D01*
X7286339Y25353507D01*
X7251136Y25326106D01*
X7200944Y25287040D01*
X7200936Y25287033D01*
X7047836Y25120722D01*
X7047831Y25120715D01*
X6924190Y24931470D01*
X6924181Y24931452D01*
X6833384Y24724456D01*
X6833380Y24724446D01*
X6777883Y24505295D01*
X6759215Y24280000D01*
X6777883Y24054706D01*
X6833380Y23835555D01*
X6833384Y23835545D01*
X6924181Y23628549D01*
X6924190Y23628531D01*
X6940152Y23604100D01*
X7047834Y23439281D01*
X7047836Y23439279D01*
X7200936Y23272968D01*
X7200939Y23272966D01*
X7200944Y23272960D01*
X7286338Y23206495D01*
X7349891Y23133010D01*
X7380485Y23040797D01*
X7373462Y22943897D01*
X7329892Y22857059D01*
X7286338Y22813505D01*
X7200944Y22747040D01*
X7200936Y22747033D01*
X7047836Y22580722D01*
X7047831Y22580715D01*
X6924190Y22391470D01*
X6924181Y22391452D01*
X6833384Y22184456D01*
X6833380Y22184446D01*
X6777883Y21965295D01*
X6759215Y21740000D01*
X6777883Y21514706D01*
X6833380Y21295555D01*
X6833384Y21295545D01*
X6924181Y21088549D01*
X6924190Y21088531D01*
X6969723Y21018838D01*
X7047834Y20899281D01*
X7047836Y20899279D01*
X7200936Y20732968D01*
X7200939Y20732966D01*
X7200944Y20732960D01*
X7286338Y20666495D01*
X7349891Y20593010D01*
X7380485Y20500797D01*
X7373462Y20403897D01*
X7329892Y20317059D01*
X7286339Y20273507D01*
X7230814Y20230289D01*
X7200944Y20207040D01*
X7200936Y20207033D01*
X7047836Y20040722D01*
X7047831Y20040715D01*
X6924190Y19851470D01*
X6924181Y19851452D01*
X6833384Y19644456D01*
X6833380Y19644446D01*
X6777883Y19425295D01*
X6759215Y19200000D01*
X6777883Y18974706D01*
X6833380Y18755555D01*
X6833384Y18755545D01*
X6924181Y18548549D01*
X6924190Y18548531D01*
X6952089Y18505829D01*
X7047834Y18359281D01*
X7058357Y18347850D01*
X7200936Y18192968D01*
X7200940Y18192965D01*
X7200944Y18192960D01*
X7379341Y18054107D01*
X7578159Y17946512D01*
X7791976Y17873109D01*
X8014957Y17835900D01*
X8241023Y17835900D01*
X8464004Y17873109D01*
X8677821Y17946512D01*
X8876639Y18054107D01*
X9055036Y18192960D01*
X9208146Y18359281D01*
X9208151Y18359290D01*
X9214793Y18366504D01*
X9293275Y18423773D01*
X9387699Y18446648D01*
X9483689Y18431648D01*
X9566632Y18381057D01*
X9581180Y18366508D01*
X9601681Y18344239D01*
X9652275Y18261297D01*
X9667490Y18175592D01*
X9667490Y15587459D01*
X9674083Y15554316D01*
X9674083Y15554311D01*
X9674084Y15554311D01*
X9704667Y15400555D01*
X9705937Y15394170D01*
X9705940Y15394162D01*
X9781355Y15212092D01*
X9781356Y15212089D01*
X9781358Y15212086D01*
X9890851Y15048218D01*
X10030208Y14908861D01*
X10030210Y14908860D01*
X14826570Y10112500D01*
X14880546Y10031718D01*
X14899500Y9936430D01*
X14899500Y7949500D01*
X14880546Y7854212D01*
X14826570Y7773430D01*
X14745788Y7719454D01*
X14650501Y7700500D01*
X14352134Y7700500D01*
X14352130Y7700500D01*
X14352128Y7700499D01*
X14339314Y7699122D01*
X14292519Y7694092D01*
X14292515Y7694091D01*
X14157670Y7643797D01*
X14042455Y7557547D01*
X14042453Y7557545D01*
X13956204Y7442331D01*
X13905908Y7307482D01*
X13899500Y7247877D01*
X13899500Y6114590D01*
X13880546Y6019302D01*
X13826570Y5938520D01*
X13745788Y5884544D01*
X13660070Y5865774D01*
X11434774Y5780184D01*
X11425204Y5780000D01*
X6095990Y5780000D01*
X6095990Y5779999D01*
X6095990Y1203000D01*
X6077036Y1107712D01*
X6023060Y1026930D01*
X5942278Y972954D01*
X5846990Y954000D01*
X1011643Y954000D01*
X916355Y972954D01*
X835573Y1026930D01*
X781597Y1107712D01*
X762643Y1203000D01*
X762644Y1203652D01*
X1015340Y97733652D01*
X1034543Y97828890D01*
X1088731Y97909530D01*
X1169653Y97963295D01*
X1264339Y97982000D01*
X112780990Y97982000D01*
X112876278Y97963046D01*
G37*
%TD.AperFunction*%
%TD*%
M02*
