%TF.GenerationSoftware,KiCad,Pcbnew,7.0.10*%
%TF.CreationDate,2024-01-17T10:32:49-06:00*%
%TF.ProjectId,controlSemaforicoMEga,636f6e74-726f-46c5-9365-6d61666f7269,rev?*%
%TF.SameCoordinates,PX4ef7d2aPY852b4f0*%
%TF.FileFunction,Copper,L1,Top*%
%TF.FilePolarity,Positive*%
%FSLAX46Y46*%
G04 Gerber Fmt 4.6, Leading zero omitted, Abs format (unit mm)*
G04 Created by KiCad (PCBNEW 7.0.10) date 2024-01-17 10:32:49*
%MOMM*%
%LPD*%
G01*
G04 APERTURE LIST*
%TA.AperFunction,NonConductor*%
%ADD10C,0.254000*%
%TD*%
%TA.AperFunction,NonConductor*%
%ADD11C,0.150000*%
%TD*%
%TA.AperFunction,ComponentPad*%
%ADD12O,1.727200X1.727200*%
%TD*%
%TA.AperFunction,ComponentPad*%
%ADD13R,1.727200X1.727200*%
%TD*%
%TA.AperFunction,SMDPad,CuDef*%
%ADD14R,3.000000X13.000000*%
%TD*%
%TA.AperFunction,SMDPad,CuDef*%
%ADD15O,3.000000X13.000000*%
%TD*%
%TA.AperFunction,Conductor*%
%ADD16C,1.000000*%
%TD*%
%TA.AperFunction,Conductor*%
%ADD17C,0.250000*%
%TD*%
%TA.AperFunction,Conductor*%
%ADD18C,0.203200*%
%TD*%
%TA.AperFunction,Conductor*%
%ADD19C,0.800000*%
%TD*%
G04 APERTURE END LIST*
D10*
X11988800Y-4622800D02*
X13360400Y-5994400D01*
X13360400Y-5994400D02*
X101625400Y-5994400D01*
X102997000Y5003800D02*
X113995200Y5003800D01*
X0Y99009200D02*
X113995200Y99009200D01*
X0Y0D02*
X0Y99009200D01*
X7010400Y0D02*
X7010400Y4953000D01*
D11*
X103000000Y-4632000D02*
X103000000Y5000000D01*
D10*
X0Y0D02*
X7010400Y0D01*
X7010400Y4953000D02*
X11988800Y4953000D01*
X11988800Y-4622800D02*
X11988800Y4953000D01*
X101625400Y-5994400D02*
X102997000Y-4622800D01*
X113995200Y5003800D02*
X113995200Y99009200D01*
D12*
%TO.P,A1,*%
%TO.N,*%
X76707990Y79186000D03*
%TO.P,A1,3V3,3.3V*%
%TO.N,unconnected-(A1-3.3V-Pad3V3)*%
X69087990Y79186000D03*
%TO.P,A1,5V1,5V*%
%TO.N,unconnected-(A1-5V-Pad5V1)*%
X66547990Y79186000D03*
%TO.P,A1,5V2,SPI_5V*%
%TO.N,unconnected-(A1-SPI_5V-Pad5V2)*%
X38480990Y51246000D03*
%TO.P,A1,5V3,5V*%
%TO.N,VCC*%
X10667990Y30926000D03*
%TO.P,A1,5V4,5V*%
%TO.N,unconnected-(A1-5V-Pad5V4)*%
X8127990Y30926000D03*
%TO.P,A1,A0,A0*%
%TO.N,unconnected-(A1-PadA0)*%
X53847990Y79186000D03*
%TO.P,A1,A1,A1*%
%TO.N,unconnected-(A1-PadA1)*%
X51307990Y79186000D03*
%TO.P,A1,A2,A2*%
%TO.N,unconnected-(A1-PadA2)*%
X48767990Y79186000D03*
%TO.P,A1,A3,A3*%
%TO.N,unconnected-(A1-PadA3)*%
X46227990Y79186000D03*
%TO.P,A1,A4,A4*%
%TO.N,unconnected-(A1-PadA4)*%
X43687990Y79186000D03*
%TO.P,A1,A5,A5*%
%TO.N,unconnected-(A1-PadA5)*%
X41147990Y79186000D03*
%TO.P,A1,A6,A6*%
%TO.N,unconnected-(A1-PadA6)*%
X38607990Y79186000D03*
%TO.P,A1,A7,A7*%
%TO.N,unconnected-(A1-PadA7)*%
X36067990Y79186000D03*
%TO.P,A1,A8,A8*%
%TO.N,unconnected-(A1-PadA8)*%
X30987990Y79186000D03*
%TO.P,A1,A9,A9*%
%TO.N,unconnected-(A1-PadA9)*%
X28447990Y79186000D03*
%TO.P,A1,A10,A10*%
%TO.N,unconnected-(A1-PadA10)*%
X25907990Y79186000D03*
%TO.P,A1,A11,A11*%
%TO.N,unconnected-(A1-PadA11)*%
X23367990Y79186000D03*
%TO.P,A1,A12,A12*%
%TO.N,unconnected-(A1-PadA12)*%
X20827990Y79186000D03*
%TO.P,A1,A13,A13*%
%TO.N,unconnected-(A1-PadA13)*%
X18287990Y79186000D03*
%TO.P,A1,A14,A14*%
%TO.N,unconnected-(A1-PadA14)*%
X15747990Y79186000D03*
%TO.P,A1,A15,A15*%
%TO.N,unconnected-(A1-PadA15)*%
X13207990Y79186000D03*
%TO.P,A1,AREF,AREF*%
%TO.N,unconnected-(A1-PadAREF)*%
X80771990Y30926000D03*
%TO.P,A1,D0,D0/RX0*%
%TO.N,unconnected-(A1-D0{slash}RX0-PadD0)*%
X41147990Y30926000D03*
%TO.P,A1,D1,D1/TX0*%
%TO.N,unconnected-(A1-D1{slash}TX0-PadD1)*%
X43687990Y30926000D03*
%TO.P,A1,D2,D2_INT0*%
%TO.N,Net-(A1-D2_INT0)*%
X46227990Y30926000D03*
%TO.P,A1,D3,D3_INT1*%
%TO.N,Net-(A1-D3_INT1)*%
X48767990Y30926000D03*
%TO.P,A1,D4,D4*%
%TO.N,Net-(J2-Pin_4)*%
X51307990Y30926000D03*
%TO.P,A1,D5,D5*%
%TO.N,Net-(J2-Pin_5)*%
X53847990Y30926000D03*
%TO.P,A1,D6,D6*%
%TO.N,Net-(J2-Pin_6)*%
X56387990Y30926000D03*
%TO.P,A1,D7,D7*%
%TO.N,Net-(J2-Pin_7)*%
X58927990Y30926000D03*
%TO.P,A1,D8,D8*%
%TO.N,Net-(J2-Pin_8)*%
X62991990Y30926000D03*
%TO.P,A1,D9,D9*%
%TO.N,Net-(J2-Pin_9)*%
X65531990Y30926000D03*
%TO.P,A1,D10,D10*%
%TO.N,Net-(J2-Pin_10)*%
X68071990Y30926000D03*
%TO.P,A1,D11,D11*%
%TO.N,Net-(J2-Pin_11)*%
X70611990Y30926000D03*
%TO.P,A1,D12,D12*%
%TO.N,Net-(J2-Pin_12)*%
X73151990Y30926000D03*
%TO.P,A1,D13,D13*%
%TO.N,Net-(J2-Pin_13)*%
X75691990Y30926000D03*
%TO.P,A1,D14,D14/TX3*%
%TO.N,unconnected-(A1-D14{slash}TX3-PadD14)*%
X36067990Y30926000D03*
%TO.P,A1,D15,D15/RX3*%
%TO.N,unconnected-(A1-D15{slash}RX3-PadD15)*%
X33527990Y30926000D03*
%TO.P,A1,D16,D16/TX2*%
%TO.N,unconnected-(A1-D16{slash}TX2-PadD16)*%
X30987990Y30926000D03*
%TO.P,A1,D17,D17/RX2*%
%TO.N,unconnected-(A1-D17{slash}RX2-PadD17)*%
X28447990Y30926000D03*
%TO.P,A1,D18,D18/TX1*%
%TO.N,unconnected-(A1-D18{slash}TX1-PadD18)*%
X25907990Y30926000D03*
%TO.P,A1,D19,D19/RX1*%
%TO.N,unconnected-(A1-D19{slash}RX1-PadD19)*%
X23367990Y30926000D03*
%TO.P,A1,D20,D20/SDA*%
%TO.N,unconnected-(A1-D20{slash}SDA-PadD20)*%
X20827990Y30926000D03*
%TO.P,A1,D21,D21/SCL*%
%TO.N,unconnected-(A1-D21{slash}SCL-PadD21)*%
X18287990Y30926000D03*
%TO.P,A1,D22,D22*%
%TO.N,Net-(J2-Pin_14)*%
X10667990Y33466000D03*
%TO.P,A1,D23,D23*%
%TO.N,Net-(J2-Pin_15)*%
X8127990Y33466000D03*
%TO.P,A1,D24,D24*%
%TO.N,Net-(J2-Pin_16)*%
X10667990Y36006000D03*
%TO.P,A1,D25,D25*%
%TO.N,Net-(J2-Pin_17)*%
X8127990Y36006000D03*
%TO.P,A1,D26,D26*%
%TO.N,Net-(J2-Pin_18)*%
X10667990Y38546000D03*
%TO.P,A1,D27,D27*%
%TO.N,Net-(J2-Pin_19)*%
X8127990Y38546000D03*
%TO.P,A1,D28,D28*%
%TO.N,Net-(J2-Pin_20)*%
X10667990Y41086000D03*
%TO.P,A1,D29,D29*%
%TO.N,Net-(J2-Pin_21)*%
X8127990Y41086000D03*
%TO.P,A1,D30,D30*%
%TO.N,Net-(J2-Pin_23)*%
X10667990Y43626000D03*
%TO.P,A1,D31,D31*%
%TO.N,Net-(J2-Pin_24)*%
X8127990Y43626000D03*
%TO.P,A1,D32,D32*%
%TO.N,Net-(J2-Pin_25)*%
X10667990Y46166000D03*
%TO.P,A1,D33,D33*%
%TO.N,Net-(J2-Pin_26)*%
X8127990Y46166000D03*
%TO.P,A1,D34,D34*%
%TO.N,Net-(J2-Pin_27)*%
X10667990Y48706000D03*
%TO.P,A1,D35,D35*%
%TO.N,Net-(J2-Pin_28)*%
X8127990Y48706000D03*
%TO.P,A1,D36,D36*%
%TO.N,Net-(J2-Pin_29)*%
X10667990Y51246000D03*
%TO.P,A1,D37,D37*%
%TO.N,Net-(J2-Pin_30)*%
X8127990Y51246000D03*
%TO.P,A1,D38,D38*%
%TO.N,Net-(J2-Pin_31)*%
X10667990Y53786000D03*
%TO.P,A1,D39,D39*%
%TO.N,Net-(J2-Pin_32)*%
X8127990Y53786000D03*
%TO.P,A1,D40,D40*%
%TO.N,Net-(J2-Pin_33)*%
X10667990Y56326000D03*
%TO.P,A1,D41,D41*%
%TO.N,Net-(J2-Pin_34)*%
X8127990Y56326000D03*
%TO.P,A1,D42,D42*%
%TO.N,unconnected-(A1-PadD42)*%
X10667990Y58866000D03*
%TO.P,A1,D43,D43*%
%TO.N,unconnected-(A1-PadD43)*%
X8127990Y58866000D03*
%TO.P,A1,D44,D44*%
%TO.N,unconnected-(A1-PadD44)*%
X10667990Y61406000D03*
%TO.P,A1,D45,D45*%
%TO.N,unconnected-(A1-PadD45)*%
X8127990Y61406000D03*
%TO.P,A1,D46,D46*%
%TO.N,unconnected-(A1-PadD46)*%
X10667990Y63946000D03*
%TO.P,A1,D47,D47*%
%TO.N,unconnected-(A1-PadD47)*%
X8127990Y63946000D03*
%TO.P,A1,D48,D48*%
%TO.N,unconnected-(A1-PadD48)*%
X10667990Y66486000D03*
%TO.P,A1,D49,D49*%
%TO.N,unconnected-(A1-PadD49)*%
X8127990Y66486000D03*
%TO.P,A1,D50,D50_MISO*%
%TO.N,unconnected-(A1-D50_MISO-PadD50)*%
X10667990Y69026000D03*
%TO.P,A1,D51,D51_MOSI*%
%TO.N,unconnected-(A1-D51_MOSI-PadD51)*%
X8127990Y69026000D03*
%TO.P,A1,D52,D52_SCK*%
%TO.N,unconnected-(A1-D52_SCK-PadD52)*%
X10667990Y71566000D03*
%TO.P,A1,D53,D53_CS*%
%TO.N,unconnected-(A1-D53_CS-PadD53)*%
X8127990Y71566000D03*
D13*
%TO.P,A1,GND1,GND*%
%TO.N,unconnected-(A1-GND-PadGND1)*%
X78231990Y30926000D03*
%TO.P,A1,GND2,GND*%
%TO.N,unconnected-(A1-GND-PadGND2)*%
X64007990Y79186000D03*
%TO.P,A1,GND3,GND*%
%TO.N,GND*%
X61467990Y79186000D03*
%TO.P,A1,GND4,SPI_GND*%
%TO.N,unconnected-(A1-SPI_GND-PadGND4)*%
X38480990Y56326000D03*
%TO.P,A1,GND5,GND*%
%TO.N,unconnected-(A1-GND-PadGND5)*%
X10667990Y74106000D03*
%TO.P,A1,GND6,GND*%
%TO.N,unconnected-(A1-GND-PadGND6)*%
X8127990Y74106000D03*
D12*
%TO.P,A1,IORF,IOREF*%
%TO.N,unconnected-(A1-IOREF-PadIORF)*%
X74167990Y79186000D03*
%TO.P,A1,MISO,SPI_MISO*%
%TO.N,unconnected-(A1-SPI_MISO-PadMISO)*%
X41020990Y51246000D03*
%TO.P,A1,MOSI,SPI_MOSI*%
%TO.N,unconnected-(A1-SPI_MOSI-PadMOSI)*%
X38480990Y53786000D03*
%TO.P,A1,RST1,RESET*%
%TO.N,unconnected-(A1-RESET-PadRST1)*%
X71627990Y79186000D03*
%TO.P,A1,RST2,SPI_RESET*%
%TO.N,unconnected-(A1-SPI_RESET-PadRST2)*%
X41020990Y56326000D03*
%TO.P,A1,SCK,SPI_SCK*%
%TO.N,unconnected-(A1-SPI_SCK-PadSCK)*%
X41020990Y53786000D03*
%TO.P,A1,SCL,SCL*%
%TO.N,unconnected-(A1-PadSCL)*%
X85851990Y30926000D03*
%TO.P,A1,SDA,SDA*%
%TO.N,unconnected-(A1-PadSDA)*%
X83311990Y30926000D03*
%TO.P,A1,VIN,VIN*%
%TO.N,unconnected-(A1-PadVIN)*%
X58927990Y79186000D03*
%TD*%
D14*
%TO.P,J2,1,Pin_1*%
%TO.N,VCC*%
X15900000Y700000D03*
D15*
%TO.P,J2,2,Pin_2*%
%TO.N,Net-(A1-D2_INT0)*%
X19860000Y700000D03*
%TO.P,J2,3,Pin_3*%
%TO.N,Net-(A1-D3_INT1)*%
X23820000Y700000D03*
%TO.P,J2,4,Pin_4*%
%TO.N,Net-(J2-Pin_4)*%
X27780000Y700000D03*
%TO.P,J2,5,Pin_5*%
%TO.N,Net-(J2-Pin_5)*%
X31740000Y700000D03*
%TO.P,J2,6,Pin_6*%
%TO.N,Net-(J2-Pin_6)*%
X35700000Y700000D03*
%TO.P,J2,7,Pin_7*%
%TO.N,Net-(J2-Pin_7)*%
X39660000Y700000D03*
%TO.P,J2,8,Pin_8*%
%TO.N,Net-(J2-Pin_8)*%
X43620000Y700000D03*
%TO.P,J2,9,Pin_9*%
%TO.N,Net-(J2-Pin_9)*%
X47580000Y700000D03*
D14*
%TO.P,J2,10,Pin_10*%
%TO.N,Net-(J2-Pin_10)*%
X51540000Y700000D03*
D15*
%TO.P,J2,11,Pin_11*%
%TO.N,Net-(J2-Pin_11)*%
X55500000Y700000D03*
%TO.P,J2,12,Pin_12*%
%TO.N,Net-(J2-Pin_12)*%
X59460000Y700000D03*
%TO.P,J2,13,Pin_13*%
%TO.N,Net-(J2-Pin_13)*%
X63420000Y700000D03*
%TO.P,J2,14,Pin_14*%
%TO.N,Net-(J2-Pin_14)*%
X67379990Y700000D03*
%TO.P,J2,15,Pin_15*%
%TO.N,Net-(J2-Pin_15)*%
X71339990Y700000D03*
%TO.P,J2,16,Pin_16*%
%TO.N,Net-(J2-Pin_16)*%
X75299990Y700000D03*
%TO.P,J2,17,Pin_17*%
%TO.N,Net-(J2-Pin_17)*%
X79259990Y700000D03*
%TO.P,J2,18,Pin_18*%
%TO.N,Net-(J2-Pin_18)*%
X83219990Y700000D03*
%TO.P,J2,19,Pin_19*%
%TO.N,Net-(J2-Pin_19)*%
X87179990Y700000D03*
D14*
%TO.P,J2,20,Pin_20*%
%TO.N,Net-(J2-Pin_20)*%
X91139990Y700000D03*
D15*
%TO.P,J2,21,Pin_21*%
%TO.N,Net-(J2-Pin_21)*%
X95099990Y700000D03*
%TO.P,J2,22,Pin_22*%
%TO.N,GND*%
X99059990Y700000D03*
%TD*%
D16*
%TO.N,VCC*%
X15900000Y10453990D02*
X15900000Y700000D01*
X10667990Y15686000D02*
X15900000Y10453990D01*
X15900000Y700000D02*
X15900000Y6389600D01*
X10667990Y30926000D02*
X10667990Y15686000D01*
D17*
%TO.N,Net-(A1-D2_INT0)*%
X19860000Y296000D02*
X19964000Y192000D01*
X26923990Y28386000D02*
X19860000Y21322010D01*
X19860000Y21322010D02*
X19860000Y700000D01*
X44703990Y28386000D02*
X26923990Y28386000D01*
D18*
X46227990Y31180000D02*
X46227990Y30926000D01*
D17*
X19860000Y700000D02*
X19860000Y296000D01*
X46227990Y29910000D02*
X44703990Y28386000D01*
X46227990Y30926000D02*
X46227990Y29910000D01*
%TO.N,Net-(A1-D3_INT1)*%
X48767990Y30926000D02*
X48767990Y29402000D01*
X45973990Y26608000D02*
X31241990Y26608000D01*
X31241990Y26608000D02*
X23820000Y19186010D01*
X48767990Y29402000D02*
X45973990Y26608000D01*
X23820000Y19186010D02*
X23820000Y700000D01*
%TO.N,Net-(J2-Pin_4)*%
X48767990Y24830000D02*
X33273990Y24830000D01*
X51307990Y30926000D02*
X51307990Y27370000D01*
X51307990Y27370000D02*
X48767990Y24830000D01*
X27780000Y19336010D02*
X27780000Y700000D01*
X33273990Y24830000D02*
X27780000Y19336010D01*
%TO.N,Net-(J2-Pin_5)*%
X53847990Y25084000D02*
X53847990Y30926000D01*
X31740000Y700000D02*
X31740000Y18470010D01*
X36321990Y23052000D02*
X51815990Y23052000D01*
X51815990Y23052000D02*
X53847990Y25084000D01*
X31740000Y18470010D02*
X36321990Y23052000D01*
%TO.N,Net-(J2-Pin_6)*%
X35700000Y700000D02*
X35700000Y18112010D01*
X35700000Y18112010D02*
X38607990Y21020000D01*
X56387990Y22544000D02*
X56387990Y30926000D01*
X38607990Y21020000D02*
X54863990Y21020000D01*
X54863990Y21020000D02*
X56387990Y22544000D01*
D18*
%TO.N,Net-(J2-Pin_7)*%
X59054990Y30926000D02*
X58927990Y30926000D01*
D17*
X58927990Y22036000D02*
X58927990Y30926000D01*
X39660000Y700000D02*
X39660000Y16230010D01*
X39660000Y16230010D02*
X42417990Y18988000D01*
X55879990Y18988000D02*
X58927990Y22036000D01*
X42417990Y18988000D02*
X55879990Y18988000D01*
%TO.N,Net-(J2-Pin_8)*%
X43620000Y700000D02*
X43620000Y15110010D01*
X45465990Y16956000D02*
X57657990Y16956000D01*
X62991990Y22290000D02*
X62991990Y30926000D01*
X57657990Y16956000D02*
X62991990Y22290000D01*
X43620000Y15110010D02*
X45465990Y16956000D01*
%TO.N,Net-(J2-Pin_9)*%
X49529990Y15178000D02*
X58927990Y15178000D01*
X65531990Y21782000D02*
X65531990Y30926000D01*
X58927990Y15178000D02*
X65531990Y21782000D01*
X47580000Y13228010D02*
X49529990Y15178000D01*
X47580000Y700000D02*
X47580000Y13228010D01*
%TO.N,Net-(J2-Pin_10)*%
X51169990Y1070010D02*
X51540000Y700000D01*
X68071990Y21274000D02*
X68071990Y30926000D01*
X53339990Y13400000D02*
X60197990Y13400000D01*
X51540000Y700000D02*
X51540000Y11600010D01*
X51540000Y11600010D02*
X53339990Y13400000D01*
X60197990Y13400000D02*
X68071990Y21274000D01*
%TO.N,Net-(J2-Pin_11)*%
X55500000Y700000D02*
X55500000Y10226010D01*
X70611990Y20258000D02*
X70611990Y30926000D01*
X55500000Y10226010D02*
X56895990Y11622000D01*
X56895990Y11622000D02*
X61975990Y11622000D01*
X61975990Y11622000D02*
X70611990Y20258000D01*
%TO.N,Net-(J2-Pin_12)*%
X60059990Y1299990D02*
X59460000Y700000D01*
X59424990Y735010D02*
X59460000Y700000D01*
X63245990Y9590000D02*
X73151990Y19496000D01*
D19*
X60096000Y1336000D02*
X59460000Y700000D01*
D17*
X59460000Y8852010D02*
X60197990Y9590000D01*
X59460000Y700000D02*
X59460000Y8852010D01*
X60197990Y9590000D02*
X63245990Y9590000D01*
X73151990Y19496000D02*
X73151990Y30926000D01*
%TO.N,Net-(J2-Pin_13)*%
X63420000Y700000D02*
X63420000Y6716010D01*
X75691990Y18988000D02*
X75691990Y30926000D01*
X63420000Y6716010D02*
X75691990Y18988000D01*
%TO.N,Net-(J2-Pin_14)*%
X67379990Y7882000D02*
X80071990Y20574000D01*
X92964000Y32512000D02*
X92010000Y33466000D01*
X92964000Y28956000D02*
X92964000Y32512000D01*
X80071990Y20574000D02*
X84582000Y20574000D01*
X92010000Y33466000D02*
X10667990Y33466000D01*
X84582000Y20574000D02*
X92964000Y28956000D01*
X67379990Y700000D02*
X67379990Y7882000D01*
%TO.N,Net-(J2-Pin_15)*%
X71339990Y700000D02*
X71339990Y8286000D01*
X93979990Y27939990D02*
X93979990Y33020010D01*
X9397990Y34736000D02*
X8127990Y33466000D01*
X71339990Y8286000D02*
X82357990Y19304000D01*
X93979990Y33020010D02*
X92264000Y34736000D01*
X82357990Y19304000D02*
X85344000Y19304000D01*
X85344000Y19304000D02*
X93979990Y27939990D01*
X92264000Y34736000D02*
X9397990Y34736000D01*
%TO.N,Net-(J2-Pin_16)*%
X75299990Y9452000D02*
X83627990Y17780000D01*
X94996000Y26924000D02*
X94996000Y33465990D01*
X92455990Y36006000D02*
X10667990Y36006000D01*
X83627990Y17780000D02*
X85852000Y17780000D01*
X75299990Y700000D02*
X75299990Y9452000D01*
X85852000Y17780000D02*
X94996000Y26924000D01*
X94996000Y33465990D02*
X92455990Y36006000D01*
%TO.N,Net-(J2-Pin_17)*%
X96012000Y25846010D02*
X96012000Y34036000D01*
X92772000Y37276000D02*
X9397990Y37276000D01*
X79259990Y9094000D02*
X96012000Y25846010D01*
X79259990Y700000D02*
X79259990Y9094000D01*
X96012000Y34036000D02*
X92772000Y37276000D01*
X9397990Y37276000D02*
X8127990Y36006000D01*
D16*
%TO.N,GND*%
X102170000Y64962000D02*
X66801990Y64962000D01*
X61467990Y70296000D02*
X61467990Y79186000D01*
X110998000Y56134000D02*
X102170000Y64962000D01*
D17*
X99059990Y5700000D02*
X100329990Y6970000D01*
X99059990Y700000D02*
X99059990Y5700000D01*
D16*
X110998000Y17638010D02*
X110998000Y56134000D01*
X100329990Y6970000D02*
X110998000Y17638010D01*
X66801990Y64962000D02*
X61467990Y70296000D01*
D17*
%TO.N,Net-(J2-Pin_18)*%
X93026000Y38546000D02*
X10667990Y38546000D01*
X83219990Y700000D02*
X83219990Y11083990D01*
X97028000Y24892000D02*
X97028000Y34544000D01*
X97028000Y34544000D02*
X93026000Y38546000D01*
X83219990Y11083990D02*
X97028000Y24892000D01*
%TO.N,Net-(J2-Pin_19)*%
X9397990Y39816000D02*
X8127990Y38546000D01*
X87179990Y13011990D02*
X98044000Y23876000D01*
X87179990Y700000D02*
X87179990Y13011990D01*
X98044000Y35052000D02*
X93280000Y39816000D01*
X93280000Y39816000D02*
X9397990Y39816000D01*
X98044000Y23876000D02*
X98044000Y35052000D01*
%TO.N,Net-(J2-Pin_20)*%
X91139990Y14939990D02*
X99060000Y22860000D01*
X93554000Y41066000D02*
X10687990Y41066000D01*
X99060000Y35560000D02*
X93554000Y41066000D01*
X99060000Y22860000D02*
X99060000Y35560000D01*
X10687990Y41066000D02*
X10667990Y41086000D01*
X91139990Y700000D02*
X91139990Y14939990D01*
%TO.N,Net-(J2-Pin_21)*%
X95099990Y16867990D02*
X95099990Y700000D01*
X9429390Y42387400D02*
X93756600Y42387400D01*
X100076000Y36068000D02*
X100076000Y21844000D01*
X93756600Y42387400D02*
X100076000Y36068000D01*
X100076000Y21844000D02*
X95099990Y16867990D01*
X8127990Y41086000D02*
X9429390Y42387400D01*
%TD*%
%TA.AperFunction,Conductor*%
%TO.N,GND*%
G36*
X112876278Y97963046D02*
G01*
X112957060Y97909070D01*
X113011036Y97828288D01*
X113029990Y97733000D01*
X113029990Y6283000D01*
X113011036Y6187712D01*
X112957060Y6106930D01*
X112876278Y6052954D01*
X112780990Y6034000D01*
X103234140Y6034000D01*
X103138852Y6052954D01*
X103058070Y6106930D01*
X103049895Y6115504D01*
X102984251Y6187712D01*
X100583990Y8828000D01*
X95974490Y8828000D01*
X95879202Y8846954D01*
X95798420Y8900930D01*
X95744444Y8981712D01*
X95725490Y9077000D01*
X95725490Y16505760D01*
X95744444Y16601048D01*
X95798420Y16681830D01*
X98122394Y19005804D01*
X100451800Y21335211D01*
X100469154Y21350999D01*
X100477870Y21358210D01*
X100477877Y21358214D01*
X100522581Y21405820D01*
X100527962Y21411373D01*
X100546120Y21429529D01*
X100546124Y21429534D01*
X100549840Y21433749D01*
X100560192Y21445871D01*
X100586062Y21473418D01*
X100590969Y21482346D01*
X100612436Y21515024D01*
X100614874Y21518167D01*
X100618673Y21523064D01*
X100633684Y21557756D01*
X100644002Y21578813D01*
X100646554Y21583454D01*
X100662197Y21611908D01*
X100664729Y21621775D01*
X100677393Y21658759D01*
X100681438Y21668104D01*
X100687347Y21705420D01*
X100692106Y21728396D01*
X100692182Y21728691D01*
X100701500Y21764981D01*
X100701500Y21775180D01*
X100704566Y21814135D01*
X100704708Y21815030D01*
X100706160Y21824196D01*
X100702605Y21861804D01*
X100701500Y21885236D01*
X100701500Y35973946D01*
X100702605Y35997376D01*
X100703672Y36008666D01*
X100701623Y36073883D01*
X100701500Y36081703D01*
X100701500Y36107353D01*
X100701148Y36112941D01*
X100699895Y36128875D01*
X100698709Y36166627D01*
X100695867Y36176409D01*
X100687941Y36214682D01*
X100686664Y36224791D01*
X100684089Y36231295D01*
X100672749Y36259935D01*
X100665160Y36282101D01*
X100654618Y36318390D01*
X100649430Y36327162D01*
X100632237Y36362256D01*
X100628486Y36371732D01*
X100606280Y36402296D01*
X100593400Y36421905D01*
X100574174Y36454414D01*
X100574170Y36454421D01*
X100574165Y36454426D01*
X100574163Y36454429D01*
X100566954Y36461638D01*
X100541581Y36491347D01*
X100535596Y36499584D01*
X100535596Y36499585D01*
X100535594Y36499587D01*
X100506486Y36523667D01*
X100489144Y36539447D01*
X94265394Y42763197D01*
X94249603Y42780553D01*
X94242386Y42789277D01*
X94194834Y42833932D01*
X94189221Y42839371D01*
X94171068Y42857523D01*
X94166889Y42861208D01*
X94154721Y42871601D01*
X94127183Y42897461D01*
X94127179Y42897464D01*
X94118244Y42902376D01*
X94085588Y42923827D01*
X94077538Y42930072D01*
X94077531Y42930076D01*
X94042853Y42945083D01*
X94021796Y42955399D01*
X93988691Y42973598D01*
X93978814Y42976134D01*
X93941856Y42988788D01*
X93932500Y42992837D01*
X93932490Y42992840D01*
X93895172Y42998751D01*
X93872213Y43003505D01*
X93851804Y43008745D01*
X93835619Y43012900D01*
X93835618Y43012900D01*
X93825424Y43012900D01*
X93786476Y43015965D01*
X93776404Y43017560D01*
X93738796Y43014005D01*
X93715364Y43012900D01*
X12239806Y43012900D01*
X12144518Y43031854D01*
X12063736Y43085830D01*
X12009760Y43166612D01*
X11990806Y43261900D01*
X11998425Y43323026D01*
X12018097Y43400707D01*
X12036765Y43626000D01*
X12018097Y43851293D01*
X11962601Y44070441D01*
X11962599Y44070446D01*
X11962595Y44070456D01*
X11871798Y44277452D01*
X11871789Y44277470D01*
X11805225Y44379353D01*
X11748146Y44466719D01*
X11608367Y44618559D01*
X11595043Y44633033D01*
X11595040Y44633035D01*
X11595036Y44633040D01*
X11509638Y44699509D01*
X11446089Y44772989D01*
X11415494Y44865201D01*
X11422516Y44962102D01*
X11466086Y45048940D01*
X11509636Y45092491D01*
X11595036Y45158960D01*
X11748146Y45325281D01*
X11871792Y45514535D01*
X11962601Y45721559D01*
X12018097Y45940707D01*
X12031150Y46098232D01*
X36753777Y46098232D01*
X36783403Y45828988D01*
X36783404Y45828982D01*
X36851918Y45566912D01*
X36923847Y45397648D01*
X36957859Y45317613D01*
X36957862Y45317606D01*
X37098966Y45086399D01*
X37098968Y45086395D01*
X37098972Y45086390D01*
X37272245Y44878180D01*
X37423049Y44743059D01*
X37473986Y44697420D01*
X37473989Y44697417D01*
X37699893Y44547960D01*
X37699896Y44547959D01*
X37699900Y44547956D01*
X37945166Y44432980D01*
X38204559Y44354940D01*
X38472551Y44315500D01*
X38472557Y44315500D01*
X38675620Y44315500D01*
X38675621Y44315500D01*
X38878146Y44330323D01*
X39142543Y44389220D01*
X39395548Y44485986D01*
X39443807Y44513071D01*
X39631763Y44618556D01*
X39650512Y44633033D01*
X39846167Y44784112D01*
X40034176Y44979119D01*
X40191789Y45199421D01*
X40315646Y45440325D01*
X40358832Y45566912D01*
X40403107Y45696691D01*
X40407701Y45721559D01*
X40452309Y45963067D01*
X40462202Y46233765D01*
X40432576Y46503018D01*
X40364062Y46765088D01*
X40258120Y47014390D01*
X40161297Y47173040D01*
X40117013Y47245602D01*
X40117012Y47245603D01*
X40117008Y47245610D01*
X39943735Y47453820D01*
X39741992Y47634582D01*
X39741990Y47634584D01*
X39516086Y47784041D01*
X39383890Y47846012D01*
X39270814Y47899020D01*
X39011421Y47977060D01*
X39011417Y47977061D01*
X39011416Y47977061D01*
X38949705Y47986143D01*
X38743429Y48016500D01*
X38540359Y48016500D01*
X38337834Y48001677D01*
X38337830Y48001677D01*
X38337827Y48001676D01*
X38073432Y47942779D01*
X37820426Y47846012D01*
X37584216Y47713445D01*
X37369816Y47547892D01*
X37181801Y47352878D01*
X37024194Y47132584D01*
X37024189Y47132576D01*
X36900334Y46891677D01*
X36900333Y46891675D01*
X36812872Y46635310D01*
X36763671Y46368938D01*
X36763670Y46368927D01*
X36753778Y46098235D01*
X36753777Y46098232D01*
X12031150Y46098232D01*
X12036765Y46166000D01*
X12018097Y46391293D01*
X11962601Y46610441D01*
X11962599Y46610446D01*
X11962595Y46610456D01*
X11871798Y46817452D01*
X11871789Y46817470D01*
X11790280Y46942228D01*
X11748146Y47006719D01*
X11632286Y47132576D01*
X11595043Y47173033D01*
X11595040Y47173035D01*
X11595036Y47173040D01*
X11509638Y47239509D01*
X11446089Y47312989D01*
X11415494Y47405201D01*
X11422516Y47502102D01*
X11466086Y47588940D01*
X11509636Y47632491D01*
X11595036Y47698960D01*
X11748146Y47865281D01*
X11871792Y48054535D01*
X11962601Y48261559D01*
X12018097Y48480707D01*
X12036765Y48706000D01*
X12018097Y48931293D01*
X11962601Y49150441D01*
X11962599Y49150446D01*
X11962595Y49150456D01*
X11871798Y49357452D01*
X11871789Y49357470D01*
X11790280Y49482228D01*
X11748146Y49546719D01*
X11702213Y49596616D01*
X11595043Y49713033D01*
X11595040Y49713035D01*
X11595036Y49713040D01*
X11509638Y49779509D01*
X11446089Y49852989D01*
X11415494Y49945201D01*
X11422516Y50042102D01*
X11466086Y50128940D01*
X11509636Y50172491D01*
X11595036Y50238960D01*
X11748146Y50405281D01*
X11871792Y50594535D01*
X11962601Y50801559D01*
X12018097Y51020707D01*
X12036765Y51246000D01*
X37112215Y51246000D01*
X37130883Y51020706D01*
X37186380Y50801555D01*
X37186384Y50801545D01*
X37277181Y50594549D01*
X37277190Y50594531D01*
X37343754Y50492648D01*
X37400834Y50405281D01*
X37400836Y50405279D01*
X37553936Y50238968D01*
X37553940Y50238965D01*
X37553944Y50238960D01*
X37732341Y50100107D01*
X37931159Y49992512D01*
X38144976Y49919109D01*
X38367957Y49881900D01*
X38594023Y49881900D01*
X38817004Y49919109D01*
X39030821Y49992512D01*
X39229639Y50100107D01*
X39408036Y50238960D01*
X39561146Y50405281D01*
X39561146Y50405283D01*
X39567795Y50412504D01*
X39646277Y50469773D01*
X39740700Y50492648D01*
X39836690Y50477648D01*
X39919633Y50427056D01*
X39934185Y50412504D01*
X40093936Y50238968D01*
X40093940Y50238965D01*
X40093944Y50238960D01*
X40272341Y50100107D01*
X40471159Y49992512D01*
X40684976Y49919109D01*
X40907957Y49881900D01*
X41134023Y49881900D01*
X41357004Y49919109D01*
X41570821Y49992512D01*
X41769639Y50100107D01*
X41948036Y50238960D01*
X42101146Y50405281D01*
X42224792Y50594535D01*
X42315601Y50801559D01*
X42371097Y51020707D01*
X42389765Y51246000D01*
X42371097Y51471293D01*
X42315601Y51690441D01*
X42315599Y51690446D01*
X42315595Y51690456D01*
X42224798Y51897452D01*
X42224789Y51897470D01*
X42143280Y52022228D01*
X42101146Y52086719D01*
X42055213Y52136616D01*
X41948043Y52253033D01*
X41948040Y52253035D01*
X41948036Y52253040D01*
X41862638Y52319509D01*
X41799089Y52392989D01*
X41768494Y52485201D01*
X41775516Y52582102D01*
X41819086Y52668940D01*
X41862636Y52712491D01*
X41948036Y52778960D01*
X42101146Y52945281D01*
X42224792Y53134535D01*
X42315601Y53341559D01*
X42371097Y53560707D01*
X42389765Y53786000D01*
X42371097Y54011293D01*
X42315601Y54230441D01*
X42315599Y54230446D01*
X42315595Y54230456D01*
X42224798Y54437452D01*
X42224789Y54437470D01*
X42143280Y54562228D01*
X42101146Y54626719D01*
X41986213Y54751569D01*
X41948043Y54793033D01*
X41948040Y54793035D01*
X41948036Y54793040D01*
X41862638Y54859509D01*
X41799089Y54932989D01*
X41768494Y55025201D01*
X41775516Y55122102D01*
X41819086Y55208940D01*
X41862636Y55252491D01*
X41948036Y55318960D01*
X42101146Y55485281D01*
X42224792Y55674535D01*
X42315601Y55881559D01*
X42371097Y56100707D01*
X42389765Y56326000D01*
X42371097Y56551293D01*
X42315601Y56770441D01*
X42315599Y56770446D01*
X42315595Y56770456D01*
X42224798Y56977452D01*
X42224789Y56977470D01*
X42143280Y57102228D01*
X42101146Y57166719D01*
X41955967Y57324425D01*
X41948043Y57333033D01*
X41948038Y57333038D01*
X41948036Y57333040D01*
X41919796Y57355020D01*
X41862642Y57399505D01*
X41769639Y57471893D01*
X41630582Y57547147D01*
X41570820Y57579489D01*
X41357004Y57652891D01*
X41357001Y57652892D01*
X41134023Y57690100D01*
X40907957Y57690100D01*
X40684978Y57652892D01*
X40684975Y57652891D01*
X40471159Y57579489D01*
X40272342Y57471894D01*
X40147875Y57375017D01*
X40061037Y57331447D01*
X39964136Y57324425D01*
X39871924Y57355020D01*
X39798440Y57418574D01*
X39795602Y57422291D01*
X39788386Y57431930D01*
X39788386Y57431931D01*
X39702136Y57547146D01*
X39586921Y57633396D01*
X39506707Y57663314D01*
X39452071Y57683692D01*
X39392463Y57690100D01*
X37569524Y57690100D01*
X37569520Y57690100D01*
X37569518Y57690099D01*
X37556704Y57688722D01*
X37509909Y57683692D01*
X37509905Y57683691D01*
X37375060Y57633397D01*
X37259845Y57547147D01*
X37259843Y57547145D01*
X37173594Y57431931D01*
X37123298Y57297082D01*
X37116890Y57237477D01*
X37116890Y55414535D01*
X37116891Y55414531D01*
X37123298Y55354920D01*
X37123299Y55354916D01*
X37173593Y55220071D01*
X37173594Y55220069D01*
X37259844Y55104854D01*
X37375059Y55018604D01*
X37375060Y55018604D01*
X37383235Y55012484D01*
X37448157Y54940206D01*
X37480479Y54848585D01*
X37475278Y54751569D01*
X37433347Y54663928D01*
X37417212Y54644511D01*
X37400836Y54626722D01*
X37400831Y54626715D01*
X37277190Y54437470D01*
X37277181Y54437452D01*
X37186384Y54230456D01*
X37186380Y54230446D01*
X37130883Y54011295D01*
X37112215Y53786000D01*
X37130883Y53560706D01*
X37186380Y53341555D01*
X37186384Y53341545D01*
X37277181Y53134549D01*
X37277190Y53134531D01*
X37343754Y53032648D01*
X37400834Y52945281D01*
X37400836Y52945279D01*
X37553936Y52778968D01*
X37553939Y52778966D01*
X37553944Y52778960D01*
X37639338Y52712495D01*
X37702891Y52639010D01*
X37733485Y52546797D01*
X37726462Y52449897D01*
X37682892Y52363059D01*
X37639339Y52319507D01*
X37553944Y52253040D01*
X37553936Y52253033D01*
X37400836Y52086722D01*
X37400831Y52086715D01*
X37277190Y51897470D01*
X37277181Y51897452D01*
X37186384Y51690456D01*
X37186380Y51690446D01*
X37130883Y51471295D01*
X37112215Y51246000D01*
X12036765Y51246000D01*
X12018097Y51471293D01*
X11962601Y51690441D01*
X11962599Y51690446D01*
X11962595Y51690456D01*
X11871798Y51897452D01*
X11871789Y51897470D01*
X11790280Y52022228D01*
X11748146Y52086719D01*
X11702213Y52136616D01*
X11595043Y52253033D01*
X11595040Y52253035D01*
X11595036Y52253040D01*
X11509638Y52319509D01*
X11446089Y52392989D01*
X11415494Y52485201D01*
X11422516Y52582102D01*
X11466086Y52668940D01*
X11509636Y52712491D01*
X11595036Y52778960D01*
X11748146Y52945281D01*
X11871792Y53134535D01*
X11962601Y53341559D01*
X12018097Y53560707D01*
X12036765Y53786000D01*
X12018097Y54011293D01*
X11962601Y54230441D01*
X11962599Y54230446D01*
X11962595Y54230456D01*
X11871798Y54437452D01*
X11871789Y54437470D01*
X11790280Y54562228D01*
X11748146Y54626719D01*
X11633213Y54751569D01*
X11595043Y54793033D01*
X11595040Y54793035D01*
X11595036Y54793040D01*
X11509638Y54859509D01*
X11446089Y54932989D01*
X11415494Y55025201D01*
X11422516Y55122102D01*
X11466086Y55208940D01*
X11509636Y55252491D01*
X11595036Y55318960D01*
X11748146Y55485281D01*
X11871792Y55674535D01*
X11962601Y55881559D01*
X12018097Y56100707D01*
X12036765Y56326000D01*
X12018097Y56551293D01*
X11962601Y56770441D01*
X11962599Y56770446D01*
X11962595Y56770456D01*
X11871798Y56977452D01*
X11871789Y56977470D01*
X11790280Y57102228D01*
X11748146Y57166719D01*
X11602967Y57324425D01*
X11595043Y57333033D01*
X11595040Y57333035D01*
X11595036Y57333040D01*
X11509638Y57399509D01*
X11446089Y57472989D01*
X11415494Y57565201D01*
X11422516Y57662102D01*
X11466086Y57748940D01*
X11509636Y57792491D01*
X11595036Y57858960D01*
X11748146Y58025281D01*
X11871792Y58214535D01*
X11962601Y58421559D01*
X12018097Y58640707D01*
X12036765Y58866000D01*
X12018097Y59091293D01*
X11962601Y59310441D01*
X11962599Y59310446D01*
X11962595Y59310456D01*
X11871798Y59517452D01*
X11871789Y59517470D01*
X11790280Y59642228D01*
X11748146Y59706719D01*
X11702213Y59756616D01*
X11595043Y59873033D01*
X11595040Y59873035D01*
X11595036Y59873040D01*
X11509638Y59939509D01*
X11446089Y60012989D01*
X11415494Y60105201D01*
X11422516Y60202102D01*
X11466086Y60288940D01*
X11509636Y60332491D01*
X11595036Y60398960D01*
X11748146Y60565281D01*
X11871792Y60754535D01*
X11962601Y60961559D01*
X12018097Y61180707D01*
X12036765Y61406000D01*
X12018097Y61631293D01*
X11962601Y61850441D01*
X11962599Y61850446D01*
X11962595Y61850456D01*
X11871798Y62057452D01*
X11871789Y62057470D01*
X11790280Y62182228D01*
X11748146Y62246719D01*
X11702213Y62296616D01*
X11595043Y62413033D01*
X11595040Y62413035D01*
X11595036Y62413040D01*
X11509638Y62479509D01*
X11446089Y62552989D01*
X11415494Y62645201D01*
X11422516Y62742102D01*
X11466086Y62828940D01*
X11509636Y62872491D01*
X11595036Y62938960D01*
X11748146Y63105281D01*
X11871792Y63294535D01*
X11962601Y63501559D01*
X12018097Y63720707D01*
X12036765Y63946000D01*
X12018097Y64171293D01*
X11962601Y64390441D01*
X11962599Y64390446D01*
X11962595Y64390456D01*
X11871798Y64597452D01*
X11871789Y64597470D01*
X11790280Y64722228D01*
X11748146Y64786719D01*
X11702213Y64836616D01*
X11595043Y64953033D01*
X11595040Y64953035D01*
X11595036Y64953040D01*
X11509638Y65019509D01*
X11446089Y65092989D01*
X11415494Y65185201D01*
X11422516Y65282102D01*
X11466086Y65368940D01*
X11509636Y65412491D01*
X11595036Y65478960D01*
X11748146Y65645281D01*
X11871792Y65834535D01*
X11962601Y66041559D01*
X12018097Y66260707D01*
X12036765Y66486000D01*
X12018097Y66711293D01*
X11962601Y66930441D01*
X11962599Y66930446D01*
X11962595Y66930456D01*
X11871798Y67137452D01*
X11871789Y67137470D01*
X11790280Y67262228D01*
X11748146Y67326719D01*
X11702213Y67376616D01*
X11595043Y67493033D01*
X11595040Y67493035D01*
X11595036Y67493040D01*
X11509638Y67559509D01*
X11446089Y67632989D01*
X11415494Y67725201D01*
X11422516Y67822102D01*
X11466086Y67908940D01*
X11509636Y67952491D01*
X11595036Y68018960D01*
X11748146Y68185281D01*
X11871792Y68374535D01*
X11962601Y68581559D01*
X12018097Y68800707D01*
X12036765Y69026000D01*
X12018097Y69251293D01*
X11962601Y69470441D01*
X11962599Y69470446D01*
X11962595Y69470456D01*
X11871798Y69677452D01*
X11871789Y69677470D01*
X11790280Y69802228D01*
X11748146Y69866719D01*
X11702213Y69916616D01*
X11595043Y70033033D01*
X11595040Y70033035D01*
X11595036Y70033040D01*
X11509638Y70099509D01*
X11446089Y70172989D01*
X11415494Y70265201D01*
X11422516Y70362102D01*
X11466086Y70448940D01*
X11509636Y70492491D01*
X11595036Y70558960D01*
X11748146Y70725281D01*
X11871792Y70914535D01*
X11962601Y71121559D01*
X12018097Y71340707D01*
X12036765Y71566000D01*
X12018097Y71791293D01*
X11962601Y72010441D01*
X11962599Y72010446D01*
X11962595Y72010456D01*
X11871798Y72217452D01*
X11871789Y72217470D01*
X11821175Y72294940D01*
X11748146Y72406719D01*
X11731768Y72424510D01*
X11681178Y72507451D01*
X11666179Y72603441D01*
X11689055Y72697864D01*
X11746323Y72776346D01*
X11765745Y72792484D01*
X11773919Y72798604D01*
X11773921Y72798604D01*
X11889136Y72884854D01*
X11975386Y73000069D01*
X12025681Y73134917D01*
X12032090Y73194527D01*
X12032090Y74038232D01*
X36753777Y74038232D01*
X36783403Y73768988D01*
X36783404Y73768982D01*
X36851918Y73506912D01*
X36957859Y73257613D01*
X36957862Y73257606D01*
X37098966Y73026399D01*
X37098968Y73026395D01*
X37098972Y73026390D01*
X37098977Y73026384D01*
X37098980Y73026380D01*
X37216760Y72884852D01*
X37272245Y72818180D01*
X37377231Y72724112D01*
X37473986Y72637420D01*
X37473989Y72637417D01*
X37699893Y72487960D01*
X37699896Y72487959D01*
X37699900Y72487956D01*
X37945166Y72372980D01*
X38204559Y72294940D01*
X38472551Y72255500D01*
X38472557Y72255500D01*
X38675620Y72255500D01*
X38675621Y72255500D01*
X38878146Y72270323D01*
X39142543Y72329220D01*
X39395548Y72425986D01*
X39443807Y72453071D01*
X39631763Y72558556D01*
X39689892Y72603441D01*
X39846167Y72724112D01*
X40034176Y72919119D01*
X40191789Y73139421D01*
X40315646Y73380325D01*
X40403108Y73636695D01*
X40452309Y73903067D01*
X40462202Y74173765D01*
X40432576Y74443018D01*
X40364062Y74705088D01*
X40258120Y74954390D01*
X40219623Y75017470D01*
X40117013Y75185602D01*
X40117012Y75185603D01*
X40117008Y75185610D01*
X40095104Y75211930D01*
X39943735Y75393820D01*
X39858601Y75470100D01*
X39741992Y75574582D01*
X39741990Y75574584D01*
X39516086Y75724041D01*
X39383890Y75786012D01*
X39270814Y75839020D01*
X39011421Y75917060D01*
X39011417Y75917061D01*
X39011416Y75917061D01*
X38949705Y75926143D01*
X38743429Y75956500D01*
X38540359Y75956500D01*
X38337834Y75941677D01*
X38337830Y75941677D01*
X38337827Y75941676D01*
X38073432Y75882779D01*
X37820426Y75786012D01*
X37584216Y75653445D01*
X37369816Y75487892D01*
X37181801Y75292878D01*
X37024194Y75072584D01*
X37024189Y75072576D01*
X36900334Y74831677D01*
X36900333Y74831675D01*
X36812872Y74575310D01*
X36763671Y74308938D01*
X36763670Y74308927D01*
X36753778Y74038235D01*
X36753777Y74038232D01*
X12032090Y74038232D01*
X12032089Y75017472D01*
X12025681Y75077083D01*
X11975386Y75211931D01*
X11889136Y75327146D01*
X11773921Y75413396D01*
X11693707Y75443314D01*
X11639071Y75463692D01*
X11579463Y75470100D01*
X9756524Y75470100D01*
X9756520Y75470100D01*
X9756518Y75470099D01*
X9743704Y75468722D01*
X9696909Y75463692D01*
X9696905Y75463691D01*
X9562058Y75413396D01*
X9547211Y75402281D01*
X9459571Y75360350D01*
X9362555Y75355149D01*
X9270934Y75387471D01*
X9248769Y75402281D01*
X9233922Y75413395D01*
X9233921Y75413396D01*
X9137953Y75449190D01*
X9099071Y75463692D01*
X9039463Y75470100D01*
X7216524Y75470100D01*
X7216520Y75470100D01*
X7216518Y75470099D01*
X7203704Y75468722D01*
X7156909Y75463692D01*
X7156905Y75463691D01*
X7022060Y75413397D01*
X6906845Y75327147D01*
X6906843Y75327145D01*
X6820594Y75211931D01*
X6770298Y75077082D01*
X6763890Y75017477D01*
X6763890Y73194535D01*
X6763890Y73194532D01*
X6763891Y73194528D01*
X6765957Y73175307D01*
X6770298Y73134920D01*
X6770299Y73134916D01*
X6820593Y73000071D01*
X6820594Y73000069D01*
X6906844Y72884854D01*
X7022059Y72798604D01*
X7022060Y72798604D01*
X7030235Y72792484D01*
X7095157Y72720206D01*
X7127479Y72628585D01*
X7122278Y72531569D01*
X7080347Y72443928D01*
X7064212Y72424511D01*
X7047836Y72406722D01*
X7047831Y72406715D01*
X6924190Y72217470D01*
X6924181Y72217452D01*
X6833384Y72010456D01*
X6833380Y72010446D01*
X6777883Y71791295D01*
X6759215Y71566000D01*
X6777883Y71340706D01*
X6833380Y71121555D01*
X6833384Y71121545D01*
X6924181Y70914549D01*
X6924190Y70914531D01*
X6990754Y70812648D01*
X7047834Y70725281D01*
X7047836Y70725279D01*
X7200936Y70558968D01*
X7200939Y70558966D01*
X7200944Y70558960D01*
X7286338Y70492495D01*
X7349891Y70419010D01*
X7380485Y70326797D01*
X7373462Y70229897D01*
X7329892Y70143059D01*
X7286339Y70099507D01*
X7200944Y70033040D01*
X7200936Y70033033D01*
X7047836Y69866722D01*
X7047831Y69866715D01*
X6924190Y69677470D01*
X6924181Y69677452D01*
X6833384Y69470456D01*
X6833380Y69470446D01*
X6777883Y69251295D01*
X6759215Y69026000D01*
X6777883Y68800706D01*
X6833380Y68581555D01*
X6833384Y68581545D01*
X6924181Y68374549D01*
X6924190Y68374531D01*
X6990754Y68272648D01*
X7047834Y68185281D01*
X7047836Y68185279D01*
X7200936Y68018968D01*
X7200939Y68018966D01*
X7200944Y68018960D01*
X7286338Y67952495D01*
X7349891Y67879010D01*
X7380485Y67786797D01*
X7373462Y67689897D01*
X7329892Y67603059D01*
X7286339Y67559507D01*
X7200944Y67493040D01*
X7200936Y67493033D01*
X7047836Y67326722D01*
X7047831Y67326715D01*
X6924190Y67137470D01*
X6924181Y67137452D01*
X6833384Y66930456D01*
X6833380Y66930446D01*
X6777883Y66711295D01*
X6759215Y66486000D01*
X6777883Y66260706D01*
X6833380Y66041555D01*
X6833384Y66041545D01*
X6924181Y65834549D01*
X6924190Y65834531D01*
X6990754Y65732648D01*
X7047834Y65645281D01*
X7047836Y65645279D01*
X7200936Y65478968D01*
X7200939Y65478966D01*
X7200944Y65478960D01*
X7286338Y65412495D01*
X7349891Y65339010D01*
X7380485Y65246797D01*
X7373462Y65149897D01*
X7329892Y65063059D01*
X7286339Y65019507D01*
X7200944Y64953040D01*
X7200936Y64953033D01*
X7047836Y64786722D01*
X7047831Y64786715D01*
X6924190Y64597470D01*
X6924181Y64597452D01*
X6833384Y64390456D01*
X6833380Y64390446D01*
X6777883Y64171295D01*
X6759215Y63946000D01*
X6777883Y63720706D01*
X6833380Y63501555D01*
X6833384Y63501545D01*
X6924181Y63294549D01*
X6924190Y63294531D01*
X6990754Y63192648D01*
X7047834Y63105281D01*
X7047836Y63105279D01*
X7200936Y62938968D01*
X7200939Y62938966D01*
X7200944Y62938960D01*
X7286338Y62872495D01*
X7349891Y62799010D01*
X7380485Y62706797D01*
X7373462Y62609897D01*
X7329892Y62523059D01*
X7286339Y62479507D01*
X7200944Y62413040D01*
X7200936Y62413033D01*
X7047836Y62246722D01*
X7047831Y62246715D01*
X6924190Y62057470D01*
X6924181Y62057452D01*
X6833384Y61850456D01*
X6833380Y61850446D01*
X6777883Y61631295D01*
X6759215Y61406000D01*
X6777883Y61180706D01*
X6833380Y60961555D01*
X6833384Y60961545D01*
X6924181Y60754549D01*
X6924190Y60754531D01*
X6990754Y60652648D01*
X7047834Y60565281D01*
X7047836Y60565279D01*
X7200936Y60398968D01*
X7200939Y60398966D01*
X7200944Y60398960D01*
X7286338Y60332495D01*
X7349891Y60259010D01*
X7380485Y60166797D01*
X7373462Y60069897D01*
X7329892Y59983059D01*
X7286339Y59939507D01*
X7200944Y59873040D01*
X7200936Y59873033D01*
X7047836Y59706722D01*
X7047831Y59706715D01*
X6924190Y59517470D01*
X6924181Y59517452D01*
X6833384Y59310456D01*
X6833380Y59310446D01*
X6777883Y59091295D01*
X6759215Y58866000D01*
X6777883Y58640706D01*
X6833380Y58421555D01*
X6833384Y58421545D01*
X6924181Y58214549D01*
X6924190Y58214531D01*
X6990754Y58112648D01*
X7047834Y58025281D01*
X7047836Y58025279D01*
X7200936Y57858968D01*
X7200939Y57858966D01*
X7200944Y57858960D01*
X7286338Y57792495D01*
X7349891Y57719010D01*
X7380485Y57626797D01*
X7373462Y57529897D01*
X7329892Y57443059D01*
X7286339Y57399507D01*
X7254876Y57375017D01*
X7200944Y57333040D01*
X7200936Y57333033D01*
X7047836Y57166722D01*
X7047831Y57166715D01*
X6924190Y56977470D01*
X6924181Y56977452D01*
X6833384Y56770456D01*
X6833380Y56770446D01*
X6777883Y56551295D01*
X6759215Y56326000D01*
X6777883Y56100706D01*
X6833380Y55881555D01*
X6833384Y55881545D01*
X6924181Y55674549D01*
X6924190Y55674531D01*
X6952089Y55631829D01*
X7047834Y55485281D01*
X7047836Y55485279D01*
X7200936Y55318968D01*
X7200939Y55318966D01*
X7200944Y55318960D01*
X7286338Y55252495D01*
X7349891Y55179010D01*
X7380485Y55086797D01*
X7373462Y54989897D01*
X7329892Y54903059D01*
X7286339Y54859507D01*
X7200944Y54793040D01*
X7200936Y54793033D01*
X7047836Y54626722D01*
X7047831Y54626715D01*
X6924190Y54437470D01*
X6924181Y54437452D01*
X6833384Y54230456D01*
X6833380Y54230446D01*
X6777883Y54011295D01*
X6759215Y53786000D01*
X6777883Y53560706D01*
X6833380Y53341555D01*
X6833384Y53341545D01*
X6924181Y53134549D01*
X6924190Y53134531D01*
X6990754Y53032648D01*
X7047834Y52945281D01*
X7047836Y52945279D01*
X7200936Y52778968D01*
X7200939Y52778966D01*
X7200944Y52778960D01*
X7286338Y52712495D01*
X7349891Y52639010D01*
X7380485Y52546797D01*
X7373462Y52449897D01*
X7329892Y52363059D01*
X7286339Y52319507D01*
X7200944Y52253040D01*
X7200936Y52253033D01*
X7047836Y52086722D01*
X7047831Y52086715D01*
X6924190Y51897470D01*
X6924181Y51897452D01*
X6833384Y51690456D01*
X6833380Y51690446D01*
X6777883Y51471295D01*
X6759215Y51246000D01*
X6777883Y51020706D01*
X6833380Y50801555D01*
X6833384Y50801545D01*
X6924181Y50594549D01*
X6924190Y50594531D01*
X6990754Y50492648D01*
X7047834Y50405281D01*
X7047836Y50405279D01*
X7200936Y50238968D01*
X7200939Y50238966D01*
X7200944Y50238960D01*
X7286338Y50172495D01*
X7349891Y50099010D01*
X7380485Y50006797D01*
X7373462Y49909897D01*
X7329892Y49823059D01*
X7286339Y49779507D01*
X7200944Y49713040D01*
X7200936Y49713033D01*
X7047836Y49546722D01*
X7047831Y49546715D01*
X6924190Y49357470D01*
X6924181Y49357452D01*
X6833384Y49150456D01*
X6833380Y49150446D01*
X6777883Y48931295D01*
X6759215Y48706000D01*
X6777883Y48480706D01*
X6833380Y48261555D01*
X6833384Y48261545D01*
X6924181Y48054549D01*
X6924190Y48054531D01*
X6974804Y47977061D01*
X7047834Y47865281D01*
X7078456Y47832017D01*
X7200936Y47698968D01*
X7200939Y47698966D01*
X7200944Y47698960D01*
X7286338Y47632495D01*
X7349891Y47559010D01*
X7380485Y47466797D01*
X7373462Y47369897D01*
X7329892Y47283059D01*
X7286339Y47239507D01*
X7200944Y47173040D01*
X7200936Y47173033D01*
X7047836Y47006722D01*
X7047831Y47006715D01*
X6924190Y46817470D01*
X6924181Y46817452D01*
X6833384Y46610456D01*
X6833380Y46610446D01*
X6777883Y46391295D01*
X6759215Y46166000D01*
X6777883Y45940706D01*
X6833380Y45721555D01*
X6833384Y45721545D01*
X6924181Y45514549D01*
X6924190Y45514531D01*
X6990754Y45412648D01*
X7047834Y45325281D01*
X7047836Y45325279D01*
X7200936Y45158968D01*
X7200939Y45158966D01*
X7200944Y45158960D01*
X7286338Y45092495D01*
X7349891Y45019010D01*
X7380485Y44926797D01*
X7373462Y44829897D01*
X7329892Y44743059D01*
X7286339Y44699507D01*
X7283655Y44697417D01*
X7200944Y44633040D01*
X7200936Y44633033D01*
X7047836Y44466722D01*
X7047831Y44466715D01*
X6924190Y44277470D01*
X6924181Y44277452D01*
X6833384Y44070456D01*
X6833380Y44070446D01*
X6777883Y43851295D01*
X6759215Y43626000D01*
X6777883Y43400706D01*
X6833380Y43181555D01*
X6833384Y43181545D01*
X6924181Y42974549D01*
X6924190Y42974531D01*
X6953237Y42930072D01*
X7047834Y42785281D01*
X7068164Y42763197D01*
X7200936Y42618968D01*
X7200939Y42618966D01*
X7200944Y42618960D01*
X7286338Y42552495D01*
X7349891Y42479010D01*
X7380485Y42386797D01*
X7373462Y42289897D01*
X7329892Y42203059D01*
X7286338Y42159505D01*
X7200944Y42093040D01*
X7200936Y42093033D01*
X7047836Y41926722D01*
X7047831Y41926715D01*
X6924190Y41737470D01*
X6924181Y41737452D01*
X6833384Y41530456D01*
X6833380Y41530446D01*
X6777883Y41311295D01*
X6759215Y41086000D01*
X6777883Y40860706D01*
X6833380Y40641555D01*
X6833384Y40641545D01*
X6924181Y40434549D01*
X6924190Y40434531D01*
X7010363Y40302634D01*
X7047834Y40245281D01*
X7047836Y40245279D01*
X7200936Y40078968D01*
X7200939Y40078966D01*
X7200944Y40078960D01*
X7286338Y40012495D01*
X7349891Y39939010D01*
X7380485Y39846797D01*
X7373462Y39749897D01*
X7329892Y39663059D01*
X7286338Y39619505D01*
X7200944Y39553040D01*
X7200936Y39553033D01*
X7047836Y39386722D01*
X7047831Y39386715D01*
X6924190Y39197470D01*
X6924181Y39197452D01*
X6833384Y38990456D01*
X6833380Y38990446D01*
X6777883Y38771295D01*
X6759215Y38546000D01*
X6777883Y38320706D01*
X6833380Y38101555D01*
X6833384Y38101545D01*
X6924181Y37894549D01*
X6924190Y37894531D01*
X7010363Y37762634D01*
X7047834Y37705281D01*
X7047836Y37705279D01*
X7200936Y37538968D01*
X7200939Y37538966D01*
X7200944Y37538960D01*
X7286338Y37472495D01*
X7349891Y37399010D01*
X7380485Y37306797D01*
X7373462Y37209897D01*
X7329892Y37123059D01*
X7286338Y37079505D01*
X7200944Y37013040D01*
X7200936Y37013033D01*
X7047836Y36846722D01*
X7047831Y36846715D01*
X6924190Y36657470D01*
X6924181Y36657452D01*
X6833384Y36450456D01*
X6833380Y36450446D01*
X6777883Y36231295D01*
X6759215Y36006000D01*
X6777883Y35780706D01*
X6833380Y35561555D01*
X6833384Y35561545D01*
X6924181Y35354549D01*
X6924190Y35354531D01*
X7010363Y35222634D01*
X7047834Y35165281D01*
X7047836Y35165279D01*
X7200936Y34998968D01*
X7200939Y34998966D01*
X7200944Y34998960D01*
X7286338Y34932495D01*
X7349891Y34859010D01*
X7380485Y34766797D01*
X7373462Y34669897D01*
X7329892Y34583059D01*
X7286338Y34539505D01*
X7200944Y34473040D01*
X7200936Y34473033D01*
X7047836Y34306722D01*
X7047831Y34306715D01*
X6924190Y34117470D01*
X6924181Y34117452D01*
X6833384Y33910456D01*
X6833380Y33910446D01*
X6777883Y33691295D01*
X6759215Y33466000D01*
X6777883Y33240706D01*
X6833380Y33021555D01*
X6833384Y33021545D01*
X6924181Y32814549D01*
X6924190Y32814531D01*
X6958722Y32761677D01*
X7047834Y32625281D01*
X7047836Y32625279D01*
X7200936Y32458968D01*
X7200939Y32458966D01*
X7200944Y32458960D01*
X7286338Y32392495D01*
X7349891Y32319010D01*
X7380485Y32226797D01*
X7373462Y32129897D01*
X7329892Y32043059D01*
X7286339Y31999507D01*
X7229184Y31955020D01*
X7200944Y31933040D01*
X7200936Y31933033D01*
X7047836Y31766722D01*
X7047831Y31766715D01*
X6924190Y31577470D01*
X6924181Y31577452D01*
X6833384Y31370456D01*
X6833380Y31370446D01*
X6777883Y31151295D01*
X6759215Y30926000D01*
X6777883Y30700706D01*
X6833380Y30481555D01*
X6833384Y30481545D01*
X6924181Y30274549D01*
X6924190Y30274531D01*
X6990754Y30172648D01*
X7047834Y30085281D01*
X7054893Y30077613D01*
X7200936Y29918968D01*
X7200940Y29918965D01*
X7200944Y29918960D01*
X7379341Y29780107D01*
X7578159Y29672512D01*
X7791976Y29599109D01*
X8014957Y29561900D01*
X8241023Y29561900D01*
X8464004Y29599109D01*
X8677821Y29672512D01*
X8876639Y29780107D01*
X9055036Y29918960D01*
X9208146Y30085281D01*
X9208151Y30085290D01*
X9214793Y30092504D01*
X9293275Y30149773D01*
X9387699Y30172648D01*
X9483689Y30157648D01*
X9566632Y30107057D01*
X9581180Y30092508D01*
X9601681Y30070239D01*
X9652275Y29987297D01*
X9667490Y29901592D01*
X9667490Y15701866D01*
X9667410Y15695559D01*
X9665232Y15609641D01*
X9665233Y15609637D01*
X9674802Y15556240D01*
X9677428Y15537515D01*
X9682915Y15483566D01*
X9689652Y15462092D01*
X9697163Y15431490D01*
X9701131Y15409350D01*
X9701133Y15409344D01*
X9721247Y15358989D01*
X9727592Y15341168D01*
X9743830Y15289413D01*
X9743835Y15289403D01*
X9754747Y15269743D01*
X9768266Y15241277D01*
X9776609Y15220391D01*
X9776616Y15220377D01*
X9806456Y15175101D01*
X9816256Y15158925D01*
X9832412Y15129818D01*
X9842581Y15111498D01*
X9857232Y15094432D01*
X9876211Y15069260D01*
X9888586Y15050483D01*
X9926941Y15012127D01*
X9939800Y14998252D01*
X9975123Y14957106D01*
X9975124Y14957105D01*
X9992905Y14943341D01*
X10016559Y14922510D01*
X14826570Y10112499D01*
X14880546Y10031717D01*
X14899500Y9936429D01*
X14899500Y9063495D01*
X14880546Y8968207D01*
X14826570Y8887425D01*
X14745788Y8833449D01*
X14741175Y8831592D01*
X14731991Y8828002D01*
X11501527Y5846034D01*
X11418653Y5795329D01*
X11332635Y5780000D01*
X6095990Y5780000D01*
X6095990Y5779999D01*
X6095990Y1203000D01*
X6077036Y1107712D01*
X6023060Y1026930D01*
X5942278Y972954D01*
X5846990Y954000D01*
X1011643Y954000D01*
X916355Y972954D01*
X835573Y1026930D01*
X781597Y1107712D01*
X762643Y1203000D01*
X762644Y1203652D01*
X966609Y79118232D01*
X6273777Y79118232D01*
X6303302Y78849910D01*
X6303404Y78848982D01*
X6371918Y78586912D01*
X6443847Y78417648D01*
X6477859Y78337613D01*
X6477862Y78337606D01*
X6618966Y78106399D01*
X6618968Y78106395D01*
X6618972Y78106390D01*
X6618977Y78106384D01*
X6618980Y78106380D01*
X6786698Y77904845D01*
X6792245Y77898180D01*
X6897231Y77804112D01*
X6993986Y77717420D01*
X6993989Y77717417D01*
X7219893Y77567960D01*
X7219896Y77567959D01*
X7219900Y77567956D01*
X7465166Y77452980D01*
X7724559Y77374940D01*
X7992551Y77335500D01*
X7992557Y77335500D01*
X8195620Y77335500D01*
X8195621Y77335500D01*
X8398146Y77350323D01*
X8662543Y77409220D01*
X8915548Y77505986D01*
X8963807Y77533071D01*
X9151763Y77638556D01*
X9366163Y77804109D01*
X9366162Y77804109D01*
X9366167Y77804112D01*
X9554176Y77999119D01*
X9711789Y78219421D01*
X9835646Y78460325D01*
X9909907Y78678000D01*
X9923107Y78716691D01*
X9927701Y78741559D01*
X9972309Y78983067D01*
X9979725Y79186000D01*
X11839215Y79186000D01*
X11857883Y78960706D01*
X11913380Y78741555D01*
X11913384Y78741545D01*
X12004181Y78534549D01*
X12004190Y78534531D01*
X12070754Y78432648D01*
X12127834Y78345281D01*
X12127836Y78345279D01*
X12280936Y78178968D01*
X12280940Y78178965D01*
X12280944Y78178960D01*
X12459341Y78040107D01*
X12658159Y77932512D01*
X12871976Y77859109D01*
X13094957Y77821900D01*
X13321023Y77821900D01*
X13544004Y77859109D01*
X13757821Y77932512D01*
X13956639Y78040107D01*
X14135036Y78178960D01*
X14288146Y78345281D01*
X14288146Y78345283D01*
X14294795Y78352504D01*
X14373277Y78409773D01*
X14467700Y78432648D01*
X14563690Y78417648D01*
X14646633Y78367056D01*
X14661185Y78352504D01*
X14667833Y78345282D01*
X14667834Y78345281D01*
X14709040Y78300519D01*
X14820936Y78178968D01*
X14820940Y78178965D01*
X14820944Y78178960D01*
X14999341Y78040107D01*
X15198159Y77932512D01*
X15411976Y77859109D01*
X15634957Y77821900D01*
X15861023Y77821900D01*
X16084004Y77859109D01*
X16297821Y77932512D01*
X16496639Y78040107D01*
X16675036Y78178960D01*
X16828146Y78345281D01*
X16828146Y78345283D01*
X16834795Y78352504D01*
X16913277Y78409773D01*
X17007700Y78432648D01*
X17103690Y78417648D01*
X17186633Y78367056D01*
X17201185Y78352504D01*
X17207833Y78345282D01*
X17207834Y78345281D01*
X17249040Y78300519D01*
X17360936Y78178968D01*
X17360940Y78178965D01*
X17360944Y78178960D01*
X17539341Y78040107D01*
X17738159Y77932512D01*
X17951976Y77859109D01*
X18174957Y77821900D01*
X18401023Y77821900D01*
X18624004Y77859109D01*
X18837821Y77932512D01*
X19036639Y78040107D01*
X19215036Y78178960D01*
X19368146Y78345281D01*
X19368146Y78345283D01*
X19374795Y78352504D01*
X19453277Y78409773D01*
X19547700Y78432648D01*
X19643690Y78417648D01*
X19726633Y78367056D01*
X19741185Y78352504D01*
X19747833Y78345282D01*
X19747834Y78345281D01*
X19789040Y78300519D01*
X19900936Y78178968D01*
X19900940Y78178965D01*
X19900944Y78178960D01*
X20079341Y78040107D01*
X20278159Y77932512D01*
X20491976Y77859109D01*
X20714957Y77821900D01*
X20941023Y77821900D01*
X21164004Y77859109D01*
X21377821Y77932512D01*
X21576639Y78040107D01*
X21755036Y78178960D01*
X21908146Y78345281D01*
X21908146Y78345283D01*
X21914795Y78352504D01*
X21993277Y78409773D01*
X22087700Y78432648D01*
X22183690Y78417648D01*
X22266633Y78367056D01*
X22281185Y78352504D01*
X22287833Y78345282D01*
X22287834Y78345281D01*
X22329040Y78300519D01*
X22440936Y78178968D01*
X22440940Y78178965D01*
X22440944Y78178960D01*
X22619341Y78040107D01*
X22818159Y77932512D01*
X23031976Y77859109D01*
X23254957Y77821900D01*
X23481023Y77821900D01*
X23704004Y77859109D01*
X23917821Y77932512D01*
X24116639Y78040107D01*
X24295036Y78178960D01*
X24448146Y78345281D01*
X24448146Y78345283D01*
X24454795Y78352504D01*
X24533277Y78409773D01*
X24627700Y78432648D01*
X24723690Y78417648D01*
X24806633Y78367056D01*
X24821185Y78352504D01*
X24827833Y78345282D01*
X24827834Y78345281D01*
X24869040Y78300519D01*
X24980936Y78178968D01*
X24980940Y78178965D01*
X24980944Y78178960D01*
X25159341Y78040107D01*
X25358159Y77932512D01*
X25571976Y77859109D01*
X25794957Y77821900D01*
X26021023Y77821900D01*
X26244004Y77859109D01*
X26457821Y77932512D01*
X26656639Y78040107D01*
X26835036Y78178960D01*
X26988146Y78345281D01*
X26988146Y78345283D01*
X26994795Y78352504D01*
X27073277Y78409773D01*
X27167700Y78432648D01*
X27263690Y78417648D01*
X27346633Y78367056D01*
X27361185Y78352504D01*
X27367833Y78345282D01*
X27367834Y78345281D01*
X27409040Y78300519D01*
X27520936Y78178968D01*
X27520940Y78178965D01*
X27520944Y78178960D01*
X27699341Y78040107D01*
X27898159Y77932512D01*
X28111976Y77859109D01*
X28334957Y77821900D01*
X28561023Y77821900D01*
X28784004Y77859109D01*
X28997821Y77932512D01*
X29196639Y78040107D01*
X29375036Y78178960D01*
X29528146Y78345281D01*
X29528146Y78345283D01*
X29534795Y78352504D01*
X29613277Y78409773D01*
X29707700Y78432648D01*
X29803690Y78417648D01*
X29886633Y78367056D01*
X29901185Y78352504D01*
X29907833Y78345282D01*
X29907834Y78345281D01*
X29949040Y78300519D01*
X30060936Y78178968D01*
X30060940Y78178965D01*
X30060944Y78178960D01*
X30239341Y78040107D01*
X30438159Y77932512D01*
X30651976Y77859109D01*
X30874957Y77821900D01*
X31101023Y77821900D01*
X31324004Y77859109D01*
X31537821Y77932512D01*
X31736639Y78040107D01*
X31915036Y78178960D01*
X32068146Y78345281D01*
X32191792Y78534535D01*
X32237196Y78638047D01*
X32282595Y78741545D01*
X32282599Y78741555D01*
X32282601Y78741559D01*
X32338097Y78960707D01*
X32356765Y79186000D01*
X34699215Y79186000D01*
X34717883Y78960706D01*
X34773380Y78741555D01*
X34773384Y78741545D01*
X34864181Y78534549D01*
X34864190Y78534531D01*
X34930754Y78432648D01*
X34987834Y78345281D01*
X34987836Y78345279D01*
X35140936Y78178968D01*
X35140940Y78178965D01*
X35140944Y78178960D01*
X35319341Y78040107D01*
X35518159Y77932512D01*
X35731976Y77859109D01*
X35954957Y77821900D01*
X36181023Y77821900D01*
X36404004Y77859109D01*
X36617821Y77932512D01*
X36816639Y78040107D01*
X36995036Y78178960D01*
X37148146Y78345281D01*
X37148146Y78345283D01*
X37154795Y78352504D01*
X37233277Y78409773D01*
X37327700Y78432648D01*
X37423690Y78417648D01*
X37506633Y78367056D01*
X37521185Y78352504D01*
X37527833Y78345282D01*
X37527834Y78345281D01*
X37569040Y78300519D01*
X37680936Y78178968D01*
X37680940Y78178965D01*
X37680944Y78178960D01*
X37859341Y78040107D01*
X38058159Y77932512D01*
X38271976Y77859109D01*
X38494957Y77821900D01*
X38721023Y77821900D01*
X38944004Y77859109D01*
X39157821Y77932512D01*
X39356639Y78040107D01*
X39535036Y78178960D01*
X39688146Y78345281D01*
X39688146Y78345283D01*
X39694795Y78352504D01*
X39773277Y78409773D01*
X39867700Y78432648D01*
X39963690Y78417648D01*
X40046633Y78367056D01*
X40061185Y78352504D01*
X40067833Y78345282D01*
X40067834Y78345281D01*
X40109040Y78300519D01*
X40220936Y78178968D01*
X40220940Y78178965D01*
X40220944Y78178960D01*
X40399341Y78040107D01*
X40598159Y77932512D01*
X40811976Y77859109D01*
X41034957Y77821900D01*
X41261023Y77821900D01*
X41484004Y77859109D01*
X41697821Y77932512D01*
X41896639Y78040107D01*
X42075036Y78178960D01*
X42228146Y78345281D01*
X42228146Y78345283D01*
X42234795Y78352504D01*
X42313277Y78409773D01*
X42407700Y78432648D01*
X42503690Y78417648D01*
X42586633Y78367056D01*
X42601185Y78352504D01*
X42607833Y78345282D01*
X42607834Y78345281D01*
X42649040Y78300519D01*
X42760936Y78178968D01*
X42760940Y78178965D01*
X42760944Y78178960D01*
X42939341Y78040107D01*
X43138159Y77932512D01*
X43351976Y77859109D01*
X43574957Y77821900D01*
X43801023Y77821900D01*
X44024004Y77859109D01*
X44237821Y77932512D01*
X44436639Y78040107D01*
X44615036Y78178960D01*
X44768146Y78345281D01*
X44768146Y78345283D01*
X44774795Y78352504D01*
X44853277Y78409773D01*
X44947700Y78432648D01*
X45043690Y78417648D01*
X45126633Y78367056D01*
X45141185Y78352504D01*
X45147833Y78345282D01*
X45147834Y78345281D01*
X45189040Y78300519D01*
X45300936Y78178968D01*
X45300940Y78178965D01*
X45300944Y78178960D01*
X45479341Y78040107D01*
X45678159Y77932512D01*
X45891976Y77859109D01*
X46114957Y77821900D01*
X46341023Y77821900D01*
X46564004Y77859109D01*
X46777821Y77932512D01*
X46976639Y78040107D01*
X47155036Y78178960D01*
X47308146Y78345281D01*
X47308146Y78345283D01*
X47314795Y78352504D01*
X47393277Y78409773D01*
X47487700Y78432648D01*
X47583690Y78417648D01*
X47666633Y78367056D01*
X47681185Y78352504D01*
X47687833Y78345282D01*
X47687834Y78345281D01*
X47729040Y78300519D01*
X47840936Y78178968D01*
X47840940Y78178965D01*
X47840944Y78178960D01*
X48019341Y78040107D01*
X48218159Y77932512D01*
X48431976Y77859109D01*
X48654957Y77821900D01*
X48881023Y77821900D01*
X49104004Y77859109D01*
X49317821Y77932512D01*
X49516639Y78040107D01*
X49695036Y78178960D01*
X49848146Y78345281D01*
X49848146Y78345283D01*
X49854795Y78352504D01*
X49933277Y78409773D01*
X50027700Y78432648D01*
X50123690Y78417648D01*
X50206633Y78367056D01*
X50221185Y78352504D01*
X50227833Y78345282D01*
X50227834Y78345281D01*
X50269040Y78300519D01*
X50380936Y78178968D01*
X50380940Y78178965D01*
X50380944Y78178960D01*
X50559341Y78040107D01*
X50758159Y77932512D01*
X50971976Y77859109D01*
X51194957Y77821900D01*
X51421023Y77821900D01*
X51644004Y77859109D01*
X51857821Y77932512D01*
X52056639Y78040107D01*
X52235036Y78178960D01*
X52388146Y78345281D01*
X52388146Y78345283D01*
X52394795Y78352504D01*
X52473277Y78409773D01*
X52567700Y78432648D01*
X52663690Y78417648D01*
X52746633Y78367056D01*
X52761185Y78352504D01*
X52767833Y78345282D01*
X52767834Y78345281D01*
X52809040Y78300519D01*
X52920936Y78178968D01*
X52920940Y78178965D01*
X52920944Y78178960D01*
X53099341Y78040107D01*
X53298159Y77932512D01*
X53511976Y77859109D01*
X53734957Y77821900D01*
X53961023Y77821900D01*
X54184004Y77859109D01*
X54397821Y77932512D01*
X54596639Y78040107D01*
X54775036Y78178960D01*
X54928146Y78345281D01*
X55051792Y78534535D01*
X55097196Y78638047D01*
X55142595Y78741545D01*
X55142599Y78741555D01*
X55142601Y78741559D01*
X55198097Y78960707D01*
X55216765Y79186000D01*
X57559215Y79186000D01*
X57577883Y78960706D01*
X57633380Y78741555D01*
X57633384Y78741545D01*
X57724181Y78534549D01*
X57724190Y78534531D01*
X57790754Y78432648D01*
X57847834Y78345281D01*
X57847836Y78345279D01*
X58000936Y78178968D01*
X58000940Y78178965D01*
X58000944Y78178960D01*
X58179341Y78040107D01*
X58378159Y77932512D01*
X58591976Y77859109D01*
X58814957Y77821900D01*
X59041023Y77821900D01*
X59264004Y77859109D01*
X59477821Y77932512D01*
X59676639Y78040107D01*
X59801503Y78137294D01*
X59888334Y78180860D01*
X59985234Y78187883D01*
X60077447Y78157289D01*
X60150932Y78093736D01*
X60153770Y78090017D01*
X60247196Y77965217D01*
X60247202Y77965211D01*
X60362302Y77879047D01*
X60497011Y77828804D01*
X60497018Y77828802D01*
X60556557Y77822401D01*
X60556565Y77822400D01*
X61217989Y77822400D01*
X61217990Y77822401D01*
X61217990Y78741703D01*
X61323398Y78693565D01*
X61431656Y78678000D01*
X61504324Y78678000D01*
X61612582Y78693565D01*
X61717990Y78741703D01*
X61717990Y77822401D01*
X61717991Y77822400D01*
X62379415Y77822400D01*
X62379422Y77822401D01*
X62438961Y77828802D01*
X62438968Y77828804D01*
X62573676Y77879047D01*
X62588347Y77890029D01*
X62675987Y77931962D01*
X62773002Y77937165D01*
X62864624Y77904845D01*
X62886790Y77890035D01*
X62902059Y77878604D01*
X63036907Y77828309D01*
X63096517Y77821900D01*
X64919462Y77821901D01*
X64979073Y77828309D01*
X65113921Y77878604D01*
X65229136Y77964854D01*
X65315386Y78080069D01*
X65315386Y78080071D01*
X65322602Y78089709D01*
X65394880Y78154632D01*
X65486501Y78186954D01*
X65583516Y78181753D01*
X65671157Y78139822D01*
X65674857Y78136998D01*
X65799341Y78040107D01*
X65998159Y77932512D01*
X66211976Y77859109D01*
X66434957Y77821900D01*
X66661023Y77821900D01*
X66884004Y77859109D01*
X67097821Y77932512D01*
X67296639Y78040107D01*
X67475036Y78178960D01*
X67628146Y78345281D01*
X67628146Y78345283D01*
X67634795Y78352504D01*
X67713277Y78409773D01*
X67807700Y78432648D01*
X67903690Y78417648D01*
X67986633Y78367056D01*
X68001185Y78352504D01*
X68007833Y78345282D01*
X68007834Y78345281D01*
X68049040Y78300519D01*
X68160936Y78178968D01*
X68160940Y78178965D01*
X68160944Y78178960D01*
X68339341Y78040107D01*
X68538159Y77932512D01*
X68751976Y77859109D01*
X68974957Y77821900D01*
X69201023Y77821900D01*
X69424004Y77859109D01*
X69637821Y77932512D01*
X69836639Y78040107D01*
X70015036Y78178960D01*
X70168146Y78345281D01*
X70168146Y78345283D01*
X70174795Y78352504D01*
X70253277Y78409773D01*
X70347700Y78432648D01*
X70443690Y78417648D01*
X70526633Y78367056D01*
X70541185Y78352504D01*
X70547833Y78345282D01*
X70547834Y78345281D01*
X70589040Y78300519D01*
X70700936Y78178968D01*
X70700940Y78178965D01*
X70700944Y78178960D01*
X70879341Y78040107D01*
X71078159Y77932512D01*
X71291976Y77859109D01*
X71514957Y77821900D01*
X71741023Y77821900D01*
X71964004Y77859109D01*
X72177821Y77932512D01*
X72376639Y78040107D01*
X72555036Y78178960D01*
X72708146Y78345281D01*
X72708146Y78345283D01*
X72714795Y78352504D01*
X72793277Y78409773D01*
X72887700Y78432648D01*
X72983690Y78417648D01*
X73066633Y78367056D01*
X73081185Y78352504D01*
X73087833Y78345282D01*
X73087834Y78345281D01*
X73129040Y78300519D01*
X73240936Y78178968D01*
X73240940Y78178965D01*
X73240944Y78178960D01*
X73419341Y78040107D01*
X73618159Y77932512D01*
X73831976Y77859109D01*
X74054957Y77821900D01*
X74281023Y77821900D01*
X74504004Y77859109D01*
X74717821Y77932512D01*
X74916639Y78040107D01*
X75095036Y78178960D01*
X75248146Y78345281D01*
X75248146Y78345283D01*
X75254795Y78352504D01*
X75333277Y78409773D01*
X75427700Y78432648D01*
X75523690Y78417648D01*
X75606633Y78367056D01*
X75621185Y78352504D01*
X75627833Y78345282D01*
X75627834Y78345281D01*
X75669040Y78300519D01*
X75780936Y78178968D01*
X75780940Y78178965D01*
X75780944Y78178960D01*
X75959341Y78040107D01*
X76158159Y77932512D01*
X76371976Y77859109D01*
X76594957Y77821900D01*
X76821023Y77821900D01*
X77044004Y77859109D01*
X77257821Y77932512D01*
X77456639Y78040107D01*
X77635036Y78178960D01*
X77788146Y78345281D01*
X77911792Y78534535D01*
X77957196Y78638047D01*
X78002595Y78741545D01*
X78002599Y78741555D01*
X78002601Y78741559D01*
X78058097Y78960707D01*
X78071150Y79118232D01*
X88823777Y79118232D01*
X88853302Y78849910D01*
X88853404Y78848982D01*
X88921918Y78586912D01*
X88993847Y78417648D01*
X89027859Y78337613D01*
X89027862Y78337606D01*
X89168966Y78106399D01*
X89168968Y78106395D01*
X89168972Y78106390D01*
X89168977Y78106384D01*
X89168980Y78106380D01*
X89336698Y77904845D01*
X89342245Y77898180D01*
X89447231Y77804112D01*
X89543986Y77717420D01*
X89543989Y77717417D01*
X89769893Y77567960D01*
X89769896Y77567959D01*
X89769900Y77567956D01*
X90015166Y77452980D01*
X90274559Y77374940D01*
X90542551Y77335500D01*
X90542557Y77335500D01*
X90745620Y77335500D01*
X90745621Y77335500D01*
X90948146Y77350323D01*
X91212543Y77409220D01*
X91465548Y77505986D01*
X91513807Y77533071D01*
X91701763Y77638556D01*
X91916163Y77804109D01*
X91916162Y77804109D01*
X91916167Y77804112D01*
X92104176Y77999119D01*
X92261789Y78219421D01*
X92385646Y78460325D01*
X92459907Y78678000D01*
X92473107Y78716691D01*
X92477701Y78741559D01*
X92522309Y78983067D01*
X92532202Y79253765D01*
X92502576Y79523018D01*
X92434062Y79785088D01*
X92328120Y80034390D01*
X92328117Y80034395D01*
X92187013Y80265602D01*
X92187012Y80265603D01*
X92187008Y80265610D01*
X92069220Y80407147D01*
X92013735Y80473820D01*
X91928601Y80550100D01*
X91811992Y80654582D01*
X91811990Y80654584D01*
X91586086Y80804041D01*
X91453890Y80866012D01*
X91340814Y80919020D01*
X91081421Y80997060D01*
X91081417Y80997061D01*
X91081416Y80997061D01*
X91019705Y81006143D01*
X90813429Y81036500D01*
X90610359Y81036500D01*
X90407834Y81021677D01*
X90407830Y81021677D01*
X90407827Y81021676D01*
X90143432Y80962779D01*
X89890426Y80866012D01*
X89654216Y80733445D01*
X89439816Y80567892D01*
X89251801Y80372878D01*
X89094194Y80152584D01*
X89094189Y80152576D01*
X88970334Y79911677D01*
X88970333Y79911675D01*
X88882872Y79655310D01*
X88833671Y79388938D01*
X88833670Y79388927D01*
X88823778Y79118235D01*
X88823777Y79118232D01*
X78071150Y79118232D01*
X78076765Y79186000D01*
X78058097Y79411293D01*
X78002601Y79630441D01*
X78002599Y79630446D01*
X78002595Y79630456D01*
X77911798Y79837452D01*
X77911789Y79837470D01*
X77830280Y79962228D01*
X77788146Y80026719D01*
X77672286Y80152576D01*
X77635043Y80193033D01*
X77635038Y80193038D01*
X77635036Y80193040D01*
X77606796Y80215020D01*
X77541799Y80265610D01*
X77456639Y80331893D01*
X77426384Y80348266D01*
X77257820Y80439489D01*
X77044004Y80512891D01*
X77044001Y80512892D01*
X76821023Y80550100D01*
X76594957Y80550100D01*
X76371978Y80512892D01*
X76371975Y80512891D01*
X76158159Y80439489D01*
X75959342Y80331894D01*
X75780949Y80193045D01*
X75780942Y80193038D01*
X75778091Y80189941D01*
X75634901Y80034395D01*
X75621185Y80019496D01*
X75542703Y79962228D01*
X75448279Y79939353D01*
X75352289Y79954353D01*
X75269346Y80004945D01*
X75254795Y80019496D01*
X75241084Y80034390D01*
X75095036Y80193040D01*
X75066796Y80215020D01*
X75001799Y80265610D01*
X74916639Y80331893D01*
X74886384Y80348266D01*
X74717820Y80439489D01*
X74504004Y80512891D01*
X74504001Y80512892D01*
X74281023Y80550100D01*
X74054957Y80550100D01*
X73831978Y80512892D01*
X73831975Y80512891D01*
X73618159Y80439489D01*
X73419342Y80331894D01*
X73240949Y80193045D01*
X73240942Y80193038D01*
X73238091Y80189941D01*
X73094901Y80034395D01*
X73081185Y80019496D01*
X73002703Y79962228D01*
X72908279Y79939353D01*
X72812289Y79954353D01*
X72729346Y80004945D01*
X72714795Y80019496D01*
X72701084Y80034390D01*
X72555036Y80193040D01*
X72526796Y80215020D01*
X72461799Y80265610D01*
X72376639Y80331893D01*
X72346384Y80348266D01*
X72177820Y80439489D01*
X71964004Y80512891D01*
X71964001Y80512892D01*
X71741023Y80550100D01*
X71514957Y80550100D01*
X71291978Y80512892D01*
X71291975Y80512891D01*
X71078159Y80439489D01*
X70879342Y80331894D01*
X70700949Y80193045D01*
X70700942Y80193038D01*
X70698091Y80189941D01*
X70554901Y80034395D01*
X70541185Y80019496D01*
X70462703Y79962228D01*
X70368279Y79939353D01*
X70272289Y79954353D01*
X70189346Y80004945D01*
X70174795Y80019496D01*
X70161084Y80034390D01*
X70015036Y80193040D01*
X69986796Y80215020D01*
X69921799Y80265610D01*
X69836639Y80331893D01*
X69806384Y80348266D01*
X69637820Y80439489D01*
X69424004Y80512891D01*
X69424001Y80512892D01*
X69201023Y80550100D01*
X68974957Y80550100D01*
X68751978Y80512892D01*
X68751975Y80512891D01*
X68538159Y80439489D01*
X68339342Y80331894D01*
X68160949Y80193045D01*
X68160942Y80193038D01*
X68158091Y80189941D01*
X68014901Y80034395D01*
X68001185Y80019496D01*
X67922703Y79962228D01*
X67828279Y79939353D01*
X67732289Y79954353D01*
X67649346Y80004945D01*
X67634795Y80019496D01*
X67621084Y80034390D01*
X67475036Y80193040D01*
X67446796Y80215020D01*
X67381799Y80265610D01*
X67296639Y80331893D01*
X67266384Y80348266D01*
X67097820Y80439489D01*
X66884004Y80512891D01*
X66884001Y80512892D01*
X66661023Y80550100D01*
X66434957Y80550100D01*
X66211978Y80512892D01*
X66211975Y80512891D01*
X65998159Y80439489D01*
X65799342Y80331894D01*
X65674875Y80235017D01*
X65588037Y80191447D01*
X65491136Y80184425D01*
X65398924Y80215020D01*
X65325440Y80278574D01*
X65322602Y80282291D01*
X65315386Y80291930D01*
X65315386Y80291931D01*
X65229136Y80407146D01*
X65113921Y80493396D01*
X65033707Y80523314D01*
X64979071Y80543692D01*
X64919463Y80550100D01*
X63096524Y80550100D01*
X63096520Y80550100D01*
X63096518Y80550099D01*
X63083704Y80548722D01*
X63036909Y80543692D01*
X63036905Y80543691D01*
X62902057Y80493396D01*
X62886794Y80481969D01*
X62799153Y80440038D01*
X62702137Y80434837D01*
X62610516Y80467159D01*
X62588352Y80481969D01*
X62573679Y80492953D01*
X62438968Y80543197D01*
X62438961Y80543199D01*
X62379422Y80549600D01*
X61717991Y80549600D01*
X61717990Y80549599D01*
X61717990Y79630298D01*
X61612582Y79678435D01*
X61504324Y79694000D01*
X61431656Y79694000D01*
X61323398Y79678435D01*
X61217990Y79630298D01*
X61217990Y80549599D01*
X61217989Y80549600D01*
X60556557Y80549600D01*
X60497018Y80543199D01*
X60497011Y80543197D01*
X60362302Y80492954D01*
X60247202Y80406790D01*
X60247199Y80406787D01*
X60153770Y80281983D01*
X60081491Y80217061D01*
X59989870Y80184740D01*
X59892854Y80189941D01*
X59805214Y80231873D01*
X59801497Y80234711D01*
X59801104Y80235017D01*
X59676639Y80331893D01*
X59646384Y80348266D01*
X59477820Y80439489D01*
X59264004Y80512891D01*
X59264001Y80512892D01*
X59041023Y80550100D01*
X58814957Y80550100D01*
X58591978Y80512892D01*
X58591975Y80512891D01*
X58378159Y80439489D01*
X58179342Y80331894D01*
X58000949Y80193045D01*
X58000936Y80193033D01*
X57847836Y80026722D01*
X57847831Y80026715D01*
X57724190Y79837470D01*
X57724181Y79837452D01*
X57633384Y79630456D01*
X57633380Y79630446D01*
X57577883Y79411295D01*
X57559215Y79186000D01*
X55216765Y79186000D01*
X55198097Y79411293D01*
X55142601Y79630441D01*
X55142599Y79630446D01*
X55142595Y79630456D01*
X55051798Y79837452D01*
X55051789Y79837470D01*
X54970280Y79962228D01*
X54928146Y80026719D01*
X54812286Y80152576D01*
X54775043Y80193033D01*
X54775038Y80193038D01*
X54775036Y80193040D01*
X54746796Y80215020D01*
X54681799Y80265610D01*
X54596639Y80331893D01*
X54566384Y80348266D01*
X54397820Y80439489D01*
X54184004Y80512891D01*
X54184001Y80512892D01*
X53961023Y80550100D01*
X53734957Y80550100D01*
X53511978Y80512892D01*
X53511975Y80512891D01*
X53298159Y80439489D01*
X53099342Y80331894D01*
X52920949Y80193045D01*
X52920942Y80193038D01*
X52918091Y80189941D01*
X52774901Y80034395D01*
X52761185Y80019496D01*
X52682703Y79962228D01*
X52588279Y79939353D01*
X52492289Y79954353D01*
X52409346Y80004945D01*
X52394795Y80019496D01*
X52381084Y80034390D01*
X52235036Y80193040D01*
X52206796Y80215020D01*
X52141799Y80265610D01*
X52056639Y80331893D01*
X52026384Y80348266D01*
X51857820Y80439489D01*
X51644004Y80512891D01*
X51644001Y80512892D01*
X51421023Y80550100D01*
X51194957Y80550100D01*
X50971978Y80512892D01*
X50971975Y80512891D01*
X50758159Y80439489D01*
X50559342Y80331894D01*
X50380949Y80193045D01*
X50380942Y80193038D01*
X50378091Y80189941D01*
X50234901Y80034395D01*
X50221185Y80019496D01*
X50142703Y79962228D01*
X50048279Y79939353D01*
X49952289Y79954353D01*
X49869346Y80004945D01*
X49854795Y80019496D01*
X49841084Y80034390D01*
X49695036Y80193040D01*
X49666796Y80215020D01*
X49601799Y80265610D01*
X49516639Y80331893D01*
X49486384Y80348266D01*
X49317820Y80439489D01*
X49104004Y80512891D01*
X49104001Y80512892D01*
X48881023Y80550100D01*
X48654957Y80550100D01*
X48431978Y80512892D01*
X48431975Y80512891D01*
X48218159Y80439489D01*
X48019342Y80331894D01*
X47840949Y80193045D01*
X47840942Y80193038D01*
X47838091Y80189941D01*
X47694901Y80034395D01*
X47681185Y80019496D01*
X47602703Y79962228D01*
X47508279Y79939353D01*
X47412289Y79954353D01*
X47329346Y80004945D01*
X47314795Y80019496D01*
X47301084Y80034390D01*
X47155036Y80193040D01*
X47126796Y80215020D01*
X47061799Y80265610D01*
X46976639Y80331893D01*
X46946384Y80348266D01*
X46777820Y80439489D01*
X46564004Y80512891D01*
X46564001Y80512892D01*
X46341023Y80550100D01*
X46114957Y80550100D01*
X45891978Y80512892D01*
X45891975Y80512891D01*
X45678159Y80439489D01*
X45479342Y80331894D01*
X45300949Y80193045D01*
X45300942Y80193038D01*
X45298091Y80189941D01*
X45154901Y80034395D01*
X45141185Y80019496D01*
X45062703Y79962228D01*
X44968279Y79939353D01*
X44872289Y79954353D01*
X44789346Y80004945D01*
X44774795Y80019496D01*
X44761084Y80034390D01*
X44615036Y80193040D01*
X44586796Y80215020D01*
X44521799Y80265610D01*
X44436639Y80331893D01*
X44406384Y80348266D01*
X44237820Y80439489D01*
X44024004Y80512891D01*
X44024001Y80512892D01*
X43801023Y80550100D01*
X43574957Y80550100D01*
X43351978Y80512892D01*
X43351975Y80512891D01*
X43138159Y80439489D01*
X42939342Y80331894D01*
X42760949Y80193045D01*
X42760942Y80193038D01*
X42758091Y80189941D01*
X42614901Y80034395D01*
X42601185Y80019496D01*
X42522703Y79962228D01*
X42428279Y79939353D01*
X42332289Y79954353D01*
X42249346Y80004945D01*
X42234795Y80019496D01*
X42221084Y80034390D01*
X42075036Y80193040D01*
X42046796Y80215020D01*
X41981799Y80265610D01*
X41896639Y80331893D01*
X41866384Y80348266D01*
X41697820Y80439489D01*
X41484004Y80512891D01*
X41484001Y80512892D01*
X41261023Y80550100D01*
X41034957Y80550100D01*
X40811978Y80512892D01*
X40811975Y80512891D01*
X40598159Y80439489D01*
X40399342Y80331894D01*
X40220949Y80193045D01*
X40220942Y80193038D01*
X40218091Y80189941D01*
X40074901Y80034395D01*
X40061185Y80019496D01*
X39982703Y79962228D01*
X39888279Y79939353D01*
X39792289Y79954353D01*
X39709346Y80004945D01*
X39694795Y80019496D01*
X39681084Y80034390D01*
X39535036Y80193040D01*
X39506796Y80215020D01*
X39441799Y80265610D01*
X39356639Y80331893D01*
X39326384Y80348266D01*
X39157820Y80439489D01*
X38944004Y80512891D01*
X38944001Y80512892D01*
X38721023Y80550100D01*
X38494957Y80550100D01*
X38271978Y80512892D01*
X38271975Y80512891D01*
X38058159Y80439489D01*
X37859342Y80331894D01*
X37680949Y80193045D01*
X37680942Y80193038D01*
X37678091Y80189941D01*
X37534901Y80034395D01*
X37521185Y80019496D01*
X37442703Y79962228D01*
X37348279Y79939353D01*
X37252289Y79954353D01*
X37169346Y80004945D01*
X37154795Y80019496D01*
X37141084Y80034390D01*
X36995036Y80193040D01*
X36966796Y80215020D01*
X36901799Y80265610D01*
X36816639Y80331893D01*
X36786384Y80348266D01*
X36617820Y80439489D01*
X36404004Y80512891D01*
X36404001Y80512892D01*
X36181023Y80550100D01*
X35954957Y80550100D01*
X35731978Y80512892D01*
X35731975Y80512891D01*
X35518159Y80439489D01*
X35319342Y80331894D01*
X35140949Y80193045D01*
X35140936Y80193033D01*
X34987836Y80026722D01*
X34987831Y80026715D01*
X34864190Y79837470D01*
X34864181Y79837452D01*
X34773384Y79630456D01*
X34773380Y79630446D01*
X34717883Y79411295D01*
X34699215Y79186000D01*
X32356765Y79186000D01*
X32338097Y79411293D01*
X32282601Y79630441D01*
X32282599Y79630446D01*
X32282595Y79630456D01*
X32191798Y79837452D01*
X32191789Y79837470D01*
X32110280Y79962228D01*
X32068146Y80026719D01*
X31952286Y80152576D01*
X31915043Y80193033D01*
X31915038Y80193038D01*
X31915036Y80193040D01*
X31886796Y80215020D01*
X31821799Y80265610D01*
X31736639Y80331893D01*
X31706384Y80348266D01*
X31537820Y80439489D01*
X31324004Y80512891D01*
X31324001Y80512892D01*
X31101023Y80550100D01*
X30874957Y80550100D01*
X30651978Y80512892D01*
X30651975Y80512891D01*
X30438159Y80439489D01*
X30239342Y80331894D01*
X30060949Y80193045D01*
X30060942Y80193038D01*
X30058091Y80189941D01*
X29914901Y80034395D01*
X29901185Y80019496D01*
X29822703Y79962228D01*
X29728279Y79939353D01*
X29632289Y79954353D01*
X29549346Y80004945D01*
X29534795Y80019496D01*
X29521084Y80034390D01*
X29375036Y80193040D01*
X29346796Y80215020D01*
X29281799Y80265610D01*
X29196639Y80331893D01*
X29166384Y80348266D01*
X28997820Y80439489D01*
X28784004Y80512891D01*
X28784001Y80512892D01*
X28561023Y80550100D01*
X28334957Y80550100D01*
X28111978Y80512892D01*
X28111975Y80512891D01*
X27898159Y80439489D01*
X27699342Y80331894D01*
X27520949Y80193045D01*
X27520942Y80193038D01*
X27518091Y80189941D01*
X27374901Y80034395D01*
X27361185Y80019496D01*
X27282703Y79962228D01*
X27188279Y79939353D01*
X27092289Y79954353D01*
X27009346Y80004945D01*
X26994795Y80019496D01*
X26981084Y80034390D01*
X26835036Y80193040D01*
X26806796Y80215020D01*
X26741799Y80265610D01*
X26656639Y80331893D01*
X26626384Y80348266D01*
X26457820Y80439489D01*
X26244004Y80512891D01*
X26244001Y80512892D01*
X26021023Y80550100D01*
X25794957Y80550100D01*
X25571978Y80512892D01*
X25571975Y80512891D01*
X25358159Y80439489D01*
X25159342Y80331894D01*
X24980949Y80193045D01*
X24980942Y80193038D01*
X24978091Y80189941D01*
X24834901Y80034395D01*
X24821185Y80019496D01*
X24742703Y79962228D01*
X24648279Y79939353D01*
X24552289Y79954353D01*
X24469346Y80004945D01*
X24454795Y80019496D01*
X24441084Y80034390D01*
X24295036Y80193040D01*
X24266796Y80215020D01*
X24201799Y80265610D01*
X24116639Y80331893D01*
X24086384Y80348266D01*
X23917820Y80439489D01*
X23704004Y80512891D01*
X23704001Y80512892D01*
X23481023Y80550100D01*
X23254957Y80550100D01*
X23031978Y80512892D01*
X23031975Y80512891D01*
X22818159Y80439489D01*
X22619342Y80331894D01*
X22440949Y80193045D01*
X22440942Y80193038D01*
X22438091Y80189941D01*
X22294901Y80034395D01*
X22281185Y80019496D01*
X22202703Y79962228D01*
X22108279Y79939353D01*
X22012289Y79954353D01*
X21929346Y80004945D01*
X21914795Y80019496D01*
X21901084Y80034390D01*
X21755036Y80193040D01*
X21726796Y80215020D01*
X21661799Y80265610D01*
X21576639Y80331893D01*
X21546384Y80348266D01*
X21377820Y80439489D01*
X21164004Y80512891D01*
X21164001Y80512892D01*
X20941023Y80550100D01*
X20714957Y80550100D01*
X20491978Y80512892D01*
X20491975Y80512891D01*
X20278159Y80439489D01*
X20079342Y80331894D01*
X19900949Y80193045D01*
X19900942Y80193038D01*
X19898091Y80189941D01*
X19754901Y80034395D01*
X19741185Y80019496D01*
X19662703Y79962228D01*
X19568279Y79939353D01*
X19472289Y79954353D01*
X19389346Y80004945D01*
X19374795Y80019496D01*
X19361084Y80034390D01*
X19215036Y80193040D01*
X19186796Y80215020D01*
X19121799Y80265610D01*
X19036639Y80331893D01*
X19006384Y80348266D01*
X18837820Y80439489D01*
X18624004Y80512891D01*
X18624001Y80512892D01*
X18401023Y80550100D01*
X18174957Y80550100D01*
X17951978Y80512892D01*
X17951975Y80512891D01*
X17738159Y80439489D01*
X17539342Y80331894D01*
X17360949Y80193045D01*
X17360942Y80193038D01*
X17358091Y80189941D01*
X17214901Y80034395D01*
X17201185Y80019496D01*
X17122703Y79962228D01*
X17028279Y79939353D01*
X16932289Y79954353D01*
X16849346Y80004945D01*
X16834795Y80019496D01*
X16821084Y80034390D01*
X16675036Y80193040D01*
X16646796Y80215020D01*
X16581799Y80265610D01*
X16496639Y80331893D01*
X16466384Y80348266D01*
X16297820Y80439489D01*
X16084004Y80512891D01*
X16084001Y80512892D01*
X15861023Y80550100D01*
X15634957Y80550100D01*
X15411978Y80512892D01*
X15411975Y80512891D01*
X15198159Y80439489D01*
X14999342Y80331894D01*
X14820949Y80193045D01*
X14820942Y80193038D01*
X14818091Y80189941D01*
X14674901Y80034395D01*
X14661185Y80019496D01*
X14582703Y79962228D01*
X14488279Y79939353D01*
X14392289Y79954353D01*
X14309346Y80004945D01*
X14294795Y80019496D01*
X14281084Y80034390D01*
X14135036Y80193040D01*
X14106796Y80215020D01*
X14041799Y80265610D01*
X13956639Y80331893D01*
X13926384Y80348266D01*
X13757820Y80439489D01*
X13544004Y80512891D01*
X13544001Y80512892D01*
X13321023Y80550100D01*
X13094957Y80550100D01*
X12871978Y80512892D01*
X12871975Y80512891D01*
X12658159Y80439489D01*
X12459342Y80331894D01*
X12280949Y80193045D01*
X12280936Y80193033D01*
X12127836Y80026722D01*
X12127831Y80026715D01*
X12004190Y79837470D01*
X12004181Y79837452D01*
X11913384Y79630456D01*
X11913380Y79630446D01*
X11857883Y79411295D01*
X11839215Y79186000D01*
X9979725Y79186000D01*
X9982202Y79253765D01*
X9952576Y79523018D01*
X9884062Y79785088D01*
X9778120Y80034390D01*
X9778117Y80034395D01*
X9637013Y80265602D01*
X9637012Y80265603D01*
X9637008Y80265610D01*
X9519220Y80407147D01*
X9463735Y80473820D01*
X9378601Y80550100D01*
X9261992Y80654582D01*
X9261990Y80654584D01*
X9036086Y80804041D01*
X8903890Y80866012D01*
X8790814Y80919020D01*
X8531421Y80997060D01*
X8531417Y80997061D01*
X8531416Y80997061D01*
X8469705Y81006143D01*
X8263429Y81036500D01*
X8060359Y81036500D01*
X7857834Y81021677D01*
X7857830Y81021677D01*
X7857827Y81021676D01*
X7593432Y80962779D01*
X7340426Y80866012D01*
X7104216Y80733445D01*
X6889816Y80567892D01*
X6701801Y80372878D01*
X6544194Y80152584D01*
X6544189Y80152576D01*
X6420334Y79911677D01*
X6420333Y79911675D01*
X6332872Y79655310D01*
X6283671Y79388938D01*
X6283670Y79388927D01*
X6273778Y79118235D01*
X6273777Y79118232D01*
X966609Y79118232D01*
X1015340Y97733652D01*
X1034543Y97828890D01*
X1088731Y97909530D01*
X1169653Y97963295D01*
X1264339Y97982000D01*
X112780990Y97982000D01*
X112876278Y97963046D01*
G37*
%TD.AperFunction*%
%TD*%
M02*
