%TF.GenerationSoftware,KiCad,Pcbnew,7.0.10*%
%TF.CreationDate,2024-01-17T10:32:49-06:00*%
%TF.ProjectId,controlSemaforicoMEga,636f6e74-726f-46c5-9365-6d61666f7269,rev?*%
%TF.SameCoordinates,PX4ef7d2aPY852b4f0*%
%TF.FileFunction,Legend,Top*%
%TF.FilePolarity,Positive*%
%FSLAX46Y46*%
G04 Gerber Fmt 4.6, Leading zero omitted, Abs format (unit mm)*
G04 Created by KiCad (PCBNEW 7.0.10) date 2024-01-17 10:32:49*
%MOMM*%
%LPD*%
G01*
G04 APERTURE LIST*
%ADD10C,0.150000*%
%ADD11C,0.100000*%
G04 APERTURE END LIST*
D10*
X41886084Y33285820D02*
X41886084Y32285820D01*
X41886084Y32285820D02*
X41647989Y32285820D01*
X41647989Y32285820D02*
X41505132Y32333439D01*
X41505132Y32333439D02*
X41409894Y32428677D01*
X41409894Y32428677D02*
X41362275Y32523915D01*
X41362275Y32523915D02*
X41314656Y32714391D01*
X41314656Y32714391D02*
X41314656Y32857248D01*
X41314656Y32857248D02*
X41362275Y33047724D01*
X41362275Y33047724D02*
X41409894Y33142962D01*
X41409894Y33142962D02*
X41505132Y33238200D01*
X41505132Y33238200D02*
X41647989Y33285820D01*
X41647989Y33285820D02*
X41886084Y33285820D01*
X40695608Y32285820D02*
X40600370Y32285820D01*
X40600370Y32285820D02*
X40505132Y32333439D01*
X40505132Y32333439D02*
X40457513Y32381058D01*
X40457513Y32381058D02*
X40409894Y32476296D01*
X40409894Y32476296D02*
X40362275Y32666772D01*
X40362275Y32666772D02*
X40362275Y32904867D01*
X40362275Y32904867D02*
X40409894Y33095343D01*
X40409894Y33095343D02*
X40457513Y33190581D01*
X40457513Y33190581D02*
X40505132Y33238200D01*
X40505132Y33238200D02*
X40600370Y33285820D01*
X40600370Y33285820D02*
X40695608Y33285820D01*
X40695608Y33285820D02*
X40790846Y33238200D01*
X40790846Y33238200D02*
X40838465Y33190581D01*
X40838465Y33190581D02*
X40886084Y33095343D01*
X40886084Y33095343D02*
X40933703Y32904867D01*
X40933703Y32904867D02*
X40933703Y32666772D01*
X40933703Y32666772D02*
X40886084Y32476296D01*
X40886084Y32476296D02*
X40838465Y32381058D01*
X40838465Y32381058D02*
X40790846Y32333439D01*
X40790846Y32333439D02*
X40695608Y32285820D01*
X42163990Y49362420D02*
X42211609Y49314800D01*
X42211609Y49314800D02*
X42163990Y49267181D01*
X42163990Y49267181D02*
X42116371Y49314800D01*
X42116371Y49314800D02*
X42163990Y49362420D01*
X42163990Y49362420D02*
X42163990Y49267181D01*
D11*
X54606661Y16982581D02*
X54606661Y16268296D01*
X54606661Y16268296D02*
X54559042Y16125439D01*
X54559042Y16125439D02*
X54463804Y16030200D01*
X54463804Y16030200D02*
X54320947Y15982581D01*
X54320947Y15982581D02*
X54225709Y15982581D01*
X55035233Y16887343D02*
X55082852Y16934962D01*
X55082852Y16934962D02*
X55178090Y16982581D01*
X55178090Y16982581D02*
X55416185Y16982581D01*
X55416185Y16982581D02*
X55511423Y16934962D01*
X55511423Y16934962D02*
X55559042Y16887343D01*
X55559042Y16887343D02*
X55606661Y16792105D01*
X55606661Y16792105D02*
X55606661Y16696867D01*
X55606661Y16696867D02*
X55559042Y16554010D01*
X55559042Y16554010D02*
X54987614Y15982581D01*
X54987614Y15982581D02*
X55606661Y15982581D01*
M02*
