M48
; DRILL file {KiCad 8.0.0} date 2024-03-04T10:44:17-0600
; FORMAT={-:-/ absolute / inch / decimal}
; #@! TF.CreationDate,2024-03-04T10:44:17-06:00
; #@! TF.GenerationSoftware,Kicad,Pcbnew,8.0.0
; #@! TF.FileFunction,Plated,1,2,PTH
FMAT,2
INCH
; #@! TA.AperFunction,Plated,PTH,ViaDrill
T1C0.0157
; #@! TA.AperFunction,Plated,PTH,ComponentDrill
T2C0.0394
; #@! TA.AperFunction,Plated,PTH,ComponentDrill
T3C0.0400
%
G90
G05
T1
X0.5709Y0.6354
X0.5709Y0.5763
X2.7362Y3.4843
T2
X1.7006Y3.596
X1.7006Y3.496
X1.7006Y3.396
X1.7006Y3.296
X1.7006Y3.196
X1.7006Y3.096
X1.9685Y3.7402
X1.9685Y3.6402
X1.9685Y3.5402
X1.9685Y3.4402
X2.2441Y3.4874
X2.2441Y3.3874
X2.2441Y3.2874
X2.2441Y3.1874
X2.9331Y3.4646
X2.9331Y3.3646
X2.9331Y3.2646
X2.9331Y3.1646
X4.0622Y3.7795
X4.1622Y3.7795
X4.2622Y3.7795
X4.3622Y3.7795
T3
X0.32Y2.4559
X0.32Y2.3559
X0.32Y2.2559
X0.32Y2.1559
X0.32Y2.0559
X0.32Y1.9559
X0.32Y1.8559
X0.32Y1.7559
X0.32Y1.6559
X0.32Y1.5559
X0.32Y1.4559
X0.32Y1.3559
X0.32Y1.2559
X0.32Y1.1559
X0.32Y1.0559
X0.32Y0.9559
X0.32Y0.8559
X0.32Y0.7559
X0.42Y2.4559
X0.42Y2.3559
X0.42Y2.2559
X0.42Y2.1559
X0.42Y2.0559
X0.42Y1.9559
X0.42Y1.8559
X0.42Y1.7559
X0.42Y1.6559
X0.42Y1.5559
X0.42Y1.4559
X0.42Y1.3559
X0.42Y1.2559
X0.42Y1.1559
X0.42Y1.0559
X0.42Y0.9559
X0.42Y0.8559
X0.42Y0.7559
X0.52Y2.6559
X0.62Y2.6559
X0.72Y2.6559
X0.72Y0.7559
X0.82Y2.6559
X0.82Y0.7559
X0.92Y2.6559
X0.92Y0.7559
X1.02Y2.6559
X1.02Y0.7559
X1.12Y2.6559
X1.12Y0.7559
X1.22Y2.6559
X1.22Y0.7559
X1.32Y0.7559
X1.42Y2.6559
X1.42Y0.7559
X1.515Y1.7559
X1.515Y1.6559
X1.515Y1.5559
X1.52Y2.6559
X1.615Y1.7559
X1.615Y1.6559
X1.615Y1.5559
X1.62Y2.6559
X1.62Y0.7559
X1.72Y2.6559
X1.72Y0.7559
X1.82Y2.6559
X1.82Y0.7559
X1.92Y2.6559
X1.92Y0.7559
X2.02Y2.6559
X2.02Y0.7559
X2.12Y2.6559
X2.12Y0.7559
X2.22Y0.7559
X2.32Y2.6559
X2.32Y0.7559
X2.42Y2.6559
X2.48Y0.7559
X2.52Y2.6559
X2.58Y0.7559
X2.62Y2.6559
X2.68Y0.7559
X2.72Y2.6559
X2.78Y0.7559
X2.82Y2.6559
X2.88Y0.7559
X2.92Y2.6559
X2.98Y0.7559
X3.02Y2.6559
X3.08Y0.7559
X3.18Y0.7559
X3.28Y0.7559
X3.38Y0.7559
M30
