%TF.GenerationSoftware,KiCad,Pcbnew,8.0.0*%
%TF.CreationDate,2024-03-04T10:44:03-06:00*%
%TF.ProjectId,controlSemaforicoMEga,636f6e74-726f-46c5-9365-6d61666f7269,rev?*%
%TF.SameCoordinates,PX4ef7d2aPY852b4f0*%
%TF.FileFunction,Copper,L2,Bot*%
%TF.FilePolarity,Positive*%
%FSLAX46Y46*%
G04 Gerber Fmt 4.6, Leading zero omitted, Abs format (unit mm)*
G04 Created by KiCad (PCBNEW 8.0.0) date 2024-03-04 10:44:03*
%MOMM*%
%LPD*%
G01*
G04 APERTURE LIST*
%TA.AperFunction,ComponentPad*%
%ADD10O,1.727200X1.727200*%
%TD*%
%TA.AperFunction,ComponentPad*%
%ADD11R,1.727200X1.727200*%
%TD*%
%TA.AperFunction,ComponentPad*%
%ADD12R,1.700000X1.700000*%
%TD*%
%TA.AperFunction,ComponentPad*%
%ADD13O,1.700000X1.700000*%
%TD*%
%TA.AperFunction,SMDPad,CuDef*%
%ADD14R,3.000000X13.000000*%
%TD*%
%TA.AperFunction,SMDPad,CuDef*%
%ADD15O,3.000000X13.000000*%
%TD*%
%TA.AperFunction,ViaPad*%
%ADD16C,0.800000*%
%TD*%
%TA.AperFunction,Conductor*%
%ADD17C,0.250000*%
%TD*%
G04 APERTURE END LIST*
D10*
%TO.P,A1,*%
%TO.N,*%
X76707990Y67460000D03*
%TO.P,A1,3V3,3.3V*%
%TO.N,unconnected-(A1-3.3V-Pad3V3)*%
X69087990Y67460000D03*
%TO.P,A1,5V1,5V*%
%TO.N,VCC*%
X66547990Y67460000D03*
%TO.P,A1,5V2,SPI_5V*%
%TO.N,unconnected-(A1-SPI_5V-Pad5V2)*%
X38480990Y39520000D03*
%TO.P,A1,5V3,5V*%
%TO.N,VCC*%
X10667990Y19200000D03*
%TO.P,A1,5V4,5V*%
X8127990Y19200000D03*
%TO.P,A1,A0,A0*%
%TO.N,unconnected-(A1-PadA0)*%
X53847990Y67460000D03*
%TO.P,A1,A1,A1*%
%TO.N,unconnected-(A1-PadA1)*%
X51307990Y67460000D03*
%TO.P,A1,A2,A2*%
%TO.N,unconnected-(A1-PadA2)*%
X48767990Y67460000D03*
%TO.P,A1,A3,A3*%
%TO.N,unconnected-(A1-PadA3)*%
X46227990Y67460000D03*
%TO.P,A1,A4,A4*%
%TO.N,unconnected-(A1-PadA4)*%
X43687990Y67460000D03*
%TO.P,A1,A5,A5*%
%TO.N,unconnected-(A1-PadA5)*%
X41147990Y67460000D03*
%TO.P,A1,A6,A6*%
%TO.N,unconnected-(A1-PadA6)*%
X38607990Y67460000D03*
%TO.P,A1,A7,A7*%
%TO.N,unconnected-(A1-PadA7)*%
X36067990Y67460000D03*
%TO.P,A1,A8,A8*%
%TO.N,unconnected-(A1-PadA8)*%
X30987990Y67460000D03*
%TO.P,A1,A9,A9*%
%TO.N,unconnected-(A1-PadA9)*%
X28447990Y67460000D03*
%TO.P,A1,A10,A10*%
%TO.N,unconnected-(A1-PadA10)*%
X25907990Y67460000D03*
%TO.P,A1,A11,A11*%
%TO.N,unconnected-(A1-PadA11)*%
X23367990Y67460000D03*
%TO.P,A1,A12,A12*%
%TO.N,unconnected-(A1-PadA12)*%
X20827990Y67460000D03*
%TO.P,A1,A13,A13*%
%TO.N,unconnected-(A1-PadA13)*%
X18287990Y67460000D03*
%TO.P,A1,A14,A14*%
%TO.N,unconnected-(A1-PadA14)*%
X15747990Y67460000D03*
%TO.P,A1,A15,A15*%
%TO.N,unconnected-(A1-PadA15)*%
X13207990Y67460000D03*
%TO.P,A1,AREF,AREF*%
%TO.N,unconnected-(A1-PadAREF)*%
X80771990Y19200000D03*
%TO.P,A1,D0,D0/RX0*%
%TO.N,unconnected-(A1-D0{slash}RX0-PadD0)*%
X41147990Y19200000D03*
%TO.P,A1,D1,D1/TX0*%
%TO.N,unconnected-(A1-D1{slash}TX0-PadD1)*%
X43687990Y19200000D03*
%TO.P,A1,D2,D2_INT0*%
%TO.N,Net-(A1-D2_INT0)*%
X46227990Y19200000D03*
%TO.P,A1,D3,D3_INT1*%
%TO.N,Net-(A1-D3_INT1)*%
X48767990Y19200000D03*
%TO.P,A1,D4,D4*%
%TO.N,Net-(J2-Pin_4)*%
X51307990Y19200000D03*
%TO.P,A1,D5,D5*%
%TO.N,Net-(J2-Pin_5)*%
X53847990Y19200000D03*
%TO.P,A1,D6,D6*%
%TO.N,Net-(J2-Pin_6)*%
X56387990Y19200000D03*
%TO.P,A1,D7,D7*%
%TO.N,Net-(J2-Pin_7)*%
X58927990Y19200000D03*
%TO.P,A1,D8,D8*%
%TO.N,Net-(J2-Pin_8)*%
X62991990Y19200000D03*
%TO.P,A1,D9,D9*%
%TO.N,Net-(J2-Pin_9)*%
X65531990Y19200000D03*
%TO.P,A1,D10,D10*%
%TO.N,Net-(J2-Pin_10)*%
X68071990Y19200000D03*
%TO.P,A1,D11,D11*%
%TO.N,Net-(J2-Pin_11)*%
X70611990Y19200000D03*
%TO.P,A1,D12,D12*%
%TO.N,Net-(J2-Pin_12)*%
X73151990Y19200000D03*
%TO.P,A1,D13,D13*%
%TO.N,Net-(J2-Pin_13)*%
X75691990Y19200000D03*
%TO.P,A1,D14,D14/TX3*%
%TO.N,unconnected-(A1-D14{slash}TX3-PadD14)*%
X36067990Y19200000D03*
%TO.P,A1,D15,D15/RX3*%
%TO.N,unconnected-(A1-D15{slash}RX3-PadD15)*%
X33527990Y19200000D03*
%TO.P,A1,D16,D16/TX2*%
%TO.N,unconnected-(A1-D16{slash}TX2-PadD16)*%
X30987990Y19200000D03*
%TO.P,A1,D17,D17/RX2*%
%TO.N,unconnected-(A1-D17{slash}RX2-PadD17)*%
X28447990Y19200000D03*
%TO.P,A1,D18,D18/TX1*%
%TO.N,Net-(A1-D18{slash}TX1)*%
X25907990Y19200000D03*
%TO.P,A1,D19,D19/RX1*%
%TO.N,Net-(A1-D19{slash}RX1)*%
X23367990Y19200000D03*
%TO.P,A1,D20,D20/SDA*%
%TO.N,unconnected-(A1-D20{slash}SDA-PadD20)*%
X20827990Y19200000D03*
%TO.P,A1,D21,D21/SCL*%
%TO.N,unconnected-(A1-D21{slash}SCL-PadD21)*%
X18287990Y19200000D03*
%TO.P,A1,D22,D22*%
%TO.N,Net-(J2-Pin_14)*%
X10667990Y21740000D03*
%TO.P,A1,D23,D23*%
%TO.N,Net-(J2-Pin_15)*%
X8127990Y21740000D03*
%TO.P,A1,D24,D24*%
%TO.N,Net-(J2-Pin_16)*%
X10667990Y24280000D03*
%TO.P,A1,D25,D25*%
%TO.N,Net-(J2-Pin_17)*%
X8127990Y24280000D03*
%TO.P,A1,D26,D26*%
%TO.N,Net-(J2-Pin_18)*%
X10667990Y26820000D03*
%TO.P,A1,D27,D27*%
%TO.N,Net-(J2-Pin_19)*%
X8127990Y26820000D03*
%TO.P,A1,D28,D28*%
%TO.N,Net-(J2-Pin_20)*%
X10667990Y29360000D03*
%TO.P,A1,D29,D29*%
%TO.N,Net-(J2-Pin_21)*%
X8127990Y29360000D03*
%TO.P,A1,D30,D30*%
%TO.N,Net-(J2-Pin_23)*%
X10667990Y31900000D03*
%TO.P,A1,D31,D31*%
%TO.N,Net-(J2-Pin_24)*%
X8127990Y31900000D03*
%TO.P,A1,D32,D32*%
%TO.N,Net-(J2-Pin_25)*%
X10667990Y34440000D03*
%TO.P,A1,D33,D33*%
%TO.N,Net-(J2-Pin_26)*%
X8127990Y34440000D03*
%TO.P,A1,D34,D34*%
%TO.N,Net-(J2-Pin_27)*%
X10667990Y36980000D03*
%TO.P,A1,D35,D35*%
%TO.N,Net-(J2-Pin_28)*%
X8127990Y36980000D03*
%TO.P,A1,D36,D36*%
%TO.N,Net-(J2-Pin_29)*%
X10667990Y39520000D03*
%TO.P,A1,D37,D37*%
%TO.N,Net-(J2-Pin_30)*%
X8127990Y39520000D03*
%TO.P,A1,D38,D38*%
%TO.N,Net-(J2-Pin_31)*%
X10667990Y42060000D03*
%TO.P,A1,D39,D39*%
%TO.N,Net-(J2-Pin_32)*%
X8127990Y42060000D03*
%TO.P,A1,D40,D40*%
%TO.N,Net-(J2-Pin_33)*%
X10667990Y44600000D03*
%TO.P,A1,D41,D41*%
%TO.N,Net-(J2-Pin_34)*%
X8127990Y44600000D03*
%TO.P,A1,D42,D42*%
%TO.N,unconnected-(A1-PadD42)*%
X10667990Y47140000D03*
%TO.P,A1,D43,D43*%
%TO.N,unconnected-(A1-PadD43)*%
X8127990Y47140000D03*
%TO.P,A1,D44,D44*%
%TO.N,unconnected-(A1-PadD44)*%
X10667990Y49680000D03*
%TO.P,A1,D45,D45*%
%TO.N,unconnected-(A1-PadD45)*%
X8127990Y49680000D03*
%TO.P,A1,D46,D46*%
%TO.N,unconnected-(A1-PadD46)*%
X10667990Y52220000D03*
%TO.P,A1,D47,D47*%
%TO.N,unconnected-(A1-PadD47)*%
X8127990Y52220000D03*
%TO.P,A1,D48,D48*%
%TO.N,unconnected-(A1-PadD48)*%
X10667990Y54760000D03*
%TO.P,A1,D49,D49*%
%TO.N,unconnected-(A1-PadD49)*%
X8127990Y54760000D03*
%TO.P,A1,D50,D50_MISO*%
%TO.N,Net-(A1-D50_MISO)*%
X10667990Y57300000D03*
%TO.P,A1,D51,D51_MOSI*%
%TO.N,Net-(A1-D51_MOSI)*%
X8127990Y57300000D03*
%TO.P,A1,D52,D52_SCK*%
%TO.N,Net-(A1-D52_SCK)*%
X10667990Y59840000D03*
%TO.P,A1,D53,D53_CS*%
%TO.N,Net-(A1-D53_CS)*%
X8127990Y59840000D03*
D11*
%TO.P,A1,GND1,GND*%
%TO.N,unconnected-(A1-GND-PadGND1)*%
X78231990Y19200000D03*
%TO.P,A1,GND2,GND*%
%TO.N,unconnected-(A1-GND-PadGND2)*%
X64007990Y67460000D03*
%TO.P,A1,GND3,GND*%
%TO.N,GND*%
X61467990Y67460000D03*
%TO.P,A1,GND4,SPI_GND*%
%TO.N,unconnected-(A1-SPI_GND-PadGND4)*%
X38480990Y44600000D03*
%TO.P,A1,GND5,GND*%
%TO.N,unconnected-(A1-GND-PadGND5)*%
X10667990Y62380000D03*
%TO.P,A1,GND6,GND*%
%TO.N,unconnected-(A1-GND-PadGND6)*%
X8127990Y62380000D03*
D10*
%TO.P,A1,IORF,IOREF*%
%TO.N,unconnected-(A1-IOREF-PadIORF)*%
X74167990Y67460000D03*
%TO.P,A1,MISO,SPI_MISO*%
%TO.N,unconnected-(A1-SPI_MISO-PadMISO)*%
X41020990Y39520000D03*
%TO.P,A1,MOSI,SPI_MOSI*%
%TO.N,unconnected-(A1-SPI_MOSI-PadMOSI)*%
X38480990Y42060000D03*
%TO.P,A1,RST1,RESET*%
%TO.N,unconnected-(A1-RESET-PadRST1)*%
X71627990Y67460000D03*
%TO.P,A1,RST2,SPI_RESET*%
%TO.N,unconnected-(A1-SPI_RESET-PadRST2)*%
X41020990Y44600000D03*
%TO.P,A1,SCK,SPI_SCK*%
%TO.N,unconnected-(A1-SPI_SCK-PadSCK)*%
X41020990Y42060000D03*
%TO.P,A1,SCL,SCL*%
%TO.N,Net-(J4-Pin_4)*%
X85851990Y19200000D03*
%TO.P,A1,SDA,SDA*%
%TO.N,Net-(J4-Pin_3)*%
X83311990Y19200000D03*
%TO.P,A1,VIN,VIN*%
%TO.N,unconnected-(A1-PadVIN)*%
X58927990Y67460000D03*
%TD*%
D12*
%TO.P,J6,1,Pin_1*%
%TO.N,GND*%
X50000000Y87380000D03*
D13*
%TO.P,J6,2,Pin_2*%
%TO.N,VCC*%
X50000000Y89920000D03*
%TO.P,J6,3,Pin_3*%
%TO.N,Net-(J4-Pin_4)*%
X50000000Y92460000D03*
%TO.P,J6,4,Pin_4*%
%TO.N,Net-(J4-Pin_3)*%
X50000000Y95000000D03*
%TD*%
D12*
%TO.P,J1,1,Pin_1*%
%TO.N,GND*%
X43195990Y78638000D03*
D13*
%TO.P,J1,2,Pin_2*%
%TO.N,VCC*%
X43195990Y81178000D03*
%TO.P,J1,3,Pin_3*%
%TO.N,Net-(A1-D50_MISO)*%
X43195990Y83718000D03*
%TO.P,J1,4,Pin_4*%
%TO.N,Net-(A1-D51_MOSI)*%
X43195990Y86258000D03*
%TO.P,J1,5,Pin_5*%
%TO.N,Net-(A1-D52_SCK)*%
X43195990Y88798000D03*
%TO.P,J1,6,Pin_6*%
%TO.N,Net-(A1-D53_CS)*%
X43195990Y91338000D03*
%TD*%
D12*
%TO.P,J5,1,Pin_1*%
%TO.N,GND*%
X110800000Y96000000D03*
D13*
%TO.P,J5,2,Pin_2*%
%TO.N,VCC*%
X108260000Y96000000D03*
%TO.P,J5,3,Pin_3*%
%TO.N,Net-(J4-Pin_4)*%
X105720000Y96000000D03*
%TO.P,J5,4,Pin_4*%
%TO.N,Net-(J4-Pin_3)*%
X103180000Y96000000D03*
%TD*%
D14*
%TO.P,J2,23,Pin_23*%
%TO.N,Net-(J2-Pin_23)*%
X15900000Y700000D03*
D15*
%TO.P,J2,24,Pin_24*%
%TO.N,Net-(J2-Pin_24)*%
X19860000Y700000D03*
%TO.P,J2,25,Pin_25*%
%TO.N,Net-(J2-Pin_25)*%
X23820000Y700000D03*
%TO.P,J2,26,Pin_26*%
%TO.N,Net-(J2-Pin_26)*%
X27780000Y700000D03*
%TO.P,J2,27,Pin_27*%
%TO.N,Net-(J2-Pin_27)*%
X31740000Y700000D03*
%TO.P,J2,28,Pin_28*%
%TO.N,Net-(J2-Pin_28)*%
X35700000Y700000D03*
%TO.P,J2,29,Pin_29*%
%TO.N,Net-(J2-Pin_29)*%
X39660000Y700000D03*
%TO.P,J2,30,Pin_30*%
%TO.N,Net-(J2-Pin_30)*%
X43620000Y700000D03*
%TO.P,J2,31,Pin_31*%
%TO.N,Net-(J2-Pin_31)*%
X47580000Y700000D03*
D14*
%TO.P,J2,32,Pin_32*%
%TO.N,Net-(J2-Pin_32)*%
X51540000Y700000D03*
D15*
%TO.P,J2,33,Pin_33*%
%TO.N,Net-(J2-Pin_33)*%
X55500000Y700000D03*
%TO.P,J2,34,Pin_34*%
%TO.N,Net-(J2-Pin_34)*%
X59460000Y700000D03*
%TO.P,J2,35,Pin_35*%
%TO.N,unconnected-(J2-Pin_35-Pad35)*%
X63420000Y700000D03*
%TO.P,J2,36,Pin_36*%
%TO.N,unconnected-(J2-Pin_36-Pad36)*%
X67379990Y700000D03*
%TO.P,J2,37,Pin_37*%
%TO.N,unconnected-(J2-Pin_37-Pad37)*%
X71339990Y700000D03*
%TO.P,J2,38,Pin_38*%
%TO.N,unconnected-(J2-Pin_38-Pad38)*%
X75299990Y700000D03*
%TO.P,J2,39,Pin_39*%
%TO.N,unconnected-(J2-Pin_39-Pad39)*%
X79259990Y700000D03*
%TO.P,J2,40,Pin_40*%
%TO.N,unconnected-(J2-Pin_40-Pad40)*%
X83219990Y700000D03*
%TO.P,J2,41,Pin_41*%
%TO.N,unconnected-(J2-Pin_41-Pad41)*%
X87179990Y700000D03*
D14*
%TO.P,J2,42,Pin_42*%
%TO.N,unconnected-(J2-Pin_42-Pad42)*%
X91139990Y700000D03*
D15*
%TO.P,J2,43,Pin_43*%
%TO.N,unconnected-(J2-Pin_43-Pad43)*%
X95099990Y700000D03*
%TO.P,J2,44,Pin_44*%
%TO.N,unconnected-(J2-Pin_44-Pad44)*%
X99059990Y700000D03*
%TD*%
D12*
%TO.P,J3,1,Pin_1*%
%TO.N,GND*%
X57000000Y80960000D03*
D13*
%TO.P,J3,2,Pin_2*%
%TO.N,Net-(A1-D19{slash}RX1)*%
X57000000Y83500000D03*
%TO.P,J3,3,Pin_3*%
%TO.N,Net-(A1-D18{slash}TX1)*%
X57000000Y86040000D03*
%TO.P,J3,4,Pin_4*%
%TO.N,VCC*%
X57000000Y88580000D03*
%TD*%
D12*
%TO.P,J4,1,Pin_1*%
%TO.N,GND*%
X74500000Y80380000D03*
D13*
%TO.P,J4,2,Pin_2*%
%TO.N,VCC*%
X74500000Y82920000D03*
%TO.P,J4,3,Pin_3*%
%TO.N,Net-(J4-Pin_3)*%
X74500000Y85460000D03*
%TO.P,J4,4,Pin_4*%
%TO.N,Net-(J4-Pin_4)*%
X74500000Y88000000D03*
%TD*%
D16*
%TO.N,Net-(A1-D19{slash}RX1)*%
X14500000Y16138000D03*
%TO.N,Net-(A1-D18{slash}TX1)*%
X14500000Y14638000D03*
%TO.N,Net-(J4-Pin_4)*%
X69500000Y88500000D03*
%TD*%
D17*
%TO.N,VCC*%
X66500000Y81000000D02*
X66547990Y80952010D01*
X66547990Y80952010D02*
X66547990Y77507990D01*
X68420000Y82920000D02*
X66500000Y81000000D01*
X57000000Y88580000D02*
X58920000Y88580000D01*
X66547990Y77507990D02*
X66547990Y67460000D01*
X58920000Y88580000D02*
X66500000Y81000000D01*
X74500000Y82920000D02*
X68420000Y82920000D01*
%TO.N,Net-(A1-D19{slash}RX1)*%
X14500000Y16138000D02*
X8362000Y16138000D01*
X7500000Y73500000D02*
X44500000Y73500000D01*
X54500000Y83500000D02*
X57000000Y83500000D01*
X8362000Y16138000D02*
X4000000Y20500000D01*
X4000000Y20500000D02*
X4000000Y70000000D01*
X44500000Y73500000D02*
X54500000Y83500000D01*
X4000000Y70000000D02*
X7500000Y73500000D01*
%TO.N,Net-(A1-D18{slash}TX1)*%
X8258447Y14638000D02*
X14500000Y14638000D01*
X54540000Y86040000D02*
X43500000Y75000000D01*
X43500000Y75000000D02*
X6500000Y75000000D01*
X2500000Y71000000D02*
X2500000Y20396447D01*
X6500000Y75000000D02*
X2500000Y71000000D01*
X2500000Y20396447D02*
X8258447Y14638000D01*
X57000000Y86040000D02*
X54540000Y86040000D01*
%TO.N,Net-(J2-Pin_23)*%
X16764000Y29083000D02*
X13947000Y31900000D01*
X15900000Y700000D02*
X15900000Y14630000D01*
X15900000Y14630000D02*
X16764000Y15494000D01*
X16764000Y15494000D02*
X16764000Y29083000D01*
X13947000Y31900000D02*
X10667990Y31900000D01*
%TO.N,Net-(J2-Pin_24)*%
X19558000Y27559000D02*
X19558000Y1002000D01*
X19558000Y1002000D02*
X19860000Y700000D01*
X9366590Y33138600D02*
X13978400Y33138600D01*
X13978400Y33138600D02*
X19558000Y27559000D01*
X8127990Y31900000D02*
X9366590Y33138600D01*
%TO.N,Net-(J2-Pin_25)*%
X13947000Y34440000D02*
X22066590Y26320410D01*
X23820000Y10851000D02*
X23820000Y700000D01*
X22066590Y12604410D02*
X23820000Y10851000D01*
X10667990Y34440000D02*
X13947000Y34440000D01*
X22066590Y26320410D02*
X22066590Y12604410D01*
%TO.N,Net-(J2-Pin_26)*%
X27780000Y10574000D02*
X27780000Y700000D01*
X24638000Y25146000D02*
X24638000Y13716000D01*
X8127990Y34440000D02*
X9366590Y35678600D01*
X9366590Y35678600D02*
X14105400Y35678600D01*
X14105400Y35678600D02*
X24638000Y25146000D01*
X24638000Y13716000D02*
X27780000Y10574000D01*
%TO.N,Net-(J2-Pin_27)*%
X10667990Y36980000D02*
X14201000Y36980000D01*
X27209390Y15716610D02*
X31740000Y11186000D01*
X31740000Y11186000D02*
X31740000Y700000D01*
X14201000Y36980000D02*
X27209390Y23971610D01*
X27209390Y23971610D02*
X27209390Y15716610D01*
%TO.N,Net-(J2-Pin_28)*%
X8127990Y36980000D02*
X9366590Y38218600D01*
X9366590Y38218600D02*
X14740400Y38218600D01*
X14740400Y38218600D02*
X29749390Y23209610D01*
X29749390Y16859610D02*
X35700000Y10909000D01*
X29749390Y23209610D02*
X29749390Y16859610D01*
X35700000Y10909000D02*
X35700000Y700000D01*
%TO.N,Net-(J2-Pin_29)*%
X32289390Y22193610D02*
X32289390Y16859610D01*
X14963000Y39520000D02*
X32289390Y22193610D01*
X39660000Y9489000D02*
X39660000Y700000D01*
X32289390Y16859610D02*
X39660000Y9489000D01*
X10667990Y39520000D02*
X14963000Y39520000D01*
%TO.N,Net-(J2-Pin_30)*%
X34829390Y17240610D02*
X43620000Y8450000D01*
X43620000Y8450000D02*
X43620000Y700000D01*
X8127990Y39520000D02*
X9366590Y40758600D01*
X9366590Y40758600D02*
X15248400Y40758600D01*
X15248400Y40758600D02*
X34829390Y21177610D01*
X34829390Y21177610D02*
X34829390Y17240610D01*
%TO.N,Net-(J2-Pin_31)*%
X37465000Y20193000D02*
X37465000Y16891000D01*
X37465000Y16891000D02*
X47580000Y6776000D01*
X47580000Y6776000D02*
X47580000Y700000D01*
X15598000Y42060000D02*
X37465000Y20193000D01*
X10667990Y42060000D02*
X15598000Y42060000D01*
%TO.N,Net-(J2-Pin_32)*%
X38227000Y17272000D02*
X40767000Y14732000D01*
X9366590Y43298600D02*
X16010400Y43298600D01*
X51540000Y10182000D02*
X51540000Y700000D01*
X46990000Y14732000D02*
X51540000Y10182000D01*
X8127990Y42060000D02*
X9366590Y43298600D01*
X38227000Y21082000D02*
X38227000Y17272000D01*
X40767000Y14732000D02*
X46990000Y14732000D01*
X16010400Y43298600D02*
X38227000Y21082000D01*
%TO.N,Net-(J2-Pin_33)*%
X55500000Y10540000D02*
X55500000Y700000D01*
X50546000Y15494000D02*
X55500000Y10540000D01*
X38862000Y17780000D02*
X41148000Y15494000D01*
X38862000Y22352000D02*
X38862000Y17780000D01*
X16614000Y44600000D02*
X38862000Y22352000D01*
X41148000Y15494000D02*
X50546000Y15494000D01*
X10667990Y44600000D02*
X16614000Y44600000D01*
%TO.N,Net-(J2-Pin_34)*%
X51562000Y16637000D02*
X59460000Y8739000D01*
X17026400Y45838600D02*
X39624000Y23241000D01*
X39624000Y18415000D02*
X41402000Y16637000D01*
X59460000Y8739000D02*
X59460000Y700000D01*
X39624000Y23241000D02*
X39624000Y18415000D01*
X8127990Y44600000D02*
X9366590Y45838600D01*
X9366590Y45838600D02*
X17026400Y45838600D01*
X41402000Y16637000D02*
X51562000Y16637000D01*
%TO.N,Net-(J4-Pin_3)*%
X77040000Y85460000D02*
X83311990Y79188010D01*
X74500000Y85460000D02*
X77040000Y85460000D01*
X83311990Y79188010D02*
X83311990Y19200000D01*
%TO.N,Net-(J4-Pin_4)*%
X78000000Y88000000D02*
X85851990Y80148010D01*
X74500000Y88000000D02*
X78000000Y88000000D01*
X70000000Y88500000D02*
X70500000Y88000000D01*
X70500000Y88000000D02*
X74500000Y88000000D01*
X85851990Y80148010D02*
X85851990Y19200000D01*
X69500000Y88500000D02*
X70000000Y88500000D01*
%TD*%
%TA.AperFunction,Conductor*%
%TO.N,GND*%
G36*
X112719039Y97770315D02*
G01*
X112764794Y97717511D01*
X112776000Y97666000D01*
X112776000Y6474000D01*
X112756315Y6406961D01*
X112703511Y6361206D01*
X112652000Y6350000D01*
X104177544Y6350000D01*
X104110505Y6369685D01*
X104108761Y6370826D01*
X100330000Y8890000D01*
X60157345Y8890000D01*
X60090306Y8909685D01*
X60044551Y8962489D01*
X60042784Y8966548D01*
X60027626Y9003143D01*
X60014315Y9035279D01*
X60014308Y9035292D01*
X59945858Y9137733D01*
X59945855Y9137737D01*
X52054928Y17028662D01*
X52054925Y17028666D01*
X52054925Y17028665D01*
X52047858Y17035732D01*
X52047858Y17035733D01*
X51960733Y17122858D01*
X51960732Y17122859D01*
X51960731Y17122860D01*
X51909509Y17157085D01*
X51858286Y17191312D01*
X51775291Y17225689D01*
X51775289Y17225691D01*
X51744455Y17238462D01*
X51744453Y17238463D01*
X51744452Y17238463D01*
X51684029Y17250482D01*
X51623610Y17262500D01*
X51623607Y17262500D01*
X51623606Y17262500D01*
X41712453Y17262500D01*
X41645414Y17282185D01*
X41624772Y17298819D01*
X41282818Y17640773D01*
X41249333Y17702096D01*
X41254317Y17771788D01*
X41296189Y17827721D01*
X41350088Y17850763D01*
X41484004Y17873109D01*
X41697821Y17946512D01*
X41896639Y18054107D01*
X42075036Y18192960D01*
X42228146Y18359281D01*
X42314183Y18490972D01*
X42367328Y18536325D01*
X42436559Y18545749D01*
X42499895Y18516247D01*
X42521794Y18490975D01*
X42607834Y18359281D01*
X42607839Y18359276D01*
X42607840Y18359273D01*
X42760940Y18192964D01*
X42760944Y18192960D01*
X42939341Y18054107D01*
X43138159Y17946512D01*
X43138162Y17946511D01*
X43351972Y17873110D01*
X43351974Y17873110D01*
X43351976Y17873109D01*
X43574957Y17835900D01*
X43574958Y17835900D01*
X43801022Y17835900D01*
X43801023Y17835900D01*
X44024004Y17873109D01*
X44237821Y17946512D01*
X44436639Y18054107D01*
X44615036Y18192960D01*
X44768146Y18359281D01*
X44854183Y18490972D01*
X44907328Y18536325D01*
X44976559Y18545749D01*
X45039895Y18516247D01*
X45061794Y18490975D01*
X45147834Y18359281D01*
X45147839Y18359276D01*
X45147840Y18359273D01*
X45300940Y18192964D01*
X45300944Y18192960D01*
X45479341Y18054107D01*
X45678159Y17946512D01*
X45678162Y17946511D01*
X45891972Y17873110D01*
X45891974Y17873110D01*
X45891976Y17873109D01*
X46114957Y17835900D01*
X46114958Y17835900D01*
X46341022Y17835900D01*
X46341023Y17835900D01*
X46564004Y17873109D01*
X46777821Y17946512D01*
X46976639Y18054107D01*
X47155036Y18192960D01*
X47308146Y18359281D01*
X47394183Y18490972D01*
X47447328Y18536325D01*
X47516559Y18545749D01*
X47579895Y18516247D01*
X47601794Y18490975D01*
X47687834Y18359281D01*
X47687839Y18359276D01*
X47687840Y18359273D01*
X47840940Y18192964D01*
X47840944Y18192960D01*
X48019341Y18054107D01*
X48218159Y17946512D01*
X48218162Y17946511D01*
X48431972Y17873110D01*
X48431974Y17873110D01*
X48431976Y17873109D01*
X48654957Y17835900D01*
X48654958Y17835900D01*
X48881022Y17835900D01*
X48881023Y17835900D01*
X49104004Y17873109D01*
X49317821Y17946512D01*
X49516639Y18054107D01*
X49695036Y18192960D01*
X49848146Y18359281D01*
X49934183Y18490972D01*
X49987328Y18536325D01*
X50056559Y18545749D01*
X50119895Y18516247D01*
X50141794Y18490975D01*
X50227834Y18359281D01*
X50227839Y18359276D01*
X50227840Y18359273D01*
X50380940Y18192964D01*
X50380944Y18192960D01*
X50559341Y18054107D01*
X50758159Y17946512D01*
X50758162Y17946511D01*
X50971972Y17873110D01*
X50971974Y17873110D01*
X50971976Y17873109D01*
X51194957Y17835900D01*
X51194958Y17835900D01*
X51421022Y17835900D01*
X51421023Y17835900D01*
X51644004Y17873109D01*
X51857821Y17946512D01*
X52056639Y18054107D01*
X52235036Y18192960D01*
X52388146Y18359281D01*
X52474183Y18490972D01*
X52527328Y18536325D01*
X52596559Y18545749D01*
X52659895Y18516247D01*
X52681794Y18490975D01*
X52767834Y18359281D01*
X52767839Y18359276D01*
X52767840Y18359273D01*
X52920940Y18192964D01*
X52920944Y18192960D01*
X53099341Y18054107D01*
X53298159Y17946512D01*
X53298162Y17946511D01*
X53511972Y17873110D01*
X53511974Y17873110D01*
X53511976Y17873109D01*
X53734957Y17835900D01*
X53734958Y17835900D01*
X53961022Y17835900D01*
X53961023Y17835900D01*
X54184004Y17873109D01*
X54397821Y17946512D01*
X54596639Y18054107D01*
X54775036Y18192960D01*
X54928146Y18359281D01*
X55014183Y18490972D01*
X55067328Y18536325D01*
X55136559Y18545749D01*
X55199895Y18516247D01*
X55221794Y18490975D01*
X55307834Y18359281D01*
X55307839Y18359276D01*
X55307840Y18359273D01*
X55460940Y18192964D01*
X55460944Y18192960D01*
X55639341Y18054107D01*
X55838159Y17946512D01*
X55838162Y17946511D01*
X56051972Y17873110D01*
X56051974Y17873110D01*
X56051976Y17873109D01*
X56274957Y17835900D01*
X56274958Y17835900D01*
X56501022Y17835900D01*
X56501023Y17835900D01*
X56724004Y17873109D01*
X56937821Y17946512D01*
X57136639Y18054107D01*
X57315036Y18192960D01*
X57468146Y18359281D01*
X57554183Y18490972D01*
X57607328Y18536325D01*
X57676559Y18545749D01*
X57739895Y18516247D01*
X57761794Y18490975D01*
X57847834Y18359281D01*
X57847839Y18359276D01*
X57847840Y18359273D01*
X58000940Y18192964D01*
X58000944Y18192960D01*
X58179341Y18054107D01*
X58378159Y17946512D01*
X58378162Y17946511D01*
X58591972Y17873110D01*
X58591974Y17873110D01*
X58591976Y17873109D01*
X58814957Y17835900D01*
X58814958Y17835900D01*
X59041022Y17835900D01*
X59041023Y17835900D01*
X59264004Y17873109D01*
X59477821Y17946512D01*
X59676639Y18054107D01*
X59855036Y18192960D01*
X60008146Y18359281D01*
X60131792Y18548535D01*
X60222601Y18755559D01*
X60278097Y18974707D01*
X60296765Y19200000D01*
X60296765Y19200007D01*
X60278097Y19425290D01*
X60278097Y19425293D01*
X60222601Y19644441D01*
X60131792Y19851465D01*
X60008146Y20040719D01*
X60008143Y20040722D01*
X60008139Y20040728D01*
X59855039Y20207037D01*
X59855038Y20207038D01*
X59855036Y20207040D01*
X59676639Y20345893D01*
X59583933Y20396063D01*
X59477822Y20453488D01*
X59477817Y20453490D01*
X59264007Y20526891D01*
X59061278Y20560720D01*
X59041023Y20564100D01*
X58814957Y20564100D01*
X58794702Y20560720D01*
X58591972Y20526891D01*
X58378162Y20453490D01*
X58378157Y20453488D01*
X58179342Y20345894D01*
X58000945Y20207041D01*
X58000940Y20207037D01*
X57847840Y20040728D01*
X57847832Y20040717D01*
X57761798Y19909032D01*
X57708652Y19863675D01*
X57639420Y19854252D01*
X57576085Y19883754D01*
X57554182Y19909032D01*
X57481542Y20020215D01*
X57468146Y20040719D01*
X57468143Y20040722D01*
X57468139Y20040728D01*
X57315039Y20207037D01*
X57315038Y20207038D01*
X57315036Y20207040D01*
X57136639Y20345893D01*
X57043933Y20396063D01*
X56937822Y20453488D01*
X56937817Y20453490D01*
X56724007Y20526891D01*
X56521278Y20560720D01*
X56501023Y20564100D01*
X56274957Y20564100D01*
X56254702Y20560720D01*
X56051972Y20526891D01*
X55838162Y20453490D01*
X55838157Y20453488D01*
X55639342Y20345894D01*
X55460945Y20207041D01*
X55460940Y20207037D01*
X55307840Y20040728D01*
X55307832Y20040717D01*
X55221798Y19909032D01*
X55168652Y19863675D01*
X55099420Y19854252D01*
X55036085Y19883754D01*
X55014182Y19909032D01*
X54941542Y20020215D01*
X54928146Y20040719D01*
X54928143Y20040722D01*
X54928139Y20040728D01*
X54775039Y20207037D01*
X54775038Y20207038D01*
X54775036Y20207040D01*
X54596639Y20345893D01*
X54503933Y20396063D01*
X54397822Y20453488D01*
X54397817Y20453490D01*
X54184007Y20526891D01*
X53981278Y20560720D01*
X53961023Y20564100D01*
X53734957Y20564100D01*
X53714702Y20560720D01*
X53511972Y20526891D01*
X53298162Y20453490D01*
X53298157Y20453488D01*
X53099342Y20345894D01*
X52920945Y20207041D01*
X52920940Y20207037D01*
X52767840Y20040728D01*
X52767832Y20040717D01*
X52681798Y19909032D01*
X52628652Y19863675D01*
X52559420Y19854252D01*
X52496085Y19883754D01*
X52474182Y19909032D01*
X52401542Y20020215D01*
X52388146Y20040719D01*
X52388143Y20040722D01*
X52388139Y20040728D01*
X52235039Y20207037D01*
X52235038Y20207038D01*
X52235036Y20207040D01*
X52056639Y20345893D01*
X51963933Y20396063D01*
X51857822Y20453488D01*
X51857817Y20453490D01*
X51644007Y20526891D01*
X51441278Y20560720D01*
X51421023Y20564100D01*
X51194957Y20564100D01*
X51174702Y20560720D01*
X50971972Y20526891D01*
X50758162Y20453490D01*
X50758157Y20453488D01*
X50559342Y20345894D01*
X50380945Y20207041D01*
X50380940Y20207037D01*
X50227840Y20040728D01*
X50227832Y20040717D01*
X50141798Y19909032D01*
X50088652Y19863675D01*
X50019420Y19854252D01*
X49956085Y19883754D01*
X49934182Y19909032D01*
X49861542Y20020215D01*
X49848146Y20040719D01*
X49848143Y20040722D01*
X49848139Y20040728D01*
X49695039Y20207037D01*
X49695038Y20207038D01*
X49695036Y20207040D01*
X49516639Y20345893D01*
X49423933Y20396063D01*
X49317822Y20453488D01*
X49317817Y20453490D01*
X49104007Y20526891D01*
X48901278Y20560720D01*
X48881023Y20564100D01*
X48654957Y20564100D01*
X48634702Y20560720D01*
X48431972Y20526891D01*
X48218162Y20453490D01*
X48218157Y20453488D01*
X48019342Y20345894D01*
X47840945Y20207041D01*
X47840940Y20207037D01*
X47687840Y20040728D01*
X47687832Y20040717D01*
X47601798Y19909032D01*
X47548652Y19863675D01*
X47479420Y19854252D01*
X47416085Y19883754D01*
X47394182Y19909032D01*
X47321542Y20020215D01*
X47308146Y20040719D01*
X47308143Y20040722D01*
X47308139Y20040728D01*
X47155039Y20207037D01*
X47155038Y20207038D01*
X47155036Y20207040D01*
X46976639Y20345893D01*
X46883933Y20396063D01*
X46777822Y20453488D01*
X46777817Y20453490D01*
X46564007Y20526891D01*
X46361278Y20560720D01*
X46341023Y20564100D01*
X46114957Y20564100D01*
X46094702Y20560720D01*
X45891972Y20526891D01*
X45678162Y20453490D01*
X45678157Y20453488D01*
X45479342Y20345894D01*
X45300945Y20207041D01*
X45300940Y20207037D01*
X45147840Y20040728D01*
X45147832Y20040717D01*
X45061798Y19909032D01*
X45008652Y19863675D01*
X44939420Y19854252D01*
X44876085Y19883754D01*
X44854182Y19909032D01*
X44781542Y20020215D01*
X44768146Y20040719D01*
X44768143Y20040722D01*
X44768139Y20040728D01*
X44615039Y20207037D01*
X44615038Y20207038D01*
X44615036Y20207040D01*
X44436639Y20345893D01*
X44343933Y20396063D01*
X44237822Y20453488D01*
X44237817Y20453490D01*
X44024007Y20526891D01*
X43821278Y20560720D01*
X43801023Y20564100D01*
X43574957Y20564100D01*
X43554702Y20560720D01*
X43351972Y20526891D01*
X43138162Y20453490D01*
X43138157Y20453488D01*
X42939342Y20345894D01*
X42760945Y20207041D01*
X42760940Y20207037D01*
X42607840Y20040728D01*
X42607832Y20040717D01*
X42521798Y19909032D01*
X42468652Y19863675D01*
X42399420Y19854252D01*
X42336085Y19883754D01*
X42314182Y19909032D01*
X42241542Y20020215D01*
X42228146Y20040719D01*
X42228143Y20040722D01*
X42228139Y20040728D01*
X42075039Y20207037D01*
X42075038Y20207038D01*
X42075036Y20207040D01*
X41896639Y20345893D01*
X41803933Y20396063D01*
X41697822Y20453488D01*
X41697817Y20453490D01*
X41484007Y20526891D01*
X41281278Y20560720D01*
X41261023Y20564100D01*
X41034957Y20564100D01*
X41014702Y20560720D01*
X40811972Y20526891D01*
X40598162Y20453490D01*
X40598152Y20453485D01*
X40432517Y20363848D01*
X40364189Y20349253D01*
X40298817Y20373916D01*
X40257156Y20430007D01*
X40249500Y20472903D01*
X40249500Y23302604D01*
X40249500Y23302606D01*
X40247979Y23310251D01*
X40247979Y23310255D01*
X40225464Y23423445D01*
X40225463Y23423452D01*
X40178311Y23537286D01*
X40117340Y23628535D01*
X40109858Y23639733D01*
X40022733Y23726858D01*
X40022732Y23726859D01*
X29430879Y34318712D01*
X36757490Y34318712D01*
X36789151Y34078215D01*
X36851937Y33843896D01*
X36874869Y33788534D01*
X36944766Y33619788D01*
X37066054Y33409711D01*
X37066056Y33409708D01*
X37066057Y33409707D01*
X37213723Y33217264D01*
X37213729Y33217257D01*
X37385246Y33045740D01*
X37385252Y33045735D01*
X37577701Y32898064D01*
X37787778Y32776776D01*
X38011890Y32683946D01*
X38246201Y32621162D01*
X38426576Y32597416D01*
X38486701Y32589500D01*
X38486702Y32589500D01*
X38729279Y32589500D01*
X38777378Y32595833D01*
X38969779Y32621162D01*
X39204090Y32683946D01*
X39428202Y32776776D01*
X39638279Y32898064D01*
X39830728Y33045735D01*
X40002255Y33217262D01*
X40149926Y33409711D01*
X40271214Y33619788D01*
X40364044Y33843900D01*
X40426828Y34078211D01*
X40458490Y34318712D01*
X40458490Y34561288D01*
X40426828Y34801789D01*
X40364044Y35036100D01*
X40271214Y35260212D01*
X40149926Y35470289D01*
X40049670Y35600945D01*
X40002256Y35662737D01*
X40002250Y35662744D01*
X39830733Y35834261D01*
X39830726Y35834267D01*
X39638283Y35981933D01*
X39638282Y35981934D01*
X39638279Y35981936D01*
X39428202Y36103224D01*
X39428195Y36103227D01*
X39204094Y36196053D01*
X38969775Y36258839D01*
X38729279Y36290500D01*
X38729278Y36290500D01*
X38486702Y36290500D01*
X38486701Y36290500D01*
X38246204Y36258839D01*
X38011885Y36196053D01*
X37787784Y36103227D01*
X37787775Y36103223D01*
X37577696Y35981933D01*
X37385253Y35834267D01*
X37385246Y35834261D01*
X37213729Y35662744D01*
X37213723Y35662737D01*
X37066057Y35470294D01*
X36944767Y35260215D01*
X36944763Y35260206D01*
X36851937Y35036105D01*
X36789151Y34801786D01*
X36757490Y34561289D01*
X36757490Y34318712D01*
X29430879Y34318712D01*
X24229597Y39519994D01*
X37112215Y39519994D01*
X37130882Y39294711D01*
X37186378Y39075561D01*
X37277188Y38868534D01*
X37400832Y38679284D01*
X37400840Y38679273D01*
X37553940Y38512964D01*
X37553944Y38512960D01*
X37732341Y38374107D01*
X37931159Y38266512D01*
X37931162Y38266511D01*
X38144972Y38193110D01*
X38144974Y38193110D01*
X38144976Y38193109D01*
X38367957Y38155900D01*
X38367958Y38155900D01*
X38594022Y38155900D01*
X38594023Y38155900D01*
X38817004Y38193109D01*
X39030821Y38266512D01*
X39229639Y38374107D01*
X39408036Y38512960D01*
X39561146Y38679281D01*
X39647183Y38810972D01*
X39700328Y38856325D01*
X39769559Y38865749D01*
X39832895Y38836247D01*
X39854794Y38810975D01*
X39940834Y38679281D01*
X39940839Y38679276D01*
X39940840Y38679273D01*
X40093940Y38512964D01*
X40093944Y38512960D01*
X40272341Y38374107D01*
X40471159Y38266512D01*
X40471162Y38266511D01*
X40684972Y38193110D01*
X40684974Y38193110D01*
X40684976Y38193109D01*
X40907957Y38155900D01*
X40907958Y38155900D01*
X41134022Y38155900D01*
X41134023Y38155900D01*
X41357004Y38193109D01*
X41570821Y38266512D01*
X41769639Y38374107D01*
X41948036Y38512960D01*
X42101146Y38679281D01*
X42224792Y38868535D01*
X42315601Y39075559D01*
X42371097Y39294707D01*
X42389765Y39520000D01*
X42389765Y39520007D01*
X42371097Y39745290D01*
X42371097Y39745293D01*
X42315601Y39964441D01*
X42224792Y40171465D01*
X42101146Y40360719D01*
X42101143Y40360722D01*
X42101139Y40360728D01*
X41948039Y40527037D01*
X41948038Y40527038D01*
X41948036Y40527040D01*
X41769639Y40665893D01*
X41769637Y40665894D01*
X41769636Y40665895D01*
X41769629Y40665900D01*
X41741826Y40680945D01*
X41692234Y40730163D01*
X41677125Y40798380D01*
X41701296Y40863936D01*
X41741826Y40899055D01*
X41769629Y40914101D01*
X41769632Y40914104D01*
X41769639Y40914107D01*
X41948036Y41052960D01*
X42101146Y41219281D01*
X42224792Y41408535D01*
X42315601Y41615559D01*
X42371097Y41834707D01*
X42389765Y42060000D01*
X42389765Y42060007D01*
X42371097Y42285290D01*
X42371097Y42285293D01*
X42315601Y42504441D01*
X42224792Y42711465D01*
X42101146Y42900719D01*
X42101143Y42900722D01*
X42101139Y42900728D01*
X41948039Y43067037D01*
X41948038Y43067038D01*
X41948036Y43067040D01*
X41769639Y43205893D01*
X41769637Y43205894D01*
X41769636Y43205895D01*
X41769629Y43205900D01*
X41741826Y43220945D01*
X41692234Y43270163D01*
X41677125Y43338380D01*
X41701296Y43403936D01*
X41741826Y43439055D01*
X41769629Y43454101D01*
X41769632Y43454104D01*
X41769639Y43454107D01*
X41948036Y43592960D01*
X42101146Y43759281D01*
X42224792Y43948535D01*
X42315601Y44155559D01*
X42371097Y44374707D01*
X42389765Y44600000D01*
X42389765Y44600007D01*
X42371097Y44825290D01*
X42371097Y44825293D01*
X42315601Y45044441D01*
X42224792Y45251465D01*
X42101146Y45440719D01*
X42101143Y45440722D01*
X42101139Y45440728D01*
X41948039Y45607037D01*
X41948038Y45607038D01*
X41948036Y45607040D01*
X41769639Y45745893D01*
X41630584Y45821146D01*
X41570822Y45853488D01*
X41570817Y45853490D01*
X41357007Y45926891D01*
X41172424Y45957692D01*
X41134023Y45964100D01*
X40907957Y45964100D01*
X40869556Y45957692D01*
X40684972Y45926891D01*
X40471162Y45853490D01*
X40471157Y45853488D01*
X40272342Y45745894D01*
X40093945Y45607042D01*
X40039555Y45547959D01*
X39979667Y45511969D01*
X39909829Y45514070D01*
X39852213Y45553595D01*
X39832144Y45588610D01*
X39788387Y45705929D01*
X39788383Y45705936D01*
X39702137Y45821145D01*
X39702134Y45821148D01*
X39586925Y45907394D01*
X39586918Y45907398D01*
X39452072Y45957692D01*
X39452073Y45957692D01*
X39392473Y45964099D01*
X39392471Y45964100D01*
X39392463Y45964100D01*
X39392454Y45964100D01*
X37569519Y45964100D01*
X37569513Y45964099D01*
X37509906Y45957692D01*
X37375061Y45907398D01*
X37375054Y45907394D01*
X37259845Y45821148D01*
X37259842Y45821145D01*
X37173596Y45705936D01*
X37173592Y45705929D01*
X37123298Y45571083D01*
X37116891Y45511484D01*
X37116890Y45511465D01*
X37116890Y43688530D01*
X37116891Y43688524D01*
X37123298Y43628917D01*
X37173592Y43494072D01*
X37173596Y43494065D01*
X37259842Y43378856D01*
X37259845Y43378853D01*
X37375054Y43292607D01*
X37375061Y43292603D01*
X37489973Y43249744D01*
X37545906Y43207873D01*
X37570324Y43142409D01*
X37555473Y43074136D01*
X37537870Y43049579D01*
X37400835Y42900721D01*
X37400832Y42900717D01*
X37277188Y42711467D01*
X37186378Y42504440D01*
X37130882Y42285290D01*
X37112215Y42060007D01*
X37112215Y42059994D01*
X37130882Y41834711D01*
X37186378Y41615561D01*
X37277188Y41408534D01*
X37400832Y41219284D01*
X37400840Y41219273D01*
X37553940Y41052964D01*
X37553944Y41052960D01*
X37732341Y40914107D01*
X37760155Y40899055D01*
X37809745Y40849835D01*
X37824853Y40781618D01*
X37800682Y40716063D01*
X37760155Y40680945D01*
X37732342Y40665894D01*
X37553945Y40527041D01*
X37553940Y40527037D01*
X37400840Y40360728D01*
X37400832Y40360717D01*
X37277188Y40171467D01*
X37186378Y39964440D01*
X37130882Y39745290D01*
X37112215Y39520007D01*
X37112215Y39519994D01*
X24229597Y39519994D01*
X17516597Y46232993D01*
X17516578Y46233014D01*
X17425133Y46324459D01*
X17373909Y46358685D01*
X17322687Y46392911D01*
X17322686Y46392912D01*
X17322683Y46392914D01*
X17322680Y46392915D01*
X17242192Y46426253D01*
X17208853Y46440063D01*
X17198827Y46442057D01*
X17148429Y46452082D01*
X17088010Y46464100D01*
X17088007Y46464100D01*
X17088006Y46464100D01*
X12050870Y46464100D01*
X11983831Y46483785D01*
X11938076Y46536589D01*
X11928132Y46605747D01*
X11937314Y46637909D01*
X11962600Y46695557D01*
X11962599Y46695557D01*
X11962601Y46695559D01*
X12018097Y46914707D01*
X12036765Y47140000D01*
X12036765Y47140007D01*
X12018097Y47365290D01*
X12018097Y47365293D01*
X11962601Y47584441D01*
X11871792Y47791465D01*
X11748146Y47980719D01*
X11748143Y47980722D01*
X11748139Y47980728D01*
X11595039Y48147037D01*
X11595038Y48147038D01*
X11595036Y48147040D01*
X11416639Y48285893D01*
X11416637Y48285894D01*
X11416636Y48285895D01*
X11416629Y48285900D01*
X11388826Y48300945D01*
X11339234Y48350163D01*
X11324125Y48418380D01*
X11348296Y48483936D01*
X11388826Y48519055D01*
X11416629Y48534101D01*
X11416632Y48534104D01*
X11416639Y48534107D01*
X11595036Y48672960D01*
X11748146Y48839281D01*
X11871792Y49028535D01*
X11962601Y49235559D01*
X12018097Y49454707D01*
X12036765Y49680000D01*
X12036765Y49680007D01*
X12018097Y49905290D01*
X12018097Y49905293D01*
X11962601Y50124441D01*
X11871792Y50331465D01*
X11748146Y50520719D01*
X11748143Y50520722D01*
X11748139Y50520728D01*
X11595039Y50687037D01*
X11595038Y50687038D01*
X11595036Y50687040D01*
X11416639Y50825893D01*
X11416637Y50825894D01*
X11416636Y50825895D01*
X11416629Y50825900D01*
X11388826Y50840945D01*
X11339234Y50890163D01*
X11324125Y50958380D01*
X11348296Y51023936D01*
X11388826Y51059055D01*
X11416629Y51074101D01*
X11416632Y51074104D01*
X11416639Y51074107D01*
X11595036Y51212960D01*
X11748146Y51379281D01*
X11871792Y51568535D01*
X11962601Y51775559D01*
X12018097Y51994707D01*
X12036765Y52220000D01*
X12036765Y52220007D01*
X12018097Y52445290D01*
X12018097Y52445293D01*
X11962601Y52664441D01*
X11871792Y52871465D01*
X11748146Y53060719D01*
X11748143Y53060722D01*
X11748139Y53060728D01*
X11595039Y53227037D01*
X11595038Y53227038D01*
X11595036Y53227040D01*
X11416639Y53365893D01*
X11416637Y53365894D01*
X11416636Y53365895D01*
X11416629Y53365900D01*
X11388826Y53380945D01*
X11339234Y53430163D01*
X11324125Y53498380D01*
X11348296Y53563936D01*
X11388826Y53599055D01*
X11416629Y53614101D01*
X11416632Y53614104D01*
X11416639Y53614107D01*
X11595036Y53752960D01*
X11748146Y53919281D01*
X11871792Y54108535D01*
X11962601Y54315559D01*
X12018097Y54534707D01*
X12036765Y54760000D01*
X12036765Y54760007D01*
X12018097Y54985290D01*
X12018097Y54985293D01*
X11962601Y55204441D01*
X11871792Y55411465D01*
X11748146Y55600719D01*
X11748143Y55600722D01*
X11748139Y55600728D01*
X11595039Y55767037D01*
X11595038Y55767038D01*
X11595036Y55767040D01*
X11416639Y55905893D01*
X11416637Y55905894D01*
X11416636Y55905895D01*
X11416629Y55905900D01*
X11388826Y55920945D01*
X11339234Y55970163D01*
X11324125Y56038380D01*
X11348296Y56103936D01*
X11388826Y56139055D01*
X11416629Y56154101D01*
X11416632Y56154104D01*
X11416639Y56154107D01*
X11595036Y56292960D01*
X11748146Y56459281D01*
X11871792Y56648535D01*
X11962601Y56855559D01*
X12018097Y57074707D01*
X12036765Y57300000D01*
X12036765Y57300007D01*
X12018097Y57525290D01*
X12018097Y57525293D01*
X11962601Y57744441D01*
X11871792Y57951465D01*
X11748146Y58140719D01*
X11748143Y58140722D01*
X11748139Y58140728D01*
X11595039Y58307037D01*
X11595038Y58307038D01*
X11595036Y58307040D01*
X11416639Y58445893D01*
X11416637Y58445894D01*
X11416636Y58445895D01*
X11416629Y58445900D01*
X11388826Y58460945D01*
X11339234Y58510163D01*
X11324125Y58578380D01*
X11348296Y58643936D01*
X11388826Y58679055D01*
X11416629Y58694101D01*
X11416632Y58694104D01*
X11416639Y58694107D01*
X11595036Y58832960D01*
X11748146Y58999281D01*
X11871792Y59188535D01*
X11962601Y59395559D01*
X12018097Y59614707D01*
X12036765Y59840000D01*
X12036765Y59840007D01*
X12018097Y60065290D01*
X12018097Y60065293D01*
X11962601Y60284441D01*
X11871792Y60491465D01*
X11846942Y60529500D01*
X11748147Y60680717D01*
X11748139Y60680728D01*
X11611110Y60829579D01*
X11580187Y60892233D01*
X11588047Y60961659D01*
X11632194Y61015815D01*
X11659007Y61029744D01*
X11773916Y61072602D01*
X11773916Y61072603D01*
X11773921Y61072604D01*
X11889136Y61158854D01*
X11975386Y61274069D01*
X12025681Y61408917D01*
X12032090Y61468527D01*
X12032090Y62258712D01*
X36757490Y62258712D01*
X36789151Y62018215D01*
X36851937Y61783896D01*
X36944763Y61559795D01*
X36944766Y61559788D01*
X37066054Y61349711D01*
X37066056Y61349708D01*
X37066057Y61349707D01*
X37213723Y61157264D01*
X37213729Y61157257D01*
X37385246Y60985740D01*
X37385253Y60985734D01*
X37467780Y60922409D01*
X37577701Y60838064D01*
X37787778Y60716776D01*
X38011890Y60623946D01*
X38246201Y60561162D01*
X38426576Y60537416D01*
X38486701Y60529500D01*
X38486702Y60529500D01*
X38729279Y60529500D01*
X38777378Y60535833D01*
X38969779Y60561162D01*
X39204090Y60623946D01*
X39428202Y60716776D01*
X39638279Y60838064D01*
X39830728Y60985735D01*
X40002255Y61157262D01*
X40149926Y61349711D01*
X40271214Y61559788D01*
X40364044Y61783900D01*
X40426828Y62018211D01*
X40458490Y62258712D01*
X40458490Y62501288D01*
X40426828Y62741789D01*
X40364044Y62976100D01*
X40271214Y63200212D01*
X40149926Y63410289D01*
X40053552Y63535886D01*
X40002256Y63602737D01*
X40002250Y63602744D01*
X39830733Y63774261D01*
X39830726Y63774267D01*
X39638283Y63921933D01*
X39638282Y63921934D01*
X39638279Y63921936D01*
X39428202Y64043224D01*
X39428195Y64043227D01*
X39204094Y64136053D01*
X38969775Y64198839D01*
X38729279Y64230500D01*
X38729278Y64230500D01*
X38486702Y64230500D01*
X38486701Y64230500D01*
X38246204Y64198839D01*
X38011885Y64136053D01*
X37787784Y64043227D01*
X37787775Y64043223D01*
X37577696Y63921933D01*
X37385253Y63774267D01*
X37385246Y63774261D01*
X37213729Y63602744D01*
X37213723Y63602737D01*
X37066057Y63410294D01*
X36944767Y63200215D01*
X36944763Y63200206D01*
X36851937Y62976105D01*
X36789151Y62741786D01*
X36757490Y62501289D01*
X36757490Y62258712D01*
X12032090Y62258712D01*
X12032089Y63291472D01*
X12025681Y63351083D01*
X11975386Y63485931D01*
X11975385Y63485932D01*
X11975383Y63485936D01*
X11889137Y63601145D01*
X11889134Y63601148D01*
X11773925Y63687394D01*
X11773918Y63687398D01*
X11639072Y63737692D01*
X11639073Y63737692D01*
X11579473Y63744099D01*
X11579471Y63744100D01*
X11579463Y63744100D01*
X11579454Y63744100D01*
X9756519Y63744100D01*
X9756513Y63744099D01*
X9696906Y63737692D01*
X9562061Y63687398D01*
X9562059Y63687397D01*
X9472301Y63620203D01*
X9406837Y63595786D01*
X9338564Y63610637D01*
X9323679Y63620203D01*
X9233920Y63687397D01*
X9233918Y63687398D01*
X9099072Y63737692D01*
X9099073Y63737692D01*
X9039473Y63744099D01*
X9039471Y63744100D01*
X9039463Y63744100D01*
X9039454Y63744100D01*
X7216519Y63744100D01*
X7216513Y63744099D01*
X7156906Y63737692D01*
X7022061Y63687398D01*
X7022054Y63687394D01*
X6906845Y63601148D01*
X6906842Y63601145D01*
X6820596Y63485936D01*
X6820592Y63485929D01*
X6770298Y63351083D01*
X6763891Y63291484D01*
X6763891Y63291477D01*
X6763890Y63291465D01*
X6763890Y61468530D01*
X6763891Y61468524D01*
X6770298Y61408917D01*
X6820592Y61274072D01*
X6820596Y61274065D01*
X6906842Y61158856D01*
X6906845Y61158853D01*
X7022054Y61072607D01*
X7022061Y61072603D01*
X7136973Y61029744D01*
X7192906Y60987873D01*
X7217324Y60922409D01*
X7202473Y60854136D01*
X7184870Y60829579D01*
X7047835Y60680721D01*
X7047832Y60680717D01*
X6924188Y60491467D01*
X6833378Y60284440D01*
X6777882Y60065290D01*
X6759215Y59840007D01*
X6759215Y59839994D01*
X6777882Y59614711D01*
X6833378Y59395561D01*
X6924188Y59188534D01*
X7047832Y58999284D01*
X7047840Y58999273D01*
X7200940Y58832964D01*
X7200944Y58832960D01*
X7379341Y58694107D01*
X7407155Y58679055D01*
X7456745Y58629835D01*
X7471853Y58561618D01*
X7447682Y58496063D01*
X7407155Y58460945D01*
X7379342Y58445894D01*
X7200945Y58307041D01*
X7200940Y58307037D01*
X7047840Y58140728D01*
X7047832Y58140717D01*
X6924188Y57951467D01*
X6833378Y57744440D01*
X6777882Y57525290D01*
X6759215Y57300007D01*
X6759215Y57299994D01*
X6777882Y57074711D01*
X6833378Y56855561D01*
X6924188Y56648534D01*
X7047832Y56459284D01*
X7047840Y56459273D01*
X7200940Y56292964D01*
X7200944Y56292960D01*
X7379341Y56154107D01*
X7407155Y56139055D01*
X7456745Y56089835D01*
X7471853Y56021618D01*
X7447682Y55956063D01*
X7407155Y55920945D01*
X7379342Y55905894D01*
X7200945Y55767041D01*
X7200940Y55767037D01*
X7047840Y55600728D01*
X7047832Y55600717D01*
X6924188Y55411467D01*
X6833378Y55204440D01*
X6777882Y54985290D01*
X6759215Y54760007D01*
X6759215Y54759994D01*
X6777882Y54534711D01*
X6833378Y54315561D01*
X6924188Y54108534D01*
X7047832Y53919284D01*
X7047840Y53919273D01*
X7200940Y53752964D01*
X7200944Y53752960D01*
X7379341Y53614107D01*
X7407155Y53599055D01*
X7456745Y53549835D01*
X7471853Y53481618D01*
X7447682Y53416063D01*
X7407155Y53380945D01*
X7379342Y53365894D01*
X7200945Y53227041D01*
X7200940Y53227037D01*
X7047840Y53060728D01*
X7047832Y53060717D01*
X6924188Y52871467D01*
X6833378Y52664440D01*
X6777882Y52445290D01*
X6759215Y52220007D01*
X6759215Y52219994D01*
X6777882Y51994711D01*
X6833378Y51775561D01*
X6924188Y51568534D01*
X7047832Y51379284D01*
X7047840Y51379273D01*
X7200940Y51212964D01*
X7200944Y51212960D01*
X7379341Y51074107D01*
X7407155Y51059055D01*
X7456745Y51009835D01*
X7471853Y50941618D01*
X7447682Y50876063D01*
X7407155Y50840945D01*
X7379342Y50825894D01*
X7200945Y50687041D01*
X7200940Y50687037D01*
X7047840Y50520728D01*
X7047832Y50520717D01*
X6924188Y50331467D01*
X6833378Y50124440D01*
X6777882Y49905290D01*
X6759215Y49680007D01*
X6759215Y49679994D01*
X6777882Y49454711D01*
X6833378Y49235561D01*
X6924188Y49028534D01*
X7047832Y48839284D01*
X7047840Y48839273D01*
X7200940Y48672964D01*
X7200944Y48672960D01*
X7379341Y48534107D01*
X7407155Y48519055D01*
X7456745Y48469835D01*
X7471853Y48401618D01*
X7447682Y48336063D01*
X7407155Y48300945D01*
X7379342Y48285894D01*
X7200945Y48147041D01*
X7200940Y48147037D01*
X7047840Y47980728D01*
X7047832Y47980717D01*
X6924188Y47791467D01*
X6833378Y47584440D01*
X6777882Y47365290D01*
X6759215Y47140007D01*
X6759215Y47139994D01*
X6777882Y46914711D01*
X6833378Y46695561D01*
X6924188Y46488534D01*
X7047832Y46299284D01*
X7047840Y46299273D01*
X7200940Y46132964D01*
X7200944Y46132960D01*
X7379341Y45994107D01*
X7407155Y45979055D01*
X7456745Y45929835D01*
X7471853Y45861618D01*
X7447682Y45796063D01*
X7407155Y45760945D01*
X7379342Y45745894D01*
X7200945Y45607041D01*
X7200940Y45607037D01*
X7047840Y45440728D01*
X7047832Y45440717D01*
X6924188Y45251467D01*
X6833378Y45044440D01*
X6777882Y44825290D01*
X6759215Y44600007D01*
X6759215Y44599994D01*
X6777882Y44374711D01*
X6833378Y44155561D01*
X6924188Y43948534D01*
X7047832Y43759284D01*
X7047840Y43759273D01*
X7200940Y43592964D01*
X7200944Y43592960D01*
X7379341Y43454107D01*
X7407155Y43439055D01*
X7456745Y43389835D01*
X7471853Y43321618D01*
X7447682Y43256063D01*
X7407155Y43220945D01*
X7379342Y43205894D01*
X7200945Y43067041D01*
X7200940Y43067037D01*
X7047840Y42900728D01*
X7047832Y42900717D01*
X6924188Y42711467D01*
X6833378Y42504440D01*
X6777882Y42285290D01*
X6759215Y42060007D01*
X6759215Y42059994D01*
X6777882Y41834711D01*
X6833378Y41615561D01*
X6924188Y41408534D01*
X7047832Y41219284D01*
X7047840Y41219273D01*
X7200940Y41052964D01*
X7200944Y41052960D01*
X7379341Y40914107D01*
X7407155Y40899055D01*
X7456745Y40849835D01*
X7471853Y40781618D01*
X7447682Y40716063D01*
X7407155Y40680945D01*
X7379342Y40665894D01*
X7200945Y40527041D01*
X7200940Y40527037D01*
X7047840Y40360728D01*
X7047832Y40360717D01*
X6924188Y40171467D01*
X6833378Y39964440D01*
X6777882Y39745290D01*
X6759215Y39520007D01*
X6759215Y39519994D01*
X6777882Y39294711D01*
X6833378Y39075561D01*
X6924188Y38868534D01*
X7047832Y38679284D01*
X7047840Y38679273D01*
X7200940Y38512964D01*
X7200944Y38512960D01*
X7379341Y38374107D01*
X7407155Y38359055D01*
X7456745Y38309835D01*
X7471853Y38241618D01*
X7447682Y38176063D01*
X7407155Y38140945D01*
X7379342Y38125894D01*
X7200945Y37987041D01*
X7200940Y37987037D01*
X7047840Y37820728D01*
X7047832Y37820717D01*
X6924188Y37631467D01*
X6833378Y37424440D01*
X6777882Y37205290D01*
X6759215Y36980007D01*
X6759215Y36979994D01*
X6777882Y36754711D01*
X6833378Y36535561D01*
X6924188Y36328534D01*
X7047832Y36139284D01*
X7047840Y36139273D01*
X7200940Y35972964D01*
X7200944Y35972960D01*
X7379341Y35834107D01*
X7407155Y35819055D01*
X7456745Y35769835D01*
X7471853Y35701618D01*
X7447682Y35636063D01*
X7407155Y35600945D01*
X7379342Y35585894D01*
X7200945Y35447041D01*
X7200940Y35447037D01*
X7047840Y35280728D01*
X7047832Y35280717D01*
X6924188Y35091467D01*
X6833378Y34884440D01*
X6777882Y34665290D01*
X6759215Y34440007D01*
X6759215Y34439994D01*
X6777882Y34214711D01*
X6833378Y33995561D01*
X6924188Y33788534D01*
X7047832Y33599284D01*
X7047840Y33599273D01*
X7200940Y33432964D01*
X7200944Y33432960D01*
X7379341Y33294107D01*
X7407155Y33279055D01*
X7456745Y33229835D01*
X7471853Y33161618D01*
X7447682Y33096063D01*
X7407155Y33060945D01*
X7379342Y33045894D01*
X7200945Y32907041D01*
X7200940Y32907037D01*
X7047840Y32740728D01*
X7047832Y32740717D01*
X6924188Y32551467D01*
X6833378Y32344440D01*
X6777882Y32125290D01*
X6759215Y31900007D01*
X6759215Y31899994D01*
X6777882Y31674711D01*
X6833378Y31455561D01*
X6924188Y31248534D01*
X7047832Y31059284D01*
X7047840Y31059273D01*
X7200940Y30892964D01*
X7200944Y30892960D01*
X7379341Y30754107D01*
X7407155Y30739055D01*
X7456745Y30689835D01*
X7471853Y30621618D01*
X7447682Y30556063D01*
X7407155Y30520945D01*
X7379342Y30505894D01*
X7200945Y30367041D01*
X7200940Y30367037D01*
X7047840Y30200728D01*
X7047832Y30200717D01*
X6924188Y30011467D01*
X6833378Y29804440D01*
X6777882Y29585290D01*
X6759215Y29360007D01*
X6759215Y29359994D01*
X6777882Y29134711D01*
X6833378Y28915561D01*
X6924188Y28708534D01*
X7047832Y28519284D01*
X7047840Y28519273D01*
X7200940Y28352964D01*
X7200944Y28352960D01*
X7379341Y28214107D01*
X7407155Y28199055D01*
X7456745Y28149835D01*
X7471853Y28081618D01*
X7447682Y28016063D01*
X7407155Y27980945D01*
X7379342Y27965894D01*
X7200945Y27827041D01*
X7200940Y27827037D01*
X7047840Y27660728D01*
X7047832Y27660717D01*
X6924188Y27471467D01*
X6833378Y27264440D01*
X6777882Y27045290D01*
X6759215Y26820007D01*
X6759215Y26819994D01*
X6777882Y26594711D01*
X6833378Y26375561D01*
X6924188Y26168534D01*
X7047832Y25979284D01*
X7047840Y25979273D01*
X7200940Y25812964D01*
X7200944Y25812960D01*
X7379341Y25674107D01*
X7407155Y25659055D01*
X7456745Y25609835D01*
X7471853Y25541618D01*
X7447682Y25476063D01*
X7407155Y25440945D01*
X7379342Y25425894D01*
X7200945Y25287041D01*
X7200940Y25287037D01*
X7047840Y25120728D01*
X7047832Y25120717D01*
X6924188Y24931467D01*
X6833378Y24724440D01*
X6777882Y24505290D01*
X6759215Y24280007D01*
X6759215Y24279994D01*
X6777882Y24054711D01*
X6833378Y23835561D01*
X6924188Y23628534D01*
X7047832Y23439284D01*
X7047840Y23439273D01*
X7200940Y23272964D01*
X7200944Y23272960D01*
X7379341Y23134107D01*
X7407155Y23119055D01*
X7456745Y23069835D01*
X7471853Y23001618D01*
X7447682Y22936063D01*
X7407155Y22900945D01*
X7379342Y22885894D01*
X7200945Y22747041D01*
X7200940Y22747037D01*
X7047840Y22580728D01*
X7047832Y22580717D01*
X6924188Y22391467D01*
X6833378Y22184440D01*
X6777882Y21965290D01*
X6759215Y21740007D01*
X6759215Y21739994D01*
X6777882Y21514711D01*
X6833378Y21295561D01*
X6924188Y21088534D01*
X7047832Y20899284D01*
X7047840Y20899273D01*
X7200940Y20732964D01*
X7200944Y20732960D01*
X7379341Y20594107D01*
X7407155Y20579055D01*
X7456745Y20529835D01*
X7471853Y20461618D01*
X7447682Y20396063D01*
X7407155Y20360945D01*
X7379342Y20345894D01*
X7200945Y20207041D01*
X7200940Y20207037D01*
X7047840Y20040728D01*
X7047832Y20040717D01*
X6924188Y19851467D01*
X6833378Y19644440D01*
X6777882Y19425290D01*
X6759215Y19200007D01*
X6759215Y19199994D01*
X6777882Y18974709D01*
X6792122Y18918476D01*
X6789496Y18848656D01*
X6749540Y18791339D01*
X6684938Y18764723D01*
X6616202Y18777258D01*
X6584235Y18800356D01*
X4661819Y20722772D01*
X4628334Y20784095D01*
X4625500Y20810453D01*
X4625500Y67338712D01*
X6277490Y67338712D01*
X6309151Y67098215D01*
X6371937Y66863896D01*
X6399926Y66796325D01*
X6464766Y66639788D01*
X6586054Y66429711D01*
X6586056Y66429708D01*
X6586057Y66429707D01*
X6733723Y66237264D01*
X6733729Y66237257D01*
X6905246Y66065740D01*
X6905252Y66065735D01*
X7097701Y65918064D01*
X7307778Y65796776D01*
X7531890Y65703946D01*
X7766201Y65641162D01*
X7946576Y65617416D01*
X8006701Y65609500D01*
X8006702Y65609500D01*
X8249279Y65609500D01*
X8297378Y65615833D01*
X8489779Y65641162D01*
X8724090Y65703946D01*
X8948202Y65796776D01*
X9158279Y65918064D01*
X9350728Y66065735D01*
X9522255Y66237262D01*
X9669926Y66429711D01*
X9791214Y66639788D01*
X9884044Y66863900D01*
X9946828Y67098211D01*
X9978490Y67338712D01*
X9978490Y67459994D01*
X11839215Y67459994D01*
X11857882Y67234711D01*
X11913378Y67015561D01*
X12004188Y66808534D01*
X12127832Y66619284D01*
X12127840Y66619273D01*
X12280940Y66452964D01*
X12280944Y66452960D01*
X12459341Y66314107D01*
X12658159Y66206512D01*
X12658162Y66206511D01*
X12871972Y66133110D01*
X12871974Y66133110D01*
X12871976Y66133109D01*
X13094957Y66095900D01*
X13094958Y66095900D01*
X13321022Y66095900D01*
X13321023Y66095900D01*
X13544004Y66133109D01*
X13757821Y66206512D01*
X13956639Y66314107D01*
X14135036Y66452960D01*
X14288146Y66619281D01*
X14374183Y66750972D01*
X14427328Y66796325D01*
X14496559Y66805749D01*
X14559895Y66776247D01*
X14581794Y66750975D01*
X14667834Y66619281D01*
X14667839Y66619276D01*
X14667840Y66619273D01*
X14820940Y66452964D01*
X14820944Y66452960D01*
X14999341Y66314107D01*
X15198159Y66206512D01*
X15198162Y66206511D01*
X15411972Y66133110D01*
X15411974Y66133110D01*
X15411976Y66133109D01*
X15634957Y66095900D01*
X15634958Y66095900D01*
X15861022Y66095900D01*
X15861023Y66095900D01*
X16084004Y66133109D01*
X16297821Y66206512D01*
X16496639Y66314107D01*
X16675036Y66452960D01*
X16828146Y66619281D01*
X16914183Y66750972D01*
X16967328Y66796325D01*
X17036559Y66805749D01*
X17099895Y66776247D01*
X17121794Y66750975D01*
X17207834Y66619281D01*
X17207839Y66619276D01*
X17207840Y66619273D01*
X17360940Y66452964D01*
X17360944Y66452960D01*
X17539341Y66314107D01*
X17738159Y66206512D01*
X17738162Y66206511D01*
X17951972Y66133110D01*
X17951974Y66133110D01*
X17951976Y66133109D01*
X18174957Y66095900D01*
X18174958Y66095900D01*
X18401022Y66095900D01*
X18401023Y66095900D01*
X18624004Y66133109D01*
X18837821Y66206512D01*
X19036639Y66314107D01*
X19215036Y66452960D01*
X19368146Y66619281D01*
X19454183Y66750972D01*
X19507328Y66796325D01*
X19576559Y66805749D01*
X19639895Y66776247D01*
X19661794Y66750975D01*
X19747834Y66619281D01*
X19747839Y66619276D01*
X19747840Y66619273D01*
X19900940Y66452964D01*
X19900944Y66452960D01*
X20079341Y66314107D01*
X20278159Y66206512D01*
X20278162Y66206511D01*
X20491972Y66133110D01*
X20491974Y66133110D01*
X20491976Y66133109D01*
X20714957Y66095900D01*
X20714958Y66095900D01*
X20941022Y66095900D01*
X20941023Y66095900D01*
X21164004Y66133109D01*
X21377821Y66206512D01*
X21576639Y66314107D01*
X21755036Y66452960D01*
X21908146Y66619281D01*
X21994183Y66750972D01*
X22047328Y66796325D01*
X22116559Y66805749D01*
X22179895Y66776247D01*
X22201794Y66750975D01*
X22287834Y66619281D01*
X22287839Y66619276D01*
X22287840Y66619273D01*
X22440940Y66452964D01*
X22440944Y66452960D01*
X22619341Y66314107D01*
X22818159Y66206512D01*
X22818162Y66206511D01*
X23031972Y66133110D01*
X23031974Y66133110D01*
X23031976Y66133109D01*
X23254957Y66095900D01*
X23254958Y66095900D01*
X23481022Y66095900D01*
X23481023Y66095900D01*
X23704004Y66133109D01*
X23917821Y66206512D01*
X24116639Y66314107D01*
X24295036Y66452960D01*
X24448146Y66619281D01*
X24534183Y66750972D01*
X24587328Y66796325D01*
X24656559Y66805749D01*
X24719895Y66776247D01*
X24741794Y66750975D01*
X24827834Y66619281D01*
X24827839Y66619276D01*
X24827840Y66619273D01*
X24980940Y66452964D01*
X24980944Y66452960D01*
X25159341Y66314107D01*
X25358159Y66206512D01*
X25358162Y66206511D01*
X25571972Y66133110D01*
X25571974Y66133110D01*
X25571976Y66133109D01*
X25794957Y66095900D01*
X25794958Y66095900D01*
X26021022Y66095900D01*
X26021023Y66095900D01*
X26244004Y66133109D01*
X26457821Y66206512D01*
X26656639Y66314107D01*
X26835036Y66452960D01*
X26988146Y66619281D01*
X27074183Y66750972D01*
X27127328Y66796325D01*
X27196559Y66805749D01*
X27259895Y66776247D01*
X27281794Y66750975D01*
X27367834Y66619281D01*
X27367839Y66619276D01*
X27367840Y66619273D01*
X27520940Y66452964D01*
X27520944Y66452960D01*
X27699341Y66314107D01*
X27898159Y66206512D01*
X27898162Y66206511D01*
X28111972Y66133110D01*
X28111974Y66133110D01*
X28111976Y66133109D01*
X28334957Y66095900D01*
X28334958Y66095900D01*
X28561022Y66095900D01*
X28561023Y66095900D01*
X28784004Y66133109D01*
X28997821Y66206512D01*
X29196639Y66314107D01*
X29375036Y66452960D01*
X29528146Y66619281D01*
X29614183Y66750972D01*
X29667328Y66796325D01*
X29736559Y66805749D01*
X29799895Y66776247D01*
X29821794Y66750975D01*
X29907834Y66619281D01*
X29907839Y66619276D01*
X29907840Y66619273D01*
X30060940Y66452964D01*
X30060944Y66452960D01*
X30239341Y66314107D01*
X30438159Y66206512D01*
X30438162Y66206511D01*
X30651972Y66133110D01*
X30651974Y66133110D01*
X30651976Y66133109D01*
X30874957Y66095900D01*
X30874958Y66095900D01*
X31101022Y66095900D01*
X31101023Y66095900D01*
X31324004Y66133109D01*
X31537821Y66206512D01*
X31736639Y66314107D01*
X31915036Y66452960D01*
X32068146Y66619281D01*
X32191792Y66808535D01*
X32282601Y67015559D01*
X32338097Y67234707D01*
X32346715Y67338712D01*
X32356765Y67459994D01*
X34699215Y67459994D01*
X34717882Y67234711D01*
X34773378Y67015561D01*
X34864188Y66808534D01*
X34987832Y66619284D01*
X34987840Y66619273D01*
X35140940Y66452964D01*
X35140944Y66452960D01*
X35319341Y66314107D01*
X35518159Y66206512D01*
X35518162Y66206511D01*
X35731972Y66133110D01*
X35731974Y66133110D01*
X35731976Y66133109D01*
X35954957Y66095900D01*
X35954958Y66095900D01*
X36181022Y66095900D01*
X36181023Y66095900D01*
X36404004Y66133109D01*
X36617821Y66206512D01*
X36816639Y66314107D01*
X36995036Y66452960D01*
X37148146Y66619281D01*
X37234183Y66750972D01*
X37287328Y66796325D01*
X37356559Y66805749D01*
X37419895Y66776247D01*
X37441794Y66750975D01*
X37527834Y66619281D01*
X37527839Y66619276D01*
X37527840Y66619273D01*
X37680940Y66452964D01*
X37680944Y66452960D01*
X37859341Y66314107D01*
X38058159Y66206512D01*
X38058162Y66206511D01*
X38271972Y66133110D01*
X38271974Y66133110D01*
X38271976Y66133109D01*
X38494957Y66095900D01*
X38494958Y66095900D01*
X38721022Y66095900D01*
X38721023Y66095900D01*
X38944004Y66133109D01*
X39157821Y66206512D01*
X39356639Y66314107D01*
X39535036Y66452960D01*
X39688146Y66619281D01*
X39774183Y66750972D01*
X39827328Y66796325D01*
X39896559Y66805749D01*
X39959895Y66776247D01*
X39981794Y66750975D01*
X40067834Y66619281D01*
X40067839Y66619276D01*
X40067840Y66619273D01*
X40220940Y66452964D01*
X40220944Y66452960D01*
X40399341Y66314107D01*
X40598159Y66206512D01*
X40598162Y66206511D01*
X40811972Y66133110D01*
X40811974Y66133110D01*
X40811976Y66133109D01*
X41034957Y66095900D01*
X41034958Y66095900D01*
X41261022Y66095900D01*
X41261023Y66095900D01*
X41484004Y66133109D01*
X41697821Y66206512D01*
X41896639Y66314107D01*
X42075036Y66452960D01*
X42228146Y66619281D01*
X42314183Y66750972D01*
X42367328Y66796325D01*
X42436559Y66805749D01*
X42499895Y66776247D01*
X42521794Y66750975D01*
X42607834Y66619281D01*
X42607839Y66619276D01*
X42607840Y66619273D01*
X42760940Y66452964D01*
X42760944Y66452960D01*
X42939341Y66314107D01*
X43138159Y66206512D01*
X43138162Y66206511D01*
X43351972Y66133110D01*
X43351974Y66133110D01*
X43351976Y66133109D01*
X43574957Y66095900D01*
X43574958Y66095900D01*
X43801022Y66095900D01*
X43801023Y66095900D01*
X44024004Y66133109D01*
X44237821Y66206512D01*
X44436639Y66314107D01*
X44615036Y66452960D01*
X44768146Y66619281D01*
X44854183Y66750972D01*
X44907328Y66796325D01*
X44976559Y66805749D01*
X45039895Y66776247D01*
X45061794Y66750975D01*
X45147834Y66619281D01*
X45147839Y66619276D01*
X45147840Y66619273D01*
X45300940Y66452964D01*
X45300944Y66452960D01*
X45479341Y66314107D01*
X45678159Y66206512D01*
X45678162Y66206511D01*
X45891972Y66133110D01*
X45891974Y66133110D01*
X45891976Y66133109D01*
X46114957Y66095900D01*
X46114958Y66095900D01*
X46341022Y66095900D01*
X46341023Y66095900D01*
X46564004Y66133109D01*
X46777821Y66206512D01*
X46976639Y66314107D01*
X47155036Y66452960D01*
X47308146Y66619281D01*
X47394183Y66750972D01*
X47447328Y66796325D01*
X47516559Y66805749D01*
X47579895Y66776247D01*
X47601794Y66750975D01*
X47687834Y66619281D01*
X47687839Y66619276D01*
X47687840Y66619273D01*
X47840940Y66452964D01*
X47840944Y66452960D01*
X48019341Y66314107D01*
X48218159Y66206512D01*
X48218162Y66206511D01*
X48431972Y66133110D01*
X48431974Y66133110D01*
X48431976Y66133109D01*
X48654957Y66095900D01*
X48654958Y66095900D01*
X48881022Y66095900D01*
X48881023Y66095900D01*
X49104004Y66133109D01*
X49317821Y66206512D01*
X49516639Y66314107D01*
X49695036Y66452960D01*
X49848146Y66619281D01*
X49934183Y66750972D01*
X49987328Y66796325D01*
X50056559Y66805749D01*
X50119895Y66776247D01*
X50141794Y66750975D01*
X50227834Y66619281D01*
X50227839Y66619276D01*
X50227840Y66619273D01*
X50380940Y66452964D01*
X50380944Y66452960D01*
X50559341Y66314107D01*
X50758159Y66206512D01*
X50758162Y66206511D01*
X50971972Y66133110D01*
X50971974Y66133110D01*
X50971976Y66133109D01*
X51194957Y66095900D01*
X51194958Y66095900D01*
X51421022Y66095900D01*
X51421023Y66095900D01*
X51644004Y66133109D01*
X51857821Y66206512D01*
X52056639Y66314107D01*
X52235036Y66452960D01*
X52388146Y66619281D01*
X52474183Y66750972D01*
X52527328Y66796325D01*
X52596559Y66805749D01*
X52659895Y66776247D01*
X52681794Y66750975D01*
X52767834Y66619281D01*
X52767839Y66619276D01*
X52767840Y66619273D01*
X52920940Y66452964D01*
X52920944Y66452960D01*
X53099341Y66314107D01*
X53298159Y66206512D01*
X53298162Y66206511D01*
X53511972Y66133110D01*
X53511974Y66133110D01*
X53511976Y66133109D01*
X53734957Y66095900D01*
X53734958Y66095900D01*
X53961022Y66095900D01*
X53961023Y66095900D01*
X54184004Y66133109D01*
X54397821Y66206512D01*
X54596639Y66314107D01*
X54775036Y66452960D01*
X54928146Y66619281D01*
X55051792Y66808535D01*
X55142601Y67015559D01*
X55198097Y67234707D01*
X55206715Y67338712D01*
X55216765Y67459994D01*
X55216765Y67460007D01*
X55203697Y67617706D01*
X55198097Y67685293D01*
X55142601Y67904441D01*
X55051792Y68111465D01*
X54928146Y68300719D01*
X54928143Y68300722D01*
X54928139Y68300728D01*
X54775039Y68467037D01*
X54775038Y68467038D01*
X54775036Y68467040D01*
X54596639Y68605893D01*
X54468065Y68675474D01*
X54397822Y68713488D01*
X54397817Y68713490D01*
X54184007Y68786891D01*
X53999424Y68817692D01*
X53961023Y68824100D01*
X53734957Y68824100D01*
X53696556Y68817692D01*
X53511972Y68786891D01*
X53298162Y68713490D01*
X53298157Y68713488D01*
X53099342Y68605894D01*
X52920945Y68467041D01*
X52920940Y68467037D01*
X52767840Y68300728D01*
X52767832Y68300717D01*
X52681798Y68169032D01*
X52628652Y68123675D01*
X52559420Y68114252D01*
X52496085Y68143754D01*
X52474182Y68169032D01*
X52388147Y68300717D01*
X52388139Y68300728D01*
X52235039Y68467037D01*
X52235038Y68467038D01*
X52235036Y68467040D01*
X52056639Y68605893D01*
X51928065Y68675474D01*
X51857822Y68713488D01*
X51857817Y68713490D01*
X51644007Y68786891D01*
X51459424Y68817692D01*
X51421023Y68824100D01*
X51194957Y68824100D01*
X51156556Y68817692D01*
X50971972Y68786891D01*
X50758162Y68713490D01*
X50758157Y68713488D01*
X50559342Y68605894D01*
X50380945Y68467041D01*
X50380940Y68467037D01*
X50227840Y68300728D01*
X50227832Y68300717D01*
X50141798Y68169032D01*
X50088652Y68123675D01*
X50019420Y68114252D01*
X49956085Y68143754D01*
X49934182Y68169032D01*
X49848147Y68300717D01*
X49848139Y68300728D01*
X49695039Y68467037D01*
X49695038Y68467038D01*
X49695036Y68467040D01*
X49516639Y68605893D01*
X49388065Y68675474D01*
X49317822Y68713488D01*
X49317817Y68713490D01*
X49104007Y68786891D01*
X48919424Y68817692D01*
X48881023Y68824100D01*
X48654957Y68824100D01*
X48616556Y68817692D01*
X48431972Y68786891D01*
X48218162Y68713490D01*
X48218157Y68713488D01*
X48019342Y68605894D01*
X47840945Y68467041D01*
X47840940Y68467037D01*
X47687840Y68300728D01*
X47687832Y68300717D01*
X47601798Y68169032D01*
X47548652Y68123675D01*
X47479420Y68114252D01*
X47416085Y68143754D01*
X47394182Y68169032D01*
X47308147Y68300717D01*
X47308139Y68300728D01*
X47155039Y68467037D01*
X47155038Y68467038D01*
X47155036Y68467040D01*
X46976639Y68605893D01*
X46848065Y68675474D01*
X46777822Y68713488D01*
X46777817Y68713490D01*
X46564007Y68786891D01*
X46379424Y68817692D01*
X46341023Y68824100D01*
X46114957Y68824100D01*
X46076556Y68817692D01*
X45891972Y68786891D01*
X45678162Y68713490D01*
X45678157Y68713488D01*
X45479342Y68605894D01*
X45300945Y68467041D01*
X45300940Y68467037D01*
X45147840Y68300728D01*
X45147832Y68300717D01*
X45061798Y68169032D01*
X45008652Y68123675D01*
X44939420Y68114252D01*
X44876085Y68143754D01*
X44854182Y68169032D01*
X44768147Y68300717D01*
X44768139Y68300728D01*
X44615039Y68467037D01*
X44615038Y68467038D01*
X44615036Y68467040D01*
X44436639Y68605893D01*
X44308065Y68675474D01*
X44237822Y68713488D01*
X44237817Y68713490D01*
X44024007Y68786891D01*
X43839424Y68817692D01*
X43801023Y68824100D01*
X43574957Y68824100D01*
X43536556Y68817692D01*
X43351972Y68786891D01*
X43138162Y68713490D01*
X43138157Y68713488D01*
X42939342Y68605894D01*
X42760945Y68467041D01*
X42760940Y68467037D01*
X42607840Y68300728D01*
X42607832Y68300717D01*
X42521798Y68169032D01*
X42468652Y68123675D01*
X42399420Y68114252D01*
X42336085Y68143754D01*
X42314182Y68169032D01*
X42228147Y68300717D01*
X42228139Y68300728D01*
X42075039Y68467037D01*
X42075038Y68467038D01*
X42075036Y68467040D01*
X41896639Y68605893D01*
X41768065Y68675474D01*
X41697822Y68713488D01*
X41697817Y68713490D01*
X41484007Y68786891D01*
X41299424Y68817692D01*
X41261023Y68824100D01*
X41034957Y68824100D01*
X40996556Y68817692D01*
X40811972Y68786891D01*
X40598162Y68713490D01*
X40598157Y68713488D01*
X40399342Y68605894D01*
X40220945Y68467041D01*
X40220940Y68467037D01*
X40067840Y68300728D01*
X40067832Y68300717D01*
X39981798Y68169032D01*
X39928652Y68123675D01*
X39859420Y68114252D01*
X39796085Y68143754D01*
X39774182Y68169032D01*
X39688147Y68300717D01*
X39688139Y68300728D01*
X39535039Y68467037D01*
X39535038Y68467038D01*
X39535036Y68467040D01*
X39356639Y68605893D01*
X39228065Y68675474D01*
X39157822Y68713488D01*
X39157817Y68713490D01*
X38944007Y68786891D01*
X38759424Y68817692D01*
X38721023Y68824100D01*
X38494957Y68824100D01*
X38456556Y68817692D01*
X38271972Y68786891D01*
X38058162Y68713490D01*
X38058157Y68713488D01*
X37859342Y68605894D01*
X37680945Y68467041D01*
X37680940Y68467037D01*
X37527840Y68300728D01*
X37527832Y68300717D01*
X37441798Y68169032D01*
X37388652Y68123675D01*
X37319420Y68114252D01*
X37256085Y68143754D01*
X37234182Y68169032D01*
X37148147Y68300717D01*
X37148139Y68300728D01*
X36995039Y68467037D01*
X36995038Y68467038D01*
X36995036Y68467040D01*
X36816639Y68605893D01*
X36688065Y68675474D01*
X36617822Y68713488D01*
X36617817Y68713490D01*
X36404007Y68786891D01*
X36219424Y68817692D01*
X36181023Y68824100D01*
X35954957Y68824100D01*
X35916556Y68817692D01*
X35731972Y68786891D01*
X35518162Y68713490D01*
X35518157Y68713488D01*
X35319342Y68605894D01*
X35140945Y68467041D01*
X35140940Y68467037D01*
X34987840Y68300728D01*
X34987832Y68300717D01*
X34864188Y68111467D01*
X34773378Y67904440D01*
X34717882Y67685290D01*
X34699215Y67460007D01*
X34699215Y67459994D01*
X32356765Y67459994D01*
X32356765Y67460007D01*
X32343697Y67617706D01*
X32338097Y67685293D01*
X32282601Y67904441D01*
X32191792Y68111465D01*
X32068146Y68300719D01*
X32068143Y68300722D01*
X32068139Y68300728D01*
X31915039Y68467037D01*
X31915038Y68467038D01*
X31915036Y68467040D01*
X31736639Y68605893D01*
X31608065Y68675474D01*
X31537822Y68713488D01*
X31537817Y68713490D01*
X31324007Y68786891D01*
X31139424Y68817692D01*
X31101023Y68824100D01*
X30874957Y68824100D01*
X30836556Y68817692D01*
X30651972Y68786891D01*
X30438162Y68713490D01*
X30438157Y68713488D01*
X30239342Y68605894D01*
X30060945Y68467041D01*
X30060940Y68467037D01*
X29907840Y68300728D01*
X29907832Y68300717D01*
X29821798Y68169032D01*
X29768652Y68123675D01*
X29699420Y68114252D01*
X29636085Y68143754D01*
X29614182Y68169032D01*
X29528147Y68300717D01*
X29528139Y68300728D01*
X29375039Y68467037D01*
X29375038Y68467038D01*
X29375036Y68467040D01*
X29196639Y68605893D01*
X29068065Y68675474D01*
X28997822Y68713488D01*
X28997817Y68713490D01*
X28784007Y68786891D01*
X28599424Y68817692D01*
X28561023Y68824100D01*
X28334957Y68824100D01*
X28296556Y68817692D01*
X28111972Y68786891D01*
X27898162Y68713490D01*
X27898157Y68713488D01*
X27699342Y68605894D01*
X27520945Y68467041D01*
X27520940Y68467037D01*
X27367840Y68300728D01*
X27367832Y68300717D01*
X27281798Y68169032D01*
X27228652Y68123675D01*
X27159420Y68114252D01*
X27096085Y68143754D01*
X27074182Y68169032D01*
X26988147Y68300717D01*
X26988139Y68300728D01*
X26835039Y68467037D01*
X26835038Y68467038D01*
X26835036Y68467040D01*
X26656639Y68605893D01*
X26528065Y68675474D01*
X26457822Y68713488D01*
X26457817Y68713490D01*
X26244007Y68786891D01*
X26059424Y68817692D01*
X26021023Y68824100D01*
X25794957Y68824100D01*
X25756556Y68817692D01*
X25571972Y68786891D01*
X25358162Y68713490D01*
X25358157Y68713488D01*
X25159342Y68605894D01*
X24980945Y68467041D01*
X24980940Y68467037D01*
X24827840Y68300728D01*
X24827832Y68300717D01*
X24741798Y68169032D01*
X24688652Y68123675D01*
X24619420Y68114252D01*
X24556085Y68143754D01*
X24534182Y68169032D01*
X24448147Y68300717D01*
X24448139Y68300728D01*
X24295039Y68467037D01*
X24295038Y68467038D01*
X24295036Y68467040D01*
X24116639Y68605893D01*
X23988065Y68675474D01*
X23917822Y68713488D01*
X23917817Y68713490D01*
X23704007Y68786891D01*
X23519424Y68817692D01*
X23481023Y68824100D01*
X23254957Y68824100D01*
X23216556Y68817692D01*
X23031972Y68786891D01*
X22818162Y68713490D01*
X22818157Y68713488D01*
X22619342Y68605894D01*
X22440945Y68467041D01*
X22440940Y68467037D01*
X22287840Y68300728D01*
X22287832Y68300717D01*
X22201798Y68169032D01*
X22148652Y68123675D01*
X22079420Y68114252D01*
X22016085Y68143754D01*
X21994182Y68169032D01*
X21908147Y68300717D01*
X21908139Y68300728D01*
X21755039Y68467037D01*
X21755038Y68467038D01*
X21755036Y68467040D01*
X21576639Y68605893D01*
X21448065Y68675474D01*
X21377822Y68713488D01*
X21377817Y68713490D01*
X21164007Y68786891D01*
X20979424Y68817692D01*
X20941023Y68824100D01*
X20714957Y68824100D01*
X20676556Y68817692D01*
X20491972Y68786891D01*
X20278162Y68713490D01*
X20278157Y68713488D01*
X20079342Y68605894D01*
X19900945Y68467041D01*
X19900940Y68467037D01*
X19747840Y68300728D01*
X19747832Y68300717D01*
X19661798Y68169032D01*
X19608652Y68123675D01*
X19539420Y68114252D01*
X19476085Y68143754D01*
X19454182Y68169032D01*
X19368147Y68300717D01*
X19368139Y68300728D01*
X19215039Y68467037D01*
X19215038Y68467038D01*
X19215036Y68467040D01*
X19036639Y68605893D01*
X18908065Y68675474D01*
X18837822Y68713488D01*
X18837817Y68713490D01*
X18624007Y68786891D01*
X18439424Y68817692D01*
X18401023Y68824100D01*
X18174957Y68824100D01*
X18136556Y68817692D01*
X17951972Y68786891D01*
X17738162Y68713490D01*
X17738157Y68713488D01*
X17539342Y68605894D01*
X17360945Y68467041D01*
X17360940Y68467037D01*
X17207840Y68300728D01*
X17207832Y68300717D01*
X17121798Y68169032D01*
X17068652Y68123675D01*
X16999420Y68114252D01*
X16936085Y68143754D01*
X16914182Y68169032D01*
X16828147Y68300717D01*
X16828139Y68300728D01*
X16675039Y68467037D01*
X16675038Y68467038D01*
X16675036Y68467040D01*
X16496639Y68605893D01*
X16368065Y68675474D01*
X16297822Y68713488D01*
X16297817Y68713490D01*
X16084007Y68786891D01*
X15899424Y68817692D01*
X15861023Y68824100D01*
X15634957Y68824100D01*
X15596556Y68817692D01*
X15411972Y68786891D01*
X15198162Y68713490D01*
X15198157Y68713488D01*
X14999342Y68605894D01*
X14820945Y68467041D01*
X14820940Y68467037D01*
X14667840Y68300728D01*
X14667832Y68300717D01*
X14581798Y68169032D01*
X14528652Y68123675D01*
X14459420Y68114252D01*
X14396085Y68143754D01*
X14374182Y68169032D01*
X14288147Y68300717D01*
X14288139Y68300728D01*
X14135039Y68467037D01*
X14135038Y68467038D01*
X14135036Y68467040D01*
X13956639Y68605893D01*
X13828065Y68675474D01*
X13757822Y68713488D01*
X13757817Y68713490D01*
X13544007Y68786891D01*
X13359424Y68817692D01*
X13321023Y68824100D01*
X13094957Y68824100D01*
X13056556Y68817692D01*
X12871972Y68786891D01*
X12658162Y68713490D01*
X12658157Y68713488D01*
X12459342Y68605894D01*
X12280945Y68467041D01*
X12280940Y68467037D01*
X12127840Y68300728D01*
X12127832Y68300717D01*
X12004188Y68111467D01*
X11913378Y67904440D01*
X11857882Y67685290D01*
X11839215Y67460007D01*
X11839215Y67459994D01*
X9978490Y67459994D01*
X9978490Y67581288D01*
X9946828Y67821789D01*
X9884044Y68056100D01*
X9791214Y68280212D01*
X9669926Y68490289D01*
X9524826Y68679388D01*
X9522256Y68682737D01*
X9522250Y68682744D01*
X9350733Y68854261D01*
X9350726Y68854267D01*
X9158283Y69001933D01*
X9158282Y69001934D01*
X9158279Y69001936D01*
X8948202Y69123224D01*
X8948195Y69123227D01*
X8724094Y69216053D01*
X8489775Y69278839D01*
X8249279Y69310500D01*
X8249278Y69310500D01*
X8006702Y69310500D01*
X8006701Y69310500D01*
X7766204Y69278839D01*
X7531885Y69216053D01*
X7307784Y69123227D01*
X7307775Y69123223D01*
X7097696Y69001933D01*
X6905253Y68854267D01*
X6905246Y68854261D01*
X6733729Y68682744D01*
X6733723Y68682737D01*
X6586057Y68490294D01*
X6464767Y68280215D01*
X6464763Y68280206D01*
X6371937Y68056105D01*
X6309151Y67821786D01*
X6277490Y67581289D01*
X6277490Y67338712D01*
X4625500Y67338712D01*
X4625500Y69689548D01*
X4645185Y69756587D01*
X4661819Y69777229D01*
X7722772Y72838181D01*
X7784095Y72871666D01*
X7810453Y72874500D01*
X44561607Y72874500D01*
X44622029Y72886519D01*
X44682452Y72898537D01*
X44682455Y72898539D01*
X44682458Y72898539D01*
X44715787Y72912346D01*
X44715786Y72912346D01*
X44715792Y72912348D01*
X44796286Y72945688D01*
X44847509Y72979916D01*
X44898733Y73014142D01*
X44985858Y73101267D01*
X44985858Y73101269D01*
X44996066Y73111476D01*
X44996067Y73111479D01*
X54722772Y82838181D01*
X54784095Y82871666D01*
X54810453Y82874500D01*
X55724773Y82874500D01*
X55791812Y82854815D01*
X55826348Y82821623D01*
X55961501Y82628604D01*
X55961506Y82628598D01*
X56083818Y82506286D01*
X56117303Y82444963D01*
X56112319Y82375271D01*
X56070447Y82319338D01*
X56039471Y82302423D01*
X55907912Y82253354D01*
X55907906Y82253351D01*
X55792812Y82167191D01*
X55792809Y82167188D01*
X55706649Y82052094D01*
X55706645Y82052087D01*
X55656403Y81917380D01*
X55656401Y81917373D01*
X55650000Y81857845D01*
X55650000Y81210000D01*
X56566988Y81210000D01*
X56534075Y81152993D01*
X56500000Y81025826D01*
X56500000Y80894174D01*
X56534075Y80767007D01*
X56566988Y80710000D01*
X55650000Y80710000D01*
X55650000Y80062156D01*
X55656401Y80002628D01*
X55656403Y80002621D01*
X55706645Y79867914D01*
X55706649Y79867907D01*
X55792809Y79752813D01*
X55792812Y79752810D01*
X55907906Y79666650D01*
X55907913Y79666646D01*
X56042620Y79616404D01*
X56042627Y79616402D01*
X56102155Y79610001D01*
X56102172Y79610000D01*
X56750000Y79610000D01*
X56750000Y80526988D01*
X56807007Y80494075D01*
X56934174Y80460000D01*
X57065826Y80460000D01*
X57192993Y80494075D01*
X57250000Y80526988D01*
X57250000Y79610000D01*
X57897828Y79610000D01*
X57897844Y79610001D01*
X57957372Y79616402D01*
X57957379Y79616404D01*
X58092086Y79666646D01*
X58092093Y79666650D01*
X58207187Y79752810D01*
X58207190Y79752813D01*
X58293350Y79867907D01*
X58293354Y79867914D01*
X58343596Y80002621D01*
X58343598Y80002628D01*
X58349999Y80062156D01*
X58350000Y80062173D01*
X58350000Y80710000D01*
X57433012Y80710000D01*
X57465925Y80767007D01*
X57500000Y80894174D01*
X57500000Y81025826D01*
X57465925Y81152993D01*
X57433012Y81210000D01*
X58350000Y81210000D01*
X58350000Y81857828D01*
X58349999Y81857845D01*
X58343598Y81917373D01*
X58343596Y81917380D01*
X58293354Y82052087D01*
X58293350Y82052094D01*
X58207190Y82167188D01*
X58207187Y82167191D01*
X58092093Y82253351D01*
X58092088Y82253354D01*
X57960528Y82302423D01*
X57904595Y82344295D01*
X57880178Y82409759D01*
X57895030Y82478032D01*
X57916175Y82506280D01*
X58038495Y82628599D01*
X58174035Y82822170D01*
X58273903Y83036337D01*
X58335063Y83264592D01*
X58355659Y83500000D01*
X58354989Y83507653D01*
X58335063Y83735404D01*
X58335063Y83735408D01*
X58273903Y83963663D01*
X58174035Y84177829D01*
X58173652Y84178377D01*
X58038494Y84371403D01*
X57871402Y84538494D01*
X57871396Y84538499D01*
X57685842Y84668425D01*
X57642217Y84723002D01*
X57635023Y84792500D01*
X57666546Y84854855D01*
X57685842Y84871575D01*
X57784994Y84941002D01*
X57871401Y85001505D01*
X58038495Y85168599D01*
X58174035Y85362170D01*
X58273903Y85576337D01*
X58335063Y85804592D01*
X58355659Y86040000D01*
X58354989Y86047653D01*
X58335063Y86275404D01*
X58335063Y86275408D01*
X58273903Y86503663D01*
X58174035Y86717829D01*
X58173652Y86718377D01*
X58038494Y86911403D01*
X57871402Y87078494D01*
X57871396Y87078499D01*
X57685842Y87208425D01*
X57642217Y87263002D01*
X57635023Y87332500D01*
X57666546Y87394855D01*
X57685842Y87411575D01*
X57784994Y87481002D01*
X57871401Y87541505D01*
X58038495Y87708599D01*
X58173652Y87901623D01*
X58228229Y87945248D01*
X58275227Y87954500D01*
X58609548Y87954500D01*
X58676587Y87934815D01*
X58697229Y87918181D01*
X65886171Y80729239D01*
X65919656Y80667916D01*
X65922490Y80641558D01*
X65922490Y68746427D01*
X65902805Y68679388D01*
X65857509Y68637373D01*
X65799346Y68605897D01*
X65799343Y68605895D01*
X65620945Y68467042D01*
X65566555Y68407959D01*
X65506667Y68371969D01*
X65436829Y68374070D01*
X65379213Y68413595D01*
X65359144Y68448610D01*
X65315387Y68565929D01*
X65315383Y68565936D01*
X65229137Y68681145D01*
X65229134Y68681148D01*
X65113925Y68767394D01*
X65113918Y68767398D01*
X64979072Y68817692D01*
X64979073Y68817692D01*
X64919473Y68824099D01*
X64919471Y68824100D01*
X64919463Y68824100D01*
X64919454Y68824100D01*
X63096519Y68824100D01*
X63096513Y68824099D01*
X63036906Y68817692D01*
X62902061Y68767398D01*
X62902059Y68767396D01*
X62811884Y68699891D01*
X62746420Y68675474D01*
X62678147Y68690325D01*
X62663262Y68699891D01*
X62573678Y68766954D01*
X62573676Y68766955D01*
X62438969Y68817197D01*
X62438962Y68817199D01*
X62379434Y68823600D01*
X61717990Y68823600D01*
X61717990Y67902252D01*
X61664071Y67933381D01*
X61534870Y67968000D01*
X61401110Y67968000D01*
X61271909Y67933381D01*
X61217990Y67902252D01*
X61217990Y68823600D01*
X60556545Y68823600D01*
X60497017Y68817199D01*
X60497010Y68817197D01*
X60362303Y68766955D01*
X60362296Y68766951D01*
X60247202Y68680791D01*
X60247199Y68680788D01*
X60161039Y68565694D01*
X60161036Y68565688D01*
X60117214Y68448197D01*
X60075342Y68392264D01*
X60009877Y68367847D01*
X59941605Y68382699D01*
X59909803Y68407548D01*
X59855039Y68467037D01*
X59855038Y68467038D01*
X59855036Y68467040D01*
X59676639Y68605893D01*
X59548065Y68675474D01*
X59477822Y68713488D01*
X59477817Y68713490D01*
X59264007Y68786891D01*
X59079424Y68817692D01*
X59041023Y68824100D01*
X58814957Y68824100D01*
X58776556Y68817692D01*
X58591972Y68786891D01*
X58378162Y68713490D01*
X58378157Y68713488D01*
X58179342Y68605894D01*
X58000945Y68467041D01*
X58000940Y68467037D01*
X57847840Y68300728D01*
X57847832Y68300717D01*
X57724188Y68111467D01*
X57633378Y67904440D01*
X57577882Y67685290D01*
X57559215Y67460007D01*
X57559215Y67459994D01*
X57577882Y67234711D01*
X57633378Y67015561D01*
X57724188Y66808534D01*
X57847832Y66619284D01*
X57847840Y66619273D01*
X58000940Y66452964D01*
X58000944Y66452960D01*
X58179341Y66314107D01*
X58378159Y66206512D01*
X58378162Y66206511D01*
X58591972Y66133110D01*
X58591974Y66133110D01*
X58591976Y66133109D01*
X58814957Y66095900D01*
X58814958Y66095900D01*
X59041022Y66095900D01*
X59041023Y66095900D01*
X59264004Y66133109D01*
X59477821Y66206512D01*
X59676639Y66314107D01*
X59855036Y66452960D01*
X59909805Y66512455D01*
X59969689Y66548443D01*
X60039527Y66546343D01*
X60097143Y66506820D01*
X60117214Y66471804D01*
X60161036Y66354312D01*
X60161039Y66354307D01*
X60247199Y66239213D01*
X60247202Y66239210D01*
X60362296Y66153050D01*
X60362303Y66153046D01*
X60497010Y66102804D01*
X60497017Y66102802D01*
X60556545Y66096401D01*
X60556562Y66096400D01*
X61217990Y66096400D01*
X61217990Y67017749D01*
X61271909Y66986619D01*
X61401110Y66952000D01*
X61534870Y66952000D01*
X61664071Y66986619D01*
X61717990Y67017749D01*
X61717990Y66096400D01*
X62379418Y66096400D01*
X62379434Y66096401D01*
X62438962Y66102802D01*
X62438969Y66102804D01*
X62573676Y66153046D01*
X62573679Y66153048D01*
X62663261Y66220109D01*
X62728725Y66244527D01*
X62796998Y66229676D01*
X62811878Y66220114D01*
X62901466Y66153048D01*
X62902058Y66152605D01*
X62902061Y66152603D01*
X63036907Y66102309D01*
X63036906Y66102309D01*
X63043834Y66101565D01*
X63096517Y66095900D01*
X64919462Y66095901D01*
X64979073Y66102309D01*
X65113921Y66152604D01*
X65229136Y66238854D01*
X65315386Y66354069D01*
X65352270Y66452960D01*
X65359144Y66471390D01*
X65401015Y66527324D01*
X65466479Y66551742D01*
X65534752Y66536891D01*
X65566554Y66512043D01*
X65620944Y66452960D01*
X65799341Y66314107D01*
X65998159Y66206512D01*
X65998162Y66206511D01*
X66211972Y66133110D01*
X66211974Y66133110D01*
X66211976Y66133109D01*
X66434957Y66095900D01*
X66434958Y66095900D01*
X66661022Y66095900D01*
X66661023Y66095900D01*
X66884004Y66133109D01*
X67097821Y66206512D01*
X67296639Y66314107D01*
X67475036Y66452960D01*
X67628146Y66619281D01*
X67714183Y66750972D01*
X67767328Y66796325D01*
X67836559Y66805749D01*
X67899895Y66776247D01*
X67921794Y66750975D01*
X68007834Y66619281D01*
X68007839Y66619276D01*
X68007840Y66619273D01*
X68160940Y66452964D01*
X68160944Y66452960D01*
X68339341Y66314107D01*
X68538159Y66206512D01*
X68538162Y66206511D01*
X68751972Y66133110D01*
X68751974Y66133110D01*
X68751976Y66133109D01*
X68974957Y66095900D01*
X68974958Y66095900D01*
X69201022Y66095900D01*
X69201023Y66095900D01*
X69424004Y66133109D01*
X69637821Y66206512D01*
X69836639Y66314107D01*
X70015036Y66452960D01*
X70168146Y66619281D01*
X70254183Y66750972D01*
X70307328Y66796325D01*
X70376559Y66805749D01*
X70439895Y66776247D01*
X70461794Y66750975D01*
X70547834Y66619281D01*
X70547839Y66619276D01*
X70547840Y66619273D01*
X70700940Y66452964D01*
X70700944Y66452960D01*
X70879341Y66314107D01*
X71078159Y66206512D01*
X71078162Y66206511D01*
X71291972Y66133110D01*
X71291974Y66133110D01*
X71291976Y66133109D01*
X71514957Y66095900D01*
X71514958Y66095900D01*
X71741022Y66095900D01*
X71741023Y66095900D01*
X71964004Y66133109D01*
X72177821Y66206512D01*
X72376639Y66314107D01*
X72555036Y66452960D01*
X72708146Y66619281D01*
X72794183Y66750972D01*
X72847328Y66796325D01*
X72916559Y66805749D01*
X72979895Y66776247D01*
X73001794Y66750975D01*
X73087834Y66619281D01*
X73087839Y66619276D01*
X73087840Y66619273D01*
X73240940Y66452964D01*
X73240944Y66452960D01*
X73419341Y66314107D01*
X73618159Y66206512D01*
X73618162Y66206511D01*
X73831972Y66133110D01*
X73831974Y66133110D01*
X73831976Y66133109D01*
X74054957Y66095900D01*
X74054958Y66095900D01*
X74281022Y66095900D01*
X74281023Y66095900D01*
X74504004Y66133109D01*
X74717821Y66206512D01*
X74916639Y66314107D01*
X75095036Y66452960D01*
X75248146Y66619281D01*
X75334183Y66750972D01*
X75387328Y66796325D01*
X75456559Y66805749D01*
X75519895Y66776247D01*
X75541794Y66750975D01*
X75627834Y66619281D01*
X75627839Y66619276D01*
X75627840Y66619273D01*
X75780940Y66452964D01*
X75780944Y66452960D01*
X75959341Y66314107D01*
X76158159Y66206512D01*
X76158162Y66206511D01*
X76371972Y66133110D01*
X76371974Y66133110D01*
X76371976Y66133109D01*
X76594957Y66095900D01*
X76594958Y66095900D01*
X76821022Y66095900D01*
X76821023Y66095900D01*
X77044004Y66133109D01*
X77257821Y66206512D01*
X77456639Y66314107D01*
X77635036Y66452960D01*
X77788146Y66619281D01*
X77911792Y66808535D01*
X78002601Y67015559D01*
X78058097Y67234707D01*
X78066715Y67338712D01*
X78076765Y67459994D01*
X78076765Y67460007D01*
X78063697Y67617706D01*
X78058097Y67685293D01*
X78002601Y67904441D01*
X77911792Y68111465D01*
X77788146Y68300719D01*
X77788143Y68300722D01*
X77788139Y68300728D01*
X77635039Y68467037D01*
X77635038Y68467038D01*
X77635036Y68467040D01*
X77456639Y68605893D01*
X77328065Y68675474D01*
X77257822Y68713488D01*
X77257817Y68713490D01*
X77044007Y68786891D01*
X76859424Y68817692D01*
X76821023Y68824100D01*
X76594957Y68824100D01*
X76556556Y68817692D01*
X76371972Y68786891D01*
X76158162Y68713490D01*
X76158157Y68713488D01*
X75959342Y68605894D01*
X75780945Y68467041D01*
X75780940Y68467037D01*
X75627840Y68300728D01*
X75627832Y68300717D01*
X75541798Y68169032D01*
X75488652Y68123675D01*
X75419420Y68114252D01*
X75356085Y68143754D01*
X75334182Y68169032D01*
X75248147Y68300717D01*
X75248139Y68300728D01*
X75095039Y68467037D01*
X75095038Y68467038D01*
X75095036Y68467040D01*
X74916639Y68605893D01*
X74788065Y68675474D01*
X74717822Y68713488D01*
X74717817Y68713490D01*
X74504007Y68786891D01*
X74319424Y68817692D01*
X74281023Y68824100D01*
X74054957Y68824100D01*
X74016556Y68817692D01*
X73831972Y68786891D01*
X73618162Y68713490D01*
X73618157Y68713488D01*
X73419342Y68605894D01*
X73240945Y68467041D01*
X73240940Y68467037D01*
X73087840Y68300728D01*
X73087832Y68300717D01*
X73001798Y68169032D01*
X72948652Y68123675D01*
X72879420Y68114252D01*
X72816085Y68143754D01*
X72794182Y68169032D01*
X72708147Y68300717D01*
X72708139Y68300728D01*
X72555039Y68467037D01*
X72555038Y68467038D01*
X72555036Y68467040D01*
X72376639Y68605893D01*
X72248065Y68675474D01*
X72177822Y68713488D01*
X72177817Y68713490D01*
X71964007Y68786891D01*
X71779424Y68817692D01*
X71741023Y68824100D01*
X71514957Y68824100D01*
X71476556Y68817692D01*
X71291972Y68786891D01*
X71078162Y68713490D01*
X71078157Y68713488D01*
X70879342Y68605894D01*
X70700945Y68467041D01*
X70700940Y68467037D01*
X70547840Y68300728D01*
X70547832Y68300717D01*
X70461798Y68169032D01*
X70408652Y68123675D01*
X70339420Y68114252D01*
X70276085Y68143754D01*
X70254182Y68169032D01*
X70168147Y68300717D01*
X70168139Y68300728D01*
X70015039Y68467037D01*
X70015038Y68467038D01*
X70015036Y68467040D01*
X69836639Y68605893D01*
X69708065Y68675474D01*
X69637822Y68713488D01*
X69637817Y68713490D01*
X69424007Y68786891D01*
X69239424Y68817692D01*
X69201023Y68824100D01*
X68974957Y68824100D01*
X68936556Y68817692D01*
X68751972Y68786891D01*
X68538162Y68713490D01*
X68538157Y68713488D01*
X68339342Y68605894D01*
X68160945Y68467041D01*
X68160940Y68467037D01*
X68007840Y68300728D01*
X68007832Y68300717D01*
X67921798Y68169032D01*
X67868652Y68123675D01*
X67799420Y68114252D01*
X67736085Y68143754D01*
X67714182Y68169032D01*
X67628147Y68300717D01*
X67628139Y68300728D01*
X67475039Y68467037D01*
X67475038Y68467038D01*
X67475036Y68467040D01*
X67296639Y68605893D01*
X67296637Y68605894D01*
X67296636Y68605895D01*
X67296633Y68605897D01*
X67238471Y68637373D01*
X67188881Y68686593D01*
X67173490Y68746427D01*
X67173490Y80737538D01*
X67193175Y80804577D01*
X67209809Y80825219D01*
X68642771Y82258181D01*
X68704094Y82291666D01*
X68730452Y82294500D01*
X73224773Y82294500D01*
X73291812Y82274815D01*
X73326348Y82241623D01*
X73461501Y82048604D01*
X73461506Y82048598D01*
X73583818Y81926286D01*
X73617303Y81864963D01*
X73612319Y81795271D01*
X73570447Y81739338D01*
X73539471Y81722423D01*
X73407912Y81673354D01*
X73407906Y81673351D01*
X73292812Y81587191D01*
X73292809Y81587188D01*
X73206649Y81472094D01*
X73206645Y81472087D01*
X73156403Y81337380D01*
X73156401Y81337373D01*
X73150000Y81277845D01*
X73150000Y80630000D01*
X74066988Y80630000D01*
X74034075Y80572993D01*
X74000000Y80445826D01*
X74000000Y80314174D01*
X74034075Y80187007D01*
X74066988Y80130000D01*
X73150000Y80130000D01*
X73150000Y79482156D01*
X73156401Y79422628D01*
X73156403Y79422621D01*
X73206645Y79287914D01*
X73206649Y79287907D01*
X73292809Y79172813D01*
X73292812Y79172810D01*
X73407906Y79086650D01*
X73407913Y79086646D01*
X73542620Y79036404D01*
X73542627Y79036402D01*
X73602155Y79030001D01*
X73602172Y79030000D01*
X74250000Y79030000D01*
X74250000Y79946988D01*
X74307007Y79914075D01*
X74434174Y79880000D01*
X74565826Y79880000D01*
X74692993Y79914075D01*
X74750000Y79946988D01*
X74750000Y79030000D01*
X75397828Y79030000D01*
X75397844Y79030001D01*
X75457372Y79036402D01*
X75457379Y79036404D01*
X75592086Y79086646D01*
X75592093Y79086650D01*
X75707187Y79172810D01*
X75707190Y79172813D01*
X75793350Y79287907D01*
X75793354Y79287914D01*
X75843596Y79422621D01*
X75843598Y79422628D01*
X75849999Y79482156D01*
X75850000Y79482173D01*
X75850000Y80130000D01*
X74933012Y80130000D01*
X74965925Y80187007D01*
X75000000Y80314174D01*
X75000000Y80445826D01*
X74965925Y80572993D01*
X74933012Y80630000D01*
X75850000Y80630000D01*
X75850000Y81277828D01*
X75849999Y81277845D01*
X75843598Y81337373D01*
X75843596Y81337380D01*
X75793354Y81472087D01*
X75793350Y81472094D01*
X75707190Y81587188D01*
X75707187Y81587191D01*
X75592093Y81673351D01*
X75592088Y81673354D01*
X75460528Y81722423D01*
X75404595Y81764295D01*
X75380178Y81829759D01*
X75395030Y81898032D01*
X75416175Y81926280D01*
X75538495Y82048599D01*
X75674035Y82242170D01*
X75773903Y82456337D01*
X75835063Y82684592D01*
X75855659Y82920000D01*
X75835063Y83155408D01*
X75773903Y83383663D01*
X75674035Y83597829D01*
X75673652Y83598377D01*
X75538494Y83791403D01*
X75371402Y83958494D01*
X75371396Y83958499D01*
X75185842Y84088425D01*
X75142217Y84143002D01*
X75135023Y84212500D01*
X75166546Y84274855D01*
X75185842Y84291575D01*
X75299848Y84371403D01*
X75371401Y84421505D01*
X75538495Y84588599D01*
X75673652Y84781623D01*
X75728229Y84825248D01*
X75775227Y84834500D01*
X76729548Y84834500D01*
X76796587Y84814815D01*
X76817229Y84798181D01*
X82650171Y78965239D01*
X82683656Y78903916D01*
X82686490Y78877558D01*
X82686490Y20486427D01*
X82666805Y20419388D01*
X82621509Y20377373D01*
X82563346Y20345897D01*
X82563343Y20345895D01*
X82384945Y20207041D01*
X82384940Y20207037D01*
X82231840Y20040728D01*
X82231832Y20040717D01*
X82145798Y19909032D01*
X82092652Y19863675D01*
X82023420Y19854252D01*
X81960085Y19883754D01*
X81938182Y19909032D01*
X81865542Y20020215D01*
X81852146Y20040719D01*
X81852143Y20040722D01*
X81852139Y20040728D01*
X81699039Y20207037D01*
X81699038Y20207038D01*
X81699036Y20207040D01*
X81520639Y20345893D01*
X81427933Y20396063D01*
X81321822Y20453488D01*
X81321817Y20453490D01*
X81108007Y20526891D01*
X80905278Y20560720D01*
X80885023Y20564100D01*
X80658957Y20564100D01*
X80638702Y20560720D01*
X80435972Y20526891D01*
X80222162Y20453490D01*
X80222157Y20453488D01*
X80023342Y20345894D01*
X79844945Y20207042D01*
X79790555Y20147959D01*
X79730667Y20111969D01*
X79660829Y20114070D01*
X79603213Y20153595D01*
X79583144Y20188610D01*
X79539387Y20305929D01*
X79539383Y20305936D01*
X79453137Y20421145D01*
X79453134Y20421148D01*
X79337925Y20507394D01*
X79337918Y20507398D01*
X79203072Y20557692D01*
X79203073Y20557692D01*
X79143473Y20564099D01*
X79143471Y20564100D01*
X79143463Y20564100D01*
X79143454Y20564100D01*
X77320519Y20564100D01*
X77320513Y20564099D01*
X77260906Y20557692D01*
X77126061Y20507398D01*
X77126054Y20507394D01*
X77010845Y20421148D01*
X77010842Y20421145D01*
X76924596Y20305936D01*
X76924593Y20305931D01*
X76880835Y20188609D01*
X76838963Y20132676D01*
X76773499Y20108259D01*
X76705226Y20123111D01*
X76673424Y20147960D01*
X76619039Y20207037D01*
X76619038Y20207038D01*
X76619036Y20207040D01*
X76440639Y20345893D01*
X76347933Y20396063D01*
X76241822Y20453488D01*
X76241817Y20453490D01*
X76028007Y20526891D01*
X75825278Y20560720D01*
X75805023Y20564100D01*
X75578957Y20564100D01*
X75558702Y20560720D01*
X75355972Y20526891D01*
X75142162Y20453490D01*
X75142157Y20453488D01*
X74943342Y20345894D01*
X74764945Y20207041D01*
X74764940Y20207037D01*
X74611840Y20040728D01*
X74611832Y20040717D01*
X74525798Y19909032D01*
X74472652Y19863675D01*
X74403420Y19854252D01*
X74340085Y19883754D01*
X74318182Y19909032D01*
X74245542Y20020215D01*
X74232146Y20040719D01*
X74232143Y20040722D01*
X74232139Y20040728D01*
X74079039Y20207037D01*
X74079038Y20207038D01*
X74079036Y20207040D01*
X73900639Y20345893D01*
X73807933Y20396063D01*
X73701822Y20453488D01*
X73701817Y20453490D01*
X73488007Y20526891D01*
X73285278Y20560720D01*
X73265023Y20564100D01*
X73038957Y20564100D01*
X73018702Y20560720D01*
X72815972Y20526891D01*
X72602162Y20453490D01*
X72602157Y20453488D01*
X72403342Y20345894D01*
X72224945Y20207041D01*
X72224940Y20207037D01*
X72071840Y20040728D01*
X72071832Y20040717D01*
X71985798Y19909032D01*
X71932652Y19863675D01*
X71863420Y19854252D01*
X71800085Y19883754D01*
X71778182Y19909032D01*
X71705542Y20020215D01*
X71692146Y20040719D01*
X71692143Y20040722D01*
X71692139Y20040728D01*
X71539039Y20207037D01*
X71539038Y20207038D01*
X71539036Y20207040D01*
X71360639Y20345893D01*
X71267933Y20396063D01*
X71161822Y20453488D01*
X71161817Y20453490D01*
X70948007Y20526891D01*
X70745278Y20560720D01*
X70725023Y20564100D01*
X70498957Y20564100D01*
X70478702Y20560720D01*
X70275972Y20526891D01*
X70062162Y20453490D01*
X70062157Y20453488D01*
X69863342Y20345894D01*
X69684945Y20207041D01*
X69684940Y20207037D01*
X69531840Y20040728D01*
X69531832Y20040717D01*
X69445798Y19909032D01*
X69392652Y19863675D01*
X69323420Y19854252D01*
X69260085Y19883754D01*
X69238182Y19909032D01*
X69165542Y20020215D01*
X69152146Y20040719D01*
X69152143Y20040722D01*
X69152139Y20040728D01*
X68999039Y20207037D01*
X68999038Y20207038D01*
X68999036Y20207040D01*
X68820639Y20345893D01*
X68727933Y20396063D01*
X68621822Y20453488D01*
X68621817Y20453490D01*
X68408007Y20526891D01*
X68205278Y20560720D01*
X68185023Y20564100D01*
X67958957Y20564100D01*
X67938702Y20560720D01*
X67735972Y20526891D01*
X67522162Y20453490D01*
X67522157Y20453488D01*
X67323342Y20345894D01*
X67144945Y20207041D01*
X67144940Y20207037D01*
X66991840Y20040728D01*
X66991832Y20040717D01*
X66905798Y19909032D01*
X66852652Y19863675D01*
X66783420Y19854252D01*
X66720085Y19883754D01*
X66698182Y19909032D01*
X66625542Y20020215D01*
X66612146Y20040719D01*
X66612143Y20040722D01*
X66612139Y20040728D01*
X66459039Y20207037D01*
X66459038Y20207038D01*
X66459036Y20207040D01*
X66280639Y20345893D01*
X66187933Y20396063D01*
X66081822Y20453488D01*
X66081817Y20453490D01*
X65868007Y20526891D01*
X65665278Y20560720D01*
X65645023Y20564100D01*
X65418957Y20564100D01*
X65398702Y20560720D01*
X65195972Y20526891D01*
X64982162Y20453490D01*
X64982157Y20453488D01*
X64783342Y20345894D01*
X64604945Y20207041D01*
X64604940Y20207037D01*
X64451840Y20040728D01*
X64451832Y20040717D01*
X64365798Y19909032D01*
X64312652Y19863675D01*
X64243420Y19854252D01*
X64180085Y19883754D01*
X64158182Y19909032D01*
X64085542Y20020215D01*
X64072146Y20040719D01*
X64072143Y20040722D01*
X64072139Y20040728D01*
X63919039Y20207037D01*
X63919038Y20207038D01*
X63919036Y20207040D01*
X63740639Y20345893D01*
X63647933Y20396063D01*
X63541822Y20453488D01*
X63541817Y20453490D01*
X63328007Y20526891D01*
X63125278Y20560720D01*
X63105023Y20564100D01*
X62878957Y20564100D01*
X62858702Y20560720D01*
X62655972Y20526891D01*
X62442162Y20453490D01*
X62442157Y20453488D01*
X62243342Y20345894D01*
X62064945Y20207041D01*
X62064940Y20207037D01*
X61911840Y20040728D01*
X61911832Y20040717D01*
X61788188Y19851467D01*
X61697378Y19644440D01*
X61641882Y19425290D01*
X61623215Y19200007D01*
X61623215Y19199994D01*
X61641882Y18974711D01*
X61697378Y18755561D01*
X61788188Y18548534D01*
X61911832Y18359284D01*
X61911840Y18359273D01*
X62064940Y18192964D01*
X62064944Y18192960D01*
X62243341Y18054107D01*
X62442159Y17946512D01*
X62442162Y17946511D01*
X62655972Y17873110D01*
X62655974Y17873110D01*
X62655976Y17873109D01*
X62878957Y17835900D01*
X62878958Y17835900D01*
X63105022Y17835900D01*
X63105023Y17835900D01*
X63328004Y17873109D01*
X63541821Y17946512D01*
X63740639Y18054107D01*
X63919036Y18192960D01*
X64072146Y18359281D01*
X64158183Y18490972D01*
X64211328Y18536325D01*
X64280559Y18545749D01*
X64343895Y18516247D01*
X64365794Y18490975D01*
X64451834Y18359281D01*
X64451839Y18359276D01*
X64451840Y18359273D01*
X64604940Y18192964D01*
X64604944Y18192960D01*
X64783341Y18054107D01*
X64982159Y17946512D01*
X64982162Y17946511D01*
X65195972Y17873110D01*
X65195974Y17873110D01*
X65195976Y17873109D01*
X65418957Y17835900D01*
X65418958Y17835900D01*
X65645022Y17835900D01*
X65645023Y17835900D01*
X65868004Y17873109D01*
X66081821Y17946512D01*
X66280639Y18054107D01*
X66459036Y18192960D01*
X66612146Y18359281D01*
X66698183Y18490972D01*
X66751328Y18536325D01*
X66820559Y18545749D01*
X66883895Y18516247D01*
X66905794Y18490975D01*
X66991834Y18359281D01*
X66991839Y18359276D01*
X66991840Y18359273D01*
X67144940Y18192964D01*
X67144944Y18192960D01*
X67323341Y18054107D01*
X67522159Y17946512D01*
X67522162Y17946511D01*
X67735972Y17873110D01*
X67735974Y17873110D01*
X67735976Y17873109D01*
X67958957Y17835900D01*
X67958958Y17835900D01*
X68185022Y17835900D01*
X68185023Y17835900D01*
X68408004Y17873109D01*
X68621821Y17946512D01*
X68820639Y18054107D01*
X68999036Y18192960D01*
X69152146Y18359281D01*
X69238183Y18490972D01*
X69291328Y18536325D01*
X69360559Y18545749D01*
X69423895Y18516247D01*
X69445794Y18490975D01*
X69531834Y18359281D01*
X69531839Y18359276D01*
X69531840Y18359273D01*
X69684940Y18192964D01*
X69684944Y18192960D01*
X69863341Y18054107D01*
X70062159Y17946512D01*
X70062162Y17946511D01*
X70275972Y17873110D01*
X70275974Y17873110D01*
X70275976Y17873109D01*
X70498957Y17835900D01*
X70498958Y17835900D01*
X70725022Y17835900D01*
X70725023Y17835900D01*
X70948004Y17873109D01*
X71161821Y17946512D01*
X71360639Y18054107D01*
X71539036Y18192960D01*
X71692146Y18359281D01*
X71778183Y18490972D01*
X71831328Y18536325D01*
X71900559Y18545749D01*
X71963895Y18516247D01*
X71985794Y18490975D01*
X72071834Y18359281D01*
X72071839Y18359276D01*
X72071840Y18359273D01*
X72224940Y18192964D01*
X72224944Y18192960D01*
X72403341Y18054107D01*
X72602159Y17946512D01*
X72602162Y17946511D01*
X72815972Y17873110D01*
X72815974Y17873110D01*
X72815976Y17873109D01*
X73038957Y17835900D01*
X73038958Y17835900D01*
X73265022Y17835900D01*
X73265023Y17835900D01*
X73488004Y17873109D01*
X73701821Y17946512D01*
X73900639Y18054107D01*
X74079036Y18192960D01*
X74232146Y18359281D01*
X74318183Y18490972D01*
X74371328Y18536325D01*
X74440559Y18545749D01*
X74503895Y18516247D01*
X74525794Y18490975D01*
X74611834Y18359281D01*
X74611839Y18359276D01*
X74611840Y18359273D01*
X74764940Y18192964D01*
X74764944Y18192960D01*
X74943341Y18054107D01*
X75142159Y17946512D01*
X75142162Y17946511D01*
X75355972Y17873110D01*
X75355974Y17873110D01*
X75355976Y17873109D01*
X75578957Y17835900D01*
X75578958Y17835900D01*
X75805022Y17835900D01*
X75805023Y17835900D01*
X76028004Y17873109D01*
X76241821Y17946512D01*
X76440639Y18054107D01*
X76619036Y18192960D01*
X76673425Y18252043D01*
X76733310Y18288031D01*
X76803148Y18285931D01*
X76860764Y18246407D01*
X76880835Y18211391D01*
X76924592Y18094072D01*
X76924596Y18094065D01*
X77010842Y17978856D01*
X77010845Y17978853D01*
X77126054Y17892607D01*
X77126061Y17892603D01*
X77260907Y17842309D01*
X77260906Y17842309D01*
X77267834Y17841565D01*
X77320517Y17835900D01*
X79143462Y17835901D01*
X79203073Y17842309D01*
X79337921Y17892604D01*
X79453136Y17978854D01*
X79539386Y18094069D01*
X79576270Y18192960D01*
X79583144Y18211390D01*
X79625015Y18267324D01*
X79690479Y18291742D01*
X79758752Y18276891D01*
X79790554Y18252043D01*
X79844944Y18192960D01*
X80023341Y18054107D01*
X80222159Y17946512D01*
X80222162Y17946511D01*
X80435972Y17873110D01*
X80435974Y17873110D01*
X80435976Y17873109D01*
X80658957Y17835900D01*
X80658958Y17835900D01*
X80885022Y17835900D01*
X80885023Y17835900D01*
X81108004Y17873109D01*
X81321821Y17946512D01*
X81520639Y18054107D01*
X81699036Y18192960D01*
X81852146Y18359281D01*
X81938183Y18490972D01*
X81991328Y18536325D01*
X82060559Y18545749D01*
X82123895Y18516247D01*
X82145794Y18490975D01*
X82231834Y18359281D01*
X82231839Y18359276D01*
X82231840Y18359273D01*
X82384940Y18192964D01*
X82384944Y18192960D01*
X82563341Y18054107D01*
X82762159Y17946512D01*
X82762162Y17946511D01*
X82975972Y17873110D01*
X82975974Y17873110D01*
X82975976Y17873109D01*
X83198957Y17835900D01*
X83198958Y17835900D01*
X83425022Y17835900D01*
X83425023Y17835900D01*
X83648004Y17873109D01*
X83861821Y17946512D01*
X84060639Y18054107D01*
X84239036Y18192960D01*
X84392146Y18359281D01*
X84478183Y18490972D01*
X84531328Y18536325D01*
X84600559Y18545749D01*
X84663895Y18516247D01*
X84685794Y18490975D01*
X84771834Y18359281D01*
X84771839Y18359276D01*
X84771840Y18359273D01*
X84924940Y18192964D01*
X84924944Y18192960D01*
X85103341Y18054107D01*
X85302159Y17946512D01*
X85302162Y17946511D01*
X85515972Y17873110D01*
X85515974Y17873110D01*
X85515976Y17873109D01*
X85738957Y17835900D01*
X85738958Y17835900D01*
X85965022Y17835900D01*
X85965023Y17835900D01*
X86188004Y17873109D01*
X86401821Y17946512D01*
X86600639Y18054107D01*
X86779036Y18192960D01*
X86932146Y18359281D01*
X87055792Y18548535D01*
X87146601Y18755559D01*
X87202097Y18974707D01*
X87210715Y19078712D01*
X87557490Y19078712D01*
X87589151Y18838215D01*
X87651937Y18603896D01*
X87744763Y18379795D01*
X87744767Y18379786D01*
X87756604Y18359284D01*
X87866054Y18169711D01*
X87866056Y18169708D01*
X87866057Y18169707D01*
X88013723Y17977264D01*
X88013729Y17977257D01*
X88185246Y17805740D01*
X88185253Y17805734D01*
X88210181Y17786606D01*
X88377701Y17658064D01*
X88587778Y17536776D01*
X88811890Y17443946D01*
X89046201Y17381162D01*
X89226576Y17357416D01*
X89286701Y17349500D01*
X89286702Y17349500D01*
X89529279Y17349500D01*
X89577378Y17355833D01*
X89769779Y17381162D01*
X90004090Y17443946D01*
X90228202Y17536776D01*
X90438279Y17658064D01*
X90630728Y17805735D01*
X90802255Y17977262D01*
X90949926Y18169711D01*
X91071214Y18379788D01*
X91164044Y18603900D01*
X91226828Y18838211D01*
X91258490Y19078712D01*
X91258490Y19321288D01*
X91226828Y19561789D01*
X91164044Y19796100D01*
X91071214Y20020212D01*
X90949926Y20230289D01*
X90839717Y20373916D01*
X90802256Y20422737D01*
X90802250Y20422744D01*
X90630733Y20594261D01*
X90630726Y20594267D01*
X90438283Y20741933D01*
X90438282Y20741934D01*
X90438279Y20741936D01*
X90228202Y20863224D01*
X90228195Y20863227D01*
X90004094Y20956053D01*
X89769775Y21018839D01*
X89529279Y21050500D01*
X89529278Y21050500D01*
X89286702Y21050500D01*
X89286701Y21050500D01*
X89046204Y21018839D01*
X88811885Y20956053D01*
X88587784Y20863227D01*
X88587775Y20863223D01*
X88377696Y20741933D01*
X88185253Y20594267D01*
X88185246Y20594261D01*
X88013729Y20422744D01*
X88013723Y20422737D01*
X87866057Y20230294D01*
X87866054Y20230290D01*
X87866054Y20230289D01*
X87852632Y20207042D01*
X87744767Y20020215D01*
X87744763Y20020206D01*
X87651937Y19796105D01*
X87589151Y19561786D01*
X87557490Y19321289D01*
X87557490Y19078712D01*
X87210715Y19078712D01*
X87220765Y19200000D01*
X87220765Y19200007D01*
X87202097Y19425290D01*
X87202097Y19425293D01*
X87146601Y19644441D01*
X87055792Y19851465D01*
X86932146Y20040719D01*
X86932143Y20040722D01*
X86932139Y20040728D01*
X86779039Y20207037D01*
X86779038Y20207038D01*
X86779036Y20207040D01*
X86600639Y20345893D01*
X86600637Y20345894D01*
X86600636Y20345895D01*
X86600633Y20345897D01*
X86542471Y20377373D01*
X86492881Y20426593D01*
X86477490Y20486427D01*
X86477490Y67338712D01*
X88827490Y67338712D01*
X88859151Y67098215D01*
X88921937Y66863896D01*
X88949926Y66796325D01*
X89014766Y66639788D01*
X89136054Y66429711D01*
X89136056Y66429708D01*
X89136057Y66429707D01*
X89283723Y66237264D01*
X89283729Y66237257D01*
X89455246Y66065740D01*
X89455252Y66065735D01*
X89647701Y65918064D01*
X89857778Y65796776D01*
X90081890Y65703946D01*
X90316201Y65641162D01*
X90496576Y65617416D01*
X90556701Y65609500D01*
X90556702Y65609500D01*
X90799279Y65609500D01*
X90847378Y65615833D01*
X91039779Y65641162D01*
X91274090Y65703946D01*
X91498202Y65796776D01*
X91708279Y65918064D01*
X91900728Y66065735D01*
X92072255Y66237262D01*
X92219926Y66429711D01*
X92341214Y66639788D01*
X92434044Y66863900D01*
X92496828Y67098211D01*
X92528490Y67338712D01*
X92528490Y67581288D01*
X92496828Y67821789D01*
X92434044Y68056100D01*
X92341214Y68280212D01*
X92219926Y68490289D01*
X92074826Y68679388D01*
X92072256Y68682737D01*
X92072250Y68682744D01*
X91900733Y68854261D01*
X91900726Y68854267D01*
X91708283Y69001933D01*
X91708282Y69001934D01*
X91708279Y69001936D01*
X91498202Y69123224D01*
X91498195Y69123227D01*
X91274094Y69216053D01*
X91039775Y69278839D01*
X90799279Y69310500D01*
X90799278Y69310500D01*
X90556702Y69310500D01*
X90556701Y69310500D01*
X90316204Y69278839D01*
X90081885Y69216053D01*
X89857784Y69123227D01*
X89857775Y69123223D01*
X89647696Y69001933D01*
X89455253Y68854267D01*
X89455246Y68854261D01*
X89283729Y68682744D01*
X89283723Y68682737D01*
X89136057Y68490294D01*
X89014767Y68280215D01*
X89014763Y68280206D01*
X88921937Y68056105D01*
X88859151Y67821786D01*
X88827490Y67581289D01*
X88827490Y67338712D01*
X86477490Y67338712D01*
X86477490Y80209612D01*
X86477490Y80209616D01*
X86476231Y80215944D01*
X86476231Y80215948D01*
X86458198Y80306605D01*
X86453453Y80330461D01*
X86406302Y80444295D01*
X86368967Y80500170D01*
X86337848Y80546743D01*
X86337846Y80546746D01*
X86247627Y80636965D01*
X86247596Y80636994D01*
X78490198Y88394392D01*
X78490178Y88394414D01*
X78398733Y88485859D01*
X78347509Y88520085D01*
X78296287Y88554311D01*
X78296286Y88554312D01*
X78296283Y88554314D01*
X78296280Y88554315D01*
X78215792Y88587653D01*
X78182453Y88601463D01*
X78172427Y88603457D01*
X78122029Y88613482D01*
X78061610Y88625500D01*
X78061607Y88625500D01*
X78061606Y88625500D01*
X75775227Y88625500D01*
X75708188Y88645185D01*
X75673652Y88678377D01*
X75538494Y88871403D01*
X75371402Y89038494D01*
X75371395Y89038499D01*
X75177834Y89174033D01*
X75177830Y89174035D01*
X75110353Y89205500D01*
X74963663Y89273903D01*
X74963659Y89273904D01*
X74963655Y89273906D01*
X74735413Y89335062D01*
X74735403Y89335064D01*
X74500001Y89355659D01*
X74499999Y89355659D01*
X74264596Y89335064D01*
X74264586Y89335062D01*
X74036344Y89273906D01*
X74036335Y89273902D01*
X73822171Y89174036D01*
X73822169Y89174035D01*
X73628597Y89038495D01*
X73461505Y88871403D01*
X73326348Y88678377D01*
X73271771Y88634752D01*
X73224773Y88625500D01*
X70810452Y88625500D01*
X70743413Y88645185D01*
X70722771Y88661819D01*
X70490198Y88894392D01*
X70490178Y88894414D01*
X70398733Y88985859D01*
X70347509Y89020085D01*
X70296286Y89054312D01*
X70296283Y89054314D01*
X70296280Y89054315D01*
X70210524Y89089835D01*
X70188806Y89098831D01*
X70144109Y89130420D01*
X70140606Y89134310D01*
X70105871Y89172888D01*
X70105870Y89172889D01*
X70105869Y89172890D01*
X69952734Y89284149D01*
X69952729Y89284152D01*
X69779807Y89361143D01*
X69779802Y89361145D01*
X69634001Y89392135D01*
X69594646Y89400500D01*
X69405354Y89400500D01*
X69372897Y89393602D01*
X69220197Y89361145D01*
X69220192Y89361143D01*
X69047270Y89284152D01*
X69047265Y89284149D01*
X68894129Y89172889D01*
X68767466Y89032215D01*
X68672821Y88868285D01*
X68672818Y88868278D01*
X68614327Y88688260D01*
X68614326Y88688256D01*
X68594540Y88500000D01*
X68614326Y88311744D01*
X68614327Y88311741D01*
X68672818Y88131723D01*
X68672821Y88131716D01*
X68767467Y87967784D01*
X68877190Y87845925D01*
X68894129Y87827112D01*
X69047265Y87715852D01*
X69047270Y87715849D01*
X69220192Y87638858D01*
X69220197Y87638856D01*
X69405354Y87599500D01*
X69405355Y87599500D01*
X69594644Y87599500D01*
X69594646Y87599500D01*
X69779803Y87638856D01*
X69838086Y87664807D01*
X69907334Y87674092D01*
X69970611Y87644464D01*
X69976202Y87639208D01*
X70011016Y87604394D01*
X70011045Y87604363D01*
X70101264Y87514144D01*
X70101267Y87514142D01*
X70177901Y87462937D01*
X70203715Y87445688D01*
X70236677Y87432035D01*
X70317548Y87398537D01*
X70377971Y87386519D01*
X70438393Y87374500D01*
X70438394Y87374500D01*
X73224773Y87374500D01*
X73291812Y87354815D01*
X73326348Y87321623D01*
X73461501Y87128604D01*
X73461506Y87128598D01*
X73628597Y86961507D01*
X73628603Y86961502D01*
X73814158Y86831575D01*
X73857783Y86776998D01*
X73864977Y86707500D01*
X73833454Y86645145D01*
X73814158Y86628425D01*
X73628597Y86498495D01*
X73461505Y86331403D01*
X73325965Y86137831D01*
X73325964Y86137829D01*
X73226098Y85923665D01*
X73226094Y85923656D01*
X73164938Y85695414D01*
X73164936Y85695404D01*
X73144341Y85460001D01*
X73144341Y85460000D01*
X73164936Y85224597D01*
X73164938Y85224587D01*
X73226094Y84996345D01*
X73226096Y84996341D01*
X73226097Y84996337D01*
X73301563Y84834500D01*
X73325965Y84782170D01*
X73325967Y84782166D01*
X73401682Y84674035D01*
X73461501Y84588604D01*
X73461506Y84588598D01*
X73628597Y84421507D01*
X73628603Y84421502D01*
X73814158Y84291575D01*
X73857783Y84236998D01*
X73864977Y84167500D01*
X73833454Y84105145D01*
X73814158Y84088425D01*
X73628597Y83958495D01*
X73461505Y83791403D01*
X73326348Y83598377D01*
X73271771Y83554752D01*
X73224773Y83545500D01*
X68358389Y83545500D01*
X68297971Y83533482D01*
X68260259Y83525981D01*
X68237550Y83521464D01*
X68237548Y83521463D01*
X68204207Y83507653D01*
X68123719Y83474316D01*
X68123705Y83474308D01*
X68021272Y83405862D01*
X68021264Y83405856D01*
X67934139Y83318730D01*
X66587680Y81972272D01*
X66526357Y81938787D01*
X66456665Y81943771D01*
X66412318Y81972272D01*
X59410198Y88974392D01*
X59410178Y88974414D01*
X59318735Y89065857D01*
X59300812Y89077833D01*
X59265446Y89101463D01*
X59265447Y89101463D01*
X59265445Y89101465D01*
X59216290Y89134310D01*
X59216286Y89134312D01*
X59135792Y89167653D01*
X59123154Y89172888D01*
X59102453Y89181463D01*
X59092427Y89183457D01*
X59042029Y89193482D01*
X58981610Y89205500D01*
X58981607Y89205500D01*
X58981606Y89205500D01*
X58275227Y89205500D01*
X58208188Y89225185D01*
X58173652Y89258377D01*
X58038494Y89451403D01*
X57871402Y89618494D01*
X57871395Y89618499D01*
X57677834Y89754033D01*
X57677830Y89754035D01*
X57677828Y89754036D01*
X57463663Y89853903D01*
X57463659Y89853904D01*
X57463655Y89853906D01*
X57235413Y89915062D01*
X57235403Y89915064D01*
X57000001Y89935659D01*
X56999999Y89935659D01*
X56764596Y89915064D01*
X56764586Y89915062D01*
X56536344Y89853906D01*
X56536335Y89853902D01*
X56322171Y89754036D01*
X56322169Y89754035D01*
X56128597Y89618495D01*
X55961505Y89451403D01*
X55825965Y89257831D01*
X55825964Y89257829D01*
X55726098Y89043665D01*
X55726094Y89043656D01*
X55664938Y88815414D01*
X55664936Y88815404D01*
X55644341Y88580001D01*
X55644341Y88580000D01*
X55664936Y88344597D01*
X55664938Y88344587D01*
X55726094Y88116345D01*
X55726096Y88116341D01*
X55726097Y88116337D01*
X55795368Y87967786D01*
X55825965Y87902170D01*
X55825967Y87902166D01*
X55865348Y87845925D01*
X55961501Y87708604D01*
X55961506Y87708598D01*
X56128597Y87541507D01*
X56128603Y87541502D01*
X56314158Y87411575D01*
X56357783Y87356998D01*
X56364977Y87287500D01*
X56333454Y87225145D01*
X56314158Y87208425D01*
X56128597Y87078495D01*
X55961505Y86911403D01*
X55826348Y86718377D01*
X55771771Y86674752D01*
X55724773Y86665500D01*
X54478389Y86665500D01*
X54357553Y86641465D01*
X54357541Y86641461D01*
X54325262Y86628091D01*
X54310397Y86621933D01*
X54243719Y86594315D01*
X54243717Y86594314D01*
X54141266Y86525859D01*
X54141263Y86525856D01*
X43277229Y75661819D01*
X43215906Y75628334D01*
X43189548Y75625500D01*
X6438389Y75625500D01*
X6377971Y75613482D01*
X6334743Y75604884D01*
X6317546Y75601463D01*
X6203716Y75554313D01*
X6203707Y75554308D01*
X6101268Y75485860D01*
X6057705Y75442297D01*
X6014142Y75398733D01*
X2014144Y71398736D01*
X2014138Y71398728D01*
X1945692Y71296295D01*
X1945684Y71296281D01*
X1912347Y71215793D01*
X1906823Y71202457D01*
X1898537Y71182455D01*
X1898535Y71182447D01*
X1874500Y71061611D01*
X1874500Y20334836D01*
X1898535Y20214003D01*
X1898540Y20213986D01*
X1945685Y20100167D01*
X1945690Y20100158D01*
X1979914Y20048940D01*
X1979915Y20048938D01*
X2014141Y19997714D01*
X2105586Y19906269D01*
X2105608Y19906249D01*
X7769463Y14242394D01*
X7769492Y14242363D01*
X7859711Y14152144D01*
X7859714Y14152142D01*
X7928020Y14106502D01*
X7928021Y14106500D01*
X7945092Y14095094D01*
X7962162Y14083688D01*
X8025951Y14057266D01*
X8075995Y14036537D01*
X8116215Y14028537D01*
X8196838Y14012501D01*
X8196839Y14012500D01*
X8196840Y14012500D01*
X8196841Y14012500D01*
X13796252Y14012500D01*
X13863291Y13992815D01*
X13888400Y13971474D01*
X13894126Y13965115D01*
X13894130Y13965111D01*
X14047265Y13853852D01*
X14047270Y13853849D01*
X14220192Y13776858D01*
X14220197Y13776856D01*
X14405354Y13737500D01*
X14405355Y13737500D01*
X14594644Y13737500D01*
X14594646Y13737500D01*
X14779803Y13776856D01*
X14952730Y13853849D01*
X15077616Y13944584D01*
X15143421Y13968063D01*
X15211475Y13952238D01*
X15260170Y13902132D01*
X15274500Y13844265D01*
X15274500Y8504040D01*
X15254815Y8437001D01*
X15216220Y8398888D01*
X11968157Y6368848D01*
X11902437Y6350000D01*
X5842000Y6350000D01*
X5842000Y1394000D01*
X5822315Y1326961D01*
X5769511Y1281206D01*
X5718000Y1270000D01*
X1394000Y1270000D01*
X1326961Y1289685D01*
X1281206Y1342489D01*
X1270000Y1394000D01*
X1270000Y81178000D01*
X41840331Y81178000D01*
X41860926Y80942597D01*
X41860928Y80942587D01*
X41922084Y80714345D01*
X41922086Y80714341D01*
X41922087Y80714337D01*
X42021955Y80500170D01*
X42157491Y80306604D01*
X42157496Y80306598D01*
X42279808Y80184286D01*
X42313293Y80122963D01*
X42308309Y80053271D01*
X42266437Y79997338D01*
X42235461Y79980423D01*
X42103902Y79931354D01*
X42103896Y79931351D01*
X41988802Y79845191D01*
X41988799Y79845188D01*
X41902639Y79730094D01*
X41902635Y79730087D01*
X41852393Y79595380D01*
X41852391Y79595373D01*
X41845990Y79535845D01*
X41845990Y78888000D01*
X42762978Y78888000D01*
X42730065Y78830993D01*
X42695990Y78703826D01*
X42695990Y78572174D01*
X42730065Y78445007D01*
X42762978Y78388000D01*
X41845990Y78388000D01*
X41845990Y77740156D01*
X41852391Y77680628D01*
X41852393Y77680621D01*
X41902635Y77545914D01*
X41902639Y77545907D01*
X41988799Y77430813D01*
X41988802Y77430810D01*
X42103896Y77344650D01*
X42103903Y77344646D01*
X42238610Y77294404D01*
X42238617Y77294402D01*
X42298145Y77288001D01*
X42298162Y77288000D01*
X42945990Y77288000D01*
X42945990Y78204988D01*
X43002997Y78172075D01*
X43130164Y78138000D01*
X43261816Y78138000D01*
X43388983Y78172075D01*
X43445990Y78204988D01*
X43445990Y77288000D01*
X44093818Y77288000D01*
X44093834Y77288001D01*
X44153362Y77294402D01*
X44153369Y77294404D01*
X44288076Y77344646D01*
X44288083Y77344650D01*
X44403177Y77430810D01*
X44403180Y77430813D01*
X44489340Y77545907D01*
X44489344Y77545914D01*
X44539586Y77680621D01*
X44539588Y77680628D01*
X44545989Y77740156D01*
X44545990Y77740173D01*
X44545990Y78388000D01*
X43629002Y78388000D01*
X43661915Y78445007D01*
X43695990Y78572174D01*
X43695990Y78703826D01*
X43661915Y78830993D01*
X43629002Y78888000D01*
X44545990Y78888000D01*
X44545990Y79535828D01*
X44545989Y79535845D01*
X44539588Y79595373D01*
X44539586Y79595380D01*
X44489344Y79730087D01*
X44489340Y79730094D01*
X44403180Y79845188D01*
X44403177Y79845191D01*
X44288083Y79931351D01*
X44288078Y79931354D01*
X44156518Y79980423D01*
X44100585Y80022295D01*
X44076168Y80087759D01*
X44091020Y80156032D01*
X44112165Y80184280D01*
X44234485Y80306599D01*
X44370025Y80500170D01*
X44469893Y80714337D01*
X44531053Y80942592D01*
X44551649Y81178000D01*
X44531053Y81413408D01*
X44469893Y81641663D01*
X44370025Y81855829D01*
X44368626Y81857828D01*
X44234484Y82049403D01*
X44067392Y82216494D01*
X44067386Y82216499D01*
X43881832Y82346425D01*
X43838207Y82401002D01*
X43831013Y82470500D01*
X43862536Y82532855D01*
X43881832Y82549575D01*
X43994688Y82628598D01*
X44067391Y82679505D01*
X44234485Y82846599D01*
X44370025Y83040170D01*
X44469893Y83254337D01*
X44531053Y83482592D01*
X44551649Y83718000D01*
X44531053Y83953408D01*
X44470920Y84177831D01*
X44469895Y84181656D01*
X44469894Y84181657D01*
X44469893Y84181663D01*
X44370025Y84395829D01*
X44352046Y84421507D01*
X44234484Y84589403D01*
X44067392Y84756494D01*
X44067386Y84756499D01*
X43881832Y84886425D01*
X43838207Y84941002D01*
X43831013Y85010500D01*
X43862536Y85072855D01*
X43881832Y85089575D01*
X43994688Y85168598D01*
X44067391Y85219505D01*
X44234485Y85386599D01*
X44370025Y85580170D01*
X44469893Y85794337D01*
X44531053Y86022592D01*
X44551649Y86258000D01*
X44531053Y86493408D01*
X44470920Y86717831D01*
X44469895Y86721656D01*
X44469894Y86721657D01*
X44469893Y86721663D01*
X44370025Y86935829D01*
X44352046Y86961507D01*
X44234484Y87129403D01*
X44067392Y87296494D01*
X44067386Y87296499D01*
X43881832Y87426425D01*
X43838207Y87481002D01*
X43831013Y87550500D01*
X43862536Y87612855D01*
X43881832Y87629575D01*
X43994688Y87708598D01*
X44067391Y87759505D01*
X44234485Y87926599D01*
X44370025Y88120170D01*
X44469893Y88334337D01*
X44531053Y88562592D01*
X44551649Y88798000D01*
X44531053Y89033408D01*
X44470920Y89257831D01*
X44469895Y89261656D01*
X44469894Y89261657D01*
X44469893Y89261663D01*
X44370025Y89475829D01*
X44270131Y89618494D01*
X44234484Y89669403D01*
X44067392Y89836494D01*
X44067386Y89836499D01*
X43948134Y89920000D01*
X48644341Y89920000D01*
X48664936Y89684597D01*
X48664938Y89684587D01*
X48726094Y89456345D01*
X48726096Y89456341D01*
X48726097Y89456337D01*
X48806389Y89284151D01*
X48825965Y89242170D01*
X48825967Y89242166D01*
X48878142Y89167653D01*
X48961501Y89048604D01*
X48961506Y89048598D01*
X49083818Y88926286D01*
X49117303Y88864963D01*
X49112319Y88795271D01*
X49070447Y88739338D01*
X49039471Y88722423D01*
X48907912Y88673354D01*
X48907906Y88673351D01*
X48792812Y88587191D01*
X48792809Y88587188D01*
X48706649Y88472094D01*
X48706645Y88472087D01*
X48656403Y88337380D01*
X48656401Y88337373D01*
X48650000Y88277845D01*
X48650000Y87630000D01*
X49566988Y87630000D01*
X49534075Y87572993D01*
X49500000Y87445826D01*
X49500000Y87314174D01*
X49534075Y87187007D01*
X49566988Y87130000D01*
X48650000Y87130000D01*
X48650000Y86482156D01*
X48656401Y86422628D01*
X48656403Y86422621D01*
X48706645Y86287914D01*
X48706649Y86287907D01*
X48792809Y86172813D01*
X48792812Y86172810D01*
X48907906Y86086650D01*
X48907913Y86086646D01*
X49042620Y86036404D01*
X49042627Y86036402D01*
X49102155Y86030001D01*
X49102172Y86030000D01*
X49750000Y86030000D01*
X49750000Y86946988D01*
X49807007Y86914075D01*
X49934174Y86880000D01*
X50065826Y86880000D01*
X50192993Y86914075D01*
X50250000Y86946988D01*
X50250000Y86030000D01*
X50897828Y86030000D01*
X50897844Y86030001D01*
X50957372Y86036402D01*
X50957379Y86036404D01*
X51092086Y86086646D01*
X51092093Y86086650D01*
X51207187Y86172810D01*
X51207190Y86172813D01*
X51293350Y86287907D01*
X51293354Y86287914D01*
X51343596Y86422621D01*
X51343598Y86422628D01*
X51349999Y86482156D01*
X51350000Y86482173D01*
X51350000Y87130000D01*
X50433012Y87130000D01*
X50465925Y87187007D01*
X50500000Y87314174D01*
X50500000Y87445826D01*
X50465925Y87572993D01*
X50433012Y87630000D01*
X51350000Y87630000D01*
X51350000Y88277828D01*
X51349999Y88277845D01*
X51343598Y88337373D01*
X51343596Y88337380D01*
X51293354Y88472087D01*
X51293350Y88472094D01*
X51207190Y88587188D01*
X51207187Y88587191D01*
X51092093Y88673351D01*
X51092088Y88673354D01*
X50960528Y88722423D01*
X50904595Y88764295D01*
X50880178Y88829759D01*
X50895030Y88898032D01*
X50916175Y88926280D01*
X51038495Y89048599D01*
X51174035Y89242170D01*
X51273903Y89456337D01*
X51335063Y89684592D01*
X51355659Y89920000D01*
X51335063Y90155408D01*
X51273903Y90383663D01*
X51174035Y90597829D01*
X51130387Y90660166D01*
X51038494Y90791403D01*
X50871402Y90958494D01*
X50871396Y90958499D01*
X50685842Y91088425D01*
X50642217Y91143002D01*
X50635023Y91212500D01*
X50666546Y91274855D01*
X50685842Y91291575D01*
X50708026Y91307109D01*
X50871401Y91421505D01*
X51038495Y91588599D01*
X51174035Y91782170D01*
X51273903Y91996337D01*
X51335063Y92224592D01*
X51355659Y92460000D01*
X51335063Y92695408D01*
X51273903Y92923663D01*
X51174035Y93137829D01*
X51038495Y93331401D01*
X51038494Y93331403D01*
X50871402Y93498494D01*
X50871396Y93498499D01*
X50685842Y93628425D01*
X50642217Y93683002D01*
X50635023Y93752500D01*
X50666546Y93814855D01*
X50685842Y93831575D01*
X50708026Y93847109D01*
X50871401Y93961505D01*
X51038495Y94128599D01*
X51174035Y94322170D01*
X51273903Y94536337D01*
X51335063Y94764592D01*
X51355659Y95000000D01*
X51335063Y95235408D01*
X51273903Y95463663D01*
X51174035Y95677829D01*
X51113284Y95764592D01*
X51038494Y95871403D01*
X50909896Y96000000D01*
X101824341Y96000000D01*
X101844936Y95764597D01*
X101844938Y95764587D01*
X101906094Y95536345D01*
X101906096Y95536341D01*
X101906097Y95536337D01*
X101939985Y95463665D01*
X102005965Y95322170D01*
X102005967Y95322166D01*
X102066712Y95235414D01*
X102141505Y95128599D01*
X102308599Y94961505D01*
X102385135Y94907914D01*
X102502165Y94825968D01*
X102502167Y94825967D01*
X102502170Y94825965D01*
X102716337Y94726097D01*
X102944592Y94664937D01*
X103115319Y94650000D01*
X103179999Y94644341D01*
X103180000Y94644341D01*
X103180001Y94644341D01*
X103244681Y94650000D01*
X103415408Y94664937D01*
X103643663Y94726097D01*
X103857830Y94825965D01*
X104051401Y94961505D01*
X104218495Y95128599D01*
X104348425Y95314158D01*
X104403002Y95357783D01*
X104472500Y95364977D01*
X104534855Y95333454D01*
X104551575Y95314158D01*
X104681500Y95128605D01*
X104681505Y95128599D01*
X104848599Y94961505D01*
X104925135Y94907914D01*
X105042165Y94825968D01*
X105042167Y94825967D01*
X105042170Y94825965D01*
X105256337Y94726097D01*
X105484592Y94664937D01*
X105655319Y94650000D01*
X105719999Y94644341D01*
X105720000Y94644341D01*
X105720001Y94644341D01*
X105784681Y94650000D01*
X105955408Y94664937D01*
X106183663Y94726097D01*
X106397830Y94825965D01*
X106591401Y94961505D01*
X106758495Y95128599D01*
X106888425Y95314158D01*
X106943002Y95357783D01*
X107012500Y95364977D01*
X107074855Y95333454D01*
X107091575Y95314158D01*
X107221500Y95128605D01*
X107221505Y95128599D01*
X107388599Y94961505D01*
X107465135Y94907914D01*
X107582165Y94825968D01*
X107582167Y94825967D01*
X107582170Y94825965D01*
X107796337Y94726097D01*
X108024592Y94664937D01*
X108195319Y94650000D01*
X108259999Y94644341D01*
X108260000Y94644341D01*
X108260001Y94644341D01*
X108324681Y94650000D01*
X108495408Y94664937D01*
X108723663Y94726097D01*
X108937830Y94825965D01*
X109131401Y94961505D01*
X109253717Y95083822D01*
X109315036Y95117304D01*
X109384728Y95112320D01*
X109440662Y95070449D01*
X109457577Y95039472D01*
X109506646Y94907912D01*
X109506649Y94907907D01*
X109592809Y94792813D01*
X109592812Y94792810D01*
X109707906Y94706650D01*
X109707913Y94706646D01*
X109842620Y94656404D01*
X109842627Y94656402D01*
X109902155Y94650001D01*
X109902172Y94650000D01*
X110550000Y94650000D01*
X110550000Y95566988D01*
X110607007Y95534075D01*
X110734174Y95500000D01*
X110865826Y95500000D01*
X110992993Y95534075D01*
X111050000Y95566988D01*
X111050000Y94650000D01*
X111697828Y94650000D01*
X111697844Y94650001D01*
X111757372Y94656402D01*
X111757379Y94656404D01*
X111892086Y94706646D01*
X111892093Y94706650D01*
X112007187Y94792810D01*
X112007190Y94792813D01*
X112093350Y94907907D01*
X112093354Y94907914D01*
X112143596Y95042621D01*
X112143598Y95042628D01*
X112149999Y95102156D01*
X112150000Y95102173D01*
X112150000Y95750000D01*
X111233012Y95750000D01*
X111265925Y95807007D01*
X111300000Y95934174D01*
X111300000Y96065826D01*
X111265925Y96192993D01*
X111233012Y96250000D01*
X112150000Y96250000D01*
X112150000Y96897828D01*
X112149999Y96897845D01*
X112143598Y96957373D01*
X112143596Y96957380D01*
X112093354Y97092087D01*
X112093350Y97092094D01*
X112007190Y97207188D01*
X112007187Y97207191D01*
X111892093Y97293351D01*
X111892086Y97293355D01*
X111757379Y97343597D01*
X111757372Y97343599D01*
X111697844Y97350000D01*
X111050000Y97350000D01*
X111050000Y96433012D01*
X110992993Y96465925D01*
X110865826Y96500000D01*
X110734174Y96500000D01*
X110607007Y96465925D01*
X110550000Y96433012D01*
X110550000Y97350000D01*
X109902155Y97350000D01*
X109842627Y97343599D01*
X109842620Y97343597D01*
X109707913Y97293355D01*
X109707906Y97293351D01*
X109592812Y97207191D01*
X109592809Y97207188D01*
X109506649Y97092094D01*
X109506645Y97092087D01*
X109457578Y96960530D01*
X109415707Y96904596D01*
X109350242Y96880179D01*
X109281969Y96895031D01*
X109253715Y96916181D01*
X109209366Y96960530D01*
X109131401Y97038495D01*
X109131397Y97038498D01*
X109131396Y97038499D01*
X108937834Y97174033D01*
X108937830Y97174035D01*
X108866727Y97207191D01*
X108723663Y97273903D01*
X108723659Y97273904D01*
X108723655Y97273906D01*
X108495413Y97335062D01*
X108495403Y97335064D01*
X108260001Y97355659D01*
X108259999Y97355659D01*
X108024596Y97335064D01*
X108024586Y97335062D01*
X107796344Y97273906D01*
X107796335Y97273902D01*
X107582171Y97174036D01*
X107582169Y97174035D01*
X107388597Y97038495D01*
X107221505Y96871403D01*
X107091575Y96685842D01*
X107036998Y96642217D01*
X106967500Y96635023D01*
X106905145Y96666546D01*
X106888425Y96685842D01*
X106758494Y96871403D01*
X106591402Y97038494D01*
X106591395Y97038499D01*
X106397834Y97174033D01*
X106397830Y97174035D01*
X106326727Y97207191D01*
X106183663Y97273903D01*
X106183659Y97273904D01*
X106183655Y97273906D01*
X105955413Y97335062D01*
X105955403Y97335064D01*
X105720001Y97355659D01*
X105719999Y97355659D01*
X105484596Y97335064D01*
X105484586Y97335062D01*
X105256344Y97273906D01*
X105256335Y97273902D01*
X105042171Y97174036D01*
X105042169Y97174035D01*
X104848597Y97038495D01*
X104681505Y96871403D01*
X104551575Y96685842D01*
X104496998Y96642217D01*
X104427500Y96635023D01*
X104365145Y96666546D01*
X104348425Y96685842D01*
X104218494Y96871403D01*
X104051402Y97038494D01*
X104051395Y97038499D01*
X103857834Y97174033D01*
X103857830Y97174035D01*
X103786727Y97207191D01*
X103643663Y97273903D01*
X103643659Y97273904D01*
X103643655Y97273906D01*
X103415413Y97335062D01*
X103415403Y97335064D01*
X103180001Y97355659D01*
X103179999Y97355659D01*
X102944596Y97335064D01*
X102944586Y97335062D01*
X102716344Y97273906D01*
X102716335Y97273902D01*
X102502171Y97174036D01*
X102502169Y97174035D01*
X102308597Y97038495D01*
X102141505Y96871403D01*
X102005965Y96677831D01*
X102005964Y96677829D01*
X101906098Y96463665D01*
X101906094Y96463656D01*
X101844938Y96235414D01*
X101844936Y96235404D01*
X101824341Y96000001D01*
X101824341Y96000000D01*
X50909896Y96000000D01*
X50871402Y96038494D01*
X50871395Y96038499D01*
X50677834Y96174033D01*
X50677830Y96174035D01*
X50677828Y96174036D01*
X50463663Y96273903D01*
X50463659Y96273904D01*
X50463655Y96273906D01*
X50235413Y96335062D01*
X50235403Y96335064D01*
X50000001Y96355659D01*
X49999999Y96355659D01*
X49764596Y96335064D01*
X49764586Y96335062D01*
X49536344Y96273906D01*
X49536335Y96273902D01*
X49322171Y96174036D01*
X49322169Y96174035D01*
X49128597Y96038495D01*
X48961505Y95871403D01*
X48825965Y95677831D01*
X48825964Y95677829D01*
X48726098Y95463665D01*
X48726094Y95463656D01*
X48664938Y95235414D01*
X48664936Y95235404D01*
X48644341Y95000001D01*
X48644341Y95000000D01*
X48664936Y94764597D01*
X48664938Y94764587D01*
X48726094Y94536345D01*
X48726096Y94536341D01*
X48726097Y94536337D01*
X48825965Y94322170D01*
X48825967Y94322166D01*
X48961501Y94128605D01*
X48961506Y94128598D01*
X49128597Y93961507D01*
X49128603Y93961502D01*
X49314158Y93831575D01*
X49357783Y93776998D01*
X49364977Y93707500D01*
X49333454Y93645145D01*
X49314158Y93628425D01*
X49128597Y93498495D01*
X48961505Y93331403D01*
X48825965Y93137831D01*
X48825964Y93137829D01*
X48726098Y92923665D01*
X48726094Y92923656D01*
X48664938Y92695414D01*
X48664936Y92695404D01*
X48644341Y92460001D01*
X48644341Y92460000D01*
X48664936Y92224597D01*
X48664938Y92224587D01*
X48726094Y91996345D01*
X48726096Y91996341D01*
X48726097Y91996337D01*
X48816874Y91801665D01*
X48825965Y91782170D01*
X48825967Y91782166D01*
X48961501Y91588605D01*
X48961506Y91588598D01*
X49128597Y91421507D01*
X49128603Y91421502D01*
X49314158Y91291575D01*
X49357783Y91236998D01*
X49364977Y91167500D01*
X49333454Y91105145D01*
X49314158Y91088425D01*
X49128597Y90958495D01*
X48961505Y90791403D01*
X48825965Y90597831D01*
X48825964Y90597829D01*
X48726098Y90383665D01*
X48726094Y90383656D01*
X48664938Y90155414D01*
X48664936Y90155404D01*
X48644341Y89920001D01*
X48644341Y89920000D01*
X43948134Y89920000D01*
X43881832Y89966425D01*
X43838207Y90021002D01*
X43831013Y90090500D01*
X43862536Y90152855D01*
X43881832Y90169575D01*
X43904016Y90185109D01*
X44067391Y90299505D01*
X44234485Y90466599D01*
X44370025Y90660170D01*
X44469893Y90874337D01*
X44531053Y91102592D01*
X44551649Y91338000D01*
X44531053Y91573408D01*
X44469893Y91801663D01*
X44370025Y92015829D01*
X44234485Y92209401D01*
X44234484Y92209403D01*
X44067392Y92376494D01*
X44067385Y92376499D01*
X43873824Y92512033D01*
X43873820Y92512035D01*
X43873818Y92512036D01*
X43659653Y92611903D01*
X43659649Y92611904D01*
X43659645Y92611906D01*
X43431403Y92673062D01*
X43431393Y92673064D01*
X43195991Y92693659D01*
X43195989Y92693659D01*
X42960586Y92673064D01*
X42960576Y92673062D01*
X42732334Y92611906D01*
X42732325Y92611902D01*
X42518161Y92512036D01*
X42518159Y92512035D01*
X42324587Y92376495D01*
X42157495Y92209403D01*
X42021955Y92015831D01*
X42021954Y92015829D01*
X41922088Y91801665D01*
X41922084Y91801656D01*
X41860928Y91573414D01*
X41860926Y91573404D01*
X41840331Y91338001D01*
X41840331Y91338000D01*
X41860926Y91102597D01*
X41860928Y91102587D01*
X41922084Y90874345D01*
X41922086Y90874341D01*
X41922087Y90874337D01*
X41960760Y90791403D01*
X42021955Y90660170D01*
X42021957Y90660166D01*
X42157491Y90466605D01*
X42157496Y90466598D01*
X42324587Y90299507D01*
X42324593Y90299502D01*
X42510148Y90169575D01*
X42553773Y90114998D01*
X42560967Y90045500D01*
X42529444Y89983145D01*
X42510148Y89966425D01*
X42324587Y89836495D01*
X42157495Y89669403D01*
X42021955Y89475831D01*
X42021954Y89475829D01*
X41922088Y89261665D01*
X41922084Y89261656D01*
X41860928Y89033414D01*
X41860926Y89033404D01*
X41840331Y88798001D01*
X41840331Y88798000D01*
X41860926Y88562597D01*
X41860928Y88562587D01*
X41922084Y88334345D01*
X41922086Y88334341D01*
X41922087Y88334337D01*
X41932624Y88311741D01*
X42021955Y88120170D01*
X42021957Y88120166D01*
X42128656Y87967786D01*
X42137958Y87954500D01*
X42157491Y87926605D01*
X42157496Y87926598D01*
X42324587Y87759507D01*
X42324593Y87759502D01*
X42510148Y87629575D01*
X42553773Y87574998D01*
X42560967Y87505500D01*
X42529444Y87443145D01*
X42510148Y87426425D01*
X42324587Y87296495D01*
X42157495Y87129403D01*
X42021955Y86935831D01*
X42021954Y86935829D01*
X41922088Y86721665D01*
X41922084Y86721656D01*
X41860928Y86493414D01*
X41860926Y86493404D01*
X41840331Y86258001D01*
X41840331Y86258000D01*
X41860926Y86022597D01*
X41860928Y86022587D01*
X41922084Y85794345D01*
X41922086Y85794341D01*
X41922087Y85794337D01*
X42021955Y85580170D01*
X42021957Y85580166D01*
X42106098Y85460001D01*
X42137958Y85414500D01*
X42157491Y85386605D01*
X42157496Y85386598D01*
X42324587Y85219507D01*
X42324593Y85219502D01*
X42510148Y85089575D01*
X42553773Y85034998D01*
X42560967Y84965500D01*
X42529444Y84903145D01*
X42510148Y84886425D01*
X42324587Y84756495D01*
X42157495Y84589403D01*
X42021955Y84395831D01*
X42021954Y84395829D01*
X41922088Y84181665D01*
X41922084Y84181656D01*
X41860928Y83953414D01*
X41860926Y83953404D01*
X41840331Y83718001D01*
X41840331Y83718000D01*
X41860926Y83482597D01*
X41860928Y83482587D01*
X41922084Y83254345D01*
X41922086Y83254341D01*
X41922087Y83254337D01*
X42021955Y83040170D01*
X42021957Y83040166D01*
X42106098Y82920001D01*
X42137958Y82874500D01*
X42157491Y82846605D01*
X42157496Y82846598D01*
X42324587Y82679507D01*
X42324593Y82679502D01*
X42510148Y82549575D01*
X42553773Y82494998D01*
X42560967Y82425500D01*
X42529444Y82363145D01*
X42510148Y82346425D01*
X42324587Y82216495D01*
X42157495Y82049403D01*
X42021955Y81855831D01*
X42021954Y81855829D01*
X41922088Y81641665D01*
X41922084Y81641656D01*
X41860928Y81413414D01*
X41860926Y81413404D01*
X41840331Y81178001D01*
X41840331Y81178000D01*
X1270000Y81178000D01*
X1270000Y97666000D01*
X1289685Y97733039D01*
X1342489Y97778794D01*
X1394000Y97790000D01*
X112652000Y97790000D01*
X112719039Y97770315D01*
G37*
%TD.AperFunction*%
%TD*%
M02*
