%TF.GenerationSoftware,KiCad,Pcbnew,8.0.0*%
%TF.CreationDate,2024-03-04T10:44:04-06:00*%
%TF.ProjectId,controlSemaforicoMEga,636f6e74-726f-46c5-9365-6d61666f7269,rev?*%
%TF.SameCoordinates,PX4ef7d2aPY852b4f0*%
%TF.FileFunction,Legend,Bot*%
%TF.FilePolarity,Positive*%
%FSLAX46Y46*%
G04 Gerber Fmt 4.6, Leading zero omitted, Abs format (unit mm)*
G04 Created by KiCad (PCBNEW 8.0.0) date 2024-03-04 10:44:04*
%MOMM*%
%LPD*%
G01*
G04 APERTURE LIST*
%ADD10C,0.150000*%
%ADD11C,0.254000*%
%ADD12C,0.120000*%
G04 APERTURE END LIST*
D10*
X72000000Y95500000D02*
X110000000Y95500000D01*
X110000000Y73500000D01*
X72000000Y73500000D01*
X72000000Y95500000D01*
D11*
X11988800Y-4622800D02*
X13360400Y-5994400D01*
X13360400Y-5994400D02*
X101625400Y-5994400D01*
X102997000Y5003800D02*
X113995200Y5003800D01*
X0Y99009200D02*
X113995200Y99009200D01*
X0Y0D02*
X0Y99009200D01*
X7010400Y0D02*
X7010400Y4953000D01*
X103000000Y-4632000D02*
X103000000Y5000000D01*
X0Y0D02*
X7010400Y0D01*
X7010400Y4953000D02*
X11988800Y4953000D01*
X11988800Y-4622800D02*
X11988800Y4953000D01*
X101625400Y-5994400D02*
X102997000Y-4622800D01*
X113995200Y5003800D02*
X113995200Y99009200D01*
D10*
X74833333Y78595181D02*
X74833333Y77880896D01*
X74833333Y77880896D02*
X74880952Y77738039D01*
X74880952Y77738039D02*
X74976190Y77642800D01*
X74976190Y77642800D02*
X75119047Y77595181D01*
X75119047Y77595181D02*
X75214285Y77595181D01*
X73928571Y78261848D02*
X73928571Y77595181D01*
X74166666Y78642800D02*
X74404761Y77928515D01*
X74404761Y77928515D02*
X73785714Y77928515D01*
D12*
%TO.C,J4*%
X73170000Y89330000D02*
X73170000Y81650000D01*
X73170000Y79050000D02*
X73170000Y80380000D01*
X74500000Y79050000D02*
X73170000Y79050000D01*
X75830000Y89330000D02*
X73170000Y89330000D01*
X75830000Y89330000D02*
X75830000Y81650000D01*
X75830000Y81650000D02*
X73170000Y81650000D01*
%TD*%
M02*
