%TF.GenerationSoftware,KiCad,Pcbnew,7.0.10*%
%TF.CreationDate,2024-01-17T10:32:49-06:00*%
%TF.ProjectId,controlSemaforicoMEga,636f6e74-726f-46c5-9365-6d61666f7269,rev?*%
%TF.SameCoordinates,PX4ef7d2aPY852b4f0*%
%TF.FileFunction,Copper,L2,Bot*%
%TF.FilePolarity,Positive*%
%FSLAX46Y46*%
G04 Gerber Fmt 4.6, Leading zero omitted, Abs format (unit mm)*
G04 Created by KiCad (PCBNEW 7.0.10) date 2024-01-17 10:32:49*
%MOMM*%
%LPD*%
G01*
G04 APERTURE LIST*
%TA.AperFunction,ComponentPad*%
%ADD10O,1.727200X1.727200*%
%TD*%
%TA.AperFunction,ComponentPad*%
%ADD11R,1.727200X1.727200*%
%TD*%
%TA.AperFunction,SMDPad,CuDef*%
%ADD12R,3.000000X13.000000*%
%TD*%
%TA.AperFunction,SMDPad,CuDef*%
%ADD13O,3.000000X13.000000*%
%TD*%
%TA.AperFunction,Conductor*%
%ADD14C,0.203200*%
%TD*%
%TA.AperFunction,Conductor*%
%ADD15C,0.250000*%
%TD*%
G04 APERTURE END LIST*
D10*
%TO.P,A1,*%
%TO.N,*%
X76707990Y79186000D03*
%TO.P,A1,3V3,3.3V*%
%TO.N,unconnected-(A1-3.3V-Pad3V3)*%
X69087990Y79186000D03*
%TO.P,A1,5V1,5V*%
%TO.N,unconnected-(A1-5V-Pad5V1)*%
X66547990Y79186000D03*
%TO.P,A1,5V2,SPI_5V*%
%TO.N,unconnected-(A1-SPI_5V-Pad5V2)*%
X38480990Y51246000D03*
%TO.P,A1,5V3,5V*%
%TO.N,VCC*%
X10667990Y30926000D03*
%TO.P,A1,5V4,5V*%
%TO.N,unconnected-(A1-5V-Pad5V4)*%
X8127990Y30926000D03*
%TO.P,A1,A0,A0*%
%TO.N,unconnected-(A1-PadA0)*%
X53847990Y79186000D03*
%TO.P,A1,A1,A1*%
%TO.N,unconnected-(A1-PadA1)*%
X51307990Y79186000D03*
%TO.P,A1,A2,A2*%
%TO.N,unconnected-(A1-PadA2)*%
X48767990Y79186000D03*
%TO.P,A1,A3,A3*%
%TO.N,unconnected-(A1-PadA3)*%
X46227990Y79186000D03*
%TO.P,A1,A4,A4*%
%TO.N,unconnected-(A1-PadA4)*%
X43687990Y79186000D03*
%TO.P,A1,A5,A5*%
%TO.N,unconnected-(A1-PadA5)*%
X41147990Y79186000D03*
%TO.P,A1,A6,A6*%
%TO.N,unconnected-(A1-PadA6)*%
X38607990Y79186000D03*
%TO.P,A1,A7,A7*%
%TO.N,unconnected-(A1-PadA7)*%
X36067990Y79186000D03*
%TO.P,A1,A8,A8*%
%TO.N,unconnected-(A1-PadA8)*%
X30987990Y79186000D03*
%TO.P,A1,A9,A9*%
%TO.N,unconnected-(A1-PadA9)*%
X28447990Y79186000D03*
%TO.P,A1,A10,A10*%
%TO.N,unconnected-(A1-PadA10)*%
X25907990Y79186000D03*
%TO.P,A1,A11,A11*%
%TO.N,unconnected-(A1-PadA11)*%
X23367990Y79186000D03*
%TO.P,A1,A12,A12*%
%TO.N,unconnected-(A1-PadA12)*%
X20827990Y79186000D03*
%TO.P,A1,A13,A13*%
%TO.N,unconnected-(A1-PadA13)*%
X18287990Y79186000D03*
%TO.P,A1,A14,A14*%
%TO.N,unconnected-(A1-PadA14)*%
X15747990Y79186000D03*
%TO.P,A1,A15,A15*%
%TO.N,unconnected-(A1-PadA15)*%
X13207990Y79186000D03*
%TO.P,A1,AREF,AREF*%
%TO.N,unconnected-(A1-PadAREF)*%
X80771990Y30926000D03*
%TO.P,A1,D0,D0/RX0*%
%TO.N,unconnected-(A1-D0{slash}RX0-PadD0)*%
X41147990Y30926000D03*
%TO.P,A1,D1,D1/TX0*%
%TO.N,unconnected-(A1-D1{slash}TX0-PadD1)*%
X43687990Y30926000D03*
%TO.P,A1,D2,D2_INT0*%
%TO.N,Net-(A1-D2_INT0)*%
X46227990Y30926000D03*
%TO.P,A1,D3,D3_INT1*%
%TO.N,Net-(A1-D3_INT1)*%
X48767990Y30926000D03*
%TO.P,A1,D4,D4*%
%TO.N,Net-(J2-Pin_4)*%
X51307990Y30926000D03*
%TO.P,A1,D5,D5*%
%TO.N,Net-(J2-Pin_5)*%
X53847990Y30926000D03*
%TO.P,A1,D6,D6*%
%TO.N,Net-(J2-Pin_6)*%
X56387990Y30926000D03*
%TO.P,A1,D7,D7*%
%TO.N,Net-(J2-Pin_7)*%
X58927990Y30926000D03*
%TO.P,A1,D8,D8*%
%TO.N,Net-(J2-Pin_8)*%
X62991990Y30926000D03*
%TO.P,A1,D9,D9*%
%TO.N,Net-(J2-Pin_9)*%
X65531990Y30926000D03*
%TO.P,A1,D10,D10*%
%TO.N,Net-(J2-Pin_10)*%
X68071990Y30926000D03*
%TO.P,A1,D11,D11*%
%TO.N,Net-(J2-Pin_11)*%
X70611990Y30926000D03*
%TO.P,A1,D12,D12*%
%TO.N,Net-(J2-Pin_12)*%
X73151990Y30926000D03*
%TO.P,A1,D13,D13*%
%TO.N,Net-(J2-Pin_13)*%
X75691990Y30926000D03*
%TO.P,A1,D14,D14/TX3*%
%TO.N,unconnected-(A1-D14{slash}TX3-PadD14)*%
X36067990Y30926000D03*
%TO.P,A1,D15,D15/RX3*%
%TO.N,unconnected-(A1-D15{slash}RX3-PadD15)*%
X33527990Y30926000D03*
%TO.P,A1,D16,D16/TX2*%
%TO.N,unconnected-(A1-D16{slash}TX2-PadD16)*%
X30987990Y30926000D03*
%TO.P,A1,D17,D17/RX2*%
%TO.N,unconnected-(A1-D17{slash}RX2-PadD17)*%
X28447990Y30926000D03*
%TO.P,A1,D18,D18/TX1*%
%TO.N,unconnected-(A1-D18{slash}TX1-PadD18)*%
X25907990Y30926000D03*
%TO.P,A1,D19,D19/RX1*%
%TO.N,unconnected-(A1-D19{slash}RX1-PadD19)*%
X23367990Y30926000D03*
%TO.P,A1,D20,D20/SDA*%
%TO.N,unconnected-(A1-D20{slash}SDA-PadD20)*%
X20827990Y30926000D03*
%TO.P,A1,D21,D21/SCL*%
%TO.N,unconnected-(A1-D21{slash}SCL-PadD21)*%
X18287990Y30926000D03*
%TO.P,A1,D22,D22*%
%TO.N,Net-(J2-Pin_14)*%
X10667990Y33466000D03*
%TO.P,A1,D23,D23*%
%TO.N,Net-(J2-Pin_15)*%
X8127990Y33466000D03*
%TO.P,A1,D24,D24*%
%TO.N,Net-(J2-Pin_16)*%
X10667990Y36006000D03*
%TO.P,A1,D25,D25*%
%TO.N,Net-(J2-Pin_17)*%
X8127990Y36006000D03*
%TO.P,A1,D26,D26*%
%TO.N,Net-(J2-Pin_18)*%
X10667990Y38546000D03*
%TO.P,A1,D27,D27*%
%TO.N,Net-(J2-Pin_19)*%
X8127990Y38546000D03*
%TO.P,A1,D28,D28*%
%TO.N,Net-(J2-Pin_20)*%
X10667990Y41086000D03*
%TO.P,A1,D29,D29*%
%TO.N,Net-(J2-Pin_21)*%
X8127990Y41086000D03*
%TO.P,A1,D30,D30*%
%TO.N,Net-(J2-Pin_23)*%
X10667990Y43626000D03*
%TO.P,A1,D31,D31*%
%TO.N,Net-(J2-Pin_24)*%
X8127990Y43626000D03*
%TO.P,A1,D32,D32*%
%TO.N,Net-(J2-Pin_25)*%
X10667990Y46166000D03*
%TO.P,A1,D33,D33*%
%TO.N,Net-(J2-Pin_26)*%
X8127990Y46166000D03*
%TO.P,A1,D34,D34*%
%TO.N,Net-(J2-Pin_27)*%
X10667990Y48706000D03*
%TO.P,A1,D35,D35*%
%TO.N,Net-(J2-Pin_28)*%
X8127990Y48706000D03*
%TO.P,A1,D36,D36*%
%TO.N,Net-(J2-Pin_29)*%
X10667990Y51246000D03*
%TO.P,A1,D37,D37*%
%TO.N,Net-(J2-Pin_30)*%
X8127990Y51246000D03*
%TO.P,A1,D38,D38*%
%TO.N,Net-(J2-Pin_31)*%
X10667990Y53786000D03*
%TO.P,A1,D39,D39*%
%TO.N,Net-(J2-Pin_32)*%
X8127990Y53786000D03*
%TO.P,A1,D40,D40*%
%TO.N,Net-(J2-Pin_33)*%
X10667990Y56326000D03*
%TO.P,A1,D41,D41*%
%TO.N,Net-(J2-Pin_34)*%
X8127990Y56326000D03*
%TO.P,A1,D42,D42*%
%TO.N,unconnected-(A1-PadD42)*%
X10667990Y58866000D03*
%TO.P,A1,D43,D43*%
%TO.N,unconnected-(A1-PadD43)*%
X8127990Y58866000D03*
%TO.P,A1,D44,D44*%
%TO.N,unconnected-(A1-PadD44)*%
X10667990Y61406000D03*
%TO.P,A1,D45,D45*%
%TO.N,unconnected-(A1-PadD45)*%
X8127990Y61406000D03*
%TO.P,A1,D46,D46*%
%TO.N,unconnected-(A1-PadD46)*%
X10667990Y63946000D03*
%TO.P,A1,D47,D47*%
%TO.N,unconnected-(A1-PadD47)*%
X8127990Y63946000D03*
%TO.P,A1,D48,D48*%
%TO.N,unconnected-(A1-PadD48)*%
X10667990Y66486000D03*
%TO.P,A1,D49,D49*%
%TO.N,unconnected-(A1-PadD49)*%
X8127990Y66486000D03*
%TO.P,A1,D50,D50_MISO*%
%TO.N,unconnected-(A1-D50_MISO-PadD50)*%
X10667990Y69026000D03*
%TO.P,A1,D51,D51_MOSI*%
%TO.N,unconnected-(A1-D51_MOSI-PadD51)*%
X8127990Y69026000D03*
%TO.P,A1,D52,D52_SCK*%
%TO.N,unconnected-(A1-D52_SCK-PadD52)*%
X10667990Y71566000D03*
%TO.P,A1,D53,D53_CS*%
%TO.N,unconnected-(A1-D53_CS-PadD53)*%
X8127990Y71566000D03*
D11*
%TO.P,A1,GND1,GND*%
%TO.N,unconnected-(A1-GND-PadGND1)*%
X78231990Y30926000D03*
%TO.P,A1,GND2,GND*%
%TO.N,unconnected-(A1-GND-PadGND2)*%
X64007990Y79186000D03*
%TO.P,A1,GND3,GND*%
%TO.N,GND*%
X61467990Y79186000D03*
%TO.P,A1,GND4,SPI_GND*%
%TO.N,unconnected-(A1-SPI_GND-PadGND4)*%
X38480990Y56326000D03*
%TO.P,A1,GND5,GND*%
%TO.N,unconnected-(A1-GND-PadGND5)*%
X10667990Y74106000D03*
%TO.P,A1,GND6,GND*%
%TO.N,unconnected-(A1-GND-PadGND6)*%
X8127990Y74106000D03*
D10*
%TO.P,A1,IORF,IOREF*%
%TO.N,unconnected-(A1-IOREF-PadIORF)*%
X74167990Y79186000D03*
%TO.P,A1,MISO,SPI_MISO*%
%TO.N,unconnected-(A1-SPI_MISO-PadMISO)*%
X41020990Y51246000D03*
%TO.P,A1,MOSI,SPI_MOSI*%
%TO.N,unconnected-(A1-SPI_MOSI-PadMOSI)*%
X38480990Y53786000D03*
%TO.P,A1,RST1,RESET*%
%TO.N,unconnected-(A1-RESET-PadRST1)*%
X71627990Y79186000D03*
%TO.P,A1,RST2,SPI_RESET*%
%TO.N,unconnected-(A1-SPI_RESET-PadRST2)*%
X41020990Y56326000D03*
%TO.P,A1,SCK,SPI_SCK*%
%TO.N,unconnected-(A1-SPI_SCK-PadSCK)*%
X41020990Y53786000D03*
%TO.P,A1,SCL,SCL*%
%TO.N,unconnected-(A1-PadSCL)*%
X85851990Y30926000D03*
%TO.P,A1,SDA,SDA*%
%TO.N,unconnected-(A1-PadSDA)*%
X83311990Y30926000D03*
%TO.P,A1,VIN,VIN*%
%TO.N,unconnected-(A1-PadVIN)*%
X58927990Y79186000D03*
%TD*%
D12*
%TO.P,J2,23,Pin_23*%
%TO.N,Net-(J2-Pin_23)*%
X15900000Y700000D03*
D13*
%TO.P,J2,24,Pin_24*%
%TO.N,Net-(J2-Pin_24)*%
X19860000Y700000D03*
%TO.P,J2,25,Pin_25*%
%TO.N,Net-(J2-Pin_25)*%
X23820000Y700000D03*
%TO.P,J2,26,Pin_26*%
%TO.N,Net-(J2-Pin_26)*%
X27780000Y700000D03*
%TO.P,J2,27,Pin_27*%
%TO.N,Net-(J2-Pin_27)*%
X31740000Y700000D03*
%TO.P,J2,28,Pin_28*%
%TO.N,Net-(J2-Pin_28)*%
X35700000Y700000D03*
%TO.P,J2,29,Pin_29*%
%TO.N,Net-(J2-Pin_29)*%
X39660000Y700000D03*
%TO.P,J2,30,Pin_30*%
%TO.N,Net-(J2-Pin_30)*%
X43620000Y700000D03*
%TO.P,J2,31,Pin_31*%
%TO.N,Net-(J2-Pin_31)*%
X47580000Y700000D03*
D12*
%TO.P,J2,32,Pin_32*%
%TO.N,Net-(J2-Pin_32)*%
X51540000Y700000D03*
D13*
%TO.P,J2,33,Pin_33*%
%TO.N,Net-(J2-Pin_33)*%
X55500000Y700000D03*
%TO.P,J2,34,Pin_34*%
%TO.N,Net-(J2-Pin_34)*%
X59460000Y700000D03*
%TO.P,J2,35,Pin_35*%
%TO.N,unconnected-(J2-Pin_35-Pad35)*%
X63420000Y700000D03*
%TO.P,J2,36,Pin_36*%
%TO.N,unconnected-(J2-Pin_36-Pad36)*%
X67379990Y700000D03*
%TO.P,J2,37,Pin_37*%
%TO.N,unconnected-(J2-Pin_37-Pad37)*%
X71339990Y700000D03*
%TO.P,J2,38,Pin_38*%
%TO.N,unconnected-(J2-Pin_38-Pad38)*%
X75299990Y700000D03*
%TO.P,J2,39,Pin_39*%
%TO.N,unconnected-(J2-Pin_39-Pad39)*%
X79259990Y700000D03*
%TO.P,J2,40,Pin_40*%
%TO.N,unconnected-(J2-Pin_40-Pad40)*%
X83219990Y700000D03*
%TO.P,J2,41,Pin_41*%
%TO.N,unconnected-(J2-Pin_41-Pad41)*%
X87179990Y700000D03*
D12*
%TO.P,J2,42,Pin_42*%
%TO.N,unconnected-(J2-Pin_42-Pad42)*%
X91139990Y700000D03*
D13*
%TO.P,J2,43,Pin_43*%
%TO.N,unconnected-(J2-Pin_43-Pad43)*%
X95099990Y700000D03*
%TO.P,J2,44,Pin_44*%
%TO.N,unconnected-(J2-Pin_44-Pad44)*%
X99059990Y700000D03*
%TD*%
D14*
%TO.N,Net-(J2-Pin_4)*%
X51434990Y30926000D02*
X51307990Y30926000D01*
%TO.N,Net-(J2-Pin_5)*%
X53974990Y30926000D02*
X53847990Y30926000D01*
D15*
%TO.N,Net-(J2-Pin_23)*%
X37846000Y33274000D02*
X37846000Y27940000D01*
X10667990Y43626000D02*
X27494000Y43626000D01*
X33782000Y23876000D02*
X21590000Y23876000D01*
X21590000Y23876000D02*
X15900000Y18186000D01*
X15900000Y18186000D02*
X15900000Y700000D01*
X27494000Y43626000D02*
X37846000Y33274000D01*
X37846000Y27940000D02*
X33782000Y23876000D01*
%TO.N,Net-(J2-Pin_24)*%
X38608000Y34036000D02*
X38608000Y27432000D01*
X9366590Y44864600D02*
X27779400Y44864600D01*
X38608000Y27432000D02*
X34036000Y22860000D01*
X19860000Y20622000D02*
X19860000Y700000D01*
X8127990Y43626000D02*
X9366590Y44864600D01*
X22098000Y22860000D02*
X19860000Y20622000D01*
X34036000Y22860000D02*
X22098000Y22860000D01*
X27779400Y44864600D02*
X38608000Y34036000D01*
%TO.N,Net-(J2-Pin_25)*%
X39370000Y26924000D02*
X34290000Y21844000D01*
X26162000Y21844000D02*
X23820000Y19502000D01*
X28002000Y46166000D02*
X39370000Y34798000D01*
X39370000Y34798000D02*
X39370000Y26924000D01*
X23820000Y19502000D02*
X23820000Y700000D01*
X10667990Y46166000D02*
X28002000Y46166000D01*
X34290000Y21844000D02*
X26162000Y21844000D01*
%TO.N,Net-(J2-Pin_26)*%
X52324000Y20828000D02*
X30226000Y20828000D01*
X30226000Y20828000D02*
X27780000Y18382000D01*
X27780000Y18382000D02*
X27780000Y700000D01*
X9366590Y47404600D02*
X28287400Y47404600D01*
X41910000Y33782000D02*
X58928000Y33782000D01*
X60452000Y32258000D02*
X60452000Y28956000D01*
X60452000Y28956000D02*
X52324000Y20828000D01*
X28287400Y47404600D02*
X41910000Y33782000D01*
X58928000Y33782000D02*
X60452000Y32258000D01*
X8127990Y46166000D02*
X9366590Y47404600D01*
%TO.N,Net-(J2-Pin_27)*%
X10667990Y48706000D02*
X28764000Y48706000D01*
X61214000Y32766000D02*
X61214000Y28194000D01*
X61214000Y28194000D02*
X52832000Y19812000D01*
X28764000Y48706000D02*
X42672000Y34798000D01*
X34290000Y19812000D02*
X31750000Y17272000D01*
X31740000Y11166000D02*
X31740000Y700000D01*
X31750000Y11176000D02*
X31740000Y11166000D01*
X59182000Y34798000D02*
X61214000Y32766000D01*
X42672000Y34798000D02*
X59182000Y34798000D01*
X31750000Y17272000D02*
X31750000Y11176000D01*
X52832000Y19812000D02*
X34290000Y19812000D01*
%TO.N,Net-(J2-Pin_28)*%
X42164000Y58674000D02*
X64770000Y36068000D01*
X61214000Y26416000D02*
X53594000Y18796000D01*
X53594000Y18796000D02*
X37846000Y18796000D01*
X64770000Y36068000D02*
X90678000Y36068000D01*
X9366590Y49944600D02*
X27846600Y49944600D01*
X8127990Y48706000D02*
X9366590Y49944600D01*
X90678000Y36068000D02*
X93980000Y32766000D01*
X37846000Y18796000D02*
X35700000Y16650000D01*
X91440000Y26416000D02*
X61214000Y26416000D01*
X36576000Y58674000D02*
X42164000Y58674000D01*
X27846600Y49944600D02*
X36576000Y58674000D01*
X93980000Y28956000D02*
X91440000Y26416000D01*
X35700000Y16650000D02*
X35700000Y700000D01*
X93980000Y32766000D02*
X93980000Y28956000D01*
%TO.N,Net-(J2-Pin_29)*%
X91186000Y37084000D02*
X94996000Y33274000D01*
X91948000Y25400000D02*
X61976000Y25400000D01*
X54356000Y17780000D02*
X41656000Y17780000D01*
X41656000Y17780000D02*
X39660000Y15784000D01*
X10667990Y51246000D02*
X27370000Y51246000D01*
X27370000Y51246000D02*
X36068000Y59944000D01*
X94996000Y33274000D02*
X94996000Y28448000D01*
X65278000Y37084000D02*
X91186000Y37084000D01*
X36068000Y59944000D02*
X42418000Y59944000D01*
X61976000Y25400000D02*
X54356000Y17780000D01*
X94996000Y28448000D02*
X91948000Y25400000D01*
X42418000Y59944000D02*
X65278000Y37084000D01*
X39660000Y15784000D02*
X39660000Y700000D01*
%TO.N,Net-(J2-Pin_30)*%
X91694000Y38100000D02*
X96012000Y33782000D01*
X62738000Y24384000D02*
X55118000Y16764000D01*
X96012000Y27940000D02*
X92456000Y24384000D01*
X55118000Y16764000D02*
X45720000Y16764000D01*
X35306000Y60960000D02*
X43180000Y60960000D01*
X45720000Y16764000D02*
X43620000Y14664000D01*
X43180000Y60960000D02*
X66040000Y38100000D01*
X66040000Y38100000D02*
X91694000Y38100000D01*
X92456000Y24384000D02*
X62738000Y24384000D01*
X96012000Y33782000D02*
X96012000Y27940000D01*
X26830600Y52484600D02*
X35306000Y60960000D01*
X8127990Y51246000D02*
X9366590Y52484600D01*
X43620000Y14664000D02*
X43620000Y700000D01*
X9366590Y52484600D02*
X26830600Y52484600D01*
%TO.N,Net-(J2-Pin_31)*%
X63246000Y23368000D02*
X55626000Y15748000D01*
X97028000Y34290000D02*
X97028000Y27432000D01*
X55626000Y15748000D02*
X49530000Y15748000D01*
X43942000Y61976000D02*
X66802000Y39116000D01*
X92202000Y39116000D02*
X97028000Y34290000D01*
X26354000Y53786000D02*
X34544000Y61976000D01*
X34544000Y61976000D02*
X43942000Y61976000D01*
X66802000Y39116000D02*
X92202000Y39116000D01*
X49530000Y15748000D02*
X47580000Y13798000D01*
X92964000Y23368000D02*
X63246000Y23368000D01*
X10667990Y53786000D02*
X26354000Y53786000D01*
X97028000Y27432000D02*
X92964000Y23368000D01*
X47580000Y13798000D02*
X47580000Y700000D01*
%TO.N,Net-(J2-Pin_32)*%
X25814600Y55024600D02*
X34036000Y63246000D01*
X44450000Y63246000D02*
X67564000Y40132000D01*
X34036000Y63246000D02*
X44450000Y63246000D01*
X92710000Y40132000D02*
X98044000Y34798000D01*
X67564000Y40132000D02*
X92710000Y40132000D01*
X56134000Y14732000D02*
X53086000Y14732000D01*
X63754000Y22352000D02*
X56134000Y14732000D01*
X53086000Y14732000D02*
X51540000Y13186000D01*
X98044000Y34798000D02*
X98044000Y26924000D01*
X98044000Y26924000D02*
X93472000Y22352000D01*
X8127990Y53786000D02*
X9366590Y55024600D01*
X9366590Y55024600D02*
X25814600Y55024600D01*
X93472000Y22352000D02*
X63754000Y22352000D01*
X51540000Y13186000D02*
X51540000Y700000D01*
%TO.N,Net-(J2-Pin_33)*%
X55500000Y12574000D02*
X55500000Y700000D01*
X44958000Y64516000D02*
X68326000Y41148000D01*
X99060000Y26416000D02*
X93980000Y21336000D01*
X99060000Y35306000D02*
X99060000Y26416000D01*
X25338000Y56326000D02*
X33528000Y64516000D01*
X93218000Y41148000D02*
X99060000Y35306000D01*
X33528000Y64516000D02*
X44958000Y64516000D01*
X10667990Y56326000D02*
X25338000Y56326000D01*
X64262000Y21336000D02*
X55500000Y12574000D01*
X93980000Y21336000D02*
X64262000Y21336000D01*
X68326000Y41148000D02*
X93218000Y41148000D01*
%TO.N,Net-(J2-Pin_34)*%
X93980000Y42164000D02*
X100076000Y36068000D01*
X100076000Y25908000D02*
X94488000Y20320000D01*
X94488000Y20320000D02*
X64770000Y20320000D01*
X9366590Y57564600D02*
X24798600Y57564600D01*
X45466000Y65786000D02*
X69088000Y42164000D01*
X59460000Y15010000D02*
X59460000Y700000D01*
X24798600Y57564600D02*
X33020000Y65786000D01*
X100076000Y36068000D02*
X100076000Y25908000D01*
X33020000Y65786000D02*
X45466000Y65786000D01*
X69088000Y42164000D02*
X93980000Y42164000D01*
X8127990Y56326000D02*
X9366590Y57564600D01*
X64770000Y20320000D02*
X59460000Y15010000D01*
%TD*%
%TA.AperFunction,Conductor*%
%TO.N,GND*%
G36*
X112719039Y97770315D02*
G01*
X112764794Y97717511D01*
X112776000Y97666000D01*
X112776000Y6474000D01*
X112756315Y6406961D01*
X112703511Y6361206D01*
X112652000Y6350000D01*
X104177544Y6350000D01*
X104110505Y6369685D01*
X104108761Y6370826D01*
X100330000Y8890000D01*
X60209500Y8890000D01*
X60142461Y8909685D01*
X60096706Y8962489D01*
X60085500Y9014000D01*
X60085500Y14699548D01*
X60105185Y14766587D01*
X60121819Y14787229D01*
X64992772Y19658181D01*
X65054095Y19691666D01*
X65080453Y19694500D01*
X94405257Y19694500D01*
X94420877Y19692776D01*
X94420904Y19693061D01*
X94428660Y19692329D01*
X94428667Y19692327D01*
X94495873Y19694439D01*
X94499768Y19694500D01*
X94527346Y19694500D01*
X94527350Y19694500D01*
X94531324Y19695003D01*
X94542963Y19695920D01*
X94586627Y19697291D01*
X94605869Y19702883D01*
X94624912Y19706826D01*
X94644792Y19709336D01*
X94685401Y19725415D01*
X94696444Y19729197D01*
X94738390Y19741382D01*
X94755629Y19751578D01*
X94773103Y19760138D01*
X94791727Y19767512D01*
X94791727Y19767513D01*
X94791732Y19767514D01*
X94827083Y19793200D01*
X94836814Y19799592D01*
X94874420Y19821830D01*
X94888589Y19836001D01*
X94903379Y19848632D01*
X94919587Y19860406D01*
X94947438Y19894074D01*
X94955279Y19902691D01*
X100459788Y25407199D01*
X100472042Y25417014D01*
X100471859Y25417236D01*
X100477868Y25422209D01*
X100477877Y25422214D01*
X100523949Y25471278D01*
X100526566Y25473977D01*
X100546120Y25493529D01*
X100548576Y25496697D01*
X100556156Y25505573D01*
X100586062Y25537418D01*
X100595713Y25554976D01*
X100606396Y25571239D01*
X100618673Y25587064D01*
X100636021Y25627156D01*
X100641151Y25637629D01*
X100662197Y25675908D01*
X100667180Y25695320D01*
X100673481Y25713720D01*
X100681437Y25732104D01*
X100688270Y25775252D01*
X100690633Y25786662D01*
X100701500Y25828981D01*
X100701500Y25849017D01*
X100703027Y25868418D01*
X100706160Y25888196D01*
X100702050Y25931676D01*
X100701500Y25943345D01*
X100701500Y35985258D01*
X100703224Y36000878D01*
X100702939Y36000904D01*
X100703671Y36008660D01*
X100703673Y36008667D01*
X100701561Y36075874D01*
X100701500Y36079769D01*
X100701500Y36107346D01*
X100701500Y36107350D01*
X100700996Y36111335D01*
X100700080Y36122979D01*
X100698709Y36166627D01*
X100693122Y36185856D01*
X100689174Y36204916D01*
X100686663Y36224796D01*
X100670588Y36265396D01*
X100666804Y36276448D01*
X100654618Y36318391D01*
X100654616Y36318394D01*
X100644423Y36335629D01*
X100635861Y36353106D01*
X100628487Y36371731D01*
X100602816Y36407063D01*
X100596405Y36416823D01*
X100574170Y36454420D01*
X100574168Y36454422D01*
X100574165Y36454426D01*
X100560006Y36468585D01*
X100547368Y36483381D01*
X100535594Y36499587D01*
X100527178Y36506549D01*
X100501940Y36527428D01*
X100493299Y36535291D01*
X94480803Y42547788D01*
X94470980Y42560050D01*
X94470759Y42559866D01*
X94465786Y42565878D01*
X94416776Y42611901D01*
X94413977Y42614614D01*
X94394477Y42634115D01*
X94394471Y42634120D01*
X94391286Y42636591D01*
X94382434Y42644152D01*
X94350582Y42674062D01*
X94350580Y42674064D01*
X94350577Y42674065D01*
X94333029Y42683712D01*
X94316763Y42694396D01*
X94300932Y42706676D01*
X94260849Y42724022D01*
X94250363Y42729159D01*
X94212094Y42750197D01*
X94212092Y42750198D01*
X94192693Y42755178D01*
X94174281Y42761482D01*
X94155898Y42769438D01*
X94155892Y42769440D01*
X94112760Y42776271D01*
X94101322Y42778639D01*
X94059020Y42789500D01*
X94059019Y42789500D01*
X94038984Y42789500D01*
X94019586Y42791027D01*
X94012162Y42792203D01*
X93999805Y42794160D01*
X93999804Y42794160D01*
X93956325Y42790050D01*
X93944656Y42789500D01*
X69398452Y42789500D01*
X69331413Y42809185D01*
X69310771Y42825819D01*
X57641558Y54495032D01*
X45966803Y66169788D01*
X45956980Y66182050D01*
X45956759Y66181866D01*
X45951786Y66187878D01*
X45902776Y66233901D01*
X45899977Y66236614D01*
X45880477Y66256115D01*
X45880471Y66256120D01*
X45877286Y66258591D01*
X45868434Y66266152D01*
X45836582Y66296062D01*
X45836580Y66296064D01*
X45836577Y66296065D01*
X45819029Y66305712D01*
X45802763Y66316396D01*
X45786932Y66328676D01*
X45746849Y66346022D01*
X45736363Y66351159D01*
X45698094Y66372197D01*
X45698092Y66372198D01*
X45678693Y66377178D01*
X45660281Y66383482D01*
X45641898Y66391438D01*
X45641892Y66391440D01*
X45598760Y66398271D01*
X45587322Y66400639D01*
X45545020Y66411500D01*
X45545019Y66411500D01*
X45524984Y66411500D01*
X45505586Y66413027D01*
X45498162Y66414203D01*
X45485805Y66416160D01*
X45485804Y66416160D01*
X45442325Y66412050D01*
X45430656Y66411500D01*
X33102737Y66411500D01*
X33087120Y66413224D01*
X33087093Y66412938D01*
X33079331Y66413673D01*
X33012144Y66411561D01*
X33008250Y66411500D01*
X32980650Y66411500D01*
X32976962Y66411035D01*
X32976649Y66410995D01*
X32965031Y66410082D01*
X32921372Y66408710D01*
X32921369Y66408709D01*
X32902126Y66403119D01*
X32883083Y66399175D01*
X32863204Y66396664D01*
X32863203Y66396663D01*
X32822593Y66380585D01*
X32811548Y66376803D01*
X32769608Y66364617D01*
X32769604Y66364615D01*
X32752365Y66354420D01*
X32734898Y66345863D01*
X32716269Y66338488D01*
X32716267Y66338486D01*
X32680926Y66312811D01*
X32671168Y66306401D01*
X32633580Y66284172D01*
X32619408Y66270000D01*
X32604623Y66257372D01*
X32588412Y66245593D01*
X32560571Y66211941D01*
X32552711Y66203304D01*
X24575828Y58226419D01*
X24514505Y58192934D01*
X24488147Y58190100D01*
X12050870Y58190100D01*
X11983831Y58209785D01*
X11938076Y58262589D01*
X11928132Y58331747D01*
X11937314Y58363909D01*
X11962600Y58421557D01*
X11962599Y58421557D01*
X11962601Y58421559D01*
X12018097Y58640707D01*
X12036765Y58866000D01*
X12036765Y58866007D01*
X12018097Y59091290D01*
X12018097Y59091293D01*
X11962601Y59310441D01*
X11871792Y59517465D01*
X11748146Y59706719D01*
X11748143Y59706722D01*
X11748139Y59706728D01*
X11595039Y59873037D01*
X11595038Y59873038D01*
X11595036Y59873040D01*
X11416639Y60011893D01*
X11416637Y60011894D01*
X11416636Y60011895D01*
X11416629Y60011900D01*
X11388826Y60026945D01*
X11339234Y60076163D01*
X11324125Y60144380D01*
X11348296Y60209936D01*
X11388826Y60245055D01*
X11416629Y60260101D01*
X11416632Y60260104D01*
X11416639Y60260107D01*
X11595036Y60398960D01*
X11748146Y60565281D01*
X11871792Y60754535D01*
X11962601Y60961559D01*
X12018097Y61180707D01*
X12025564Y61270825D01*
X12036765Y61405994D01*
X12036765Y61406007D01*
X12018097Y61631290D01*
X12018097Y61631293D01*
X11962601Y61850441D01*
X11871792Y62057465D01*
X11748146Y62246719D01*
X11748143Y62246722D01*
X11748139Y62246728D01*
X11595039Y62413037D01*
X11595038Y62413038D01*
X11595036Y62413040D01*
X11416639Y62551893D01*
X11416637Y62551894D01*
X11416636Y62551895D01*
X11416629Y62551900D01*
X11388826Y62566945D01*
X11339234Y62616163D01*
X11324125Y62684380D01*
X11348296Y62749936D01*
X11388826Y62785055D01*
X11416629Y62800101D01*
X11416632Y62800104D01*
X11416639Y62800107D01*
X11595036Y62938960D01*
X11748146Y63105281D01*
X11871792Y63294535D01*
X11962601Y63501559D01*
X12018097Y63720707D01*
X12027949Y63839605D01*
X12036765Y63945994D01*
X12036765Y63946007D01*
X12018097Y64171290D01*
X12018097Y64171293D01*
X11962601Y64390441D01*
X11871792Y64597465D01*
X11748146Y64786719D01*
X11748143Y64786722D01*
X11748139Y64786728D01*
X11595039Y64953037D01*
X11595038Y64953038D01*
X11595036Y64953040D01*
X11416639Y65091893D01*
X11416637Y65091894D01*
X11416636Y65091895D01*
X11416629Y65091900D01*
X11388826Y65106945D01*
X11339234Y65156163D01*
X11324125Y65224380D01*
X11348296Y65289936D01*
X11388826Y65325055D01*
X11416629Y65340101D01*
X11416632Y65340104D01*
X11416639Y65340107D01*
X11595036Y65478960D01*
X11748146Y65645281D01*
X11871792Y65834535D01*
X11962601Y66041559D01*
X12018097Y66260707D01*
X12028270Y66383482D01*
X12036765Y66485994D01*
X12036765Y66486007D01*
X12018097Y66711290D01*
X12018097Y66711293D01*
X11962601Y66930441D01*
X11871792Y67137465D01*
X11748146Y67326719D01*
X11748143Y67326722D01*
X11748139Y67326728D01*
X11595039Y67493037D01*
X11595038Y67493038D01*
X11595036Y67493040D01*
X11416639Y67631893D01*
X11416637Y67631894D01*
X11416636Y67631895D01*
X11416629Y67631900D01*
X11388826Y67646945D01*
X11339234Y67696163D01*
X11324125Y67764380D01*
X11348296Y67829936D01*
X11388826Y67865055D01*
X11416629Y67880101D01*
X11416632Y67880104D01*
X11416639Y67880107D01*
X11595036Y68018960D01*
X11748146Y68185281D01*
X11871792Y68374535D01*
X11962601Y68581559D01*
X12018097Y68800707D01*
X12036765Y69026000D01*
X12036765Y69026007D01*
X12018097Y69251290D01*
X12018097Y69251293D01*
X11962601Y69470441D01*
X11871792Y69677465D01*
X11748146Y69866719D01*
X11748143Y69866722D01*
X11748139Y69866728D01*
X11595039Y70033037D01*
X11595038Y70033038D01*
X11595036Y70033040D01*
X11416639Y70171893D01*
X11416637Y70171894D01*
X11416636Y70171895D01*
X11416629Y70171900D01*
X11388826Y70186945D01*
X11339234Y70236163D01*
X11324125Y70304380D01*
X11348296Y70369936D01*
X11388826Y70405055D01*
X11416629Y70420101D01*
X11416632Y70420104D01*
X11416639Y70420107D01*
X11595036Y70558960D01*
X11748146Y70725281D01*
X11871792Y70914535D01*
X11962601Y71121559D01*
X12018097Y71340707D01*
X12036765Y71566000D01*
X12036765Y71566007D01*
X12018097Y71791290D01*
X12018097Y71791293D01*
X11962601Y72010441D01*
X11871792Y72217465D01*
X11846942Y72255500D01*
X11748147Y72406717D01*
X11748139Y72406728D01*
X11611110Y72555579D01*
X11580187Y72618233D01*
X11588047Y72687659D01*
X11632194Y72741815D01*
X11659007Y72755744D01*
X11773916Y72798602D01*
X11773916Y72798603D01*
X11773921Y72798604D01*
X11889136Y72884854D01*
X11975386Y73000069D01*
X12025681Y73134917D01*
X12032090Y73194527D01*
X12032090Y74038237D01*
X36753777Y74038237D01*
X36783403Y73768987D01*
X36783405Y73768976D01*
X36851916Y73506918D01*
X36851918Y73506912D01*
X36957860Y73257610D01*
X37029988Y73139425D01*
X37098969Y73026395D01*
X37098976Y73026385D01*
X37272243Y72818181D01*
X37272249Y72818176D01*
X37433639Y72673571D01*
X37473988Y72637418D01*
X37699900Y72487956D01*
X37945166Y72372980D01*
X37945173Y72372978D01*
X37945175Y72372977D01*
X38204547Y72294943D01*
X38204554Y72294942D01*
X38204559Y72294940D01*
X38472551Y72255500D01*
X38472556Y72255500D01*
X38675619Y72255500D01*
X38675621Y72255500D01*
X38675626Y72255501D01*
X38675638Y72255501D01*
X38713181Y72258250D01*
X38878146Y72270323D01*
X38990748Y72295407D01*
X39142536Y72329218D01*
X39142538Y72329219D01*
X39142543Y72329220D01*
X39395548Y72425986D01*
X39631767Y72558559D01*
X39846167Y72724112D01*
X40034176Y72919119D01*
X40191789Y73139421D01*
X40265777Y73283331D01*
X40315639Y73380310D01*
X40315641Y73380316D01*
X40315646Y73380325D01*
X40403108Y73636695D01*
X40452309Y73903067D01*
X40462202Y74173765D01*
X40432576Y74443018D01*
X40364062Y74705088D01*
X40258120Y74954390D01*
X40117008Y75185610D01*
X40095104Y75211931D01*
X39943736Y75393820D01*
X39943730Y75393825D01*
X39741992Y75574582D01*
X39516082Y75724043D01*
X39516080Y75724044D01*
X39270814Y75839020D01*
X39270809Y75839022D01*
X39270804Y75839024D01*
X39011432Y75917058D01*
X39011418Y75917061D01*
X38895781Y75934079D01*
X38743429Y75956500D01*
X38540359Y75956500D01*
X38540341Y75956500D01*
X38337834Y75941677D01*
X38337821Y75941675D01*
X38073443Y75882783D01*
X38073436Y75882780D01*
X37820429Y75786013D01*
X37584216Y75653443D01*
X37369812Y75487888D01*
X37181812Y75292891D01*
X37181806Y75292884D01*
X37024192Y75072581D01*
X37024189Y75072576D01*
X36900340Y74831691D01*
X36900333Y74831673D01*
X36812874Y74575315D01*
X36812871Y74575301D01*
X36763671Y74308932D01*
X36763670Y74308925D01*
X36753777Y74038237D01*
X12032090Y74038237D01*
X12032089Y75017472D01*
X12026889Y75065843D01*
X12025681Y75077084D01*
X11975387Y75211929D01*
X11975383Y75211936D01*
X11889137Y75327145D01*
X11889134Y75327148D01*
X11773925Y75413394D01*
X11773918Y75413398D01*
X11639072Y75463692D01*
X11639073Y75463692D01*
X11579473Y75470099D01*
X11579471Y75470100D01*
X11579463Y75470100D01*
X11579454Y75470100D01*
X9756519Y75470100D01*
X9756513Y75470099D01*
X9696906Y75463692D01*
X9562061Y75413398D01*
X9562059Y75413397D01*
X9472301Y75346203D01*
X9406837Y75321786D01*
X9338564Y75336637D01*
X9323679Y75346203D01*
X9233920Y75413397D01*
X9233918Y75413398D01*
X9099072Y75463692D01*
X9099073Y75463692D01*
X9039473Y75470099D01*
X9039471Y75470100D01*
X9039463Y75470100D01*
X9039454Y75470100D01*
X7216519Y75470100D01*
X7216513Y75470099D01*
X7156906Y75463692D01*
X7022061Y75413398D01*
X7022054Y75413394D01*
X6906845Y75327148D01*
X6906842Y75327145D01*
X6820596Y75211936D01*
X6820592Y75211929D01*
X6770298Y75077083D01*
X6763891Y75017484D01*
X6763891Y75017477D01*
X6763890Y75017465D01*
X6763890Y73194530D01*
X6763891Y73194524D01*
X6770298Y73134917D01*
X6820592Y73000072D01*
X6820596Y73000065D01*
X6906842Y72884856D01*
X6906845Y72884853D01*
X7022054Y72798607D01*
X7022061Y72798603D01*
X7136973Y72755744D01*
X7192906Y72713873D01*
X7217324Y72648409D01*
X7202473Y72580136D01*
X7184870Y72555579D01*
X7047835Y72406721D01*
X7047832Y72406717D01*
X6924188Y72217467D01*
X6833378Y72010440D01*
X6777882Y71791290D01*
X6759215Y71566007D01*
X6759215Y71565994D01*
X6777882Y71340711D01*
X6833378Y71121561D01*
X6924188Y70914534D01*
X7047832Y70725284D01*
X7047840Y70725273D01*
X7200940Y70558964D01*
X7200944Y70558960D01*
X7379341Y70420107D01*
X7407155Y70405055D01*
X7456745Y70355835D01*
X7471853Y70287618D01*
X7447682Y70222063D01*
X7407155Y70186945D01*
X7379342Y70171894D01*
X7200945Y70033041D01*
X7200940Y70033037D01*
X7047840Y69866728D01*
X7047832Y69866717D01*
X6924188Y69677467D01*
X6833378Y69470440D01*
X6777882Y69251290D01*
X6759215Y69026007D01*
X6759215Y69025994D01*
X6777882Y68800711D01*
X6833378Y68581561D01*
X6924188Y68374534D01*
X7047832Y68185284D01*
X7047840Y68185273D01*
X7200940Y68018964D01*
X7200944Y68018960D01*
X7379341Y67880107D01*
X7407155Y67865055D01*
X7456745Y67815835D01*
X7471853Y67747618D01*
X7447682Y67682063D01*
X7407155Y67646945D01*
X7379342Y67631894D01*
X7200945Y67493041D01*
X7200940Y67493037D01*
X7047840Y67326728D01*
X7047832Y67326717D01*
X6924188Y67137467D01*
X6833378Y66930440D01*
X6777882Y66711290D01*
X6759215Y66486007D01*
X6759215Y66485994D01*
X6777882Y66260711D01*
X6833378Y66041561D01*
X6924188Y65834534D01*
X7047832Y65645284D01*
X7047840Y65645273D01*
X7200940Y65478964D01*
X7200944Y65478960D01*
X7379341Y65340107D01*
X7407155Y65325055D01*
X7456745Y65275835D01*
X7471853Y65207618D01*
X7447682Y65142063D01*
X7407155Y65106945D01*
X7379342Y65091894D01*
X7200945Y64953041D01*
X7200940Y64953037D01*
X7047840Y64786728D01*
X7047832Y64786717D01*
X6924188Y64597467D01*
X6833378Y64390440D01*
X6777882Y64171290D01*
X6759215Y63946007D01*
X6759215Y63945994D01*
X6777882Y63720711D01*
X6833378Y63501561D01*
X6924188Y63294534D01*
X7047832Y63105284D01*
X7047840Y63105273D01*
X7200940Y62938964D01*
X7200944Y62938960D01*
X7379341Y62800107D01*
X7407155Y62785055D01*
X7456745Y62735835D01*
X7471853Y62667618D01*
X7447682Y62602063D01*
X7407155Y62566945D01*
X7379342Y62551894D01*
X7200945Y62413041D01*
X7200940Y62413037D01*
X7047840Y62246728D01*
X7047832Y62246717D01*
X6924188Y62057467D01*
X6833378Y61850440D01*
X6777882Y61631290D01*
X6759215Y61406007D01*
X6759215Y61405994D01*
X6777882Y61180711D01*
X6833378Y60961561D01*
X6924188Y60754534D01*
X7047832Y60565284D01*
X7047840Y60565273D01*
X7200940Y60398964D01*
X7200944Y60398960D01*
X7379341Y60260107D01*
X7407155Y60245055D01*
X7456745Y60195835D01*
X7471853Y60127618D01*
X7447682Y60062063D01*
X7407155Y60026945D01*
X7379342Y60011894D01*
X7200945Y59873041D01*
X7200940Y59873037D01*
X7047840Y59706728D01*
X7047832Y59706717D01*
X6924188Y59517467D01*
X6833378Y59310440D01*
X6777882Y59091290D01*
X6759215Y58866007D01*
X6759215Y58865994D01*
X6777882Y58640711D01*
X6833378Y58421561D01*
X6924188Y58214534D01*
X7047832Y58025284D01*
X7047840Y58025273D01*
X7200940Y57858964D01*
X7200944Y57858960D01*
X7379341Y57720107D01*
X7407155Y57705055D01*
X7456745Y57655835D01*
X7471853Y57587618D01*
X7447682Y57522063D01*
X7407155Y57486945D01*
X7379342Y57471894D01*
X7200945Y57333041D01*
X7200940Y57333037D01*
X7047840Y57166728D01*
X7047832Y57166717D01*
X6924188Y56977467D01*
X6833378Y56770440D01*
X6777882Y56551290D01*
X6759215Y56326007D01*
X6759215Y56325994D01*
X6777882Y56100711D01*
X6833378Y55881561D01*
X6924188Y55674534D01*
X7047832Y55485284D01*
X7047840Y55485273D01*
X7200940Y55318964D01*
X7200944Y55318960D01*
X7379341Y55180107D01*
X7407155Y55165055D01*
X7456745Y55115835D01*
X7471853Y55047618D01*
X7447682Y54982063D01*
X7407155Y54946945D01*
X7379342Y54931894D01*
X7200945Y54793041D01*
X7200940Y54793037D01*
X7047840Y54626728D01*
X7047832Y54626717D01*
X6924188Y54437467D01*
X6833378Y54230440D01*
X6777882Y54011290D01*
X6759215Y53786007D01*
X6759215Y53785994D01*
X6777882Y53560711D01*
X6833378Y53341561D01*
X6924188Y53134534D01*
X7047832Y52945284D01*
X7047840Y52945273D01*
X7200940Y52778964D01*
X7200944Y52778960D01*
X7379341Y52640107D01*
X7407155Y52625055D01*
X7456745Y52575835D01*
X7471853Y52507618D01*
X7447682Y52442063D01*
X7407155Y52406945D01*
X7379342Y52391894D01*
X7200945Y52253041D01*
X7200940Y52253037D01*
X7047840Y52086728D01*
X7047832Y52086717D01*
X6924188Y51897467D01*
X6833378Y51690440D01*
X6777882Y51471290D01*
X6759215Y51246007D01*
X6759215Y51245994D01*
X6777882Y51020711D01*
X6833378Y50801561D01*
X6924188Y50594534D01*
X7047832Y50405284D01*
X7047840Y50405273D01*
X7200940Y50238964D01*
X7200944Y50238960D01*
X7379341Y50100107D01*
X7407155Y50085055D01*
X7456745Y50035835D01*
X7471853Y49967618D01*
X7447682Y49902063D01*
X7407155Y49866945D01*
X7379342Y49851894D01*
X7200945Y49713041D01*
X7200940Y49713037D01*
X7047840Y49546728D01*
X7047832Y49546717D01*
X6924188Y49357467D01*
X6833378Y49150440D01*
X6777882Y48931290D01*
X6759215Y48706007D01*
X6759215Y48705994D01*
X6777882Y48480711D01*
X6833378Y48261561D01*
X6924188Y48054534D01*
X7047832Y47865284D01*
X7047840Y47865273D01*
X7187611Y47713443D01*
X7200944Y47698960D01*
X7379341Y47560107D01*
X7401920Y47547888D01*
X7407155Y47545055D01*
X7456745Y47495835D01*
X7471853Y47427618D01*
X7447682Y47362063D01*
X7407155Y47326945D01*
X7379342Y47311894D01*
X7200945Y47173041D01*
X7200940Y47173037D01*
X7047840Y47006728D01*
X7047832Y47006717D01*
X6924188Y46817467D01*
X6833378Y46610440D01*
X6777882Y46391290D01*
X6759215Y46166007D01*
X6759215Y46165994D01*
X6777882Y45940711D01*
X6833378Y45721561D01*
X6924188Y45514534D01*
X7047832Y45325284D01*
X7047840Y45325273D01*
X7200940Y45158964D01*
X7200944Y45158960D01*
X7379341Y45020107D01*
X7407155Y45005055D01*
X7456745Y44955835D01*
X7471853Y44887618D01*
X7447682Y44822063D01*
X7407155Y44786945D01*
X7379342Y44771894D01*
X7200945Y44633041D01*
X7200940Y44633037D01*
X7047840Y44466728D01*
X7047832Y44466717D01*
X6924188Y44277467D01*
X6833378Y44070440D01*
X6777882Y43851290D01*
X6759215Y43626007D01*
X6759215Y43625994D01*
X6777882Y43400711D01*
X6833378Y43181561D01*
X6924188Y42974534D01*
X7047832Y42785284D01*
X7047840Y42785273D01*
X7200940Y42618964D01*
X7200944Y42618960D01*
X7379341Y42480107D01*
X7407155Y42465055D01*
X7456745Y42415835D01*
X7471853Y42347618D01*
X7447682Y42282063D01*
X7407155Y42246945D01*
X7379342Y42231894D01*
X7200945Y42093041D01*
X7200940Y42093037D01*
X7047840Y41926728D01*
X7047832Y41926717D01*
X6924188Y41737467D01*
X6833378Y41530440D01*
X6777882Y41311290D01*
X6759215Y41086007D01*
X6759215Y41085994D01*
X6777882Y40860711D01*
X6833378Y40641561D01*
X6924188Y40434534D01*
X7047832Y40245284D01*
X7047840Y40245273D01*
X7200940Y40078964D01*
X7200944Y40078960D01*
X7379341Y39940107D01*
X7407155Y39925055D01*
X7456745Y39875835D01*
X7471853Y39807618D01*
X7447682Y39742063D01*
X7407155Y39706945D01*
X7379342Y39691894D01*
X7200945Y39553041D01*
X7200940Y39553037D01*
X7047840Y39386728D01*
X7047832Y39386717D01*
X6924188Y39197467D01*
X6833378Y38990440D01*
X6777882Y38771290D01*
X6759215Y38546007D01*
X6759215Y38545994D01*
X6777882Y38320711D01*
X6833378Y38101561D01*
X6924188Y37894534D01*
X7047832Y37705284D01*
X7047840Y37705273D01*
X7200940Y37538964D01*
X7200944Y37538960D01*
X7379341Y37400107D01*
X7407155Y37385055D01*
X7456745Y37335835D01*
X7471853Y37267618D01*
X7447682Y37202063D01*
X7407155Y37166945D01*
X7379342Y37151894D01*
X7200945Y37013041D01*
X7200940Y37013037D01*
X7047840Y36846728D01*
X7047832Y36846717D01*
X6924188Y36657467D01*
X6833378Y36450440D01*
X6777882Y36231290D01*
X6759215Y36006007D01*
X6759215Y36005994D01*
X6777882Y35780711D01*
X6833378Y35561561D01*
X6924188Y35354534D01*
X7047832Y35165284D01*
X7047840Y35165273D01*
X7200940Y34998964D01*
X7200944Y34998960D01*
X7379341Y34860107D01*
X7407155Y34845055D01*
X7456745Y34795835D01*
X7471853Y34727618D01*
X7447682Y34662063D01*
X7407155Y34626945D01*
X7379342Y34611894D01*
X7200945Y34473041D01*
X7200940Y34473037D01*
X7047840Y34306728D01*
X7047832Y34306717D01*
X6924188Y34117467D01*
X6833378Y33910440D01*
X6777882Y33691290D01*
X6759215Y33466007D01*
X6759215Y33465994D01*
X6777882Y33240711D01*
X6833378Y33021561D01*
X6924188Y32814534D01*
X7047832Y32625284D01*
X7047840Y32625273D01*
X7200940Y32458964D01*
X7200944Y32458960D01*
X7379341Y32320107D01*
X7401920Y32307888D01*
X7407155Y32305055D01*
X7456745Y32255835D01*
X7471853Y32187618D01*
X7447682Y32122063D01*
X7407155Y32086945D01*
X7379342Y32071894D01*
X7200945Y31933041D01*
X7200940Y31933037D01*
X7047840Y31766728D01*
X7047832Y31766717D01*
X6924188Y31577467D01*
X6833378Y31370440D01*
X6777882Y31151290D01*
X6759215Y30926007D01*
X6759215Y30925994D01*
X6777882Y30700711D01*
X6833378Y30481561D01*
X6924188Y30274534D01*
X7047832Y30085284D01*
X7047840Y30085273D01*
X7200940Y29918964D01*
X7200944Y29918960D01*
X7379341Y29780107D01*
X7578159Y29672512D01*
X7578162Y29672511D01*
X7791972Y29599110D01*
X7791974Y29599110D01*
X7791976Y29599109D01*
X8014957Y29561900D01*
X8014958Y29561900D01*
X8241022Y29561900D01*
X8241023Y29561900D01*
X8464004Y29599109D01*
X8677821Y29672512D01*
X8876639Y29780107D01*
X9055036Y29918960D01*
X9154822Y30027357D01*
X9208139Y30085273D01*
X9208139Y30085274D01*
X9208146Y30085281D01*
X9294183Y30216972D01*
X9347328Y30262325D01*
X9416559Y30271749D01*
X9479895Y30242247D01*
X9501794Y30216975D01*
X9587834Y30085281D01*
X9587839Y30085276D01*
X9587840Y30085273D01*
X9740940Y29918964D01*
X9740944Y29918960D01*
X9919341Y29780107D01*
X10118159Y29672512D01*
X10118162Y29672511D01*
X10331972Y29599110D01*
X10331974Y29599110D01*
X10331976Y29599109D01*
X10554957Y29561900D01*
X10554958Y29561900D01*
X10781022Y29561900D01*
X10781023Y29561900D01*
X11004004Y29599109D01*
X11217821Y29672512D01*
X11416639Y29780107D01*
X11595036Y29918960D01*
X11694822Y30027357D01*
X11748139Y30085273D01*
X11748141Y30085276D01*
X11748146Y30085281D01*
X11871792Y30274535D01*
X11962601Y30481559D01*
X12018097Y30700707D01*
X12031150Y30858237D01*
X12623777Y30858237D01*
X12653403Y30588987D01*
X12653405Y30588976D01*
X12696156Y30425452D01*
X12721918Y30326912D01*
X12827860Y30077610D01*
X12968969Y29846395D01*
X12968976Y29846385D01*
X13142243Y29638181D01*
X13142249Y29638176D01*
X13227379Y29561900D01*
X13343988Y29457418D01*
X13569900Y29307956D01*
X13815166Y29192980D01*
X13815173Y29192978D01*
X13815175Y29192977D01*
X14074547Y29114943D01*
X14074554Y29114942D01*
X14074559Y29114940D01*
X14342551Y29075500D01*
X14342556Y29075500D01*
X14545619Y29075500D01*
X14545621Y29075500D01*
X14545626Y29075501D01*
X14545638Y29075501D01*
X14583181Y29078250D01*
X14748146Y29090323D01*
X14860748Y29115407D01*
X15012536Y29149218D01*
X15012538Y29149219D01*
X15012543Y29149220D01*
X15265548Y29245986D01*
X15501767Y29378559D01*
X15716167Y29544112D01*
X15904176Y29739119D01*
X16061789Y29959421D01*
X16135777Y30103331D01*
X16185639Y30200310D01*
X16185641Y30200316D01*
X16185646Y30200325D01*
X16273108Y30456695D01*
X16322309Y30723067D01*
X16332202Y30993765D01*
X16302576Y31263018D01*
X16234062Y31525088D01*
X16128120Y31774390D01*
X15987008Y32005610D01*
X15965104Y32031931D01*
X15813736Y32213820D01*
X15813730Y32213825D01*
X15611992Y32394582D01*
X15386082Y32544043D01*
X15386080Y32544044D01*
X15140814Y32659020D01*
X15140809Y32659022D01*
X15140804Y32659024D01*
X14881432Y32737058D01*
X14881418Y32737061D01*
X14765781Y32754079D01*
X14613429Y32776500D01*
X14410359Y32776500D01*
X14410341Y32776500D01*
X14207834Y32761677D01*
X14207821Y32761675D01*
X13943443Y32702783D01*
X13943436Y32702780D01*
X13690429Y32606013D01*
X13454216Y32473443D01*
X13454214Y32473442D01*
X13454213Y32473441D01*
X13431041Y32455548D01*
X13239812Y32307888D01*
X13051812Y32112891D01*
X13051806Y32112884D01*
X12894192Y31892581D01*
X12894189Y31892576D01*
X12770340Y31651691D01*
X12770333Y31651673D01*
X12682874Y31395315D01*
X12682871Y31395301D01*
X12633671Y31128932D01*
X12633670Y31128925D01*
X12623777Y30858237D01*
X12031150Y30858237D01*
X12036765Y30926000D01*
X12036765Y30926007D01*
X12018097Y31151290D01*
X12018097Y31151293D01*
X11962601Y31370441D01*
X11871792Y31577465D01*
X11748146Y31766719D01*
X11748143Y31766722D01*
X11748139Y31766728D01*
X11595039Y31933037D01*
X11595038Y31933038D01*
X11595036Y31933040D01*
X11416639Y32071893D01*
X11416637Y32071894D01*
X11416636Y32071895D01*
X11416629Y32071900D01*
X11388826Y32086945D01*
X11339234Y32136163D01*
X11324125Y32204380D01*
X11348296Y32269936D01*
X11388826Y32305055D01*
X11416629Y32320101D01*
X11416632Y32320104D01*
X11416639Y32320107D01*
X11595036Y32458960D01*
X11694822Y32567357D01*
X11748139Y32625273D01*
X11748141Y32625276D01*
X11748146Y32625281D01*
X11871792Y32814535D01*
X11962601Y33021559D01*
X12018097Y33240707D01*
X12029649Y33380123D01*
X12036765Y33465994D01*
X12036765Y33466007D01*
X12018097Y33691290D01*
X12018097Y33691293D01*
X11962601Y33910441D01*
X11871792Y34117465D01*
X11748146Y34306719D01*
X11748143Y34306722D01*
X11748139Y34306728D01*
X11595039Y34473037D01*
X11595038Y34473038D01*
X11595036Y34473040D01*
X11416639Y34611893D01*
X11416637Y34611894D01*
X11416636Y34611895D01*
X11416629Y34611900D01*
X11388826Y34626945D01*
X11339234Y34676163D01*
X11324125Y34744380D01*
X11348296Y34809936D01*
X11388826Y34845055D01*
X11416629Y34860101D01*
X11416632Y34860104D01*
X11416639Y34860107D01*
X11595036Y34998960D01*
X11748146Y35165281D01*
X11871792Y35354535D01*
X11962601Y35561559D01*
X12018097Y35780707D01*
X12025564Y35870825D01*
X12036765Y36005994D01*
X12036765Y36006007D01*
X12021085Y36195234D01*
X12018097Y36231293D01*
X11962601Y36450441D01*
X11871792Y36657465D01*
X11748146Y36846719D01*
X11748143Y36846722D01*
X11748139Y36846728D01*
X11595039Y37013037D01*
X11595038Y37013038D01*
X11595036Y37013040D01*
X11416639Y37151893D01*
X11416637Y37151894D01*
X11416636Y37151895D01*
X11416629Y37151900D01*
X11388826Y37166945D01*
X11339234Y37216163D01*
X11324125Y37284380D01*
X11348296Y37349936D01*
X11388826Y37385055D01*
X11416629Y37400101D01*
X11416632Y37400104D01*
X11416639Y37400107D01*
X11595036Y37538960D01*
X11748146Y37705281D01*
X11871792Y37894535D01*
X11962601Y38101559D01*
X12018097Y38320707D01*
X12036765Y38546000D01*
X12036765Y38546007D01*
X12018097Y38771290D01*
X12018097Y38771293D01*
X11962601Y38990441D01*
X11871792Y39197465D01*
X11748146Y39386719D01*
X11748143Y39386722D01*
X11748139Y39386728D01*
X11595039Y39553037D01*
X11595038Y39553038D01*
X11595036Y39553040D01*
X11416639Y39691893D01*
X11416637Y39691894D01*
X11416636Y39691895D01*
X11416629Y39691900D01*
X11388826Y39706945D01*
X11339234Y39756163D01*
X11324125Y39824380D01*
X11348296Y39889936D01*
X11388826Y39925055D01*
X11416629Y39940101D01*
X11416632Y39940104D01*
X11416639Y39940107D01*
X11595036Y40078960D01*
X11748146Y40245281D01*
X11871792Y40434535D01*
X11962601Y40641559D01*
X12018097Y40860707D01*
X12036765Y41086000D01*
X12036765Y41086007D01*
X12018097Y41311290D01*
X12018097Y41311293D01*
X11962601Y41530441D01*
X11871792Y41737465D01*
X11748146Y41926719D01*
X11748143Y41926722D01*
X11748139Y41926728D01*
X11595039Y42093037D01*
X11595038Y42093038D01*
X11595036Y42093040D01*
X11416639Y42231893D01*
X11416637Y42231894D01*
X11416636Y42231895D01*
X11416629Y42231900D01*
X11388826Y42246945D01*
X11339234Y42296163D01*
X11324125Y42364380D01*
X11348296Y42429936D01*
X11388826Y42465055D01*
X11416629Y42480101D01*
X11416632Y42480104D01*
X11416639Y42480107D01*
X11595036Y42618960D01*
X11720434Y42755178D01*
X11748139Y42785273D01*
X11748141Y42785276D01*
X11748146Y42785281D01*
X11852053Y42944322D01*
X11905199Y42989678D01*
X11955861Y43000500D01*
X27183548Y43000500D01*
X27250587Y42980815D01*
X27271229Y42964181D01*
X37184181Y33051229D01*
X37217666Y32989906D01*
X37220500Y32963548D01*
X37220500Y32005906D01*
X37200815Y31938867D01*
X37148011Y31893112D01*
X37078853Y31883168D01*
X37015297Y31912193D01*
X37005273Y31921920D01*
X37000064Y31927578D01*
X36995036Y31933040D01*
X36816639Y32071893D01*
X36740900Y32112881D01*
X36617822Y32179488D01*
X36617817Y32179490D01*
X36404007Y32252891D01*
X36219424Y32283692D01*
X36181023Y32290100D01*
X35954957Y32290100D01*
X35916556Y32283692D01*
X35731972Y32252891D01*
X35518162Y32179490D01*
X35518157Y32179488D01*
X35319342Y32071894D01*
X35140945Y31933041D01*
X35140940Y31933037D01*
X34987840Y31766728D01*
X34987832Y31766717D01*
X34901798Y31635032D01*
X34848652Y31589675D01*
X34779420Y31580252D01*
X34716085Y31609754D01*
X34694182Y31635032D01*
X34608147Y31766717D01*
X34608139Y31766728D01*
X34455039Y31933037D01*
X34455038Y31933038D01*
X34455036Y31933040D01*
X34276639Y32071893D01*
X34200900Y32112881D01*
X34077822Y32179488D01*
X34077817Y32179490D01*
X33864007Y32252891D01*
X33679424Y32283692D01*
X33641023Y32290100D01*
X33414957Y32290100D01*
X33376556Y32283692D01*
X33191972Y32252891D01*
X32978162Y32179490D01*
X32978157Y32179488D01*
X32779342Y32071894D01*
X32600945Y31933041D01*
X32600940Y31933037D01*
X32447840Y31766728D01*
X32447832Y31766717D01*
X32361798Y31635032D01*
X32308652Y31589675D01*
X32239420Y31580252D01*
X32176085Y31609754D01*
X32154182Y31635032D01*
X32068147Y31766717D01*
X32068139Y31766728D01*
X31915039Y31933037D01*
X31915038Y31933038D01*
X31915036Y31933040D01*
X31736639Y32071893D01*
X31660900Y32112881D01*
X31537822Y32179488D01*
X31537817Y32179490D01*
X31324007Y32252891D01*
X31139424Y32283692D01*
X31101023Y32290100D01*
X30874957Y32290100D01*
X30836556Y32283692D01*
X30651972Y32252891D01*
X30438162Y32179490D01*
X30438157Y32179488D01*
X30239342Y32071894D01*
X30060945Y31933041D01*
X30060940Y31933037D01*
X29907840Y31766728D01*
X29907832Y31766717D01*
X29821798Y31635032D01*
X29768652Y31589675D01*
X29699420Y31580252D01*
X29636085Y31609754D01*
X29614182Y31635032D01*
X29528147Y31766717D01*
X29528139Y31766728D01*
X29375039Y31933037D01*
X29375038Y31933038D01*
X29375036Y31933040D01*
X29196639Y32071893D01*
X29120900Y32112881D01*
X28997822Y32179488D01*
X28997817Y32179490D01*
X28784007Y32252891D01*
X28599424Y32283692D01*
X28561023Y32290100D01*
X28334957Y32290100D01*
X28296556Y32283692D01*
X28111972Y32252891D01*
X27898162Y32179490D01*
X27898157Y32179488D01*
X27699342Y32071894D01*
X27520945Y31933041D01*
X27520940Y31933037D01*
X27367840Y31766728D01*
X27367832Y31766717D01*
X27281798Y31635032D01*
X27228652Y31589675D01*
X27159420Y31580252D01*
X27096085Y31609754D01*
X27074182Y31635032D01*
X26988147Y31766717D01*
X26988139Y31766728D01*
X26835039Y31933037D01*
X26835038Y31933038D01*
X26835036Y31933040D01*
X26656639Y32071893D01*
X26580900Y32112881D01*
X26457822Y32179488D01*
X26457817Y32179490D01*
X26244007Y32252891D01*
X26059424Y32283692D01*
X26021023Y32290100D01*
X25794957Y32290100D01*
X25756556Y32283692D01*
X25571972Y32252891D01*
X25358162Y32179490D01*
X25358157Y32179488D01*
X25159342Y32071894D01*
X24980945Y31933041D01*
X24980940Y31933037D01*
X24827840Y31766728D01*
X24827832Y31766717D01*
X24741798Y31635032D01*
X24688652Y31589675D01*
X24619420Y31580252D01*
X24556085Y31609754D01*
X24534182Y31635032D01*
X24448147Y31766717D01*
X24448139Y31766728D01*
X24295039Y31933037D01*
X24295038Y31933038D01*
X24295036Y31933040D01*
X24116639Y32071893D01*
X24040900Y32112881D01*
X23917822Y32179488D01*
X23917817Y32179490D01*
X23704007Y32252891D01*
X23519424Y32283692D01*
X23481023Y32290100D01*
X23254957Y32290100D01*
X23216556Y32283692D01*
X23031972Y32252891D01*
X22818162Y32179490D01*
X22818157Y32179488D01*
X22619342Y32071894D01*
X22440945Y31933041D01*
X22440940Y31933037D01*
X22287840Y31766728D01*
X22287832Y31766717D01*
X22201798Y31635032D01*
X22148652Y31589675D01*
X22079420Y31580252D01*
X22016085Y31609754D01*
X21994182Y31635032D01*
X21908147Y31766717D01*
X21908139Y31766728D01*
X21755039Y31933037D01*
X21755038Y31933038D01*
X21755036Y31933040D01*
X21576639Y32071893D01*
X21500900Y32112881D01*
X21377822Y32179488D01*
X21377817Y32179490D01*
X21164007Y32252891D01*
X20979424Y32283692D01*
X20941023Y32290100D01*
X20714957Y32290100D01*
X20676556Y32283692D01*
X20491972Y32252891D01*
X20278162Y32179490D01*
X20278157Y32179488D01*
X20079342Y32071894D01*
X19900945Y31933041D01*
X19900940Y31933037D01*
X19747840Y31766728D01*
X19747832Y31766717D01*
X19661798Y31635032D01*
X19608652Y31589675D01*
X19539420Y31580252D01*
X19476085Y31609754D01*
X19454182Y31635032D01*
X19368147Y31766717D01*
X19368139Y31766728D01*
X19215039Y31933037D01*
X19215038Y31933038D01*
X19215036Y31933040D01*
X19036639Y32071893D01*
X18960900Y32112881D01*
X18837822Y32179488D01*
X18837817Y32179490D01*
X18624007Y32252891D01*
X18439424Y32283692D01*
X18401023Y32290100D01*
X18174957Y32290100D01*
X18136556Y32283692D01*
X17951972Y32252891D01*
X17738162Y32179490D01*
X17738157Y32179488D01*
X17539342Y32071894D01*
X17360945Y31933041D01*
X17360940Y31933037D01*
X17207840Y31766728D01*
X17207832Y31766717D01*
X17084188Y31577467D01*
X16993378Y31370440D01*
X16937882Y31151290D01*
X16919215Y30926007D01*
X16919215Y30925994D01*
X16937882Y30700711D01*
X16993378Y30481561D01*
X17084188Y30274534D01*
X17207832Y30085284D01*
X17207840Y30085273D01*
X17360940Y29918964D01*
X17360944Y29918960D01*
X17539341Y29780107D01*
X17738159Y29672512D01*
X17738162Y29672511D01*
X17951972Y29599110D01*
X17951974Y29599110D01*
X17951976Y29599109D01*
X18174957Y29561900D01*
X18174958Y29561900D01*
X18401022Y29561900D01*
X18401023Y29561900D01*
X18624004Y29599109D01*
X18837821Y29672512D01*
X19036639Y29780107D01*
X19215036Y29918960D01*
X19314822Y30027357D01*
X19368139Y30085273D01*
X19368139Y30085274D01*
X19368146Y30085281D01*
X19454183Y30216972D01*
X19507328Y30262325D01*
X19576559Y30271749D01*
X19639895Y30242247D01*
X19661794Y30216975D01*
X19747834Y30085281D01*
X19747839Y30085276D01*
X19747840Y30085273D01*
X19900940Y29918964D01*
X19900944Y29918960D01*
X20079341Y29780107D01*
X20278159Y29672512D01*
X20278162Y29672511D01*
X20491972Y29599110D01*
X20491974Y29599110D01*
X20491976Y29599109D01*
X20714957Y29561900D01*
X20714958Y29561900D01*
X20941022Y29561900D01*
X20941023Y29561900D01*
X21164004Y29599109D01*
X21377821Y29672512D01*
X21576639Y29780107D01*
X21755036Y29918960D01*
X21854822Y30027357D01*
X21908139Y30085273D01*
X21908139Y30085274D01*
X21908146Y30085281D01*
X21994183Y30216972D01*
X22047328Y30262325D01*
X22116559Y30271749D01*
X22179895Y30242247D01*
X22201794Y30216975D01*
X22287834Y30085281D01*
X22287839Y30085276D01*
X22287840Y30085273D01*
X22440940Y29918964D01*
X22440944Y29918960D01*
X22619341Y29780107D01*
X22818159Y29672512D01*
X22818162Y29672511D01*
X23031972Y29599110D01*
X23031974Y29599110D01*
X23031976Y29599109D01*
X23254957Y29561900D01*
X23254958Y29561900D01*
X23481022Y29561900D01*
X23481023Y29561900D01*
X23704004Y29599109D01*
X23917821Y29672512D01*
X24116639Y29780107D01*
X24295036Y29918960D01*
X24394822Y30027357D01*
X24448139Y30085273D01*
X24448139Y30085274D01*
X24448146Y30085281D01*
X24534183Y30216972D01*
X24587328Y30262325D01*
X24656559Y30271749D01*
X24719895Y30242247D01*
X24741794Y30216975D01*
X24827834Y30085281D01*
X24827839Y30085276D01*
X24827840Y30085273D01*
X24980940Y29918964D01*
X24980944Y29918960D01*
X25159341Y29780107D01*
X25358159Y29672512D01*
X25358162Y29672511D01*
X25571972Y29599110D01*
X25571974Y29599110D01*
X25571976Y29599109D01*
X25794957Y29561900D01*
X25794958Y29561900D01*
X26021022Y29561900D01*
X26021023Y29561900D01*
X26244004Y29599109D01*
X26457821Y29672512D01*
X26656639Y29780107D01*
X26835036Y29918960D01*
X26934822Y30027357D01*
X26988139Y30085273D01*
X26988139Y30085274D01*
X26988146Y30085281D01*
X27074183Y30216972D01*
X27127328Y30262325D01*
X27196559Y30271749D01*
X27259895Y30242247D01*
X27281794Y30216975D01*
X27367834Y30085281D01*
X27367839Y30085276D01*
X27367840Y30085273D01*
X27520940Y29918964D01*
X27520944Y29918960D01*
X27699341Y29780107D01*
X27898159Y29672512D01*
X27898162Y29672511D01*
X28111972Y29599110D01*
X28111974Y29599110D01*
X28111976Y29599109D01*
X28334957Y29561900D01*
X28334958Y29561900D01*
X28561022Y29561900D01*
X28561023Y29561900D01*
X28784004Y29599109D01*
X28997821Y29672512D01*
X29196639Y29780107D01*
X29375036Y29918960D01*
X29474822Y30027357D01*
X29528139Y30085273D01*
X29528139Y30085274D01*
X29528146Y30085281D01*
X29614183Y30216972D01*
X29667328Y30262325D01*
X29736559Y30271749D01*
X29799895Y30242247D01*
X29821794Y30216975D01*
X29907834Y30085281D01*
X29907839Y30085276D01*
X29907840Y30085273D01*
X30060940Y29918964D01*
X30060944Y29918960D01*
X30239341Y29780107D01*
X30438159Y29672512D01*
X30438162Y29672511D01*
X30651972Y29599110D01*
X30651974Y29599110D01*
X30651976Y29599109D01*
X30874957Y29561900D01*
X30874958Y29561900D01*
X31101022Y29561900D01*
X31101023Y29561900D01*
X31324004Y29599109D01*
X31537821Y29672512D01*
X31736639Y29780107D01*
X31915036Y29918960D01*
X32014822Y30027357D01*
X32068139Y30085273D01*
X32068139Y30085274D01*
X32068146Y30085281D01*
X32154183Y30216972D01*
X32207328Y30262325D01*
X32276559Y30271749D01*
X32339895Y30242247D01*
X32361794Y30216975D01*
X32447834Y30085281D01*
X32447839Y30085276D01*
X32447840Y30085273D01*
X32600940Y29918964D01*
X32600944Y29918960D01*
X32779341Y29780107D01*
X32978159Y29672512D01*
X32978162Y29672511D01*
X33191972Y29599110D01*
X33191974Y29599110D01*
X33191976Y29599109D01*
X33414957Y29561900D01*
X33414958Y29561900D01*
X33641022Y29561900D01*
X33641023Y29561900D01*
X33864004Y29599109D01*
X34077821Y29672512D01*
X34276639Y29780107D01*
X34455036Y29918960D01*
X34554822Y30027357D01*
X34608139Y30085273D01*
X34608139Y30085274D01*
X34608146Y30085281D01*
X34694183Y30216972D01*
X34747328Y30262325D01*
X34816559Y30271749D01*
X34879895Y30242247D01*
X34901794Y30216975D01*
X34987834Y30085281D01*
X34987839Y30085276D01*
X34987840Y30085273D01*
X35140940Y29918964D01*
X35140944Y29918960D01*
X35319341Y29780107D01*
X35518159Y29672512D01*
X35518162Y29672511D01*
X35731972Y29599110D01*
X35731974Y29599110D01*
X35731976Y29599109D01*
X35954957Y29561900D01*
X35954958Y29561900D01*
X36181022Y29561900D01*
X36181023Y29561900D01*
X36404004Y29599109D01*
X36617821Y29672512D01*
X36816639Y29780107D01*
X36995036Y29918960D01*
X37005270Y29930077D01*
X37065157Y29966068D01*
X37134995Y29963968D01*
X37192611Y29924445D01*
X37219713Y29860045D01*
X37220500Y29846095D01*
X37220500Y28250453D01*
X37200815Y28183414D01*
X37184181Y28162772D01*
X33559228Y24537819D01*
X33497905Y24504334D01*
X33471547Y24501500D01*
X21672738Y24501500D01*
X21657121Y24503224D01*
X21657094Y24502938D01*
X21649332Y24503673D01*
X21582145Y24501561D01*
X21578251Y24501500D01*
X21550650Y24501500D01*
X21546962Y24501035D01*
X21546649Y24500995D01*
X21535031Y24500082D01*
X21491373Y24498710D01*
X21491372Y24498710D01*
X21472129Y24493119D01*
X21453079Y24489175D01*
X21433211Y24486666D01*
X21433210Y24486665D01*
X21392600Y24470587D01*
X21381553Y24466805D01*
X21339610Y24454619D01*
X21339609Y24454618D01*
X21322367Y24444421D01*
X21304899Y24435863D01*
X21286269Y24428487D01*
X21286266Y24428485D01*
X21250939Y24402819D01*
X21241180Y24396408D01*
X21203579Y24374170D01*
X21189408Y24360000D01*
X21174623Y24347372D01*
X21158412Y24335593D01*
X21130571Y24301941D01*
X21122711Y24293304D01*
X15516208Y18686801D01*
X15503951Y18676980D01*
X15504134Y18676759D01*
X15498122Y18671786D01*
X15452098Y18622777D01*
X15449391Y18619984D01*
X15429889Y18600483D01*
X15429875Y18600466D01*
X15427407Y18597285D01*
X15419843Y18588430D01*
X15389937Y18556582D01*
X15389936Y18556580D01*
X15380284Y18539024D01*
X15369610Y18522774D01*
X15357329Y18506939D01*
X15357324Y18506932D01*
X15339975Y18466842D01*
X15334838Y18456356D01*
X15313803Y18418094D01*
X15308822Y18398693D01*
X15302521Y18380290D01*
X15294562Y18361898D01*
X15294561Y18361895D01*
X15287728Y18318757D01*
X15285360Y18307326D01*
X15274501Y18265029D01*
X15274500Y18265018D01*
X15274500Y18244984D01*
X15272973Y18225585D01*
X15269840Y18205806D01*
X15269840Y18205805D01*
X15273950Y18162326D01*
X15274500Y18150657D01*
X15274500Y8504040D01*
X15254815Y8437001D01*
X15216220Y8398888D01*
X11968157Y6368848D01*
X11902437Y6350000D01*
X5842000Y6350000D01*
X5842000Y1394000D01*
X5822315Y1326961D01*
X5769511Y1281206D01*
X5718000Y1270000D01*
X1394000Y1270000D01*
X1326961Y1289685D01*
X1281206Y1342489D01*
X1270000Y1394000D01*
X1270000Y79118237D01*
X6273777Y79118237D01*
X6303403Y78848987D01*
X6303405Y78848976D01*
X6371916Y78586918D01*
X6371918Y78586912D01*
X6477860Y78337610D01*
X6574681Y78178964D01*
X6618969Y78106395D01*
X6618976Y78106385D01*
X6792243Y77898181D01*
X6792249Y77898176D01*
X6877379Y77821900D01*
X6993988Y77717418D01*
X7219900Y77567956D01*
X7465166Y77452980D01*
X7465173Y77452978D01*
X7465175Y77452977D01*
X7724547Y77374943D01*
X7724554Y77374942D01*
X7724559Y77374940D01*
X7992551Y77335500D01*
X7992556Y77335500D01*
X8195619Y77335500D01*
X8195621Y77335500D01*
X8195626Y77335501D01*
X8195638Y77335501D01*
X8233181Y77338250D01*
X8398146Y77350323D01*
X8510748Y77375407D01*
X8662536Y77409218D01*
X8662538Y77409219D01*
X8662543Y77409220D01*
X8915548Y77505986D01*
X9151767Y77638559D01*
X9366167Y77804112D01*
X9554176Y77999119D01*
X9711789Y78219421D01*
X9785777Y78363331D01*
X9835639Y78460310D01*
X9835641Y78460316D01*
X9835646Y78460325D01*
X9923108Y78716695D01*
X9972309Y78983067D01*
X9979725Y79185994D01*
X11839215Y79185994D01*
X11857882Y78960711D01*
X11913378Y78741561D01*
X12004188Y78534534D01*
X12127832Y78345284D01*
X12127840Y78345273D01*
X12280940Y78178964D01*
X12280944Y78178960D01*
X12459341Y78040107D01*
X12658159Y77932512D01*
X12658162Y77932511D01*
X12871972Y77859110D01*
X12871974Y77859110D01*
X12871976Y77859109D01*
X13094957Y77821900D01*
X13094958Y77821900D01*
X13321022Y77821900D01*
X13321023Y77821900D01*
X13544004Y77859109D01*
X13757821Y77932512D01*
X13956639Y78040107D01*
X14135036Y78178960D01*
X14234822Y78287357D01*
X14288139Y78345273D01*
X14288139Y78345274D01*
X14288146Y78345281D01*
X14374183Y78476972D01*
X14427328Y78522325D01*
X14496559Y78531749D01*
X14559895Y78502247D01*
X14581794Y78476975D01*
X14667834Y78345281D01*
X14667839Y78345276D01*
X14667840Y78345273D01*
X14820940Y78178964D01*
X14820944Y78178960D01*
X14999341Y78040107D01*
X15198159Y77932512D01*
X15198162Y77932511D01*
X15411972Y77859110D01*
X15411974Y77859110D01*
X15411976Y77859109D01*
X15634957Y77821900D01*
X15634958Y77821900D01*
X15861022Y77821900D01*
X15861023Y77821900D01*
X16084004Y77859109D01*
X16297821Y77932512D01*
X16496639Y78040107D01*
X16675036Y78178960D01*
X16774822Y78287357D01*
X16828139Y78345273D01*
X16828139Y78345274D01*
X16828146Y78345281D01*
X16914183Y78476972D01*
X16967328Y78522325D01*
X17036559Y78531749D01*
X17099895Y78502247D01*
X17121794Y78476975D01*
X17207834Y78345281D01*
X17207839Y78345276D01*
X17207840Y78345273D01*
X17360940Y78178964D01*
X17360944Y78178960D01*
X17539341Y78040107D01*
X17738159Y77932512D01*
X17738162Y77932511D01*
X17951972Y77859110D01*
X17951974Y77859110D01*
X17951976Y77859109D01*
X18174957Y77821900D01*
X18174958Y77821900D01*
X18401022Y77821900D01*
X18401023Y77821900D01*
X18624004Y77859109D01*
X18837821Y77932512D01*
X19036639Y78040107D01*
X19215036Y78178960D01*
X19314822Y78287357D01*
X19368139Y78345273D01*
X19368139Y78345274D01*
X19368146Y78345281D01*
X19454183Y78476972D01*
X19507328Y78522325D01*
X19576559Y78531749D01*
X19639895Y78502247D01*
X19661794Y78476975D01*
X19747834Y78345281D01*
X19747839Y78345276D01*
X19747840Y78345273D01*
X19900940Y78178964D01*
X19900944Y78178960D01*
X20079341Y78040107D01*
X20278159Y77932512D01*
X20278162Y77932511D01*
X20491972Y77859110D01*
X20491974Y77859110D01*
X20491976Y77859109D01*
X20714957Y77821900D01*
X20714958Y77821900D01*
X20941022Y77821900D01*
X20941023Y77821900D01*
X21164004Y77859109D01*
X21377821Y77932512D01*
X21576639Y78040107D01*
X21755036Y78178960D01*
X21854822Y78287357D01*
X21908139Y78345273D01*
X21908139Y78345274D01*
X21908146Y78345281D01*
X21994183Y78476972D01*
X22047328Y78522325D01*
X22116559Y78531749D01*
X22179895Y78502247D01*
X22201794Y78476975D01*
X22287834Y78345281D01*
X22287839Y78345276D01*
X22287840Y78345273D01*
X22440940Y78178964D01*
X22440944Y78178960D01*
X22619341Y78040107D01*
X22818159Y77932512D01*
X22818162Y77932511D01*
X23031972Y77859110D01*
X23031974Y77859110D01*
X23031976Y77859109D01*
X23254957Y77821900D01*
X23254958Y77821900D01*
X23481022Y77821900D01*
X23481023Y77821900D01*
X23704004Y77859109D01*
X23917821Y77932512D01*
X24116639Y78040107D01*
X24295036Y78178960D01*
X24394822Y78287357D01*
X24448139Y78345273D01*
X24448139Y78345274D01*
X24448146Y78345281D01*
X24534183Y78476972D01*
X24587328Y78522325D01*
X24656559Y78531749D01*
X24719895Y78502247D01*
X24741794Y78476975D01*
X24827834Y78345281D01*
X24827839Y78345276D01*
X24827840Y78345273D01*
X24980940Y78178964D01*
X24980944Y78178960D01*
X25159341Y78040107D01*
X25358159Y77932512D01*
X25358162Y77932511D01*
X25571972Y77859110D01*
X25571974Y77859110D01*
X25571976Y77859109D01*
X25794957Y77821900D01*
X25794958Y77821900D01*
X26021022Y77821900D01*
X26021023Y77821900D01*
X26244004Y77859109D01*
X26457821Y77932512D01*
X26656639Y78040107D01*
X26835036Y78178960D01*
X26934822Y78287357D01*
X26988139Y78345273D01*
X26988139Y78345274D01*
X26988146Y78345281D01*
X27074183Y78476972D01*
X27127328Y78522325D01*
X27196559Y78531749D01*
X27259895Y78502247D01*
X27281794Y78476975D01*
X27367834Y78345281D01*
X27367839Y78345276D01*
X27367840Y78345273D01*
X27520940Y78178964D01*
X27520944Y78178960D01*
X27699341Y78040107D01*
X27898159Y77932512D01*
X27898162Y77932511D01*
X28111972Y77859110D01*
X28111974Y77859110D01*
X28111976Y77859109D01*
X28334957Y77821900D01*
X28334958Y77821900D01*
X28561022Y77821900D01*
X28561023Y77821900D01*
X28784004Y77859109D01*
X28997821Y77932512D01*
X29196639Y78040107D01*
X29375036Y78178960D01*
X29474822Y78287357D01*
X29528139Y78345273D01*
X29528139Y78345274D01*
X29528146Y78345281D01*
X29614183Y78476972D01*
X29667328Y78522325D01*
X29736559Y78531749D01*
X29799895Y78502247D01*
X29821794Y78476975D01*
X29907834Y78345281D01*
X29907839Y78345276D01*
X29907840Y78345273D01*
X30060940Y78178964D01*
X30060944Y78178960D01*
X30239341Y78040107D01*
X30438159Y77932512D01*
X30438162Y77932511D01*
X30651972Y77859110D01*
X30651974Y77859110D01*
X30651976Y77859109D01*
X30874957Y77821900D01*
X30874958Y77821900D01*
X31101022Y77821900D01*
X31101023Y77821900D01*
X31324004Y77859109D01*
X31537821Y77932512D01*
X31736639Y78040107D01*
X31915036Y78178960D01*
X32014822Y78287357D01*
X32068139Y78345273D01*
X32068141Y78345276D01*
X32068146Y78345281D01*
X32191792Y78534535D01*
X32282601Y78741559D01*
X32338097Y78960707D01*
X32356765Y79185994D01*
X34699215Y79185994D01*
X34717882Y78960711D01*
X34773378Y78741561D01*
X34864188Y78534534D01*
X34987832Y78345284D01*
X34987840Y78345273D01*
X35140940Y78178964D01*
X35140944Y78178960D01*
X35319341Y78040107D01*
X35518159Y77932512D01*
X35518162Y77932511D01*
X35731972Y77859110D01*
X35731974Y77859110D01*
X35731976Y77859109D01*
X35954957Y77821900D01*
X35954958Y77821900D01*
X36181022Y77821900D01*
X36181023Y77821900D01*
X36404004Y77859109D01*
X36617821Y77932512D01*
X36816639Y78040107D01*
X36995036Y78178960D01*
X37094822Y78287357D01*
X37148139Y78345273D01*
X37148139Y78345274D01*
X37148146Y78345281D01*
X37234183Y78476972D01*
X37287328Y78522325D01*
X37356559Y78531749D01*
X37419895Y78502247D01*
X37441794Y78476975D01*
X37527834Y78345281D01*
X37527839Y78345276D01*
X37527840Y78345273D01*
X37680940Y78178964D01*
X37680944Y78178960D01*
X37859341Y78040107D01*
X38058159Y77932512D01*
X38058162Y77932511D01*
X38271972Y77859110D01*
X38271974Y77859110D01*
X38271976Y77859109D01*
X38494957Y77821900D01*
X38494958Y77821900D01*
X38721022Y77821900D01*
X38721023Y77821900D01*
X38944004Y77859109D01*
X39157821Y77932512D01*
X39356639Y78040107D01*
X39535036Y78178960D01*
X39634822Y78287357D01*
X39688139Y78345273D01*
X39688139Y78345274D01*
X39688146Y78345281D01*
X39774183Y78476972D01*
X39827328Y78522325D01*
X39896559Y78531749D01*
X39959895Y78502247D01*
X39981794Y78476975D01*
X40067834Y78345281D01*
X40067839Y78345276D01*
X40067840Y78345273D01*
X40220940Y78178964D01*
X40220944Y78178960D01*
X40399341Y78040107D01*
X40598159Y77932512D01*
X40598162Y77932511D01*
X40811972Y77859110D01*
X40811974Y77859110D01*
X40811976Y77859109D01*
X41034957Y77821900D01*
X41034958Y77821900D01*
X41261022Y77821900D01*
X41261023Y77821900D01*
X41484004Y77859109D01*
X41697821Y77932512D01*
X41896639Y78040107D01*
X42075036Y78178960D01*
X42174822Y78287357D01*
X42228139Y78345273D01*
X42228139Y78345274D01*
X42228146Y78345281D01*
X42314183Y78476972D01*
X42367328Y78522325D01*
X42436559Y78531749D01*
X42499895Y78502247D01*
X42521794Y78476975D01*
X42607834Y78345281D01*
X42607839Y78345276D01*
X42607840Y78345273D01*
X42760940Y78178964D01*
X42760944Y78178960D01*
X42939341Y78040107D01*
X43138159Y77932512D01*
X43138162Y77932511D01*
X43351972Y77859110D01*
X43351974Y77859110D01*
X43351976Y77859109D01*
X43574957Y77821900D01*
X43574958Y77821900D01*
X43801022Y77821900D01*
X43801023Y77821900D01*
X44024004Y77859109D01*
X44237821Y77932512D01*
X44436639Y78040107D01*
X44615036Y78178960D01*
X44714822Y78287357D01*
X44768139Y78345273D01*
X44768139Y78345274D01*
X44768146Y78345281D01*
X44854183Y78476972D01*
X44907328Y78522325D01*
X44976559Y78531749D01*
X45039895Y78502247D01*
X45061794Y78476975D01*
X45147834Y78345281D01*
X45147839Y78345276D01*
X45147840Y78345273D01*
X45300940Y78178964D01*
X45300944Y78178960D01*
X45479341Y78040107D01*
X45678159Y77932512D01*
X45678162Y77932511D01*
X45891972Y77859110D01*
X45891974Y77859110D01*
X45891976Y77859109D01*
X46114957Y77821900D01*
X46114958Y77821900D01*
X46341022Y77821900D01*
X46341023Y77821900D01*
X46564004Y77859109D01*
X46777821Y77932512D01*
X46976639Y78040107D01*
X47155036Y78178960D01*
X47254822Y78287357D01*
X47308139Y78345273D01*
X47308139Y78345274D01*
X47308146Y78345281D01*
X47394183Y78476972D01*
X47447328Y78522325D01*
X47516559Y78531749D01*
X47579895Y78502247D01*
X47601794Y78476975D01*
X47687834Y78345281D01*
X47687839Y78345276D01*
X47687840Y78345273D01*
X47840940Y78178964D01*
X47840944Y78178960D01*
X48019341Y78040107D01*
X48218159Y77932512D01*
X48218162Y77932511D01*
X48431972Y77859110D01*
X48431974Y77859110D01*
X48431976Y77859109D01*
X48654957Y77821900D01*
X48654958Y77821900D01*
X48881022Y77821900D01*
X48881023Y77821900D01*
X49104004Y77859109D01*
X49317821Y77932512D01*
X49516639Y78040107D01*
X49695036Y78178960D01*
X49794822Y78287357D01*
X49848139Y78345273D01*
X49848139Y78345274D01*
X49848146Y78345281D01*
X49934183Y78476972D01*
X49987328Y78522325D01*
X50056559Y78531749D01*
X50119895Y78502247D01*
X50141794Y78476975D01*
X50227834Y78345281D01*
X50227839Y78345276D01*
X50227840Y78345273D01*
X50380940Y78178964D01*
X50380944Y78178960D01*
X50559341Y78040107D01*
X50758159Y77932512D01*
X50758162Y77932511D01*
X50971972Y77859110D01*
X50971974Y77859110D01*
X50971976Y77859109D01*
X51194957Y77821900D01*
X51194958Y77821900D01*
X51421022Y77821900D01*
X51421023Y77821900D01*
X51644004Y77859109D01*
X51857821Y77932512D01*
X52056639Y78040107D01*
X52235036Y78178960D01*
X52334822Y78287357D01*
X52388139Y78345273D01*
X52388139Y78345274D01*
X52388146Y78345281D01*
X52474183Y78476972D01*
X52527328Y78522325D01*
X52596559Y78531749D01*
X52659895Y78502247D01*
X52681794Y78476975D01*
X52767834Y78345281D01*
X52767839Y78345276D01*
X52767840Y78345273D01*
X52920940Y78178964D01*
X52920944Y78178960D01*
X53099341Y78040107D01*
X53298159Y77932512D01*
X53298162Y77932511D01*
X53511972Y77859110D01*
X53511974Y77859110D01*
X53511976Y77859109D01*
X53734957Y77821900D01*
X53734958Y77821900D01*
X53961022Y77821900D01*
X53961023Y77821900D01*
X54184004Y77859109D01*
X54397821Y77932512D01*
X54596639Y78040107D01*
X54775036Y78178960D01*
X54874822Y78287357D01*
X54928139Y78345273D01*
X54928141Y78345276D01*
X54928146Y78345281D01*
X55051792Y78534535D01*
X55142601Y78741559D01*
X55198097Y78960707D01*
X55216765Y79185994D01*
X57559215Y79185994D01*
X57577882Y78960711D01*
X57633378Y78741561D01*
X57724188Y78534534D01*
X57847832Y78345284D01*
X57847840Y78345273D01*
X58000940Y78178964D01*
X58000944Y78178960D01*
X58179341Y78040107D01*
X58378159Y77932512D01*
X58378162Y77932511D01*
X58591972Y77859110D01*
X58591974Y77859110D01*
X58591976Y77859109D01*
X58814957Y77821900D01*
X58814958Y77821900D01*
X59041022Y77821900D01*
X59041023Y77821900D01*
X59264004Y77859109D01*
X59477821Y77932512D01*
X59676639Y78040107D01*
X59855036Y78178960D01*
X59909805Y78238455D01*
X59969689Y78274443D01*
X60039527Y78272343D01*
X60097143Y78232820D01*
X60117214Y78197804D01*
X60161036Y78080312D01*
X60161039Y78080307D01*
X60247199Y77965213D01*
X60247202Y77965210D01*
X60362296Y77879050D01*
X60362303Y77879046D01*
X60497010Y77828804D01*
X60497017Y77828802D01*
X60556545Y77822401D01*
X60556562Y77822400D01*
X61217990Y77822400D01*
X61217990Y78741703D01*
X61323398Y78693565D01*
X61431656Y78678000D01*
X61504324Y78678000D01*
X61612582Y78693565D01*
X61717990Y78741703D01*
X61717990Y77822400D01*
X62379418Y77822400D01*
X62379434Y77822401D01*
X62438962Y77828802D01*
X62438969Y77828804D01*
X62573676Y77879046D01*
X62573679Y77879048D01*
X62663261Y77946109D01*
X62728725Y77970527D01*
X62796998Y77955676D01*
X62811878Y77946114D01*
X62901466Y77879048D01*
X62902058Y77878605D01*
X62902061Y77878603D01*
X63036907Y77828309D01*
X63036906Y77828309D01*
X63043834Y77827565D01*
X63096517Y77821900D01*
X64919462Y77821901D01*
X64979073Y77828309D01*
X65113921Y77878604D01*
X65229136Y77964854D01*
X65315386Y78080069D01*
X65352270Y78178960D01*
X65359144Y78197390D01*
X65401015Y78253324D01*
X65466479Y78277742D01*
X65534752Y78262891D01*
X65566554Y78238043D01*
X65620944Y78178960D01*
X65799341Y78040107D01*
X65998159Y77932512D01*
X65998162Y77932511D01*
X66211972Y77859110D01*
X66211974Y77859110D01*
X66211976Y77859109D01*
X66434957Y77821900D01*
X66434958Y77821900D01*
X66661022Y77821900D01*
X66661023Y77821900D01*
X66884004Y77859109D01*
X67097821Y77932512D01*
X67296639Y78040107D01*
X67475036Y78178960D01*
X67574822Y78287357D01*
X67628139Y78345273D01*
X67628139Y78345274D01*
X67628146Y78345281D01*
X67714183Y78476972D01*
X67767328Y78522325D01*
X67836559Y78531749D01*
X67899895Y78502247D01*
X67921794Y78476975D01*
X68007834Y78345281D01*
X68007839Y78345276D01*
X68007840Y78345273D01*
X68160940Y78178964D01*
X68160944Y78178960D01*
X68339341Y78040107D01*
X68538159Y77932512D01*
X68538162Y77932511D01*
X68751972Y77859110D01*
X68751974Y77859110D01*
X68751976Y77859109D01*
X68974957Y77821900D01*
X68974958Y77821900D01*
X69201022Y77821900D01*
X69201023Y77821900D01*
X69424004Y77859109D01*
X69637821Y77932512D01*
X69836639Y78040107D01*
X70015036Y78178960D01*
X70114822Y78287357D01*
X70168139Y78345273D01*
X70168139Y78345274D01*
X70168146Y78345281D01*
X70254183Y78476972D01*
X70307328Y78522325D01*
X70376559Y78531749D01*
X70439895Y78502247D01*
X70461794Y78476975D01*
X70547834Y78345281D01*
X70547839Y78345276D01*
X70547840Y78345273D01*
X70700940Y78178964D01*
X70700944Y78178960D01*
X70879341Y78040107D01*
X71078159Y77932512D01*
X71078162Y77932511D01*
X71291972Y77859110D01*
X71291974Y77859110D01*
X71291976Y77859109D01*
X71514957Y77821900D01*
X71514958Y77821900D01*
X71741022Y77821900D01*
X71741023Y77821900D01*
X71964004Y77859109D01*
X72177821Y77932512D01*
X72376639Y78040107D01*
X72555036Y78178960D01*
X72654822Y78287357D01*
X72708139Y78345273D01*
X72708139Y78345274D01*
X72708146Y78345281D01*
X72794183Y78476972D01*
X72847328Y78522325D01*
X72916559Y78531749D01*
X72979895Y78502247D01*
X73001794Y78476975D01*
X73087834Y78345281D01*
X73087839Y78345276D01*
X73087840Y78345273D01*
X73240940Y78178964D01*
X73240944Y78178960D01*
X73419341Y78040107D01*
X73618159Y77932512D01*
X73618162Y77932511D01*
X73831972Y77859110D01*
X73831974Y77859110D01*
X73831976Y77859109D01*
X74054957Y77821900D01*
X74054958Y77821900D01*
X74281022Y77821900D01*
X74281023Y77821900D01*
X74504004Y77859109D01*
X74717821Y77932512D01*
X74916639Y78040107D01*
X75095036Y78178960D01*
X75194822Y78287357D01*
X75248139Y78345273D01*
X75248139Y78345274D01*
X75248146Y78345281D01*
X75334183Y78476972D01*
X75387328Y78522325D01*
X75456559Y78531749D01*
X75519895Y78502247D01*
X75541794Y78476975D01*
X75627834Y78345281D01*
X75627839Y78345276D01*
X75627840Y78345273D01*
X75780940Y78178964D01*
X75780944Y78178960D01*
X75959341Y78040107D01*
X76158159Y77932512D01*
X76158162Y77932511D01*
X76371972Y77859110D01*
X76371974Y77859110D01*
X76371976Y77859109D01*
X76594957Y77821900D01*
X76594958Y77821900D01*
X76821022Y77821900D01*
X76821023Y77821900D01*
X77044004Y77859109D01*
X77257821Y77932512D01*
X77456639Y78040107D01*
X77635036Y78178960D01*
X77734822Y78287357D01*
X77788139Y78345273D01*
X77788141Y78345276D01*
X77788146Y78345281D01*
X77911792Y78534535D01*
X78002601Y78741559D01*
X78058097Y78960707D01*
X78071150Y79118237D01*
X88823777Y79118237D01*
X88853403Y78848987D01*
X88853405Y78848976D01*
X88921916Y78586918D01*
X88921918Y78586912D01*
X89027860Y78337610D01*
X89124681Y78178964D01*
X89168969Y78106395D01*
X89168976Y78106385D01*
X89342243Y77898181D01*
X89342249Y77898176D01*
X89427379Y77821900D01*
X89543988Y77717418D01*
X89769900Y77567956D01*
X90015166Y77452980D01*
X90015173Y77452978D01*
X90015175Y77452977D01*
X90274547Y77374943D01*
X90274554Y77374942D01*
X90274559Y77374940D01*
X90542551Y77335500D01*
X90542556Y77335500D01*
X90745619Y77335500D01*
X90745621Y77335500D01*
X90745626Y77335501D01*
X90745638Y77335501D01*
X90783181Y77338250D01*
X90948146Y77350323D01*
X91060748Y77375407D01*
X91212536Y77409218D01*
X91212538Y77409219D01*
X91212543Y77409220D01*
X91465548Y77505986D01*
X91701767Y77638559D01*
X91916167Y77804112D01*
X92104176Y77999119D01*
X92261789Y78219421D01*
X92335777Y78363331D01*
X92385639Y78460310D01*
X92385641Y78460316D01*
X92385646Y78460325D01*
X92473108Y78716695D01*
X92522309Y78983067D01*
X92532202Y79253765D01*
X92502576Y79523018D01*
X92434062Y79785088D01*
X92328120Y80034390D01*
X92187008Y80265610D01*
X92165104Y80291931D01*
X92013736Y80473820D01*
X92013730Y80473825D01*
X91811992Y80654582D01*
X91586082Y80804043D01*
X91586080Y80804044D01*
X91340814Y80919020D01*
X91340809Y80919022D01*
X91340804Y80919024D01*
X91081432Y80997058D01*
X91081418Y80997061D01*
X90965781Y81014079D01*
X90813429Y81036500D01*
X90610359Y81036500D01*
X90610341Y81036500D01*
X90407834Y81021677D01*
X90407821Y81021675D01*
X90143443Y80962783D01*
X90143436Y80962780D01*
X89890429Y80866013D01*
X89654216Y80733443D01*
X89439812Y80567888D01*
X89251812Y80372891D01*
X89251806Y80372884D01*
X89094192Y80152581D01*
X89094189Y80152576D01*
X88970340Y79911691D01*
X88970333Y79911673D01*
X88882874Y79655315D01*
X88882871Y79655301D01*
X88833671Y79388932D01*
X88833670Y79388925D01*
X88823777Y79118237D01*
X78071150Y79118237D01*
X78076765Y79186000D01*
X78076765Y79186007D01*
X78058097Y79411290D01*
X78058097Y79411293D01*
X78002601Y79630441D01*
X77911792Y79837465D01*
X77788146Y80026719D01*
X77788143Y80026722D01*
X77788139Y80026728D01*
X77635039Y80193037D01*
X77635038Y80193038D01*
X77635036Y80193040D01*
X77456639Y80331893D01*
X77380900Y80372881D01*
X77257822Y80439488D01*
X77257817Y80439490D01*
X77044007Y80512891D01*
X76859424Y80543692D01*
X76821023Y80550100D01*
X76594957Y80550100D01*
X76556556Y80543692D01*
X76371972Y80512891D01*
X76158162Y80439490D01*
X76158157Y80439488D01*
X75959342Y80331894D01*
X75780945Y80193041D01*
X75780940Y80193037D01*
X75627840Y80026728D01*
X75627832Y80026717D01*
X75541798Y79895032D01*
X75488652Y79849675D01*
X75419420Y79840252D01*
X75356085Y79869754D01*
X75334182Y79895032D01*
X75248147Y80026717D01*
X75248139Y80026728D01*
X75095039Y80193037D01*
X75095038Y80193038D01*
X75095036Y80193040D01*
X74916639Y80331893D01*
X74840900Y80372881D01*
X74717822Y80439488D01*
X74717817Y80439490D01*
X74504007Y80512891D01*
X74319424Y80543692D01*
X74281023Y80550100D01*
X74054957Y80550100D01*
X74016556Y80543692D01*
X73831972Y80512891D01*
X73618162Y80439490D01*
X73618157Y80439488D01*
X73419342Y80331894D01*
X73240945Y80193041D01*
X73240940Y80193037D01*
X73087840Y80026728D01*
X73087832Y80026717D01*
X73001798Y79895032D01*
X72948652Y79849675D01*
X72879420Y79840252D01*
X72816085Y79869754D01*
X72794182Y79895032D01*
X72708147Y80026717D01*
X72708139Y80026728D01*
X72555039Y80193037D01*
X72555038Y80193038D01*
X72555036Y80193040D01*
X72376639Y80331893D01*
X72300900Y80372881D01*
X72177822Y80439488D01*
X72177817Y80439490D01*
X71964007Y80512891D01*
X71779424Y80543692D01*
X71741023Y80550100D01*
X71514957Y80550100D01*
X71476556Y80543692D01*
X71291972Y80512891D01*
X71078162Y80439490D01*
X71078157Y80439488D01*
X70879342Y80331894D01*
X70700945Y80193041D01*
X70700940Y80193037D01*
X70547840Y80026728D01*
X70547832Y80026717D01*
X70461798Y79895032D01*
X70408652Y79849675D01*
X70339420Y79840252D01*
X70276085Y79869754D01*
X70254182Y79895032D01*
X70168147Y80026717D01*
X70168139Y80026728D01*
X70015039Y80193037D01*
X70015038Y80193038D01*
X70015036Y80193040D01*
X69836639Y80331893D01*
X69760900Y80372881D01*
X69637822Y80439488D01*
X69637817Y80439490D01*
X69424007Y80512891D01*
X69239424Y80543692D01*
X69201023Y80550100D01*
X68974957Y80550100D01*
X68936556Y80543692D01*
X68751972Y80512891D01*
X68538162Y80439490D01*
X68538157Y80439488D01*
X68339342Y80331894D01*
X68160945Y80193041D01*
X68160940Y80193037D01*
X68007840Y80026728D01*
X68007832Y80026717D01*
X67921798Y79895032D01*
X67868652Y79849675D01*
X67799420Y79840252D01*
X67736085Y79869754D01*
X67714182Y79895032D01*
X67628147Y80026717D01*
X67628139Y80026728D01*
X67475039Y80193037D01*
X67475038Y80193038D01*
X67475036Y80193040D01*
X67296639Y80331893D01*
X67220900Y80372881D01*
X67097822Y80439488D01*
X67097817Y80439490D01*
X66884007Y80512891D01*
X66699424Y80543692D01*
X66661023Y80550100D01*
X66434957Y80550100D01*
X66396556Y80543692D01*
X66211972Y80512891D01*
X65998162Y80439490D01*
X65998157Y80439488D01*
X65799342Y80331894D01*
X65620945Y80193042D01*
X65566555Y80133959D01*
X65506667Y80097969D01*
X65436829Y80100070D01*
X65379213Y80139595D01*
X65359144Y80174610D01*
X65315387Y80291929D01*
X65315383Y80291936D01*
X65229137Y80407145D01*
X65229134Y80407148D01*
X65113925Y80493394D01*
X65113918Y80493398D01*
X64979072Y80543692D01*
X64979073Y80543692D01*
X64919473Y80550099D01*
X64919471Y80550100D01*
X64919463Y80550100D01*
X64919454Y80550100D01*
X63096519Y80550100D01*
X63096513Y80550099D01*
X63036906Y80543692D01*
X62902061Y80493398D01*
X62902059Y80493396D01*
X62811884Y80425891D01*
X62746420Y80401474D01*
X62678147Y80416325D01*
X62663262Y80425891D01*
X62573678Y80492954D01*
X62573676Y80492955D01*
X62438969Y80543197D01*
X62438962Y80543199D01*
X62379434Y80549600D01*
X61717990Y80549600D01*
X61717990Y79630298D01*
X61612582Y79678435D01*
X61504324Y79694000D01*
X61431656Y79694000D01*
X61323398Y79678435D01*
X61217990Y79630298D01*
X61217990Y80549600D01*
X60556545Y80549600D01*
X60497017Y80543199D01*
X60497010Y80543197D01*
X60362303Y80492955D01*
X60362296Y80492951D01*
X60247202Y80406791D01*
X60247199Y80406788D01*
X60161039Y80291694D01*
X60161036Y80291688D01*
X60117214Y80174197D01*
X60075342Y80118264D01*
X60009877Y80093847D01*
X59941605Y80108699D01*
X59909803Y80133548D01*
X59855039Y80193037D01*
X59855038Y80193038D01*
X59855036Y80193040D01*
X59676639Y80331893D01*
X59600900Y80372881D01*
X59477822Y80439488D01*
X59477817Y80439490D01*
X59264007Y80512891D01*
X59079424Y80543692D01*
X59041023Y80550100D01*
X58814957Y80550100D01*
X58776556Y80543692D01*
X58591972Y80512891D01*
X58378162Y80439490D01*
X58378157Y80439488D01*
X58179342Y80331894D01*
X58000945Y80193041D01*
X58000940Y80193037D01*
X57847840Y80026728D01*
X57847832Y80026717D01*
X57724188Y79837467D01*
X57633378Y79630440D01*
X57577882Y79411290D01*
X57559215Y79186007D01*
X57559215Y79185994D01*
X55216765Y79185994D01*
X55216765Y79186000D01*
X55216765Y79186007D01*
X55198097Y79411290D01*
X55198097Y79411293D01*
X55142601Y79630441D01*
X55051792Y79837465D01*
X54928146Y80026719D01*
X54928143Y80026722D01*
X54928139Y80026728D01*
X54775039Y80193037D01*
X54775038Y80193038D01*
X54775036Y80193040D01*
X54596639Y80331893D01*
X54520900Y80372881D01*
X54397822Y80439488D01*
X54397817Y80439490D01*
X54184007Y80512891D01*
X53999424Y80543692D01*
X53961023Y80550100D01*
X53734957Y80550100D01*
X53696556Y80543692D01*
X53511972Y80512891D01*
X53298162Y80439490D01*
X53298157Y80439488D01*
X53099342Y80331894D01*
X52920945Y80193041D01*
X52920940Y80193037D01*
X52767840Y80026728D01*
X52767832Y80026717D01*
X52681798Y79895032D01*
X52628652Y79849675D01*
X52559420Y79840252D01*
X52496085Y79869754D01*
X52474182Y79895032D01*
X52388147Y80026717D01*
X52388139Y80026728D01*
X52235039Y80193037D01*
X52235038Y80193038D01*
X52235036Y80193040D01*
X52056639Y80331893D01*
X51980900Y80372881D01*
X51857822Y80439488D01*
X51857817Y80439490D01*
X51644007Y80512891D01*
X51459424Y80543692D01*
X51421023Y80550100D01*
X51194957Y80550100D01*
X51156556Y80543692D01*
X50971972Y80512891D01*
X50758162Y80439490D01*
X50758157Y80439488D01*
X50559342Y80331894D01*
X50380945Y80193041D01*
X50380940Y80193037D01*
X50227840Y80026728D01*
X50227832Y80026717D01*
X50141798Y79895032D01*
X50088652Y79849675D01*
X50019420Y79840252D01*
X49956085Y79869754D01*
X49934182Y79895032D01*
X49848147Y80026717D01*
X49848139Y80026728D01*
X49695039Y80193037D01*
X49695038Y80193038D01*
X49695036Y80193040D01*
X49516639Y80331893D01*
X49440900Y80372881D01*
X49317822Y80439488D01*
X49317817Y80439490D01*
X49104007Y80512891D01*
X48919424Y80543692D01*
X48881023Y80550100D01*
X48654957Y80550100D01*
X48616556Y80543692D01*
X48431972Y80512891D01*
X48218162Y80439490D01*
X48218157Y80439488D01*
X48019342Y80331894D01*
X47840945Y80193041D01*
X47840940Y80193037D01*
X47687840Y80026728D01*
X47687832Y80026717D01*
X47601798Y79895032D01*
X47548652Y79849675D01*
X47479420Y79840252D01*
X47416085Y79869754D01*
X47394182Y79895032D01*
X47308147Y80026717D01*
X47308139Y80026728D01*
X47155039Y80193037D01*
X47155038Y80193038D01*
X47155036Y80193040D01*
X46976639Y80331893D01*
X46900900Y80372881D01*
X46777822Y80439488D01*
X46777817Y80439490D01*
X46564007Y80512891D01*
X46379424Y80543692D01*
X46341023Y80550100D01*
X46114957Y80550100D01*
X46076556Y80543692D01*
X45891972Y80512891D01*
X45678162Y80439490D01*
X45678157Y80439488D01*
X45479342Y80331894D01*
X45300945Y80193041D01*
X45300940Y80193037D01*
X45147840Y80026728D01*
X45147832Y80026717D01*
X45061798Y79895032D01*
X45008652Y79849675D01*
X44939420Y79840252D01*
X44876085Y79869754D01*
X44854182Y79895032D01*
X44768147Y80026717D01*
X44768139Y80026728D01*
X44615039Y80193037D01*
X44615038Y80193038D01*
X44615036Y80193040D01*
X44436639Y80331893D01*
X44360900Y80372881D01*
X44237822Y80439488D01*
X44237817Y80439490D01*
X44024007Y80512891D01*
X43839424Y80543692D01*
X43801023Y80550100D01*
X43574957Y80550100D01*
X43536556Y80543692D01*
X43351972Y80512891D01*
X43138162Y80439490D01*
X43138157Y80439488D01*
X42939342Y80331894D01*
X42760945Y80193041D01*
X42760940Y80193037D01*
X42607840Y80026728D01*
X42607832Y80026717D01*
X42521798Y79895032D01*
X42468652Y79849675D01*
X42399420Y79840252D01*
X42336085Y79869754D01*
X42314182Y79895032D01*
X42228147Y80026717D01*
X42228139Y80026728D01*
X42075039Y80193037D01*
X42075038Y80193038D01*
X42075036Y80193040D01*
X41896639Y80331893D01*
X41820900Y80372881D01*
X41697822Y80439488D01*
X41697817Y80439490D01*
X41484007Y80512891D01*
X41299424Y80543692D01*
X41261023Y80550100D01*
X41034957Y80550100D01*
X40996556Y80543692D01*
X40811972Y80512891D01*
X40598162Y80439490D01*
X40598157Y80439488D01*
X40399342Y80331894D01*
X40220945Y80193041D01*
X40220940Y80193037D01*
X40067840Y80026728D01*
X40067832Y80026717D01*
X39981798Y79895032D01*
X39928652Y79849675D01*
X39859420Y79840252D01*
X39796085Y79869754D01*
X39774182Y79895032D01*
X39688147Y80026717D01*
X39688139Y80026728D01*
X39535039Y80193037D01*
X39535038Y80193038D01*
X39535036Y80193040D01*
X39356639Y80331893D01*
X39280900Y80372881D01*
X39157822Y80439488D01*
X39157817Y80439490D01*
X38944007Y80512891D01*
X38759424Y80543692D01*
X38721023Y80550100D01*
X38494957Y80550100D01*
X38456556Y80543692D01*
X38271972Y80512891D01*
X38058162Y80439490D01*
X38058157Y80439488D01*
X37859342Y80331894D01*
X37680945Y80193041D01*
X37680940Y80193037D01*
X37527840Y80026728D01*
X37527832Y80026717D01*
X37441798Y79895032D01*
X37388652Y79849675D01*
X37319420Y79840252D01*
X37256085Y79869754D01*
X37234182Y79895032D01*
X37148147Y80026717D01*
X37148139Y80026728D01*
X36995039Y80193037D01*
X36995038Y80193038D01*
X36995036Y80193040D01*
X36816639Y80331893D01*
X36740900Y80372881D01*
X36617822Y80439488D01*
X36617817Y80439490D01*
X36404007Y80512891D01*
X36219424Y80543692D01*
X36181023Y80550100D01*
X35954957Y80550100D01*
X35916556Y80543692D01*
X35731972Y80512891D01*
X35518162Y80439490D01*
X35518157Y80439488D01*
X35319342Y80331894D01*
X35140945Y80193041D01*
X35140940Y80193037D01*
X34987840Y80026728D01*
X34987832Y80026717D01*
X34864188Y79837467D01*
X34773378Y79630440D01*
X34717882Y79411290D01*
X34699215Y79186007D01*
X34699215Y79185994D01*
X32356765Y79185994D01*
X32356765Y79186000D01*
X32356765Y79186007D01*
X32338097Y79411290D01*
X32338097Y79411293D01*
X32282601Y79630441D01*
X32191792Y79837465D01*
X32068146Y80026719D01*
X32068143Y80026722D01*
X32068139Y80026728D01*
X31915039Y80193037D01*
X31915038Y80193038D01*
X31915036Y80193040D01*
X31736639Y80331893D01*
X31660900Y80372881D01*
X31537822Y80439488D01*
X31537817Y80439490D01*
X31324007Y80512891D01*
X31139424Y80543692D01*
X31101023Y80550100D01*
X30874957Y80550100D01*
X30836556Y80543692D01*
X30651972Y80512891D01*
X30438162Y80439490D01*
X30438157Y80439488D01*
X30239342Y80331894D01*
X30060945Y80193041D01*
X30060940Y80193037D01*
X29907840Y80026728D01*
X29907832Y80026717D01*
X29821798Y79895032D01*
X29768652Y79849675D01*
X29699420Y79840252D01*
X29636085Y79869754D01*
X29614182Y79895032D01*
X29528147Y80026717D01*
X29528139Y80026728D01*
X29375039Y80193037D01*
X29375038Y80193038D01*
X29375036Y80193040D01*
X29196639Y80331893D01*
X29120900Y80372881D01*
X28997822Y80439488D01*
X28997817Y80439490D01*
X28784007Y80512891D01*
X28599424Y80543692D01*
X28561023Y80550100D01*
X28334957Y80550100D01*
X28296556Y80543692D01*
X28111972Y80512891D01*
X27898162Y80439490D01*
X27898157Y80439488D01*
X27699342Y80331894D01*
X27520945Y80193041D01*
X27520940Y80193037D01*
X27367840Y80026728D01*
X27367832Y80026717D01*
X27281798Y79895032D01*
X27228652Y79849675D01*
X27159420Y79840252D01*
X27096085Y79869754D01*
X27074182Y79895032D01*
X26988147Y80026717D01*
X26988139Y80026728D01*
X26835039Y80193037D01*
X26835038Y80193038D01*
X26835036Y80193040D01*
X26656639Y80331893D01*
X26580900Y80372881D01*
X26457822Y80439488D01*
X26457817Y80439490D01*
X26244007Y80512891D01*
X26059424Y80543692D01*
X26021023Y80550100D01*
X25794957Y80550100D01*
X25756556Y80543692D01*
X25571972Y80512891D01*
X25358162Y80439490D01*
X25358157Y80439488D01*
X25159342Y80331894D01*
X24980945Y80193041D01*
X24980940Y80193037D01*
X24827840Y80026728D01*
X24827832Y80026717D01*
X24741798Y79895032D01*
X24688652Y79849675D01*
X24619420Y79840252D01*
X24556085Y79869754D01*
X24534182Y79895032D01*
X24448147Y80026717D01*
X24448139Y80026728D01*
X24295039Y80193037D01*
X24295038Y80193038D01*
X24295036Y80193040D01*
X24116639Y80331893D01*
X24040900Y80372881D01*
X23917822Y80439488D01*
X23917817Y80439490D01*
X23704007Y80512891D01*
X23519424Y80543692D01*
X23481023Y80550100D01*
X23254957Y80550100D01*
X23216556Y80543692D01*
X23031972Y80512891D01*
X22818162Y80439490D01*
X22818157Y80439488D01*
X22619342Y80331894D01*
X22440945Y80193041D01*
X22440940Y80193037D01*
X22287840Y80026728D01*
X22287832Y80026717D01*
X22201798Y79895032D01*
X22148652Y79849675D01*
X22079420Y79840252D01*
X22016085Y79869754D01*
X21994182Y79895032D01*
X21908147Y80026717D01*
X21908139Y80026728D01*
X21755039Y80193037D01*
X21755038Y80193038D01*
X21755036Y80193040D01*
X21576639Y80331893D01*
X21500900Y80372881D01*
X21377822Y80439488D01*
X21377817Y80439490D01*
X21164007Y80512891D01*
X20979424Y80543692D01*
X20941023Y80550100D01*
X20714957Y80550100D01*
X20676556Y80543692D01*
X20491972Y80512891D01*
X20278162Y80439490D01*
X20278157Y80439488D01*
X20079342Y80331894D01*
X19900945Y80193041D01*
X19900940Y80193037D01*
X19747840Y80026728D01*
X19747832Y80026717D01*
X19661798Y79895032D01*
X19608652Y79849675D01*
X19539420Y79840252D01*
X19476085Y79869754D01*
X19454182Y79895032D01*
X19368147Y80026717D01*
X19368139Y80026728D01*
X19215039Y80193037D01*
X19215038Y80193038D01*
X19215036Y80193040D01*
X19036639Y80331893D01*
X18960900Y80372881D01*
X18837822Y80439488D01*
X18837817Y80439490D01*
X18624007Y80512891D01*
X18439424Y80543692D01*
X18401023Y80550100D01*
X18174957Y80550100D01*
X18136556Y80543692D01*
X17951972Y80512891D01*
X17738162Y80439490D01*
X17738157Y80439488D01*
X17539342Y80331894D01*
X17360945Y80193041D01*
X17360940Y80193037D01*
X17207840Y80026728D01*
X17207832Y80026717D01*
X17121798Y79895032D01*
X17068652Y79849675D01*
X16999420Y79840252D01*
X16936085Y79869754D01*
X16914182Y79895032D01*
X16828147Y80026717D01*
X16828139Y80026728D01*
X16675039Y80193037D01*
X16675038Y80193038D01*
X16675036Y80193040D01*
X16496639Y80331893D01*
X16420900Y80372881D01*
X16297822Y80439488D01*
X16297817Y80439490D01*
X16084007Y80512891D01*
X15899424Y80543692D01*
X15861023Y80550100D01*
X15634957Y80550100D01*
X15596556Y80543692D01*
X15411972Y80512891D01*
X15198162Y80439490D01*
X15198157Y80439488D01*
X14999342Y80331894D01*
X14820945Y80193041D01*
X14820940Y80193037D01*
X14667840Y80026728D01*
X14667832Y80026717D01*
X14581798Y79895032D01*
X14528652Y79849675D01*
X14459420Y79840252D01*
X14396085Y79869754D01*
X14374182Y79895032D01*
X14288147Y80026717D01*
X14288139Y80026728D01*
X14135039Y80193037D01*
X14135038Y80193038D01*
X14135036Y80193040D01*
X13956639Y80331893D01*
X13880900Y80372881D01*
X13757822Y80439488D01*
X13757817Y80439490D01*
X13544007Y80512891D01*
X13359424Y80543692D01*
X13321023Y80550100D01*
X13094957Y80550100D01*
X13056556Y80543692D01*
X12871972Y80512891D01*
X12658162Y80439490D01*
X12658157Y80439488D01*
X12459342Y80331894D01*
X12280945Y80193041D01*
X12280940Y80193037D01*
X12127840Y80026728D01*
X12127832Y80026717D01*
X12004188Y79837467D01*
X11913378Y79630440D01*
X11857882Y79411290D01*
X11839215Y79186007D01*
X11839215Y79185994D01*
X9979725Y79185994D01*
X9982202Y79253765D01*
X9952576Y79523018D01*
X9884062Y79785088D01*
X9778120Y80034390D01*
X9637008Y80265610D01*
X9615104Y80291931D01*
X9463736Y80473820D01*
X9463730Y80473825D01*
X9261992Y80654582D01*
X9036082Y80804043D01*
X9036080Y80804044D01*
X8790814Y80919020D01*
X8790809Y80919022D01*
X8790804Y80919024D01*
X8531432Y80997058D01*
X8531418Y80997061D01*
X8415781Y81014079D01*
X8263429Y81036500D01*
X8060359Y81036500D01*
X8060341Y81036500D01*
X7857834Y81021677D01*
X7857821Y81021675D01*
X7593443Y80962783D01*
X7593436Y80962780D01*
X7340429Y80866013D01*
X7104216Y80733443D01*
X6889812Y80567888D01*
X6701812Y80372891D01*
X6701806Y80372884D01*
X6544192Y80152581D01*
X6544189Y80152576D01*
X6420340Y79911691D01*
X6420333Y79911673D01*
X6332874Y79655315D01*
X6332871Y79655301D01*
X6283671Y79388932D01*
X6283670Y79388925D01*
X6273777Y79118237D01*
X1270000Y79118237D01*
X1270000Y97666000D01*
X1289685Y97733039D01*
X1342489Y97778794D01*
X1394000Y97790000D01*
X112652000Y97790000D01*
X112719039Y97770315D01*
G37*
%TD.AperFunction*%
%TD*%
M02*
