%TF.GenerationSoftware,KiCad,Pcbnew,7.0.9*%
%TF.CreationDate,2023-11-10T10:13:10-06:00*%
%TF.ProjectId,controlSemaforicoMEga,636f6e74-726f-46c5-9365-6d61666f7269,rev?*%
%TF.SameCoordinates,PX4ef7d2aPY852b4f0*%
%TF.FileFunction,Legend,Bot*%
%TF.FilePolarity,Positive*%
%FSLAX46Y46*%
G04 Gerber Fmt 4.6, Leading zero omitted, Abs format (unit mm)*
G04 Created by KiCad (PCBNEW 7.0.9) date 2023-11-10 10:13:10*
%MOMM*%
%LPD*%
G01*
G04 APERTURE LIST*
%ADD10C,0.150000*%
G04 APERTURE END LIST*
D10*
X102822275Y27200896D02*
X102346085Y27200896D01*
X102917513Y26915181D02*
X102584180Y27915181D01*
X102584180Y27915181D02*
X102250847Y26915181D01*
X101393704Y26915181D02*
X101965132Y26915181D01*
X101679418Y26915181D02*
X101679418Y27915181D01*
X101679418Y27915181D02*
X101774656Y27772324D01*
X101774656Y27772324D02*
X101869894Y27677086D01*
X101869894Y27677086D02*
X101965132Y27629467D01*
X40409895Y33285820D02*
X40409895Y32285820D01*
X40409895Y32285820D02*
X40647990Y32285820D01*
X40647990Y32285820D02*
X40790847Y32333439D01*
X40790847Y32333439D02*
X40886085Y32428677D01*
X40886085Y32428677D02*
X40933704Y32523915D01*
X40933704Y32523915D02*
X40981323Y32714391D01*
X40981323Y32714391D02*
X40981323Y32857248D01*
X40981323Y32857248D02*
X40933704Y33047724D01*
X40933704Y33047724D02*
X40886085Y33142962D01*
X40886085Y33142962D02*
X40790847Y33238200D01*
X40790847Y33238200D02*
X40647990Y33285820D01*
X40647990Y33285820D02*
X40409895Y33285820D01*
X41600371Y32285820D02*
X41695609Y32285820D01*
X41695609Y32285820D02*
X41790847Y32333439D01*
X41790847Y32333439D02*
X41838466Y32381058D01*
X41838466Y32381058D02*
X41886085Y32476296D01*
X41886085Y32476296D02*
X41933704Y32666772D01*
X41933704Y32666772D02*
X41933704Y32904867D01*
X41933704Y32904867D02*
X41886085Y33095343D01*
X41886085Y33095343D02*
X41838466Y33190581D01*
X41838466Y33190581D02*
X41790847Y33238200D01*
X41790847Y33238200D02*
X41695609Y33285820D01*
X41695609Y33285820D02*
X41600371Y33285820D01*
X41600371Y33285820D02*
X41505133Y33238200D01*
X41505133Y33238200D02*
X41457514Y33190581D01*
X41457514Y33190581D02*
X41409895Y33095343D01*
X41409895Y33095343D02*
X41362276Y32904867D01*
X41362276Y32904867D02*
X41362276Y32666772D01*
X41362276Y32666772D02*
X41409895Y32476296D01*
X41409895Y32476296D02*
X41457514Y32381058D01*
X41457514Y32381058D02*
X41505133Y32333439D01*
X41505133Y32333439D02*
X41600371Y32285820D01*
X42163990Y49362420D02*
X42211609Y49314800D01*
X42211609Y49314800D02*
X42163990Y49267181D01*
X42163990Y49267181D02*
X42116371Y49314800D01*
X42116371Y49314800D02*
X42163990Y49362420D01*
X42163990Y49362420D02*
X42163990Y49267181D01*
%TO.C,A1*%
X104647990Y28386000D02*
X104647990Y81726000D01*
X104647990Y28386000D02*
X7111990Y28386000D01*
X104647990Y81726000D02*
X5587990Y81726000D01*
X7111990Y28386000D02*
X5587990Y29910000D01*
X5587990Y41086000D02*
X5587990Y29910000D01*
X5587990Y80456000D02*
X3047990Y77916000D01*
X5587990Y81726000D02*
X5587990Y80456000D01*
X3047990Y43626000D02*
X5587990Y41086000D01*
X3047990Y77916000D02*
X3047990Y43626000D01*
%TD*%
M02*
